<?xml version="1.0" encoding="utf-8" ?>
<svg baseProfile="full" height="300mm" version="1.1" viewBox="0,0,200,300" width="200mm" xmlns="http://www.w3.org/2000/svg" xmlns:ev="http://www.w3.org/2001/xml-events" xmlns:xlink="http://www.w3.org/1999/xlink"><defs /><rect fill="#222222" height="300" width="200" x="0" y="0" /><text fill="#FFFFFF" style="font-size:12px; font-family:Arial; font-weight:bold;" x="10" y="20">Over 10km Runs</text><text fill="#FFFFFF" style="font-size:4px; font-family:Arial" x="10" y="280">ATHLETE</text><text fill="#FFFFFF" style="font-size:9px; font-family:Arial" x="10" y="290">yihong0618</text><text fill="#FFFFFF" style="font-size:4px; font-family:Arial" x="120" y="280">STATISTICS</text><text fill="#FFFFFF" style="font-size:3px; font-family:Arial" x="120" y="285">Number: 6</text><text fill="#FFFFFF" style="font-size:3px; font-family:Arial" x="120" y="290">Weekly: 1.0</text><text fill="#FFFFFF" style="font-size:3px; font-family:Arial" x="141" y="285">Total: 60.2 km</text><text fill="#FFFFFF" style="font-size:3px; font-family:Arial" x="141" y="290">Avg: 10.0 km</text><text fill="#FFFFFF" style="font-size:3px; font-family:Arial" x="167" y="285">Min: 10.0 km</text><text fill="#FFFFFF" style="font-size:3px; font-family:Arial" x="167" y="290">Max: 10.1 km</text><polyline fill="none" points="51.048054403741844,34.0 50.948239698656835,34.93653509824071 50.948239698656835,35.476843006763374 50.914968130295165,35.98112985875923 51.048054403741844,36.52143663298921 51.048054403741844,36.9536816298496 51.713485771324486,37.16980398746091 52.67836125427857,37.13378360110801 53.47687889530789,37.13378360110801 53.90940928424243,37.24184475251241 54.57484065182507,37.42194661934627 55.20700045081321,37.63806877360912 55.50644456630107,37.493987347959774 56.43804848077707,37.34990588048822 57.402923963731155,37.34990588048822 58.168170036398806,37.7101094709069 58.500885720248334,38.250414367445046 58.70051513053477,38.93479972757632 58.93341610918287,39.799285152577795 59.133045519469306,40.80784958350705 59.49903277156409,41.42019127626554 60.097921002306975,41.636311693815514 60.53045139124151,41.564271565090166 61.36224060051609,41.81641197000863 62.29384451522492,41.78039191995049 63.49162097682711,41.60029163068975 64.42322489130311,41.564271565090166 64.62285430158954,42.24865236700862 64.62285430158954,42.89701225844328 64.48976802814286,43.581391227286076 64.3234101862181,44.15770962878014 64.22359548101667,44.9501463410852 63.85760822892189,45.706562025501626 63.25871999806259,46.17481877771206 62.62656019895803,46.64307508931961 62.6598317673197,47.327448905823985 63.29199156654067,47.43550784350373 64.25686704949476,47.21938994474476 65.38810037425719,47.39948820017162 65.92044546827674,47.86774335932569 65.8539023315534,48.48007636406692 65.88717390003148,49.38056470811716 65.75408762635197,50.28105142261484 65.88717390003148,50.96542023579241 66.12007487856317,51.75784610680421 66.25316115212627,52.58628998644417 66.15334644704126,53.37871327641187 66.18661801528651,54.099096990481485 66.18661801528651,54.81947966176085 66.05353174183983,55.539861290191766 65.92044546827674,56.440336859290255 65.48791507945862,57.3768297227507 65.42137194261886,58.34933967725374 65.58772978454363,59.21379137467011 65.62100135278888,60.078241570619866 65.88717390003148,60.87065293107298 65.78735919471364,61.66306302999146 65.28828566917218,62.527508971630596 64.95556998532265,63.31991643246147 64.88902684859931,64.18435949625564 64.95556998532265,65.15685614841641 65.05538469040766,66.05731431726599 65.28828566917218,66.95777085691225 65.52118664782029,67.714153091365 65.82063076307531,68.50655229447875 66.28643272048794,69.33496829430806 66.75223467766773,70.05532891265466 67.28457977180369,70.99179615775938 67.58402388717514,71.92826164094731 67.61729545542039,72.79268975398736 67.5174807504518,73.76516958669527 67.2513082033256,74.73764751947601 66.75223467766773,75.53003554136376 66.0868033102015,76.21436963614542 65.42137194261886,76.82666776556289 64.72266900679097,77.33091271831654 64.15705234440975,77.94320947426604 63.79106509219855,78.77160976885352 63.69125038711354,79.74407792076818 63.824336660443805,80.60849246088765 64.25686704949476,81.29281957403873 64.82248371187598,81.94112860280438 65.32155723753385,82.66147097796784 65.72081605810672,83.56189748103498 65.92044546827674,84.49833931657486 65.98698860500008,85.47079628129723 65.88717390003148,86.40723452603561 65.62100135278888,87.34367100929376 65.22174253233243,88.20807235344546 64.62285430158954,88.964422298508 63.9574229340069,89.57670474570477 63.3585347031476,90.11695333843818 62.6598317673197,90.2250029866409 61.79477098956704,90.15296989039052 60.896438643336296,89.93687053935719 60.03137786546722,89.79280425308389 59.33267492975574,89.54068815193023 58.534157288610004,89.21653869145666 57.63582494237926,88.964422298508 56.770764164743014,88.78433908245643 56.27169063896872,89.32458853512071 56.10533279716037,90.15296989039052 55.90570338687394,90.98134986741934 55.73934554506559,91.88176132258377 55.539716134779155,92.74615478751366 55.34008672449272,93.64656305089011 55.17372888268437,94.47493721501087 55.04064260900486,95.37534235190833 54.90755633544177,96.23972975136712 54.508297514985316,96.96005143786897 53.84286614751909,97.60834006476216 53.34379262186121,98.2926438106806 52.97780536976643,99.01296252722386 52.74490439100191,99.8053119117103 52.611818117438816,100.70570740912808 52.545274980715476,101.64211699922453 52.57854654919356,102.32641520127072 52.34564557054546,103.15477492456557 51.54712792951614,103.83907104778336 50.54898087820038,104.05516436495236 49.48429069016129,104.01914881865378 48.71904461749364,103.76703992119292 47.820712271146476,103.62297763681272 46.955651493393816,103.83907104778336 46.157133852364495,104.2352420577663 45.55824562162161,104.91953669613576 44.89281425403897,105.53179952283972 44.06102504464798,105.85593836160842 43.26250740350224,105.96398459427292 42.43071819411125,106.0 41.53238584799692,105.85593836160842 40.60078193328809,105.49578408323578 39.66917801881209,105.24367593342322 38.8373888094211,105.13562954444205 38.005599599913694,105.17164501003572 37.14053882227745,105.09961407622905 36.14239177084528,104.91953669613576 35.41041726665571,104.48735071811825 34.74498589907307,103.8030554857396 34.179369236691855,103.04672808223404 33.71356727939565,102.32641520127072 33.214493753621355,101.53406982863089 32.81523493328132,100.66969162042369 32.48251924943179,99.84132776295883 32.24961827066727,99.04897843574872 32.316161407507025,98.1125639687234 32.51579081779346,97.21216378203826 33.048135911813006,96.31176196690649 33.64702414267231,95.5194070226571 34.345727078500204,94.94314808942727 35.24405942473095,94.43892097569187 36.07584863412194,94.00672590025351 36.87436627515126,93.5024978381407 37.50652607437223,92.9262365703762 38.005599599913694,92.16989264430595 38.30504371540155,91.30549817890278 38.50467312557157,90.47711874119705 38.671030967496336,89.61272133680177 38.60448783065658,88.71230577776441 38.637759399134666,87.95595544978278 38.77084567269776,86.94748655837611 38.937203514622524,86.01104932979797 39.13683292490896,85.18266108239186 39.40300547191873,84.2462205341144 39.602634882205166,83.45384638672112 39.8022642924916,82.48138548186398 40.10170840774663,81.61697419392294 40.76713977532927,80.89663030742668 41.632200552965514,80.2843371843046 42.364175057504326,79.8881471150089 43.09614956169389,79.45593940714025 43.92793877108488,79.27585275136516 44.92608582240064,79.3478874215798 45.89096130535472,79.60000868482166 46.82256521994714,79.85212982038502 47.62108286086004,80.03221626763116 48.65250148065388,80.32035444767098 49.55083382688463,80.57247521838872 50.24953676271252,80.93264752652613 50.98151126713492,81.50892267739982 51.28095538250636,82.37333415306057 51.74675733980257,83.12969296282972 52.478731843992136,83.48986342074932 53.17743477982003,83.77799959943513 53.84286614751909,84.35427145651192 54.24212496797554,85.11062725662487 54.408482809900306,86.01104932979797 54.641383788431995,86.83943619878846 55.14045731420629,87.55977148609236 55.90570338687394,88.1720556608052 56.57113475445658,88.74832243143464 56.504591617616825,89.57670474570477 56.27169063896872,90.44110221267329 56.03878966032062,91.23346523896907 55.87243181839585,92.06184341816697 55.63953083974775,93.07030194989056 55.4731729979394,93.93469335127156 55.306815156014636,94.79908325191354 55.17372888268437,95.55542318389053 55.07391417736653,96.383794172114 54.408482809900306,97.03208354921662 53.77632301056292,97.68037208230817 53.31052105338313,98.40069168462651 52.944533801288344,99.12101024482399 52.778175959479995,100.05742281512357 52.611818117438816,101.06586515216623 52.478731843992136,101.89422697256668 52.44546027551405,102.65055612669676 52.0462014550576,103.44289972257684 51.28095538250636,103.98313326970674 50.3826230361592,104.09117990874802 49.41774755320512,104.01914881865378 48.55268677556887,103.83907104778336 47.6876259976998,103.73102435402689 46.922379925032146,103.94711771814036 46.123862284002826,104.45133520301897 45.524974053143524,105.13562954444205 44.85954268556088,105.63984582584817 44.127568181371316,105.89195377510623 43.295778971980326,105.96398459427292 42.46398976247292,105.89195377510623 41.53238584799692,105.67586125506205 40.667325070127845,105.24367593342322 39.702449587290175,104.95555217735819 38.87066037778277,104.81149023681064 38.005599599913694,104.95555217735819 37.24035352736246,104.99156765596126 36.24220647593029,104.91953669613576 35.37714569829404,104.52336623056908 34.84480060415808,103.91110216389643 34.37899864697829,103.19079053337919 33.84665355284233,102.47047786079929 33.24776532209944,101.64211699922453 32.81523493328132,100.88578631318524 32.48251924943179,99.98539114149753 32.24961827066727,99.08499434153782 32.282889839145355,98.1125639687234 32.38270454434678,97.06809960101964 32.84850650152657,96.383794172114 33.380851595662534,95.62745549841202 34.112826099968515,95.0872128852352 34.944615309359506,94.61900214629713 35.776404518750496,94.25883973983582 36.60819372802507,93.79062822190463 37.27362509560771,93.21436728769913 37.772698621382006,92.56607293934212 38.20522901031654,91.59362983409665 38.50467312557157,90.90931688068667 38.704302535858005,90.15296989039052 38.77084567269776,89.32458853512071 38.671030967496336,88.46018912945874 38.804117240943015,87.52375474644941 38.97047508286778,86.55130179200205 39.2033760616323,85.65088069596095 39.40300547191873,84.82249184919056 39.66917801881209,84.0301186189754 39.868807429098524,83.20172707524034 40.03516527090687,82.22926567794639 40.534238796681166,81.40087113747722 41.16639859578572,80.7165441729012 41.93164466845337,80.24831991823157 42.696890741121024,79.74407792076818 43.462136813788675,79.3478874215798 44.42701229674276,79.23983541247435 45.458430916420184,79.49195673046052 46.32349169428926,79.78009522319189 47.188552472158335,80.03221626763116 48.02034168143291,80.32035444767098 48.951945596025325,80.57247521838872 49.950092647457495,80.75256140495185 50.71533872000873,81.25680238098721 51.31422695075162,81.90511145675555 51.54712792951614,82.73350515819038 52.24583086534403,83.3097782243276 53.14416321157478,83.70596557040699 53.84286614751909,84.17418657281087 54.27539653633721,84.85850878423662 54.541569083346985,85.75893131349585 54.80774163035676,86.58731860198895 55.17372888268437,87.41570451195003 55.80588868167251,88.13603896542918 56.537863185978495,88.64027246279875 57.402923963731155,88.92840566046652 58.201441604760475,89.21653869145666 59.03323081426788,89.50467155571096 59.73193375021219,89.75678767508361 60.463908254518174,89.68475451116683 61.4953268741956,89.79280425308389 62.52674549387302,89.97288710440625 63.45834940834902,90.18898643986904 64.22359548101667,89.68475451116683 64.82248371187598,89.10848882439313 65.3548288057791,88.42417245500837 65.82063076307531,87.59578822302865 66.0868033102015,86.83943619878846 66.25316115212627,86.08308302526711 66.31970428884961,85.25469489771058 66.25316115212627,84.49833931657486 66.05353174183983,83.70596557040699 65.75408762635197,82.91359056296642 65.3548288057791,82.19324855267769 64.82248371187598,81.43688832008047 64.25686704949476,80.86061308570788 63.9574229340069,80.24831991823157 63.824336660443805,79.41992208120064 64.02396607073024,78.55550547706662 64.48976802814286,77.76312227128074 65.05538469040766,77.11480780105921 65.68754448974505,76.6465801585 66.31970428884961,76.17835207565804 66.88532095123082,75.60207075354992 67.31785134016536,74.84570050585899 67.65056702389847,73.98127595818369 67.78365329734515,73.2609210217197 67.78365329734515,72.64861850606394 67.65056702389847,71.78419014287647 67.48420918209013,70.99179615775938 67.15149349812418,70.1633829154598 66.71896310942248,69.47904050143552 66.28643272048794,68.72266094916267 65.98698860500008,68.00229840204702 65.78735919471364,67.20989839610411 65.48791507945862,66.34546058718115 65.3548288057791,65.481021276908 65.38810037425719,64.79667242476717 65.32155723753385,64.04028575654957 65.48791507945862,63.283897938847076 65.88717390003148,62.527508971630596 66.31970428884961,61.735100249177776 66.35297585732769,61.05074624621193 66.05353174183983,60.33037259487901 65.88717390003148,59.609997900843155 65.72081605810672,58.745546891586855 65.48791507945862,57.91711326537188 65.68754448974505,57.30479187270976 65.98698860500008,56.440336859290255 65.95371703663841,55.683937490714015 65.95371703663841,54.71142232752754 65.98698860500008,54.171135304524796 66.21988958364818,52.910463303065626 66.0868033102015,52.04600065614795 65.82063076307531,51.10949776082998 65.8539023315534,50.389109718904365 65.98698860500008,49.81279853443266 65.88717390003148,49.05638909203117 65.92044546827674,48.33599807784776 65.48791507945862,47.21938994474476 64.58958273311146,47.255409601086285 63.657978818635456,47.36346855436568 62.826189609244466,47.327448905823985 62.859461177606136,46.89521292067366 63.32526313501876,46.535015979607124 63.99069450236857,45.95870033142273 64.45649645978119,45.13024541782215 64.65612586995121,44.37382885732222 64.62285430158954,43.47333145266748 64.65612586995121,42.60885241100914 64.58958273311146,41.85243201738922 64.45649645978119,41.13203057346982 63.99069450236857,41.09601047396427 63.22544842970092,41.204070764855715 62.52674549387302,41.42019127626554 62.094215104938485,41.636311693815514 61.229154327185825,41.564271565090166 60.33082198095508,41.52825149675482 59.133045519469306,41.88845206226688 58.168170036398806,41.99651218109648 57.33638082712423,41.92447210443788 56.43804848077707,41.42019127626554 55.539716134779155,41.34815111619537 54.774470062111504,41.38417119748192 54.07576712605078,41.45621135237161 53.2107063481817,41.52825149675482" stroke="#4dd2ff" stroke-linecap="round" stroke-linejoin="round" stroke-width="0.5"><title>2023-12-05 10.1km</title><desc>380753253</desc></polyline><polyline fill="none" points="175.8135790002998,106.0 175.187503390247,105.32226381602231 174.41694879322313,104.38385881652357 173.74271352100186,103.60185371665284 173.30927656008862,102.5591789301252 173.26111689768732,101.46436878037639 173.9835118323099,100.94303002912784 174.5614277801942,100.16102119511925 175.2356630526483,99.48327951907413 175.8135790002998,98.70126910076942 176.48781427298672,98.07566015492193 177.35468819434755,97.18937988526886 177.7881251552608,96.25096429389669 177.2102092076093,95.46895036735805 176.2951756233815,94.8433386150864 175.5727806885261,93.64424790482735 175.47646136418916,92.3930206882651 174.46510845562443,91.40246426756494 174.0316714947112,91.03752208489459 173.7908731829375,90.30763716530055 174.17615048168227,89.57775150623638 174.75406642933376,89.21280839946121 174.99486474087462,89.16067365487106 175.04302440327592,89.21280839946121 175.04302440327592,89.21280839946121 175.09118406567723,89.21280839946121 175.09118406567723,89.21280839946121 175.09118406567723,89.26494314032607 175.1393437278457,89.26494314032607 175.1393437278457,89.26494314032607 175.1393437278457,89.05640415422386 174.6095874425955,88.43078683398198 173.7908731829375,87.75303412380163 173.06847824854776,86.91887606680393 172.20160432672128,86.08471704402473 171.4310497296974,85.25055705552222 170.56417580810376,84.57280135370092 169.79362121107988,83.84290988493012 168.9749069516547,83.11301767651457 168.15619269246235,82.48739519523224 167.2893187708687,81.65323104156414 166.66324316058308,80.61052449129056 166.95220113452524,79.61995187064167 167.53011708217673,78.62937788804993 168.25251201703213,77.79520926735131 169.023066614056,77.1174465517397 169.84178087324835,76.07473343651509 170.61233547027223,75.08415457908995 171.33473040512763,74.14571019477444 172.1052850021515,73.41580816166243 172.68320095003583,72.58163350395625 172.63504128763452,71.59104984335136 172.34608331369236,70.44405653467402 172.29792365129106,69.4013337601209 172.34608331369236,68.46288197248941 172.39424297609366,67.42015633016126 172.44240263826214,66.37742917856667 172.49056230066344,65.33470051747281 172.44240263826214,64.39624343195464 171.4310497296974,64.39624343195464 170.46785648353398,63.770604695775546 169.4083439123351,63.14496541611152 168.493310328573,62.51932559319539 167.48195742000826,61.84154850500636 166.37428518687375,61.68513831711607 165.45925160264596,62.36291555251228 164.83317599259317,63.19710204342846 164.014461733168,63.770604695775546 163.0031088248361,63.40564851538511 162.08807524084114,62.467188916692976 161.5101592929568,61.73727505019633 160.64328537113033,61.05949722614605 159.82457111193798,60.903086868464015 158.86137786554173,61.11163400457008 157.70554597000591,61.21590754983481 156.5978737368714,61.42445459525334 155.63468049070798,61.63300158036873 154.62332758191042,61.26804431679193 154.09357129666023,60.32958193321247 153.37117636180483,59.44325522601139 152.3116637908388,59.0782968532294 151.39663020684384,58.13983161642682 150.91503358376212,57.09709103073692 150.0,55.84580033522798 148.89232776663266,55.53297732165083 147.83281519566663,55.220154172275215 146.7733026247006,55.06374254671391 145.66563039156608,54.959468110639136 144.4134791714605,54.959468110639136 143.1613279513549,54.85519365960499 142.10181538015604,54.49023296206724 141.42758010770194,53.551761747628916 141.09046247182414,52.30046489299275 140.94598348485306,51.257715853629634 140.70518517307937,50.162827737513 140.51254652393982,48.96366265293909 139.9346305760555,48.02518423763104 139.01959699229337,47.50380681181559 137.91192475892603,47.13884238922037 136.85241218796,46.82601559400791 135.84105927939527,46.356775146501604 135.40762231848203,45.31401750189252 134.9260256954003,44.16698234924115 133.96283244900405,43.69774016935844 131.1214123724494,42.4985643204418 129.14686621772125,42.02932105347281 128.183672971325,41.5079392871703 127.22047972492874,40.830142426653765 126.06464782939292,40.413036349462345 124.95697559625842,40.15234492835589 123.99378234986216,39.474546792160254 123.12690842803568,38.79674801795045 122.7416311299894,37.806117892905604 122.40451349364594,36.65907078247983 122.16371518210508,35.616299096727744 122.93426977912895,35.04277402599109 123.99378234986216,34.72994197678054 125.0532949208282,34.46924849861534 126.06464782939292,34.260693648131564 127.31679904973134,34.0 128.47263094526716,34.41710979153868 129.62846284080297,35.14705134567339 130.49533676239662,35.87699215981411 131.3140510218218,36.65907078247983 132.42172325518914,37.44114855595399 136.13001725333743,40.15234492835589 136.85241218796,40.830142426653765 137.5266474604141,41.35152468382148 138.24904239503667,41.87290656322148 139.2122356412001,42.394288065319415 140.27174821239896,42.55070244235685 141.18678179639392,42.70711678540101 142.14997504255734,43.01994536962593 142.29445402952842,44.06270633562235 142.10181538015604,45.26187958009541 141.95733639318496,46.356775146501604 141.52389943250455,47.08670459938003 140.5607061861083,47.34739351051394 139.3085549660027,47.13884238922037 138.1045634080656,47.13884238922037 136.7560928631574,46.930291207449045 135.6002609678544,46.30463730014162 135.26314333151095,45.2097416545148 134.73338704602793,44.11484434426529 133.7220341374632,43.69774016935844 131.89196696970612,43.541326041391585 130.83245439850725,43.437049937143456 129.4839838538319,42.86353109451011 128.27999229589477,41.97718289389741 126.9315217512194,41.09083360247314 125.87200918025337,40.72586593020242 124.76433694688603,40.256621508160606 123.84930336289108,39.52668513299432 122.93426977912895,38.64033282571472 122.50083281821571,37.33687156846281 122.21187484427355,36.2941008642083 122.35635383124463,35.25132865010528 123.31954707764089,34.78208066109801 124.37905964860693,34.62566459685331 125.39041255717166,34.52138720173389 126.59440411487594,34.46924849861534 127.65391668584198,35.04277402599109 128.713429256808,35.7205763332895 129.72478216537274,36.502655125863384 130.78429473633878,36.763347868050914 131.65116865793243,37.12831754842773 135.26314333151095,38.84888640785357 136.27449624007568,39.52668513299432 137.04505083709955,40.15234492835589 137.9600844210945,40.778004180348944 138.82695834268816,41.45580108987633 139.9346305760555,41.87290656322148 141.04230280942284,42.23787365440512 142.19813470472582,42.70711678540101 142.24629436712712,44.06270633562235 142.10181538015604,45.15760372503428 141.95733639318496,46.25249944999814 141.62021875707433,46.930291207449045 140.51254652393982,47.13884238922037 139.2603953036014,47.08670459938003 138.0082440834958,47.08670459938003 136.85241218796,46.878153402591124 135.93737860396504,46.356775146501604 135.5521013054531,45.31401750189252 134.9260256954003,44.32339634129312 133.7701937998645,43.90629228699254 132.90331987803802,43.64560213038931 131.50668967096135,43.176359610806685 129.67662250320427,42.4985643204418 128.32815195829608,41.66435385670047 127.36495871189982,40.88228066940792 126.30544614093378,40.413036349462345 125.1014545832295,40.10020663286559 124.09010167466477,39.422408447484486 123.31954707764089,38.69247122685192 122.83795045432635,37.493287043937016 122.50083281821571,36.346239435253665 122.54899248038419,35.30346729658777 123.31954707764089,34.78208066109801 124.4272193107754,34.62566459685331 125.63121086871251,34.41710979153868 126.78704276424833,34.15641620015958 127.84655533498153,34.15641620015958 128.95422756834887,34.62566459685331 129.96558047714643,35.45988321362529 130.78429473633878,36.241962289379444 131.7956476449035,36.9719019937329 135.40762231848203,38.79674801795045 136.37081556487828,39.683100132853724 137.57480712258257,40.88228066940792 138.58616003138013,41.66435385670047 139.59751293994486,42.13359736150596 140.70518517307937,42.44642619480146 141.95733639318496,42.70711678540101 142.29445402952842,43.69774016935844 142.14997504255734,45.05332785495557 141.95733639318496,46.09608587692492 141.57205909467302,47.03456680593081 140.46438686153851,47.243117957317736 139.16407597903162,47.08670459938003 137.91192475892603,47.08670459938003 136.6116138761863,46.773877781582996 135.6002609678544,46.148223738360684 135.16682400694117,45.00118991412455 134.63706772145815,44.06270633562235 133.48123582592234,43.749878204311244 131.1214123724494,41.97718289389741 129.96558047714643,42.13359736150596 128.9060679061804,41.71649203909328 127.75023601064458,41.03869537485298 126.54624445270747,40.56945115682902 125.29409323236905,40.20448322023731 124.23458066140302,39.57882346998667 123.22322775307111,38.79674801795045 122.7416311299894,37.493287043937016 122.40451349364594,36.346239435253665 122.6453118051868,35.45988321362529 123.60850505135022,34.99063536064932 124.81249660952017,34.83421934163198 125.92016884242184,34.62566459685331 127.07600073819049,34.93849669129122 128.1355133089237,35.45988321362529 129.24318554229103,36.13768512837123 130.35085777542554,36.60693223407725 131.41037034639157,36.919763468031306 132.90331987803802,37.284733069187496 133.91467278683558,38.27536391140893 135.11866434453987,39.422408447484486 136.27449624007568,40.36089807271492 137.18952982407063,41.03869537485298 138.2008827328682,41.76863021752797 139.40487429057248,42.23787365440512 140.80150449764915,42.44642619480146 141.81285740621388,42.91566918994067 142.10181538015604,44.271258347609546 142.00549605558626,45.418293334310874 141.81285740621388,46.40891298901988 141.18678179639392,47.03456680593081 139.9346305760555,47.03456680593081 138.58616003138013,47.03456680593081 137.3340088110417,46.982429008581676 136.08185759093612,46.669602145499084 135.4557819806505,45.62684495386202 134.877866032999,44.42767231701873 133.86651312443428,43.80201623571338 129.4839838538319,42.811392995354254 128.6652695944067,42.23787365440512 127.84655533498153,41.66435385670047 126.8833620888181,40.98655714344932 125.53489154414274,40.56945115682902 124.37905964860693,40.0480683335918 123.51218572701328,39.37027009919984 122.78979079215787,38.27536391140893 122.40451349364594,36.9719019937329 122.16371518210508,35.92913076101104 122.6453118051868,35.04277402599109 123.60850505135022,34.93849669129122 124.90881593385711,34.72994197678054 126.01648816722445,34.52138720173389 127.22047972492874,34.886358018324245 128.27999229589477,35.616299096727744 129.4839838538319,36.45051656611031 130.5916560869664,36.86762493837159 131.50668967096135,37.232594566070475 136.6116138761863,38.64033282571472 137.04505083709955,39.52668513299432 137.57480712258257,40.256621508160606 138.44168104440905,41.14297182619339 139.45303395297378,41.82076839229558 140.6570255109109,42.18573550978908 141.95733639318496,42.55070244235685 142.29445402952842,43.749878204311244 142.19813470472582,45.10546579194488 141.95733639318496,46.30463730014162 141.37942044553347,47.13884238922037 140.31990787456743,47.13884238922037 138.97143732965924,46.930291207449045 137.71928610955365,46.878153402591124 136.4189752272796,46.61746432178188 135.5521013054531,45.57470705464948 135.16682400694117,44.42767231701873 134.25179042294621,43.749878204311244 130.92877372330986,42.23787365440512 129.5321435162332,42.13359736150596 128.61710993223824,41.612215670756996 127.5575973612722,40.93441890843678 126.30544614093378,40.413036349462345 125.1496142456308,40.15234492835589 124.18642099923454,39.63096180331195 123.27138741523959,38.95316317630932 122.78979079215787,37.701840958266985 122.35635383124463,36.39837800269015 122.45267315604724,35.355605939461384 123.36770673980936,34.83421934163198 124.57169829774648,34.62566459685331 125.67937053111382,34.41710979153868 126.73888310184702,34.52138720173389 127.89471499761567,35.199189999722876 128.8579082437791,35.87699215981411 129.72478216537274,36.71120932721533 130.687975411769,37.18045605911175 132.27724426821806,37.33687156846281 135.26314333151095,40.15234492835589 136.32265590224415,40.67372767603956 137.18952982407063,41.24724826251622 138.24904239503667,41.87290656322148 139.40487429057248,42.394288065319415 140.5607061861083,42.60284056054661 141.57205909467302,42.91566918994067 142.19813470472582,43.854154263215605 142.14997504255734,45.05332785495557 142.00549605558626,46.200361596012954 141.52389943250455,47.13884238922037 140.46438686153851,47.34739351051394 139.11591631663032,47.08670459938003 137.86376509652473,46.982429008581676 136.51529455184937,46.72173996537458 135.5039416430518,45.88753439323045 135.16682400694117,44.636224223300815 134.4444290723186,43.80201623571338 133.19227785198018,43.80201623571338 129.4839838538319,42.654978674894664 128.32815195829608,42.02932105347281 127.5575973612722,41.45580108987633 126.69072343967855,40.830142426653765 125.58305120631121,40.46517462225165 124.47537897294387,39.83951509860344 123.46402606461197,39.05743992968928 122.7416311299894,37.64970248535974 122.45267315604724,36.502655125863384 122.30819416907616,35.45988321362529 122.98242944129743,34.83421934163198 123.99378234986216,34.67780328867957 125.0532949208282,34.52138720173389 126.40176546573639,34.36497108085314 127.6057570236735,34.99063536064932 128.61710993223824,35.87699215981411 129.72478216537274,36.502655125863384 130.88061406090856,36.763347868050914 132.03644595644437,36.9719019937329 135.4557819806505,39.78737678041216 136.4189752272796,40.51731289137388 137.14137016166933,41.24724826251622 138.39352138200775,41.97718289389741 139.40487429057248,42.394288065319415 140.51254652393982,42.60284056054661 141.7165380816441,42.86353109451011 142.29445402952842,43.854154263215605 142.05365571775474,45.00118991412455 141.86101706861518,46.25249944999814 141.37942044553347,47.13884238922037 140.4162271991372,47.39953128132038 139.2122356412001,47.08670459938003 138.8751180053223,47.34739351051394 139.88647091388702,47.92090878263116 140.6570255109109,48.96366265293909 140.94598348485306,50.11069016659167 141.7165380816441,50.89275333320256 142.67973132804036,51.15344086661935 143.78740356117487,51.570540723972954 144.55795815819874,52.456877118733246 145.23219343065284,53.551761747628916 145.85826904070564,54.54237021593144 146.6288236377295,55.27229137334507 147.8809748578351,55.48084013949847 149.51840337668546,55.63725167460507 150.0,56.523583065136336 150.86687392159365,57.35777631873498 151.685588180786,58.087694623100106 152.7932604139205,58.400516527181026 154.09357129666023,58.400516527181026 155.2494031919632,58.45265349786496" stroke="#4dd2ff" stroke-linecap="round" stroke-linejoin="round" stroke-width="0.5"><title>2023-12-02 10.0km</title><desc>380634480</desc></polyline><polyline fill="none" points="84.87589915166609,186.0 83.65929801831953,184.902477511263 82.37510793306865,184.02445866219932 80.88815099233761,183.07327071542386 79.67154985968955,182.04891346447403 78.45494872634299,180.87821819266537 77.50870340038091,179.85385871765902 77.1707586410921,178.68316090421285 77.71147025609389,177.3661242435919 78.38735977420583,176.0490858675912 79.46878300374374,174.805214714841 80.48261728161015,173.3418349288404 81.69921841472387,171.95162217033794 82.84823059593327,170.4150690025417 83.9972427773755,169.09802157164086 85.21384391072206,168.00048073526705 85.28143286239356,166.82976919639623 84.7407212476246,165.43954748334363 85.01107705524191,164.04932385863503 85.07866600714624,162.5127586806193 85.1462549585849,160.82985128235305 85.28143286239356,159.22011114959605 85.41661076620221,157.68353863194352 85.41661076620221,156.29330434132135 84.26759858499281,156.07379348907853 82.71305269259028,155.63477164163487 81.4288626073394,154.75672737503191 80.14467252232134,153.95185279392172 78.92807138920762,153.14697757177055 77.71147025609389,152.34210170904407 76.22451331536286,152.48844282276696 75.07550113392062,153.65917096915655 73.99407790438272,154.8298977597151 72.57470991578884,154.9762385133654 71.35810878267512,154.0981936744647 70.41186345671304,152.92746603657724 69.33044022717513,151.68356643558946 68.1814280457329,151.0982013879111 66.62688215333037,151.31771332060453 65.13992521283217,151.6103958231979 63.58537932042964,152.04941941832658 61.96324447635561,152.2689311443246 60.341109632048756,151.90307824104093 59.192097450606525,150.7323480611085 58.3810300284531,149.26893342938274 57.29960679914802,148.82990862667793 56.01541671412997,147.95185844943626 55.00158243626356,146.5616107757087 54.190515014342964,145.46404547226848 53.379447591956705,144.29330783494515 52.027668555034325,143.78110969241243 50.8110674219206,143.4884249229217 49.121343625709414,143.41525371721946 47.63438668544404,143.26891129015712 46.14742974494584,143.1225688419072 44.25493909325451,143.04939760977868 42.97074900800362,142.61037010588916 41.956914730137214,141.22011508606374 41.41620311560109,139.82985815417487 41.01066940440796,138.22008458105847 40.53754674177617,136.68348014255753 40.26719093415886,135.14687336818315 39.59130141581409,133.75660808332032 38.17193342722021,132.6590288762236 36.88774334220216,132.14682483830256 35.60355325695127,131.70779259933624 34.18418526859023,131.04924388311338 33.237939942395315,129.87848955078516 32.69722832785919,128.26870012941072 31.61580509832129,127.17111496295547 30.399203965207562,126.87842538405675 28.574302265420556,125.92718366708141 26.073511047055945,125.85401119029848 24.24860934703611,124.97594105504686 22.896830310113728,124.02469754754566 21.207106514135376,123.14662582310848 19.58497167006135,122.5612442495185 18.23319263313897,121.53682568023214 16.746235692407936,120.51240607252112 15.799990366678685,119.19529362284811 15.191689800005406,117.73183333227644 14.853745040949434,116.41471725894371 15.191689800005406,115.39029245969141 16.47587988548912,114.95125294226455 17.895247873850167,114.65855982463108 19.247026910772547,114.51221323414939 20.666394899599254,114.14634666481288 22.220940792001784,114.0731733351713 23.707897732499987,114.80490639409982 24.78932096203789,115.5366389232804 26.276277902768925,116.34154409338953 27.628056939691305,117.36596792843193 30.06125920568593,118.39039072522428 31.548216146416962,120.29288745002123 33.30552889429964,121.39048008562531 34.45454107550904,122.414898803283 35.941498016240075,123.14662582310848 37.36086600483395,124.02469754754566 38.78023399389349,124.82959595834836 40.26719093415886,125.19545866025146 41.61896997108124,125.63449372793548 42.4300373934675,127.097942576278 42.36244844133034,128.7809061324806 42.159681585850194,130.39069473807467 41.61896997108124,131.34193225443596 40.53754674177617,131.5614484771504 39.253356656525284,131.5614484771504 37.63122181245126,131.5614484771504 35.941498016240075,131.4151043339516 34.386952123837546,131.19558807933936 33.17035099072382,130.02483391639544 32.49446147214621,128.41504472820088 31.548216146416962,127.39063209161395 30.26402606139891,127.097942576278 28.30394645780325,126.43939085665625 25.80315523967147,125.70766622078372 23.910664587980136,124.82959595834836 22.153351840097457,123.80517968791537 20.5312169957906,123.0002804613905 18.84149319981225,122.34172607207438 17.354536259081215,121.53682568023214 16.07034617429599,120.80509749503108 15.259278752142563,119.12212065857602 14.718567137373611,117.6586602620664 14.515800281893462,116.34154409338953 15.664812463102862,115.24394597514765 17.219358355505392,114.95125294226455 19.044260055059567,114.73173311189748 20.801572803175077,114.58538653206779 22.220940792001784,115.5366389232804 23.369952973444015,116.56106357410317 24.518965154653415,117.6586602620664 26.208688950631768,117.95135251095053 27.6956458913628,118.17087164183613 30.669559772359207,118.53673675417667 32.76481727953069,119.56115836423123 33.84624050906859,120.80509749503108 35.06284164218232,122.0490350946784 36.144264871720225,123.14662582310848 37.293277053162456,123.95152493292699 38.847822945564985,124.46373312390642 40.605135693680495,124.90276850922965 42.02450368227437,125.63449372793548 42.36244844133034,127.46380445733666 42.22727053775452,129.2931118758861 42.0920926341787,130.75655542715685 41.07825835654512,131.5614484771504 39.86165722319856,131.63462054089177 38.57746713818051,131.63462054089177 36.82015439029783,131.5614484771504 35.2656084978953,131.2687601694488 34.18418526859023,130.39069473807467 33.50829574977979,128.7809061324806 32.22410566499457,127.46380445733666 30.80473767593503,127.02477018424543 28.30394645780325,126.0735286049312 26.276277902768925,125.56132122996496 24.518965154653415,124.75642340193735 22.69406345463358,123.80517968791537 21.207106514135376,122.85393507877598 19.7877385255415,122.5612442495185 18.300781585276127,121.90268957422813 16.543468836927786,120.6587517944863 15.597223511198536,118.902601734153 15.056511896429583,117.29279483185383 14.718567137373611,116.12202456500381 15.529634559294209,115.31711922015529 17.219358355505392,114.95125294226455 18.84149319981225,114.65855982463108 20.463628044119105,114.43903993081767 21.815407080808654,115.17077272484312 23.03200821392238,116.19519774644868 24.24860934703611,117.29279483185383 25.93833314324729,117.87817945663119 27.560467987554148,118.02452555985656 29.317780735669658,118.31721770268632 30.872326628072187,119.12212065857602 32.56205042405054,121.0246160061215 34.18418526859023,122.19538059399929 35.60355325695127,123.2197984958184 37.09051019791514,124.24421535944566 38.57746713818051,124.82959595834836 40.33477988629602,125.04911359533435 41.82173682679422,125.63449372793548 42.29485948965885,127.53697681764606 42.29485948965885,129.2931118758861 42.159681585850194,130.82972754904767 41.28102521202527,131.92730874265544 40.13201303081587,132.07365281169768 38.645056090084836,131.85413670015987 36.88774334220216,131.7809646523674 35.13043059431948,131.4151043339516 33.84624050906859,130.5370390295284 33.10276203881949,129.00042291142745 32.02133880928159,127.68332152237417 30.80473767593503,127.097942576278 28.574302265420556,126.87842538405675 26.5466337101534,126.29304597200826 23.910664587980136,125.26863118482288 22.018173936521634,124.17104276071768 20.666394899599254,123.14662582310848 19.17943795910105,122.63441696483642 17.489714162657037,121.68317125370959 16.205524077871814,120.36606032948475 15.462045607622713,118.97577471431578 15.056511896429583,117.29279483185383 14.853745040949434,115.90250498917885 15.935168270254508,114.95125294226455 17.489714162657037,114.65855982463108 19.17943795910105,114.29269330849638 20.73398385127075,114.14634666481288 22.08576288819313,115.17077272484312 23.23477506963536,116.19519774644868 24.721732010366395,117.21962172997883 26.479044758249074,117.58548718661768 28.033590650418773,118.02452555985656 31.142682435456663,117.95135251095053 32.42687252047472,119.34163953521056 34.31936317193322,121.0246160061215 35.87390906456858,122.34172607207438 36.88774334220216,123.7320070572896 38.23952237912454,124.75642340193735 39.99683512724005,125.12228613044135 41.6865589232184,125.48814872663934 42.36244844133034,126.87842538405675 42.36244844133034,128.7809061324806 42.29485948965885,130.39069473807467 41.6865589232184,131.85413670015987 40.402368837967515,132.21999685961055 38.98300084937364,131.92730874265544 37.56363286054693,131.92730874265544 35.87390906456858,131.70779259933624 34.31936317193322,130.90289966581622 33.37311784620397,129.36628410371486 32.49446147214621,128.04918319149874 30.939915579743683,127.31745972076897 24.113431443693116,126.87842538405675 23.302364021306857,125.78083870810224 22.28852974390611,124.53690570127219 21.004339658655226,123.58566178078763 19.517382718157023,122.92710777273169 17.962836825754493,122.1222078470746 16.47587988548912,121.17096165387193 15.529634559294209,119.70750422391575 15.056511896429583,117.95135251095053 14.786156089045107,116.41471725894371 15.799990366678685,115.02442620845977 17.28694730740972,114.73173311189748 18.706315296003595,114.43903993081767 20.328450140543282,114.29269330849638 21.747818128904328,115.0975994692999 23.23477506963536,116.19519774644868 24.518965154653415,117.43914101977134 26.276277902768925,117.95135251095053 27.89841274661012,118.39039072522428 29.520547591149807,119.85385006223805 30.669559772359207,121.0246160061215 32.76481727953069,121.90268957422813 34.31936317193322,122.92710777273169 35.73873116099276,123.87835231318604 37.293277053162456,124.82959595834836 39.18576770485379,125.3418037040974 40.87549150083214,125.63449372793548 42.0920926341787,126.73208056291332 42.159681585850194,128.4882170195924 42.0920926341787,129.95166173623875 41.6865589232184,131.5614484771504 40.605135693680495,132.29316887556342 39.52371246390976,132.0004807797377 37.698810764355585,131.92730874265544 36.00908696791157,131.7809646523674 34.31936317193322,131.2687601694488 33.37311784620397,129.80531735986006 32.629639375954866,128.34187243139604 31.345449290936813,127.39063209161395 29.790903398534283,127.02477018424543 26.74940056540072,126.29304597200826 24.45137620274909,125.63449372793548 22.69406345463358,124.68325084022945 21.34228441794403,123.58566178078763 19.7877385255415,122.92710777273169 18.368370536947623,122.0490350946784 16.949002548120916,120.95144317438826 16.002757222158834,119.78067714569625 15.394456655718386,118.09769860340748 14.92133399285376,116.56106357410317 15.394456655718386,115.31711922015529 16.949002548120916,114.95125294226455 18.84149319981225,114.73173311189748 20.666394899599254,114.58538653206779 22.28852974390611,115.31711922015529 23.64030878059566,116.56106357410317 24.99208781751804,117.6586602620664 26.681811613729224,117.95135251095053 28.30394645780325,118.39039072522428 30.331615013303235,119.04894768906524 32.088927761185914,120.29288745002123 33.91382946097292,121.53682568023214 35.400786401703954,122.63441696483642 36.88774334220216,123.65883442177437 38.50987818627618,124.39056054095272 40.199601982487366,124.82959595834836 41.754147874889895,125.48814872663934 42.36244844133034,127.17111496295547 42.22727053775452,128.85407839732943 42.159681585850194,130.6102111672517 41.41620311560109,131.92730874265544 40.199601982487366,132.07365281169768 38.71264504175633,131.92730874265544 36.88774334220216,131.7809646523674 35.198019545990974,131.34193225443596 33.84624050906859,130.31752258422785 33.17035099072382,128.7809061324806 31.95374985761009,127.53697681764606 29.45295863901265,127.097942576278 25.870744191575795,126.2198735216516 23.84307563607581,125.85401119029848 21.950584984384477,124.75642340193735 20.666394899599254,123.65883442177437 19.247026910772547,123.2197984958184 17.895247873850167,122.26855333562708 16.611057788832113,121.17096165387193 15.732401415007189,119.56115836423123 15.12410084833391,117.6586602620664 14.988922944758087,115.975678186398 16.07034617429599,115.02442620845977 17.692481018602848,114.80490639409982 19.3822048145812,114.73173311189748 20.193272236501798,114.58538653206779 21.004339658655226,114.73173311189748 22.49129659938626,115.75615857873345 23.910664587980136,116.85375614074292 25.532799432519823,117.6586602620664 27.29011218016967,117.95135251095053 29.182602832093835,118.53673675417667 33.10276203881949,121.0246160061215 34.11659631645307,122.19538059399929 35.400786401703954,123.2197984958184 36.68497648672201,124.24421535944566 38.37470028270036,125.04911359533435 40.402368837967515,125.48814872663934 42.02450368227437,126.0735286049312 42.4300373934675,127.82966620585648 42.29485948965885,129.73214516387088 41.956914730137214,131.48827640822856 41.07825835654512,132.29316887556342 39.65889036748558,132.14682483830256 37.96916657150723,131.92730874265544 38.78023399389349,132.8053728392697 40.199601982487366,133.97612378175836 40.9430804529693,135.6590758858947 41.6865589232184,137.04933855397394 43.105926911812276,137.70788336108672 44.72806175611913,138.51277087588096 46.07984079280868,140.1957154268748 46.89090821519494,141.95182849280536 48.24268725211732,143.63476731820265 50.33794475905597,144.29330783494515 53.04150283290073,145.0250190172228 54.86640453268774,146.48843979259254 57.36719575081952,147.58600398385897 59.53004220989533,147.95185844943626 61.21976600610651,148.09820019855397 62.36877818731591,148.171371065313" stroke="#4dd2ff" stroke-linecap="round" stroke-linejoin="round" stroke-width="0.5"><title>2023-11-12 10.0km</title><desc>379721620</desc></polyline><polyline fill="none" points="184.3500708420761,186.0 183.48633598536253,185.20881955418736 182.29039541445673,184.20186171220848 181.22733712918125,183.05105150071904 179.96495541534387,181.90023995679803 179.03477941593155,180.96520459617022 177.9717211308889,179.95824245497352 176.6428982738871,178.80742733023362 176.70933941658586,177.15312825364526 177.4401919876691,175.3549739603186 178.17104455898516,174.06030085496604 179.23410284426063,172.98140531184617 180.23071998683736,171.47094958438538 181.5595428433735,169.88856493117055 182.68904227158055,168.73773814667948 183.81854169955477,167.73076361697167 184.549394270638,166.50800745916786 184.0843062705826,165.21332282893127 184.0843062705826,163.7747823728132 184.2836296991445,162.40816701063886 184.41651198500767,161.0415497692302 184.549394270638,159.6749306487036 184.6822765560355,158.2363821755862 184.6822765560355,156.58204885723535 184.3500708420761,155.28735129593406 182.95480684260838,155.43120666383766 181.69242512900382,154.64000188256614 180.43004341539927,153.92072426219238 179.10122055886313,153.05759043060243 177.77239770209417,152.1944558491814 176.37713370262645,151.90674415556714 175.11475198878907,152.4821674596169 174.2510171320755,153.6330130683491 172.98863541847095,154.64000188256614 171.6598125619348,154.4242186510819 170.5303131339606,153.27337395882932 169.53369599138387,152.05060001276433 168.47063770634122,150.9716805756325 167.07537370664068,150.61204050300876 165.61366856470704,150.89975257148035 164.085522279609,151.3313205182203 162.69025827990845,151.5471044210717 161.16211199504323,151.69096033053938 159.6339657099452,151.3313205182203 158.8366719961632,149.82083188486286 157.9064959967509,148.31034095567884 156.64411428268068,147.95069991989294 154.98308571218513,147.08756090293173 154.51799771236256,145.72092259250348 153.9200274271425,144.5700678207795 152.65764571307227,143.49114026181633 150.93017599964514,143.2034260482178 149.26914742891677,143.13149748177966 147.47523657255806,142.98764033347834 145.68132571619935,142.98764033347834 144.1531794311013,142.91571175138233 142.95723886042833,142.48414014989976 141.82773943222128,141.26135292765684 141.3626514323987,139.67892017116537 140.96400457550772,138.02455595869105 140.69824000424705,136.44211804756196 140.29959314712323,134.71581927058287 139.63518171897158,133.3491639450658 138.5721234336961,132.41408290236723 137.1768594342284,132.05443611327792 135.71515429229476,131.62285979435546 134.25344914989546,130.97549496463034 133.3897142931819,129.53690494410694 132.79174400749616,128.02638318092795 131.5958034368232,127.09129712922731 130.39986286591738,127.01936739642406 126.54627658170648,126.3719995674328 124.75236572581343,125.94042078044731 123.6893074400723,125.07726264407393 122.55980801209807,123.99831391917542 121.23098515556194,122.99129405233543 119.76928001339547,122.70357390266145 118.50689830002375,121.98427316453308 117.24451658595353,120.97725125629222 116.18145830091089,119.53864675963996 115.78281144378707,117.88424901338294 115.45060572982766,116.58950102957897 115.71637030085549,115.51054308755556 116.91231087176129,114.86316775978776 118.44045715685934,114.5035146176233 119.96860344195738,114.2877226700657 121.56319086975418,114.35965332447086 122.9584548692219,115.29475135850953 124.22083658259362,116.30177902622381 125.61610058229417,117.23687523248373 127.0778057242278,117.45266653969884 128.40662858076394,117.81231861398555 130.26698058051988,118.10004018002655 131.99445029348135,119.6105770340655 133.32327315048315,120.6895305235521 134.1870080071967,121.69655272352975 135.31650743517093,122.6316438523354 136.71177143463865,123.71059406141285 138.04059429117478,124.64568329468602 139.56874057627283,125.00533276546048 141.09688686090522,125.14919251744868 142.22638628911227,126.0842803970445 142.3592685747426,127.95445351593662 142.3592685747426,129.68076403992018 141.89418057492003,131.0474244109355 141.09688686090522,131.83864797727438 139.967387432931,131.83864797727438 138.37280000536703,131.62285979435546 136.71177143463865,131.69478919386165 135.25006629223935,131.4070715646958 133.92124343570322,130.4719886945095 133.45615543588065,128.96146835276159 132.59242057916708,127.59480511257425 131.19715657969937,127.16322685667546 125.28389486833476,126.51585912151495 124.48660115408711,126.0842803970445 123.42354286881164,125.14919251744868 122.55980801209807,124.1421738169156 121.36386744119227,123.20708410977386 119.76928001339547,122.70357390266145 118.63978058542125,122.05620326189091 117.51028115744703,121.04918142652605 116.44722287170589,119.68250730301952 115.91569372965023,118.02810979634523 115.51704687252641,116.51757053658366 115.71637030085549,115.29475135850953 116.84586972882971,114.64737589011202 118.37401601392776,114.35965332447086 119.90216229925863,114.14386134542292 121.49674972705543,114.14386134542292 122.62624915502965,115.07895958260633 123.88863086863421,116.01405693968991 125.1510125824716,116.94915341661545 126.54627658170648,117.30880567332497 128.20730515243486,117.38073610904394 132.65886172209866,120.32987949065864 133.6554788646754,122.12813335377723 134.91786057827994,122.84743398788851 136.11380114895292,123.4228741201805 137.30974171985872,124.28603369358461 138.5721234336961,125.00533276546048 139.90094629046507,125.29305224854033 141.29621028946713,125.36498210614081 142.29282743204385,126.3000697826501 142.42570971744135,127.95445351593662 142.3592685747426,129.6088344945456 142.09350400348194,131.19128328817897 141.4290925753303,131.98250673973234 140.1667108614929,131.9105773611809 138.7714468620252,131.69478919386165 137.1104182912968,131.76671858807094 135.31650743517093,131.4070715646958 133.9876845786348,130.6158476548153 133.3897142931819,129.17725711362436 132.79174400749616,127.73866448953049 131.46292115096003,127.30708629626315 129.93477486586198,127.45094571483787 127.5428937242832,127.5228754162672 126.01474743918516,126.51585912151495 124.75236572581343,125.36498210614081 123.22421944071539,124.35796362435212 121.96183772664517,123.27901411842322 120.43369144177996,122.84743398788851 118.97198629938066,122.20006344065769 117.7096045857761,121.04918142652605 116.58010515780188,119.89829807914793 116.04857601504773,118.31583129975479 115.71637030085549,116.66143151733559 115.84925258648582,115.51054308755556 117.04519315739162,114.64737589011202 118.63978058542125,114.35965332447086 120.1679268705193,114.14386134542292 121.62963201245293,114.14386134542292 122.9584548692219,114.93509837263264 124.42016001138836,116.01405693968991 125.61610058229417,116.94915341661545 127.21068801009096,117.23687523248373 128.60595200932585,117.59652738505974 130.3334217229858,118.74741339858156 131.52936229412444,120.186019040877 132.85818515066057,120.83339090045774 134.3198902925942,121.98427316453308 135.78159543476067,123.20708410977386 137.0439771488309,124.21410375798587 138.5721234336961,125.00533276546048 140.23315200442448,125.29305224854033 141.62841600365937,125.94042078044731 141.96062171808444,127.37901600805344 141.89418057492003,129.03339794487692 141.82773943222128,130.4719886945095 141.29621028946713,131.69478919386165 140.29959314712323,131.98250673973234 138.9707702905871,131.69478919386165 137.50906514842063,131.76671858807094 135.91447772085667,131.5509303896688 134.45277257845737,130.9035655130865 133.6554788646754,129.4649753884878 133.05750857922249,127.81059417023789 131.9280091507826,127.01936739642406 130.5991862944793,127.5228754162672 126.08118858211674,125.43691195867723 124.35371886868961,124.78954309859546 122.89201372629032,123.8544540006551 121.49674972705543,123.06322407658445 119.83572115632705,122.70357390266145 118.44045715685934,121.69655272352975 117.17807544302195,120.61760032741586 116.24789944360964,119.2509256103076 115.78281144378707,117.59652738505974 115.6499291579239,116.0859874690068 116.18145830091089,115.07895958260633 117.44384001428261,114.64737589011202 119.03842744254507,114.2877226700657 120.63301487010904,114.0 122.16116115497425,114.7912371418206 123.62286629737355,115.87019586493261 125.01813029660843,116.80529247736558 126.61271772487089,117.30880567332497 128.20730515243486,117.66845779999858 129.7354514375329,118.02810979634523 131.33003886556253,120.47373991948552 132.85818515066057,121.40883219905663 134.12056686426513,122.12813335377723 135.51583086373284,123.13515409565298 137.0439771488309,123.9263839625055 138.43924114806578,124.5737533850479 140.03382857586257,124.93340288184118 141.69485714659095,125.36498210614081 142.49215086060576,126.8755079152761 142.49215086060576,128.67374993208796 142.42570971744135,130.40005920641124 141.89418057492003,131.5509303896688 140.5653577183839,132.05443611327792 139.170093719149,131.83864797727438 137.44262400548905,131.76671858807094 135.84803657769226,131.47900097968522 134.45277257845737,130.9035655130865 133.5225965785794,129.24918669019826 132.79174400749616,127.88252384559019 131.72868572245352,127.23515657905955 130.39986286591738,127.16322685667546 129.13748115254566,125.8684909644071 126.67915886756964,125.79656114318641 125.01813029660843,125.00533276546048 123.6893074400723,123.99831391917542 122.29404344083741,122.99129405233543 120.5001325844787,122.55971379682887 118.83910401398316,121.84041295450879 117.44384001428261,120.76146071450785 116.11501715774648,119.53864675963996 115.71637030085549,117.81231861398555 115.38416458666325,116.37370953493519 115.71637030085549,115.15089017967694 116.71298744343221,114.64737589011202 118.17469258559868,114.64737589011202 119.83572115632705,114.43158397363732 121.62963201245293,114.5035146176233 123.02489601215348,115.51054308755556 124.35371886868961,116.44564003823325 125.68254172499292,117.16494478617096 127.27712915278971,117.38073610904394 128.80527543788776,117.74038820969872 131.13071543700062,117.74038820969872 132.12733257957734,119.17899531009607 133.85480229300447,120.54567012598272 135.1836251495406,121.76848284166772 136.24668343481608,122.84743398788851 137.1104182912968,123.782524033566 138.43924114806578,124.71761319926009 140.10026971902698,125.07726264407393 141.76129828952253,125.50884180591675 142.42570971744135,127.30708629626315 142.3592685747426,128.88953875529114 142.15994514664635,130.4719886945095 141.4290925753303,131.83864797727438 140.29959314712323,132.12636548146838 138.90432914788835,131.83864797727438 137.30974171985872,131.69478919386165 135.71515429229476,131.4070715646958 134.12056686426513,130.4719886945095 133.25683200755157,128.67374993208796 132.59242057916708,127.23515657905955 131.33003886556253,126.94743765838211 127.27712915278971,125.07726264407393 126.14762972481549,125.29305224854033 124.48660115408711,124.42989354988094 122.9584548692219,123.4228741201805 121.43030858412385,122.70357390266145 119.83572115632705,122.27199352235766 118.50689830002375,121.48076233803295 117.04519315739162,120.54567012598272 115.98213487234898,119.17899531009607 115.71637030085549,117.38073610904394 115.51704687252641,115.7263347695698 116.04857601504773,114.86316775978776 117.44384001428261,114.57544525660342 119.10486858524382,114.2877226700657 120.7658971559722,114.0 122.22760229813866,114.86316775978776 123.5564251546748,115.87019586493261 124.88524801121093,116.94915341661545 126.3469531533774,117.59652738505974 127.94154058140703,117.88424901338294 133.45615543588065,120.76146071450785 134.1870080071967,121.33690205501625 135.44938972080126,122.27199352235766 136.5788891487755,123.20708410977386 137.64194743405096,124.21410375798587 139.10365257645026,124.78954309859546 140.6317988615483,125.00533276546048 142.15994514664635,125.65270148497075 142.49215086060576,127.66673480364261 142.42570971744135,129.32111626141705 142.29282743204385,130.83163605636219 141.49553371802904,131.9105773611809 140.10026971902698,131.98250673973234 138.43924114806578,131.76671858807094 136.9775360058993,131.69478919386165 135.31650743517093,131.26321271882625 133.9876845786348,130.40005920641124 133.45615543588065,129.03339794487692 132.59242057916708,127.59480511257425 131.19715657969937,127.09129712922731 128.80527543788776,126.65971865458414 126.81204115319997,126.3000697826501 124.88524801121093,125.36498210614081 123.15777829755098,124.28603369358461 121.62963201245293,123.27901411842322 120.10148572758771,122.70357390266145 118.70622172812,121.91234306205297 117.24451658595353,120.76146071450785 116.11501715774648,119.2509256103076 115.6499291579239,117.59652738505974 115.38416458666325,116.0859874690068 115.71637030085549,115.22282077162527 117.04519315739162,114.7912371418206 118.77266287128441,114.57544525660342 120.56657372741029,114.14386134542292 122.02827886957675,114.71930651855655 123.42354286881164,115.79826531995786 124.81880686827935,116.80529247736558 126.3469531533774,117.59652738505974 127.80865829554386,117.88424901338294 129.40324572334066,118.24390093167312 131.39648000826128,120.61760032741586 133.05750857922249,121.33690205501625 134.58565486385487,122.27199352235766 136.11380114895292,123.06322407658445 137.44262400548905,124.07024387078127 139.10365257645026,124.71761319926009 140.7646811469458,125.14919251744868 142.29282743204385,125.79656114318641 142.5585920033045,127.59480511257425 142.3592685747426,129.32111626141705 142.02706286055036,130.6158476548153 141.2297691470012,131.5509303896688 139.90094629046507,131.69478919386165 138.30635886243545,131.62285979435546 138.70500571932644,132.3421535550151 140.10026971902698,133.27723466529278 140.89756343257613,134.64389008970466 141.3626514323987,136.08247271639993 142.3592685747426,136.94562129251426 143.8209737171419,137.37719529966125 145.28267885907553,138.02455595869105 146.14641371625476,139.46313369099516 146.877266287338,140.90170934062917 147.60811885842122,142.0525683608721 149.06982400035486,143.13149748177966 150.66441142838448,143.13149748177966 153.05629256996326,142.84378316404764 154.51799771236256,143.92271142592654 155.51461485470645,145.43320902454434 156.37834971142001,146.72791942436015 157.8400548538193,147.01563261752017 159.4346422816161,147.08756090293173 160.829906280851,147.37527399184182" stroke="#4dd2ff" stroke-linecap="round" stroke-linejoin="round" stroke-width="0.5"><title>2023-10-16 10.0km</title><desc>378350136</desc></polyline><polyline fill="none" points="84.69216061220504,258.2053796542459 85.5869980880525,257.23666086245794 85.93116634828039,255.59728852298576 85.5869980880525,254.1814648566069 85.4493307841476,252.7656392432982 85.38049713196233,251.12625978485448 85.51816443633288,249.71042997017503 85.5869980880525,248.1455631729914 85.65583174023777,246.43165871384554 85.79349904414266,244.79226917005144 84.69216061220504,244.8667869330966 83.2466539198067,244.2706446769298 81.93881453177892,243.45094851066824 80.6309751435183,242.48221583664417 79.18546845158562,241.51348225097172 77.67112810723484,240.99185609660344 76.15678776288405,241.6625182463904 75.12428298289888,242.85480543447193 73.95411089877598,243.97257341915974 72.5086042068433,243.59998422575882 71.26959847053513,242.40769790078048 70.37476099445485,241.14089216763387 69.34225621423684,239.79956675122958 67.8967495218385,239.57601234520553 66.24474187404849,240.09763921698323 64.79923518165015,240.54474775394192 63.14722753386013,240.84282000386156 61.632887189276516,241.0663741347962 60.18738049711101,240.3957115964149 59.56787762930617,238.53275780892 58.328871892997995,237.19142899441067 56.608030593022704,236.89335568709066 55.57552581257187,235.55202473682584 54.74952198867686,234.1361735041719 53.717017208458856,232.94387621921487 52.340344168711454,231.90061496198177 51.10133843240328,231.67705884075258 49.24282982805744,231.7515775532811 47.10898661590181,231.67705884075258 45.45697896787897,231.60254012298537 43.80497131939046,231.52802139980486 42.22179732308723,230.93187141936505 41.46462715114467,229.44149495864986 41.051625238964334,227.65304035739973 40.845124283107,226.01362091011833 40.569789675297216,224.59775655937847 40.087954110931605,222.9583322466351 39.33078393898904,221.46794424200198 37.885277246823534,220.57371040352155 36.23326959880069,220.05207363900263 34.718929254449904,219.75399536913028 33.34225621423684,218.78524039621698 32.653919694246724,217.0712870566058 31.690248566213995,215.65541040629614 30.382409177953377,215.28281096421415 24.875717017566785,211.55680912488606 23.361376673216,212.0039300576318 22.053537284955382,211.7058494571247 20.81453154864721,210.96064757881686 19.437858508666977,210.5880464373622 17.9923518167343,210.36448568775086 16.753346080426127,209.5447625234956 15.58317399630323,208.50147755240323 14.688336520222947,207.08558911446016 14.206500956090167,205.4461369109922 14.068833652418107,203.88120282645104 14.826003824360669,203.13599528325722 16.271510516293347,202.53982886014273 17.854684512596577,202.24174551927717 19.506692160852253,201.94366209191503 21.1586998088751,202.76339130930137 22.535372849088162,203.73216136096744 23.84321223734878,204.7009305008105 25.219885277561843,205.29709567205282 26.734225621446967,205.52065752231283 28.317399617750198,205.89326049818192 31.827915870118886,208.94859981228365 33.34225621423684,210.1409248894779 34.51242829835974,210.96064757881686 35.8891013385728,211.7058494571247 37.19694072683342,212.74913118075347 38.71128107071854,213.34529169090092 40.36328871897422,213.34529169090092 41.80879541113973,214.0159718520008 42.152963671134785,215.65541040629614 42.01529636699706,217.36936610320117 41.80879541113973,218.9342796819401 41.12045889114961,219.97755407961085 40.087954110931605,220.12659319286468 38.71128107071854,219.828514944762 37.059273422695696,219.97755407961085 35.338432122254744,219.75399536913028 33.34225621423684,219.00879931700183 32.791586998151615,217.59292533161351 32.309751434251666,215.87897000688827 31.13957934989594,215.0592512341682 29.831739961868152,214.98473131342325 24.875717017566785,214.09049184288597 23.430210325168446,213.6433718163753 21.984703632770106,212.6746110926033 20.67686424497515,211.55680912488606 19.09369024867192,211.03516779089114 17.579349904553965,210.4390059428988 16.202676864573732,209.32120154739823 15.032504780450836,207.83079379831906 14.550669216318056,206.1168222189881 14.137667304137722,204.7009305008105 14.344168259995058,203.28503683494637 15.445506692165509,202.53982886014273 17.16634799260646,202.24174551927717 18.818355640629306,202.01818295678822 20.263862332794815,202.1672246704693 21.709369025193155,203.21051606175024 23.086042065173388,204.32832709344802 24.531548757338896,205.29709567205282 26.39005736145191,205.59517812839476 27.835564053617418,205.96778107702266 31.896749522304162,208.8740794491605 33.273422562284395,209.84284374973504 34.44359464640729,210.8116071385448 35.61376673053019,211.8548897682922 36.99043977074325,212.97269141260767 38.71128107071854,213.34529169090092 40.29445506702177,213.56885179312667 41.73996175942011,214.5376116753323 41.94646271527745,216.1770493987715 41.877629063325,217.96552393765887 41.533460803329945,219.53043661010452 40.70745697920211,220.27563228463987 39.468451242893934,220.27563228463987 37.74760994268581,220.12659319286468 36.02676864271052,220.05207363900263 34.374760994222015,219.67947578808526 33.273422562284395,218.33812240883708 32.791586998151615,216.62416832480812 31.690248566213995,215.50637064571492 30.107074569910765,215.20829105941812 27.284894837532192,215.20829105941812 25.770554493414238,214.5376116753323 24.393881453201175,213.71789183438523 22.26003824104555,212.52557090047048 20.81453154864721,211.40776877070311 19.23135755280964,210.8116071385448 17.717017208458856,210.0664046126767 16.340344168245792,208.94859981228365 15.170172084122896,207.75627335411264 14.619502868270501,206.19134278170532 14.137667304137722,204.47736847255146 14.344168259995058,203.06147449929267 15.58317399630323,202.4653080330463 17.097514340421185,202.24174551927717 18.680688336724415,201.94366209191503 20.470363288884982,202.24174551927717 21.847036328865215,203.5085991222877 23.499043977353722,204.7009305008105 24.9445506692864,205.37161629431648 26.596558317542076,205.52065752231283 28.179732313845307,205.96778107702266 32.03441682597622,210.73708691011416 33.68642447446473,211.63132929382846 35.06309751467779,212.3765306866262 36.57743785856292,213.19625159556745 37.885277246823534,213.71789183438523 39.60611854726449,213.86693185393233 41.32695984723978,214.0159718520008 42.08413001941517,215.35733086336404 42.152963671134785,217.14580682630185 42.08413001941517,218.7107207448571 41.60229445504956,219.828514944762 40.43212237092666,220.20111274148803 38.84894837462343,220.05207363900263 37.059273422695696,220.12659319286468 35.476099426392466,219.828514944762 33.82409177836962,219.2323581892997 32.99808795400895,217.59292533161351 32.24091778206639,216.0280097136274 30.726577438181266,215.35733086336404 29.487571701873094,215.35733086336404 26.940726577537134,214.76117151859216 24.80688336538151,213.79241184680723 22.810707457130775,212.52557090047048 21.089866156922653,211.63132929382846 19.162523900857195,211.10968799778493 17.64818355650641,210.28996542695677 16.202676864573732,209.09764052258106 15.10133843193762,207.6072324498091 14.550669216318056,205.89326049818192 14.137667304137722,204.4028477856191 14.550669216318056,203.13599528325722 15.858508604345843,202.53982886014273 17.372848948696628,202.3907872005948 18.887189292581752,202.01818295678822 20.33269598498009,202.31626636267174 21.64053537300788,203.3595576029038 23.22370936907828,204.5518891539541 24.600382409291342,205.4461369109922 26.183556405594572,205.66969872888876 27.766730401664972,206.1168222189881 32.37858508597128,209.1721608695225 32.86042065033689,209.991884330404 34.374760994222015,211.03516779089114 35.75143403443508,212.0039300576318 37.33460803073831,212.89817134058103 38.986615678993985,213.34529169090092 40.77629063138738,213.6433718163753 41.94646271527745,214.83569145557703 42.01529636699706,216.5496485172771 42.01529636699706,218.04004364268621 41.671128107234836,219.2323581892997 40.70745697920211,219.60495620180154 39.124282982898876,219.53043661010452 37.403441682923585,219.60495620180154 35.61376673053019,219.60495620180154 33.755258126417175,219.1578385704779 32.791586998151615,217.59292533161351 32.24091778206639,215.9534898630809 31.070745697943494,214.98473131342325 28.93690248578787,214.98473131342325 25.42638623341918,213.71789183438523 23.70554493344389,213.19625159556745 22.604206501040608,212.52557090047048 21.43403441691771,211.40776877070311 19.57552581303753,211.03516779089114 17.717017208458856,210.36448568775086 16.202676864573732,209.09764052258106 15.170172084122896,207.97983467020094 14.550669216318056,206.04230165068293 14.137667304137722,204.5518891539541 14.275334608042613,203.06147449929267 15.652007648488507,202.4653080330463 17.16634799260646,202.24174551927717 18.818355640629306,202.01818295678822 20.401529636932537,202.24174551927717 21.7782026771456,203.4340783652151 23.01720841298811,204.5518891539541 24.531548757338896,205.4461369109922 26.252390057547018,205.74421932408586 27.904397705569863,206.1168222189881 30.17590822209604,208.27791634947062 31.346080306218937,209.32120154739823 33.47992351837456,210.28996542695677 34.856596558587626,211.48228895035572 36.09560229466297,212.45105079637142 37.26577437878586,213.27077164594084 39.124282982898876,213.56885179312667 41.12045889114961,214.0159718520008 42.01529636699706,215.28281096421415 41.94646271527745,217.0712870566058 41.877629063325,218.7107207448571 41.46462715114467,219.53043661010452 40.01912045897916,219.75399536913028 38.43594646290876,219.67947578808526 36.783938814653084,219.75399536913028 35.13193116639741,219.60495620180154 33.54875717032701,218.9342796819401 32.72275334619917,217.14580682630185 32.1032504781615,215.5808905287413 30.588910134043545,214.98473131342325 27.697896749479696,215.28281096421415 25.495219885371625,214.5376116753323 24.049713193438947,213.49433176440652 22.74187380517833,212.3765306866262 20.95219885278493,211.40776877070311 18.956022944767028,210.96064757881686 17.372848948696628,209.84284374973504 15.858508604345843,208.57599794259295 14.894837476313114,207.16010960703716 14.48183556413278,205.4461369109922 14.206500956090167,203.8066820963286 14.826003824360669,202.83791211491916 16.340344168245792,202.3907872005948 17.9923518167343,202.1672246704693 19.644359464524314,201.7946203458123 21.1586998088751,202.76339130930137 22.466539197135717,203.95572355092736 23.774378585163504,204.92449248052435 25.495219885371625,205.4461369109922 27.078393881674856,205.74421932408586 28.868068833602592,205.89326049818192 31.552581262076274,209.09764052258106 33.273422562284395,210.1409248894779 34.65009560249746,211.18420819897437 35.8891013385728,212.15297032531817 37.541108986828476,212.97269141260767 39.19311663485132,213.34529169090092 40.70745697920211,213.71789183438523 41.671128107234836,214.76117151859216 41.877629063325,216.4006088860333 41.73996175942011,217.89100422716 41.32695984723978,218.9342796819401 40.087954110931605,219.30687780253356 38.64244741899893,219.38139741041232 37.12810707464814,219.53043661010452 35.338432122254744,219.38139741041232 33.755258126417175,219.00879931700183 32.791586998151615,217.0712870566058 32.03441682597622,215.5808905287413 30.5200764820911,214.83569145557703 28.59273422602564,215.28281096421415 26.183556405594572,214.0159718520008 24.669216061243787,213.6433718163753 22.948374761268497,212.60009099933086 21.227533460827544,211.48228895035572 19.23135755280964,210.8116071385448 17.579349904553965,210.0664046126767 16.202676864573732,208.94859981228365 14.96367112826556,207.75627335411264 14.550669216318056,206.1168222189881 14.068833652418107,204.62640983017627 14.206500956090167,203.28503683494637 15.376673040213063,202.68887049827026 16.959847036516294,202.3907872005948 18.818355640629306,202.09270381648093 20.53919694107026,202.1672246704693 21.847036328865215,203.28503683494637 23.361376673216,204.4028477856191 24.9445506692864,205.22257504455047 26.5277246653568,205.4461369109922 28.248565966030583,205.89326049818192 30.933078394271433,207.53271198942093 32.791586998151615,208.94859981228365 34.099426386645064,210.1409248894779 35.26959847076796,210.96064757881686 36.57743785856292,211.7058494571247 37.885277246823534,212.60009099933086 39.33078393898904,213.04721147892997 40.913957935292274,213.34529169090092 42.01529636699706,214.46309171657776 42.08413001941517,216.0280097136274 42.01529636699706,217.7419647902716 41.60229445504956,219.08331894653384 41.051625238964334,219.75399536913028 39.88145315484144,219.90303451486398 38.367112810956314,219.67947578808526 38.29827915877104,220.49919088190654 39.74378585116938,221.54246369353496 40.569789675297216,222.8838128974312 40.913957935292274,224.37419885222334 41.94646271527745,225.49198690213962 43.4608030593954,225.8645826491993 45.04397705569863,226.68429281777935 46.00764818373136,228.10015429893974 46.764818355673924,229.59053270186996 47.59082218003459,231.08090894686757 48.76099426415749,231.97513365832856 50.550669216318056,232.19868971477263 52.340344168711454,232.4222457226715 53.717017208458856,232.86935759300832 54.74952198867686,234.1361735041719 56.05736137693748,235.85009843227454 57.365200764965266,236.44624556432245 59.292543021263555,236.52076393167954 60.94455066951923,236.59528229368152 62.596558317309245,236.7443190011545 64.52390057384036,236.66980064992094 66.10707456991076,237.11691067559877 67.41491395817138,238.30920312774833 68.72275334619917,239.50149419909576 69.89292543032207,240.84282000386156 71.06309751444496,242.25866201310419 72.16443594661541,243.37643064500298 73.33460803073831,244.2706446769298 73.67877629073337,245.6864819720504 74.64244741899893,246.87876449996838 76.15678776288405,247.77297548990464 77.73996175918728,248.36911571823293 79.39196940744296,248.8907381349709 80.28680688329041,250.38108644087333" stroke="#4dd2ff" stroke-linecap="round" stroke-linejoin="round" stroke-width="0.5"><title>2023-10-13 10.0km</title><desc>378183417</desc></polyline><polyline fill="none" points="178.52528551453725,195.83545857848367 178.156937733409,196.18746275999 177.78858995239716,196.53946643520612 177.37690713827033,196.84118346807372 176.8568867414724,197.01718489876657 176.315198828117,197.16804316722846 175.773510914878,197.19318620293052 175.34016058419365,197.16804316722846 174.92847777018324,196.9417557297129 174.4951274394989,196.69032499816967 174.06177710893098,196.48918022688304 173.56342422869056,196.2880352902721 173.00006879877765,196.06174703907163 172.5450509515358,195.8857449211937 172.0250305548543,195.65945629787166 171.5266776746139,195.4331674653804 171.02832479437348,195.2320216608059 170.52997191413306,195.05601894619758 170.03161903389264,194.85487283159455 169.46826360397972,194.62858325506386 168.94824320729822,194.47772342107783 168.4498903270578,194.35200682183495 167.90820241370238,194.22629015789425 167.36651450046338,194.15086012847314 166.78149155410938,194.10057342941582 166.21813612431288,194.10057342941582 165.67644821095746,194.12571678022505 165.11309278104454,194.2514334958978 164.50640231813304,194.37715014684363 163.98638192145154,194.50286673323717 163.48802904121112,194.67886984572397 163.0113436775282,194.88001610497304 162.55632583028637,195.1314486964984 162.05797295004595,195.3577378080372 161.62462261947803,195.58402671029035 161.1696047722362,195.8606017511338 160.69291940855328,196.11203333515732 160.25956907786895,196.43889400824264 159.80455123074353,196.81604039623926 159.4145359331742,197.19318620293052 159.06785566860344,197.5703314285056 158.7645104371477,197.9977619813726 158.46116520569194,198.45033469429472 158.0928174246801,198.87776371024665 157.7028021272272,199.28004916083592 157.31278682954144,199.682333950288 156.9877740815282,200.10976081439003 156.74943139974494,200.5623296215781 156.51108871784527,201.09032550556003 156.35941610205919,201.61832025037438 156.29441355261952,202.1714563802525 156.29441355261952,202.67430632268952 156.3810836187331,203.22744006598077 156.48942120128777,203.73028783865448 156.68442885007244,204.25827688799473 156.8577689822996,204.76112254269538 157.0311091146432,205.28910936818284 157.18278173031285,205.84223720178124 157.26945179642644,206.39536378534103 157.37778937921394,206.92334708529233 157.5294619947672,207.4764712255419 157.7028021272272,208.0044521932723 157.91947729245294,208.58271575589606 158.07114990823902,209.11069433725788 158.30949259002227,209.63867177962675 158.48283272224944,210.19178978343552 158.67784037115052,210.71976489380177 158.87284801981878,211.29802204117004 159.04618815216236,211.85113629506668 159.21952828438953,212.37910782604013 159.3712009000592,212.90707821812248 159.4795384828467,213.48533019787283 159.69621364807244,214.063580811664 159.8912212968571,214.61668881608057 160.08622894564178,215.16979557058949 160.32457162754145,215.67261880832666 160.47624424332753,216.20058209632407 160.5845818258822,216.7788262955146 160.67125189199578,217.33192816434894 160.71458692511078,217.8850287834939 160.75792195810936,218.46326900347776 160.75792195810936,219.06664864631603 160.73625444166828,219.6448860749806 160.6495843755547,220.22312213781697 160.5629143093247,220.751075610955 160.4545767266536,221.3293090606894 160.32457162754145,221.8824006475188 160.15123149531428,222.41035054202075 159.9128888134146,222.96343968635483 159.69621364807244,223.46624691499164 159.45787096617278,223.9941933934606 159.2628633173881,224.47185827391513 158.98118560248986,224.9495222223195 158.48283272224944,225.55288587757968 158.00614735856652,226.05568778759334 157.5727970279986,226.48306859910372 157.18278173031285,226.91044866455195 156.87943649897352,227.33782798382163 156.55442375096027,227.7400666616595 156.20774348650593,228.19258438408724 155.86106322181877,228.64510127014364 155.47104792424943,229.14789682919218 155.1243676597951,229.62555165382219 154.75601987866685,230.05292623318383 154.36600458121393,230.48030006654153 153.9759892836446,230.88253358109796 153.58597398595884,231.3099059662345 153.19595868850593,231.7372776052216 152.7626083578216,232.13950905457023 152.32925802713726,232.54173984314548 151.85257266345434,232.91883060714463 151.41922233277,233.29592079037684 151.02920703520067,233.67301039274025 150.59585670463275,234.10037790669594 150.18417389050592,234.52774467457493 149.77249107637908,235.0053890029958 149.38247577880975,235.45789329662512 148.97079296468291,235.91039675398497 148.5591101506725,236.33776036233758 148.16909485298675,236.7399842535233 147.8007470719749,237.21762426600617 147.47573432396166,237.69526334674447 147.12905405950733,238.0723461733287 146.695703728823,238.52484479860868 146.28402091469616,238.95220384352433 145.85067058412824,239.279007315723 145.4389877700014,239.55553298989253 145.02730495587457,239.93261295143748 144.61562214174774,240.35996953910217 144.2256068441784,240.81246393655601 143.83559154660907,241.29009600449353 143.48891128215473,241.7425886830315 143.18556605058257,242.24535734510573 142.90388833568431,242.74812497476523 142.64387813734356,243.2760298748326 142.3838679390028,243.85421012611187 142.14552525710315,244.4072508281679 141.90718257520348,244.93515215118532 141.66883989342023,245.46305233603925 141.40882969496306,246.01608940426377 141.1921545297373,246.54398725873034 140.93214433128014,247.07188397507707 140.6938016494969,247.59977955339127 140.39045641804114,248.1276739936875 140.1087787031429,248.68070504367643 139.89210353780072,249.23373484476178 139.56709078978747,249.76162576243223 139.17707549221814,250.2141027861071 138.72205764509272,250.51575367072655 138.1587022151798,250.56602878210833 137.66034933493938,250.4152034171857 137.03199135547038,250.4152034171857 136.4469684092328,250.61630388302729 135.9052804959938,250.842541709746 135.2119199668523,250.86767923312436 134.5835619873833,250.89281675395614 133.9335364913568,250.842541709746 133.3051785120042,250.842541709746 132.7201555656502,250.842541709746 132.1134651027387,250.94309178787807 131.5284421563847,251.0436418247118 131.0084217597032,251.21960428981401 130.53173639590386,251.4709790206398 129.96838096610736,251.7223534933437 129.47002808586694,251.9234528857778 128.95000768906903,252.1999642806477 128.4733223253861,252.4764753633208 127.97496944514569,252.82839810790028 127.38994649879169,253.1300457721518 126.76158851932269,253.20545763014525 126.1115630234126,253.20545763014525 125.61321014317218,253.2305949110014 125.24486236204393,253.70820275665028 124.9631846472621,254.21094685103162 124.57316934957635,254.61314138343732 124.11815150245093,254.96506105740264 123.66313365532551,255.3421172896633 123.31645339063834,255.8448580296681 122.99144064274151,256.37273469583306 122.70976292784326,256.82519950409187 122.47142024594359,257.25252661095874 122.29808011371642,257.67985297206906 122.08140494849067,258.20772568293614 121.8647297831485,258.81100738774694 121.71305716736242,259.3640143115772 121.58305206825025,259.891883392178 121.47471448546275,260.36947824666277 121.51804951846134,260.7967991690821 121.843062266591,261.27439225884154 122.14640749793034,261.70171160226164 122.4064176963875,262.1541665650293 122.68809541128576,262.60662069187674 123.12144574197009,263.1093465191225 123.35978842375334,263.61207131444826 123.46812600654084,264.1399312389258 123.55479607265443,264.61751780932536 123.48979352298193,265.19564767474367 123.92314385366626,265.69836818760086 124.48649928346276,265.87432012334466 124.63817189924885,265.94972805709403 124.18315405200701,265.77377617551247 123.7281362048816,265.4218720332574 123.7064686883241,264.7683344275283 123.61979862221051,264.2404758574412 123.44645848986693,263.73775235201174 123.22978332464118,263.285300314863 122.88310306007043,262.80771114664094 122.49308776250109,262.330121047009 122.21141004760284,261.85253001606907 121.90806481614709,261.32466516143177 121.60471958469134,260.8219356706977 121.53971703513525,260.3192051480146 121.66972213436384,259.8667467951309 121.8213947500335,259.3388776603533 121.99473488237709,258.81100738774694 122.18974253104534,258.2328624503425 122.4064176963875,257.65471614799753 122.62309286172967,257.17711599917675 122.86143554362934,256.69951491898973 123.16478077508509,256.24704987854057 123.46812600654084,255.79458400215663 123.81480627099518,255.29184315894963 124.18315405200701,254.91478684914182 124.70317444880493,254.588004244506 125.13652477948926,254.23608402864193 125.4615375273861,253.7836144366447 125.78655027539935,253.2305949110014 126.32823818875477,253.0797711872292 126.80492355243769,253.1551830607059 127.34661146567669,253.1551830607059 127.86663186259102,252.9540846798336 128.32164970960002,252.65243679888954 128.79833507339936,252.37592591482098 129.25335292052478,252.0994147186575 129.7300382842077,251.84804063294723 130.2283911644481,251.5966662892606 130.77007907780353,251.34529168743757 131.26843195804395,251.09391682763817 131.78845235472545,250.91795427224133 132.33014026808087,250.8174041838065 132.8284931483213,250.76712912408402 133.4785186443478,250.842541709746 134.06354159058537,250.842541709746 134.6052295039408,250.842541709746 135.1685849338537,250.89281675395614 135.7969429132063,250.91795427224133 136.4036333761178,250.842541709746 136.9019862563582,250.69171651515353 137.44367416959722,250.4906161112158 137.92035953339655,250.4152034171857 138.48371496319305,250.46547854912933 139.02540287654847,250.31465312230284 139.4804207237903,249.9124515299045 139.84876850468572,249.45997394883307 140.0871111865854,248.93208238079387 140.36878890148364,248.3539141195215 140.6071315833833,247.85115800017957 140.82380674872547,247.37353873063694 141.08381694706623,246.74509090393258 141.3221596289659,246.24233148126223 141.60383734374773,245.6138807512616 141.8638475422049,245.06084277459013 142.12385774066206,244.53294172252936 142.3838679390028,243.92962484086456 142.62221062090248,243.35144476761343 142.88222081924323,242.7984016809496 143.14223101758398,242.27049575105775 143.44557624892332,241.79286559570755 143.79225651361048,241.29009600449353 144.16060429462232,240.81246393655601 144.59395462530665,240.41024673567154 144.96230240631849,239.9577515949495 145.33065018733032,239.5303943050967 145.74233300134074,239.1281749981281 146.21901836514007,238.87678759564005 146.56569862971082,238.52484479860868 146.99904896027874,238.12262383967754 147.38906425784808,237.72040221990028 147.7574120388599,237.31817993940786 147.99575472075958,236.8656790839741 148.36410250188783,236.43831639710697 148.77578531589825,236.0109529642068 149.18746813002508,235.55844969276222 149.57748342759442,235.13108472406748 150.01083375827875,234.67857982632995 150.37918153929058,234.27635254857887 150.79086435341742,233.87412460989435 151.18087965098675,233.49703531723935 151.5925624651136,233.09480609830644 152.090915345354,232.76799437127193 152.52426567603834,232.3909033748787 152.95761600648984,231.98867233849887 153.3259637876181,231.61158014183457 153.78098163485993,231.13392919211765 154.21433196542785,230.73169609054457 154.5826797465561,230.2791830614733 154.92936001101043,229.8015295121295 155.27604027558118,229.34901476367668 155.64438805659302,228.92163895547856 156.01273583760485,228.44398275742424 156.3810836187331,227.9914654995664 156.72776388307102,227.53894740529358 157.0744441477582,227.11156843713252 157.46445944532752,226.63390870740113 157.89780977589544,226.18138810363598 158.33116010657977,225.8042869616329 158.7645104371477,225.52774575490912 158.8511805033777,225.10036327556008 159.17619325139094,224.32101683340443 159.50120599928778,223.7679307564831 159.73954868107103,223.2651241474523 159.9345563298557,222.71203568471537 160.15123149531428,222.15894597236183 160.32457162754145,221.63099553568463 160.4979117597686,221.15332511183806 160.5845818258822,220.6253725062852 160.6495843755547,220.0974187621323 160.69291940855328,219.51918240232044 160.73625444166828,218.94094467669493 160.73625444166828,218.33756472397363 160.69291940855328,217.75932420702884 160.6062493424397,217.20622330399055 160.4979117597686,216.62798011436826 160.38957417709753,216.02459446020657 160.23790156142786,215.4714896371588 160.0212263960857,214.94352477668144 159.80455123074353,214.36527624171868 159.63121109851636,213.83730899504735 159.4362034497317,213.18363368322025 159.2628633173881,212.65566388772277 159.08952318516094,212.1276929533051 158.89451553637628,211.59972088008362 158.67784037115052,211.04660605794925 158.52616775536444,210.49348998592177 158.33116010657977,209.94037266397208 158.1578199742362,209.38725409196923 157.96281232556794,208.88441794183746 157.74613716022577,208.3061550919956 157.5727970279986,207.77817477511417 157.39945689565502,207.22505131670914 157.22611676342785,206.6719266083237 157.09611166419927,206.11880064984143 156.9877740815282,205.49024690687656 156.8577689822996,204.88683379493887 156.68442885007244,204.3839883985056 156.48942120128777,203.80571491544833 156.27274603606202,203.27772488968913 156.18607596983202,202.64916385008837 156.20774348650593,202.1965989019518 156.25107851950452,201.66860540476046 156.3810836187331,201.11546813826135 156.59775878395885,200.58747230858717 156.87943649897352,200.0343325985159 157.24778427998535,199.58176281492342 157.65946709399577,199.17947786021978 158.04948239168152,198.7017636175733 158.41783017269336,198.32462013572513 158.7861779537052,197.87204719030706 159.15452573471703,197.4194734080229 159.54454103240278,197.01718489876657 159.9345563298557,196.61489572830033 160.4329092100961,196.23774903037702 160.82292450778186,195.8857449211937 161.34294490457978,195.50859709948418 161.8196302682627,195.20687842364714 162.3396506649442,194.9554459095525 162.90300609485712,194.6537265516381 163.46636152465362,194.45258010635735 163.98638192145154,194.32686349413416 164.57140486780554,194.20114681737323 165.15642781415954,194.07543007591448 165.78478579362854,194.0251433612575 166.36980873986613,194.0 166.95483168633655,194.05028671991022 167.53985463269055,194.10057342941582 168.12487757904455,194.1760034742183 168.77490307507105,194.27657683120924 169.38159353786614,194.42743678916304 169.90161393466406,194.6537265516381 170.3782992984634,194.88001610497304 170.9633222448174,195.10630544893502 171.5050101580564,195.33259458371322 172.0466980714118,195.55888350929308 172.5667184680933,195.76002904516645 173.13007389800623,195.9863175754581 173.69342932780273,196.21260589647864 174.27845227415673,196.43889400824264 174.79847267095465,196.66518191076466 175.36182810075115,196.89146960405924 175.90351601410657,197.04232794999552 176.53187399357557,197.06747099866334 177.11689693981316,196.9166126682103 177.63691733661108,196.66518191076466 178.0919351838529,196.33832153993717" stroke="#4dd2ff" stroke-linecap="round" stroke-linejoin="round" stroke-width="0.5"><title>2023-10-08 10.0km</title><desc>377900977</desc></polyline></svg>