<?xml version="1.0" encoding="utf-8" ?>
<svg baseProfile="full" height="200mm" version="1.1" viewBox="0,0,200,200" width="200mm" xmlns="http://www.w3.org/2000/svg" xmlns:ev="http://www.w3.org/2001/xml-events" xmlns:xlink="http://www.w3.org/1999/xlink"><defs /><rect fill="#1a1a1a" height="200" width="200" x="0" y="0" /><text alignment-baseline="middle" fill="#e1ed5e" style="dominant-baseline: central; font-size:9.0px; font-family:Arial;" text-anchor="middle" x="100.0" y="100.0">2024</text><line stroke="#e1ed5e" stroke-width="0.3" x1="100.0" x2="100.0" y1="15.0" y2="10.0" /><path d="M 100.0 14.0 a86.0,86.0 0 0,1 42.35913384403234,11.155469271406648" fill="none" id="id1" stroke="none" /><text fill="#e1ed5e" style="font-size:6.75px; font-family:Arial;" text-anchor="middle"><textPath startOffset="22.145653131862478" xlink:href="#id1">January</textPath></text><line stroke="#e1ed5e" stroke-width="0.3" x1="143.13028292997686" x2="145.6673583964461" y1="26.7553504044142" y2="22.446841604673864" /><path d="M 143.63769802327073 25.89364864446614 a86.0,86.0 0 0,1 29.32050498858742,28.57503671076993" fill="none" id="id2" stroke="none" /><text fill="#e1ed5e" style="font-size:6.75px; font-family:Arial;" text-anchor="middle"><textPath startOffset="20.669276256404974" xlink:href="#id2">February</textPath></text><line stroke="#e1ed5e" stroke-width="0.3" x1="172.87174338648825" x2="177.1583165268699" y1="56.24261187166439" y2="53.66864786411523" /><path d="M 173.72905801456457 55.72781907015455 a86.0,86.0 0 0,1 12.242430191666344,42.057860355516425" fill="none" id="id3" stroke="none" /><text fill="#e1ed5e" style="font-size:6.75px; font-family:Arial;" text-anchor="middle"><textPath startOffset="22.145653131862474" xlink:href="#id3">March</textPath></text><line stroke="#e1ed5e" stroke-width="0.3" x1="184.99686870605535" x2="189.99668451229388" y1="99.2704041080226" y2="99.22748670261217" /><path d="M 185.99683186730306 99.26182062694052 a86.0,86.0 0 0,1 -10.086455211305974,41.156179273409016" fill="none" id="id4" stroke="none" /><text fill="#e1ed5e" style="font-size:6.75px; font-family:Arial;" text-anchor="middle"><textPath startOffset="21.40746469413373" xlink:href="#id4">April</textPath></text><line stroke="#e1ed5e" stroke-width="0.3" x1="174.33088141563837" x2="178.70328620479359" y1="141.23008692659167" y2="143.65538615756765" /><path d="M 175.20536237346943 141.71514677278685 a86.0,86.0 0 0,1 -30.301960400862466,31.631185727798858" fill="none" id="id5" stroke="none" /><text fill="#e1ed5e" style="font-size:6.75px; font-family:Arial;" text-anchor="middle"><textPath startOffset="22.145653131862474" xlink:href="#id5">May</textPath></text><line stroke="#e1ed5e" stroke-width="0.3" x1="143.1302829299769" x2="145.66735839644613" y1="173.24464959558577" y2="177.55315839532614" /><path d="M 143.63769802327073 174.10635135553383 a86.0,86.0 0 0,1 -40.68552437913181,11.842963189579606" fill="none" id="id6" stroke="none" /><text fill="#e1ed5e" style="font-size:6.75px; font-family:Arial;" text-anchor="middle"><textPath startOffset="21.407464694133747" xlink:href="#id6">June</textPath></text><line stroke="#e1ed5e" stroke-width="0.3" x1="101.45913802915013" x2="101.54496967792366" y1="184.9874750549273" y2="189.98673829345242" /><path d="M 101.47630435890484 185.9873277026323 a86.0,86.0 0 0,1 -42.54439059252881,-10.42667462771756" fill="none" id="id7" stroke="none" /><text fill="#e1ed5e" style="font-size:6.75px; font-family:Arial;" text-anchor="middle"><textPath startOffset="22.145653131862474" xlink:href="#id7">July</textPath></text><line stroke="#e1ed5e" stroke-width="0.3" x1="58.13341422392154" x2="55.67067388415222" y1="173.97424548756322" y2="178.32567169271397" /><path d="M 57.64086615596768 174.84453072859336 a86.0,86.0 0 0,1 -31.369924170532247,-30.572349798747897" fill="none" id="id8" stroke="none" /><text fill="#e1ed5e" style="font-size:6.75px; font-family:Arial;" text-anchor="middle"><textPath startOffset="22.145653131862474" xlink:href="#id8">August</textPath></text><line stroke="#e1ed5e" stroke-width="0.3" x1="26.387840678322732" x2="22.057713659400548" y1="142.50000000000003" y2="145.00000000000006" /><path d="M 25.521815274538298 143.00000000000003 a86.0,86.0 0 0,1 -11.493303480769221,-40.785679425670985" fill="none" id="id9" stroke="none" /><text fill="#e1ed5e" style="font-size:6.75px; font-family:Arial;" text-anchor="middle"><textPath startOffset="21.40746469413373" xlink:href="#id9">September</textPath></text><path d="M 79.64726062577567 105.17358676015961 l -26.744619037192866 6.798377575235218 a48.59515510193846,48.59515510193846 0 0,0 -0.19857478374389034,-0.8102528814861782 l 26.85738134745305 -6.33826886914094" fill="#fffd17" stroke="none" /><path d="M 79.48165901384964 104.47187691870673 l -30.142580460217577 6.569435117648729 a51.850164255084394,51.850164255084394 0 0,0 -0.18207380030011966,-0.8712890458937436 l 30.250911971342063 -6.051029620469577" fill="#d2ff1c" stroke="none" /><path d="M 79.34024301695615 103.76489593502545 l -23.358768435763313 4.256745730512911 a44.74346114301477,44.74346114301477 0 0,0 -0.13121591526293747,-0.7568185299640756 l 23.42839916851848 -3.8551341676282425" fill="#ffc312" stroke="none" /><path d="M 79.17382384314188 102.69636545807758 l -41.58900959357621 5.384529932867598 a62.936128595430944,62.936128595430944 0 0,0 -0.12952229413277128,-1.0726303987746093 l 41.675313973968635 -4.669805857169589" fill="#40ff2d" stroke="none" /><path d="M 79.0935383218832 101.97986365728391 l -29.996144045261513 2.8406660279596423 a51.130350828798555,51.130350828798555 0 0,0 -0.07525018639579666,-0.8745212313334675 l 30.040487854355053 -2.3253237492505128" fill="#dcff1b" stroke="none" /><path d="M 79.03789590574601 101.26102812881392 l -37.57026679761413 2.2601339553419053 a58.63818742633598,58.63818742633598 0 0,0 -0.05182055027525626,-1.0053048313687085 l 37.603528937345956 -1.6148573305964662" fill="#76ff27" stroke="none" /><path d="M 79.01933749520258 100.90099992219065 l -25.102725300187064 1.078019034769282 a46.12586202572912,46.12586202572912 0 0,0 -0.02718199905279021,-0.7913742442595217 l 25.117531986236703 -0.6469385259456404" fill="#ffd814" stroke="none" /><line stroke="#e1ed5e" stroke-width="0.3" x1="15.003131293944662" x2="10.003315487706104" y1="100.72959589197737" y2="100.7725132973878" /><path d="M 14.003168132696942 100.73817937305945 a86.0,86.0 0 0,1 10.791469493833604,-42.45332614584628" fill="none" id="id10" stroke="none" /><text fill="#e1ed5e" style="font-size:6.75px; font-family:Arial;" text-anchor="middle"><textPath startOffset="22.145653131862435" xlink:href="#id10">October</textPath></text><path d="M 79.00077361379809 100.18025310272382 l -53.21274987044097 0.45676745858200424 a74.21471023396947,74.21471023396947 0 0,0 0.0,-1.274041122611624 l 53.21274987044097 0.4567674585819847" fill="#3effb7" stroke="none" /><path d="M 79.00696218219943 99.45929381324524 l -32.286706907613514 -0.8315910411060907 a53.29741454974045,53.29741454974045 0 0,0 0.031408199395793056,-0.9144154560571247 l 32.26767402122087 1.3857127617273541" fill="#bdff1f" stroke="none" /><path d="M 79.03789590574601 98.7389718711861 l -32.30373893073015 -1.943312716812527 a53.36213857612157,53.36213857612157 0 0,0 0.06285561581591395,-0.9139068590519186 l 32.26561935374917 2.4975630000187707" fill="#bcff1f" stroke="none" /><path d="M 79.06263194458094 98.37931529534042 l -25.10525484878288 -1.943305502024283 a46.18035459036537,46.18035459036537 0 0,0 0.06796511728199248,-0.78985768540891 l 25.068196108803146 2.3739842348088738" fill="#ffd914" stroke="none" /><path d="M 79.13060592940154 97.66154086499901 l -25.71249545915148 -2.8811387473311556 a46.873410738019416,46.873410738019416 0 0,0 0.09646528676146952,-0.7988709565381927 l 25.65924808613034 3.3221033807927847" fill="#ffe315" stroke="none" /><path d="M 79.2786578344484 96.59031103205396 l -31.73092154326352 -5.221311064912228 a53.15763472678486,53.15763472678486 0 0,0 0.15589155411096137,-0.89914105754363 l 31.636615171660324 5.7652451553764505" fill="#bfff1e" stroke="none" /><path d="M 79.407916724674 95.88100663000787 l -38.47024212011393 -7.695125845990088 a60.232314366677535,60.232314366677535 0 0,0 0.21150803541643715,-1.0121425162383813 l 38.33247637387313 8.354384813513878" fill="#62ff29" stroke="none" /><path d="M 79.56144815229197 95.17655741523228 l -29.304954414328584 -6.9158894485276425 a51.10996313664519,51.10996313664519 0 0,0 0.20885106459125438,-0.8521836141328636 l 29.181915823221033 7.417928887268624" fill="#dcff1b" stroke="none" /><path d="M 79.73907114497095 94.47779374421319 l -24.269409587943063 -6.614735504464582 a46.15470070466685,46.15470070466685 0 0,0 0.2149083920356512,-0.7626340675784482 l 24.152282703832828 7.030377495946043" fill="#ffd914" stroke="none" /><path d="M 79.94057633289273 93.78553927170692 l -50.59212596633525 -15.673569948781399 a73.9643654236778,73.9643654236778 0 0,0 0.3861478202657013,-1.2096025471360325 l 50.315613430292295 16.539741529608822" fill="#3effb4" stroke="none" /><path d="M 80.05021161711548 93.44210830539832 l -23.973612841679977 -7.880602717517027 a46.23564962258946,46.23564962258946 0 0,0 0.25432817021339355,-0.7518760440816029 l 23.834799249894218 8.290980436072791" fill="#ffda14" stroke="none" /><path d="M 80.28708602549916 92.7611449362534 l -23.555018032990397 -8.64972889271043 a46.09296085462798,46.09296085462798 0 0,0 0.279124300611953,-0.7404103693350292 l 23.403063048564007 9.052807542239602" fill="#ffd814" stroke="none" /><path d="M 80.5471966667186 92.08871423366112 l -24.67250195629916 -10.034091755448374 a47.634852170424054,47.634852170424054 0 0,0 0.3145582331125356,-0.7548252485661133 l 24.496617878650145 10.45614951345575" fill="#ffef16" stroke="none" /><path d="M 80.83023694016515 91.42560881287825 l -48.5891664667309 -21.733316131321963 a74.22822679740202,74.22822679740202 0 0,0 0.5302565317082487,-1.1587062178503122 l 48.20892547016761 22.564211331386947" fill="#3effb7" stroke="none" /><path d="M 81.1358732173502 90.77261029715801 l -24.266942698500927 -11.870177705842911 a48.01454472502947,48.01454472502947 0 0,0 0.36852326123232615,-0.7372933864105661 l 24.059599524056853 12.285002948417247" fill="#fff517" stroke="none" /><path d="M 81.46374523516351 90.13048839642627 l -22.195840133022735 -11.818034685167301 a46.145998946761296,46.145998946761296 0 0,0 0.37829753882524236,-0.6960248628986635 l 21.989697244582143 12.197314381540584" fill="#ffd814" stroke="none" /><path d="M 81.63589988554816 89.8137432299009 l -42.02515092628059 -23.3106428014069 a69.05725104696944,69.05725104696944 0 0,0 0.5839173185373765,-1.031725951978721 l 41.618800242721846 24.028625523484727" fill="#36ff72" stroke="none" /><line stroke="#e1ed5e" stroke-width="0.3" x1="26.387840678322718" x2="22.05771365940052" y1="57.49999999999999" y2="54.99999999999999" /><path d="M 25.521815274538284 56.99999999999999 a86.0,86.0 0 0,1 29.574782752854787,-30.34633250058573" fill="none" id="id11" stroke="none" /><text fill="#e1ed5e" style="font-size:6.75px; font-family:Arial;" text-anchor="middle"><textPath startOffset="21.40746469413373" xlink:href="#id11">November</textPath></text><path d="M 81.99639281039701 89.18935116829357 l -27.37210805234801 -16.43616442089145 a52.92772776287083,52.92772776287083 0 0,0 0.4744139968359993,-0.7749196102355882 l 27.08592609105662 16.90362114725158" fill="#c3ff1e" stroke="none" /><path d="M 82.37810715431573 88.57770195909679 l -23.175917051337702 -15.022349429190998 a48.618727587331044,48.618727587331044 0 0,0 0.45996918963682026,-0.6964519784676655 l 22.914623422780156 15.417981285997724" fill="#fffe18" stroke="none" /><path d="M 84.10781606972428 86.27271002978789 l -13.340262995897538 -11.523001446938265 a38.62788073325476,38.62788073325476 0 0,0 0.43776229701150876,-0.49809313508261055 l 13.140489634927437 11.750306859832175" fill="#ff6008" stroke="none" /><path d="M 85.08716467003674 85.21462403516908 l -23.240079720522303 -23.041447754081226 a53.72628332121273,53.72628332121273 0 0,0 0.6549696491245972,-0.64937165157341 l 22.84111815126773 23.43699941588331" fill="#b7ff1f" stroke="none" /><path d="M 85.60350026404147 84.71141617570332 l -20.94405787358582 -22.241863667836768 a51.550843844822836,51.550843844822836 0 0,0 0.6494675497611173,-0.6011374680713659 l 20.559160552510747 22.5981188820405" fill="#d6ff1c" stroke="none" /><path d="M 86.40962598614128 83.9905735841838 l -7.800820187239487 -9.189346565684765 a33.053915791057506,33.053915791057506 0 0,0 0.43572248797217544,-0.3634951964736849 l 7.641923365105403 9.321903946070332" fill="#ff0000" stroke="none" /><path d="M 86.96720088162412 83.53348406188908 l -29.22075088312232 -36.91946417420605 a68.08395817137699,68.08395817137699 0 0,0 0.9226674964497079,-0.7174718259437542 l 28.58267344203737 37.41563705177061" fill="#35ff65" stroke="none" /><path d="M 88.4268655584334 82.4767994020092 l -13.946850282717465 -21.117308923365492 a46.30721970057928,46.30721970057928 0 0,0 0.667076156650273,-0.43239070535522744 l 13.582288493810166 21.353613470424627" fill="#ffdb14" stroke="none" /><line stroke="#e1ed5e" stroke-width="0.3" x1="56.869717070023135" x2="54.33264160355391" y1="26.7553504044142" y2="22.446841604673864" /><path d="M 56.362301976729285 25.89364864446614 a86.0,86.0 0 0,1 42.16139366436587,-11.88097634709845" fill="none" id="id12" stroke="none" /><text fill="#e1ed5e" style="font-size:6.75px; font-family:Arial;" text-anchor="middle"><textPath startOffset="22.145653131862474" xlink:href="#id12">December</textPath></text><path d="M 89.34428304082924 81.90426304109057 l -19.814892138935274 -33.650018801103656 a60.05065576648193,60.05065576648193 0 0,0 0.892774620962761,-0.5154436677385134 l 19.234325050112112 33.98520936611835" fill="#64ff29" stroke="none" /><path d="M 89.97174638481275 81.54914285379989 l -12.010464040707024 -22.097901068143326 a46.15091406073677,46.15091406073677 0 0,0 0.6993208102761743,-0.37234894207077357 l 11.629354414644288 22.300820477936675" fill="#ffd814" stroke="none" /><path d="M 90.61103034731259 81.2157712731953 l -13.325585820813952 -26.660098097685136 a50.8049000677082,50.8049000677082 0 0,0 0.7834593416282346,-0.3832292236386403 l 12.865966229923664 26.88492107142099" fill="#e1ff1b" stroke="none" /><path d="M 91.26138138417902 80.90454125486306 l -26.215855847462933 -57.286376235410835 a84.0,84.0 0 0,0 1.3163463885775248,-0.5887849963606175 l 25.22859605602979 57.7279649826813" fill="#4dd2ff" stroke="none" /><path d="M 92.25597844496254 80.48000691201159 l -9.25118987985242 -23.31904182174165 a46.08709281039196,46.08709281039196 0 0,0 0.7378932830423246,-0.2854329736339088 l 8.849524334316566 23.474414683513597" fill="#ffd814" stroke="none" /><path d="M 92.93061703081487 80.22567764915836 l -8.473649314397964 -23.702305245207 a46.17145221556286,46.17145221556286 0 0,0 0.7486244274142405,-0.2604104367140908 l 8.06551911493872 23.84427411448968" fill="#ffd914" stroke="none" /><path d="M 93.95794788825049 79.88797359093562 l -8.334377751816712 -27.74243292633913 a49.967299445795824,49.967299445795824 0 0,0 0.8236038291186399,-0.23973907132562366 l 7.856913910316448 27.881415691967277" fill="#edff1a" stroke="none" /><path d="M 94.6519064749342 79.69241777938228 l -3.9448573768690203 -14.979266004588474 a36.49000677082027,36.49000677082027 0 0,0 0.6071150102807008,-0.1543262615085755 l 3.6871370733629414 15.044777497932312" fill="#ff3c05" stroke="none" /><path d="M 95.00130118170881 79.60360301121753 l -7.587577081312615 -30.9599037587834 a52.876119066128346,52.876119066128346 0 0,0 0.8834538102535594,-0.2084926936998294 l 7.054991117319149 31.085592596129462" fill="#c3ff1e" stroke="none" /><path d="M 96.05791012581881 79.37332000966035 l -7.497345906428381 -39.22928185925812 a60.939288311558045,60.939288311558045 0 0,0 1.0291928060108961,-0.18755321347139273 l 6.822818366866447 39.35220324666088" fill="#59ff2a" stroke="none" /><path d="M 96.41257539226777 79.30868818359171 l -2.5786993280525783 -14.873252461527715 a36.0951425633824,36.0951425633824 0 0,0 0.611421630490557,-0.1006091966240043 l 2.3230001945089485 14.915327656647388" fill="#ff3505" stroke="none" /><path d="M 97.12497278360702 79.19773525538626 l -3.4153558798874872 -24.711813789237315 a45.94671113674549,45.94671113674549 0 0,0 0.7822365829792266,-0.10127618658864274 l 2.990641475017467 24.766801572026353" fill="#ffd513" stroke="none" /><path d="M 97.84075906011542 79.11130261209362 l -2.08527541780713 -20.173148057919658 a41.280637961732324,41.280637961732324 0 0,0 0.7055066184862301,-0.06681221028311207 l 1.7386692359358844 20.20597202370795" fill="#ff8c0c" stroke="none" /><path d="M 98.5590905019552 79.04949213459386 l -1.5116268819289957 -21.978723106749843 a43.030644231010356,43.030644231010356 0 0,0 0.7373723979955634,-0.04435849240621963 l 1.1341101318009486 22.00143357698076" fill="#ffa80f" stroke="none" /><path d="M 99.27912038922189 79.0123766808444 l -0.8742291294337095 -25.45222723581169 a46.46723675301553,46.46723675301553 0 0,0 0.7974368313194948,-0.020539144071612506 l 0.43717898404347066 25.463484097233348" fill="#ffdd14" stroke="none" /></svg>