<?xml version="1.0" encoding="utf-8" ?>
<svg baseProfile="full" height="200mm" version="1.1" viewBox="0,0,200,200" width="200mm" xmlns="http://www.w3.org/2000/svg" xmlns:ev="http://www.w3.org/2001/xml-events" xmlns:xlink="http://www.w3.org/1999/xlink"><defs /><rect fill="#1a1a1a" height="200" width="200" x="0" y="0" /><text alignment-baseline="middle" fill="#e1ed5e" style="dominant-baseline: central; font-size:9.0px; font-family:Arial;" text-anchor="middle" x="100.0" y="100.0">2026</text><line stroke="#e1ed5e" stroke-width="0.3" x1="100.0" x2="100.0" y1="15.0" y2="10.0" /><path d="M 100.0 14.0 a86.0,86.0 0 0,1 42.46469731375804,11.215312516191453" fill="none" id="id109" stroke="none" /><text fill="#e1ed5e" style="font-size:6.75px; font-family:Arial;" text-anchor="middle"><textPath startOffset="22.20632615414155" xlink:href="#id109">January</textPath></text><path d="M 103.59715602781102 79.31037775812273 l 5.981242440904503 -34.402079221096024 a55.91816598665291,55.91816598665291 0 0,0 0.9468939354205521,0.17303881430438783 l -6.572531497427956 34.2940249254409" fill="red" stroke="none" /><path d="M 104.66035177308747 79.52364482259891 l 7.169315156289123 -31.500077819585965 a53.3056339119072,53.3056339119072 0 0,0 0.8929361600788661,0.21132913948041018 l -7.710475003330513 31.372002767964688" fill="red" stroke="none" /><path d="M 105.01212808612495 79.60689891045804 l 7.547364225661836 -30.70834563059036 a52.62222633089894,52.62222633089894 0 0,0 0.8777665781580346,0.22376224506061837 l -8.074839692504895 30.573880389360877" fill="red" stroke="none" /><path d="M 105.71112130821622 79.79150937346287 l 14.299713855440903 -50.59875597356165 a73.58056601463633,73.58056601463633 0 0,0 1.2158655329774262,0.35494449030430064 l -15.168569606141755 50.34511315433865" fill="red" stroke="none" /><path d="M 107.4271985657038 80.35727306442388 l 18.593484455669955 -49.17422561315285 a73.57206605086486,73.57206605086486 0 0,0 1.180715468804663,0.45809925838081833 l -19.43718308947429 48.84688365088148" fill="red" stroke="none" /><path d="M 109.41281617654863 81.2277094730956 l 15.66642166090249 -31.244062714001142 a55.951798559353584,55.951798559353584 0 0,0 0.8572335422389805,0.4391083154662254 l -16.201915690730225 30.969761873222417" fill="red" stroke="none" /><path d="M 110.36928655335952 81.73862282372117 l 31.107859660078564 -54.7841315288365 a84.0,84.0 0 0,0 1.2512130701386868,0.7247833704398019 l -32.04626946268258 54.24054400100664" fill="red" stroke="none" /><line stroke="#e1ed5e" stroke-width="0.3" x1="143.23703022742887" x2="145.7803849466894" y1="26.81831364943548" y2="22.513508569990506" /><path d="M 143.74570117128098 25.957352633546492 a86.0,86.0 0 0,1 28.547481713284135,27.462654790039103" fill="none" id="id110" stroke="none" /><text fill="#e1ed5e" style="font-size:6.75px; font-family:Arial;" text-anchor="middle"><textPath startOffset="19.985693538727396" xlink:href="#id110">February</textPath></text><path d="M 111.2981086023043 82.29822771554956 l 28.262392118965646 -44.28125512988428 a73.53182239523082,73.53182239523082 0 0,0 1.0610746114251843,0.6901524429814526 l -29.020433756175112 43.788203762743294" fill="red" stroke="none" /><path d="M 111.90073688211348 82.69761687909136 l 19.61340821844861 -28.51577231426939 a55.60975372092035,55.60975372092035 0 0,0 0.7840150672469864,0.5492526577087387 l -20.101354425279244 28.173934813796716" fill="red" stroke="none" /><path d="M 112.48926042617603 83.11751280151076 l 31.245852457265528 -42.2369048378617 a73.53817113360334,73.53817113360334 0 0,0 1.0111633219239153,0.7615872504589858 l -31.968261932947826 41.69280099789687" fill="red" stroke="none" /><path d="M 113.34407831869373 83.78471172551755 l 22.2567785249877 -27.04571055600001 a56.026199476809985,56.026199476809985 0 0,0 0.7393923294201395,0.6192198121043143 l -22.719028391366955 26.65858958650188" fill="red" stroke="none" /><path d="M 113.89432698308785 84.25364557470407 l 20.983354338333495 -23.78030507308102 a52.71441420958082,52.71441420958082 0 0,0 0.6752189627471931,0.6062182516076 l -21.389584288676676 23.415587812704125" fill="red" stroke="none" /><path d="M 114.42810811169701 84.74124197986012 l 36.08279727591902 -38.16014324682328 a73.51823294697891,73.51823294697891 0 0,0 0.9120348372711234,0.8773767908505662 l -36.73431535680257 37.53338336921041" fill="red" stroke="none" /><path d="M 115.19652480421416 85.50635884689758 l 23.742393918847004 -22.644238864397668 a53.809492875471285,53.809492875471285 0 0,0 0.6334983346197173,0.6757718539782951 l -24.128659575437183 22.23219759354132" fill="red" stroke="none" /><line stroke="#e1ed5e" stroke-width="0.3" x1="172.23445277983987" x2="176.4835382374775" y1="55.19839476539836" y2="52.563006222186495" /><path d="M 173.08426987136738 54.67131705675599 a86.0,86.0 0 0,1 12.851231095245387,41.99856678651699" fill="none" id="id111" stroke="none" /><text fill="#e1ed5e" style="font-size:6.75px; font-family:Arial;" text-anchor="middle"><textPath startOffset="22.20632615414155" xlink:href="#id111">March</textPath></text><line stroke="#e1ed5e" stroke-width="0.3" x1="184.98032266829074" x2="189.97916517819016" y1="98.17113171792111" y2="98.06355123074" /><path d="M 185.9800911702706 98.14961562048488 a86.0,86.0 0 0,1 -9.607161424134198,41.387399972396054" fill="none" id="id112" stroke="none" /><text fill="#e1ed5e" style="font-size:6.75px; font-family:Arial;" text-anchor="middle"><textPath startOffset="21.466115282336823" xlink:href="#id112">April</textPath></text><line stroke="#e1ed5e" stroke-width="0.3" x1="174.80103733775053" x2="179.2010983576182" y1="140.37084112569926" y2="142.7455964860345" /><path d="M 175.68104954172406 140.8457921977663 a86.0,86.0 0 0,1 -30.038265399797805,32.042727171017184" fill="none" id="id113" stroke="none" /><text fill="#e1ed5e" style="font-size:6.75px; font-family:Arial;" text-anchor="middle"><textPath startOffset="22.206326154141568" xlink:href="#id113">May</textPath></text><line stroke="#e1ed5e" stroke-width="0.3" x1="143.8653032363475" x2="146.44561519142675" y1="172.8068346515853" y2="177.08958963109032" /><path d="M 144.38136562736335 173.6633856474863 a86.0,86.0 0 0,1 -40.68145358897372,12.25698825130547" fill="none" id="id114" stroke="none" /><text fill="#e1ed5e" style="font-size:6.75px; font-family:Arial;" text-anchor="middle"><textPath startOffset="21.466115282336833" xlink:href="#id114">June</textPath></text><line stroke="#e1ed5e" stroke-width="0.3" x1="102.19456741930631" x2="102.32365962044197" y1="184.97166512339345" y2="189.96999836594603" /><path d="M 102.22038585953345 185.97133177190398 a86.0,86.0 0 0,1 -42.740103519485714,-10.115201625700543" fill="none" id="id115" stroke="none" /><text fill="#e1ed5e" style="font-size:6.75px; font-family:Arial;" text-anchor="middle"><textPath startOffset="22.20632615414155" xlink:href="#id115">July</textPath></text><line stroke="#e1ed5e" stroke-width="0.3" x1="58.666819895761336" x2="56.23545636021788" y1="174.27360380694188" y2="178.64263932499728" /><path d="M 58.180547188652646 175.14741091055294 a86.0,86.0 0 0,1 -31.652253787137756,-30.449443065178592" fill="none" id="id116" stroke="none" /><text fill="#e1ed5e" style="font-size:6.75px; font-family:Arial;" text-anchor="middle"><textPath startOffset="22.20632615414155" xlink:href="#id116">August</textPath></text><line stroke="#e1ed5e" stroke-width="0.3" x1="26.63291911575756" x2="22.317208475507996" y1="142.92168965132927" y2="145.44649492493687" /><path d="M 25.769776987707644 143.4266507060508 a86.0,86.0 0 0,1 -11.730757126820373,-40.83630448921669" fill="none" id="id117" stroke="none" /><text fill="#e1ed5e" style="font-size:6.75px; font-family:Arial;" text-anchor="middle"><textPath startOffset="21.46611528233685" xlink:href="#id117">September</textPath></text><line stroke="#e1ed5e" stroke-width="0.3" x1="15.007084014347285" x2="10.007500721073583" y1="101.09737516637583" y2="101.16192664675087" /><path d="M 14.007167355692545 101.11028546245083 a86.0,86.0 0 0,1 10.666146001902534,-42.60595125391555" fill="none" id="id118" stroke="none" /><text fill="#e1ed5e" style="font-size:6.75px; font-family:Arial;" text-anchor="middle"><textPath startOffset="22.20632615414155" xlink:href="#id118">October</textPath></text><line stroke="#e1ed5e" stroke-width="0.3" x1="26.266209847984243" x2="21.928928074336255" y1="57.711370442889674" y2="55.22380399835377" /><path d="M 25.398753493254645 57.213857153982495 a86.0,86.0 0 0,1 29.58750427330803,-30.492523968695096" fill="none" id="id119" stroke="none" /><text fill="#e1ed5e" style="font-size:6.75px; font-family:Arial;" text-anchor="middle"><textPath startOffset="21.46611528233685" xlink:href="#id119">November</textPath></text><line stroke="#e1ed5e" stroke-width="0.3" x1="56.762969772571076" x2="54.21961505331055" y1="26.818313649435495" y2="22.513508569990535" /><path d="M 56.25429882871897 25.957352633546506 a86.0,86.0 0 0,1 42.265352541879196,-11.944610805530505" fill="none" id="id120" stroke="none" /><text fill="#e1ed5e" style="font-size:6.75px; font-family:Arial;" text-anchor="middle"><textPath startOffset="22.20632615414155" xlink:href="#id120">December</textPath></text></svg>