<?xml version="1.0" encoding="utf-8" ?>
<svg baseProfile="full" height="200mm" version="1.1" viewBox="0,0,200,200" width="200mm" xmlns="http://www.w3.org/2000/svg" xmlns:ev="http://www.w3.org/2001/xml-events" xmlns:xlink="http://www.w3.org/1999/xlink"><defs /><rect fill="#1a1a1a" height="200" width="200" x="0" y="0" /><text alignment-baseline="middle" fill="#e1ed5e" style="dominant-baseline: central; font-size:9.0px; font-family:Arial;" text-anchor="middle" x="100.0" y="100.0">2024</text><line stroke="#e1ed5e" stroke-width="0.3" x1="100.0" x2="100.0" y1="15.0" y2="10.0" /><path d="M 100.0 14.0 a86.0,86.0 0 0,1 42.35913384403234,11.155469271406648" fill="none" id="id85" stroke="none" /><text fill="#e1ed5e" style="font-size:6.75px; font-family:Arial;" text-anchor="middle"><textPath startOffset="22.145653131862478" xlink:href="#id85">January</textPath></text><path d="M 100.0 79.0 l 0.0 -35.75041100308024 a56.75041100308024,56.75041100308024 0 0,0 0.9741962689940489,0.008362303301970029 l -0.613703344145194 35.7451430979727" fill="#74ff27" stroke="none" /><path d="M 101.80034050326958 79.07731436759882 l 4.555596781273825 -52.942940043547146 a74.13857697086158,74.13857697086158 0 0,0 1.267065125945526,0.11999238478968574 l -5.463761470604363 52.85693590325228" fill="#3fffc0" stroke="none" /><path d="M 102.15924093988457 79.11130261209362 l 1.361417545787446 -13.170479777055549 a34.24065690559978,34.24065690559978 0 0,0 0.5841522892800552,0.06545548243890666 l -1.5873057366682979 13.145168534109672" fill="#ff5407" stroke="none" /><path d="M 102.87502721639298 79.19773525538626 l 3.2367643541142526 -23.419614474011272 a44.64222886268092,44.64222886268092 0 0,0 0.7582267745254481,0.11143322488225653 l -3.6383162342473825 23.360600175830132" fill="#ffee16" stroke="none" /><path d="M 103.58742460773223 79.30868818359171 l 6.735181247488158 -38.84673563074509 a60.42627975857621,60.42627975857621 0 0,0 1.020528695766381,0.18597432396813904 l -7.401044676805593 38.72539313284558" fill="#4aff2c" stroke="none" /><path d="M 104.29559338865022 79.4440306129975 l 11.3710059349828 -54.414379749377986 a76.58978772655038,76.58978772655038 0 0,0 1.2846572257358861,0.27998506312453697 l -12.303425577337821 54.21116322811973" fill="#43ffdc" stroke="none" /><path d="M 105.3480935250658 79.69241777938227 l 6.676926880516827 -25.35337891374661 a47.217840775162614,47.217840775162614 0 0,0 0.7820592013955143,0.21315371300314268 l -7.111167482847034 25.235024706599326" fill="#edff1a" stroke="none" /><path d="M 106.04205211174951 79.88797359093562 l 11.224712334649984 -37.363416722214225 a60.01306289120967,60.01306289120967 0 0,0 0.9840981122215248,0.3048761107337408 l -11.86445107974314 37.16522402367384" fill="#4fff2b" stroke="none" /><path d="M 107.06938296918511 80.22567764915836 l 13.056504415265158 -36.521366604135345 a59.78508123208576,59.78508123208576 0 0,0 0.9634247646751053,0.35378291841218534 l -13.681518331594388 36.29185283671443" fill="#51ff2b" stroke="none" /><path d="M 108.73861861582097 80.90454125486305 l 18.18181585671925 -39.730548942264605 a64.69319108398162,64.69319108398162 0 0,0 1.005859858313682,0.47079320253245854 l -18.861164428904438 39.41257950816161" fill="#32ff49" stroke="none" /><path d="M 109.71004243097381 81.37971332152246 l 12.138420616401692 -23.27702204270122 a47.25187631840978,47.25187631840978 0 0,0 0.7160035961708666,0.3812315858980472 l -12.536213028359118 23.0652199890806" fill="#edff1a" stroke="none" /><path d="M 110.34350942703115 81.72400993836675 l 7.802269029246871 -13.785861775700331 a36.840624574285584,36.840624574285584 0 0,0 0.5477104990866334,0.31622080408565206 l -8.037771996193902 13.649894074338507" fill="#ff7c0b" stroke="none" /><line stroke="#e1ed5e" stroke-width="0.3" x1="143.13028292997686" x2="145.6673583964461" y1="26.7553504044142" y2="22.446841604673864" /><path d="M 143.63769802327073 25.89364864446614 a86.0,86.0 0 0,1 29.32050498858742,28.57503671076993" fill="none" id="id86" stroke="none" /><text fill="#e1ed5e" style="font-size:6.75px; font-family:Arial;" text-anchor="middle"><textPath startOffset="20.669276256404974" xlink:href="#id86">February</textPath></text><path d="M 111.5731344415666 82.4767994020092 l 13.011616932751036 -19.701246431381307 a44.61019453868748,44.61019453868748 0 0,0 0.6353845131064915,0.42751505672791396 l -13.347897733954529 19.474981700596274" fill="#ffed16" stroke="none" /><path d="M 111.8722381534696 82.67804972795209 l 9.807404123440088 -14.309295713922259 a38.347654581209056,38.347654581209056 0 0,0 0.5397978541037343,0.37682082497841773 l -10.051597068717584 14.138830073138713" fill="#ff930d" stroke="none" /><path d="M 112.7482090630111 83.31218511350987 l 9.606342398304907 -12.575010567114846 a36.82443379829182,36.82443379829182 0 0,0 0.49904131683011066,0.38805754639151363 l -9.820793659770244 12.408251969102542" fill="#ff7c0b" stroke="none" /><path d="M 115.6541949942343 86.00192230759917 l 19.589669165833367 -17.517202963982708 a47.27941281132756,47.27941281132756 0 0,0 0.535808435791926,0.609651642933273 l -19.88748866558388 17.178339043238136" fill="#ecff1a" stroke="none" /><path d="M 116.1254893667686 86.54754324733833 l 20.143196954023036 -16.804171316671326 a47.23220458079348,47.23220458079348 0 0,0 0.5140509805386769,0.6270586127369098 l -20.428694753800343 16.45591042223592" fill="#edff1a" stroke="none" /><path d="M 116.57777611688842 87.10902102172516 l 25.843139685223925 -20.095781730063074 a53.73695636635044,53.73695636635044 0 0,0 0.560010792560652,0.7330721040498404 l -26.184302455138884 19.649188712772354" fill="#99ff23" stroke="none" /><path d="M 117.01052211995028 87.68569379921539 l 21.25405082860571 -15.386293734248735 a47.23876352844274,47.23876352844274 0 0,0 0.469879260247869,0.6609440241305229 l -21.51504518738354 15.019172483408708" fill="#edff1a" stroke="none" /><path d="M 117.42321728460499 88.27688183743584 l 21.75278076088574 -14.636241691684628 a47.21837221660735,47.21837221660735 0 0,0 0.44672079016116883,0.6763922130872111 l -22.000825989967634 14.260669600258359" fill="#edff1a" stroke="none" /><path d="M 117.81537515405839 88.88188828441811 l 37.23947791456782 -23.240188438568584 a64.8962990924037,64.8962990924037 0 0,0 0.581693451308294,0.9501525367520897 l -37.63293933033152 22.59749878569194" fill="#32ff4b" stroke="none" /><line stroke="#e1ed5e" stroke-width="0.3" x1="172.87174338648825" x2="177.1583165268699" y1="56.24261187166439" y2="53.66864786411523" /><path d="M 173.72905801456457 55.72781907015455 a86.0,86.0 0 0,1 12.242430191666344,42.057860355516425" fill="none" id="id87" stroke="none" /><text fill="#e1ed5e" style="font-size:6.75px; font-family:Arial;" text-anchor="middle"><textPath startOffset="22.145653131862474" xlink:href="#id87">March</textPath></text><path d="M 119.16976305983485 91.42560881287824 l 24.085803494442388 -10.773273544011792 a47.385400372687116,47.385400372687116 0 0,0 0.32575458575602123,0.7453902419979123 l -24.267191962215378 10.35822123223803" fill="#ebff1a" stroke="none" /><path d="M 119.71291397450082 92.76114493625339 l 24.62815785906951 -9.04380070138213 a47.236167606141855,47.236167606141855 0 0,0 0.2729796794503415,0.763572747467489 l -24.779777708563795 8.619692997533726" fill="#edff1a" stroke="none" /><path d="M 119.94978838288452 93.4421083053983 l 25.050941349870364 -8.234741996622402 a47.36969166041919,47.36969166041919 0 0,0 0.24730426708255945,0.7746770943180386 l -25.188610332730182 7.803495868612976" fill="#ebff1a" stroke="none" /><path d="M 120.16314734710363 94.1308016681162 l 25.210763303463526 -7.338485772036991 a47.25711255583242,47.25711255583242 0 0,0 0.22004151075764267,0.7808496950522512 l -25.333023306295754 6.904628153081727" fill="#edff1a" stroke="none" /><path d="M 120.26092885502905 94.47779374421319 l 25.300185605330363 -6.895678091660839 a47.22307701258525,47.22307701258525 0 0,0 0.2064559627868409,0.7839469185758077 l -25.414831048921933 6.460350668712233" fill="#edff1a" stroke="none" /><path d="M 120.43855184770803 95.1765574152323 l 25.613719005193158 -6.044767942684599 a47.31732928619279,47.31732928619279 0 0,0 0.17978137795892962,0.792149923177466 l -25.713711244709756 5.604183685568107" fill="#ecff1a" stroke="none" /><path d="M 120.592083275326 95.88100663000786 l 25.72397312631216 -5.145515067147 a47.23354948743054,47.23354948743054 0 0,0 0.15221282964231675,0.7964418437081502 l -25.80851224823663 4.703170658405535" fill="#edff1a" stroke="none" /><path d="M 120.7213421655516 96.59031103205396 l 19.43733451249096 -3.1984059972571304 a40.69872518397479,40.69872518397479 0 0,0 0.10751926405151092,0.6903508043264903 l -19.489375268680735 2.864267010999199" fill="#ffb510" stroke="none" /><path d="M 120.77682067341334 96.94652285012252 l 28.63052430153218 -4.207701126073117 a49.93806611622452,49.93806611622452 0 0,0 0.11736749502209624,0.8492127274276627 l -28.69853631310949 3.715600090445369" fill="#c9ff1d" stroke="none" /><path d="M 120.93736805541906 98.37931529534042 l 27.040203791794653 -2.093082787685769 a48.12109173056815,48.12109173056815 0 0,0 0.05668215208698815,0.8241460513224442 l -27.072149905046707 1.6285933122089904" fill="#e1ff1b" stroke="none" /><path d="M 120.98066250479742 99.09900007780936 l 26.334946743928924 -1.1309359254861033 a47.35921918557391,47.35921918557391 0 0,0 0.027908817190778677,0.8125347613189058 l -26.350480248116554 0.6786948996030776" fill="#ebff1a" stroke="none" /><line stroke="#e1ed5e" stroke-width="0.3" x1="184.99686870605535" x2="189.99668451229388" y1="99.2704041080226" y2="99.22748670261217" /><path d="M 185.99683186730306 99.26182062694052 a86.0,86.0 0 0,1 -10.086455211305974,41.156179273409016" fill="none" id="id88" stroke="none" /><text fill="#e1ed5e" style="font-size:6.75px; font-family:Arial;" text-anchor="middle"><textPath startOffset="21.40746469413373" xlink:href="#id88">April</textPath></text><path d="M 120.99922638620191 99.81974689727618 l 26.216874942620716 -0.22504034030677889 a47.217840775162614,47.217840775162614 0 0,0 0.0,0.8105868860612083 l -26.216874942620716 -0.22504034030677572" fill="#edff1a" stroke="none" /><path d="M 120.7213421655516 103.40968896794604 l 14.978424442241169 2.4646940420118018 a36.17985228823575,36.17985228823575 0 0,0 -0.10610203839404773,0.6119683619373973 l -14.933907586354886 -2.721455436869787" fill="#ff720a" stroke="none" /><path d="M 120.592083275326 104.11899336999214 l 15.621794059242465 3.1247963257075324 a36.93125235838471,36.93125235838471 0 0,0 -0.12968548052525602,0.6205919709857572 l -15.565850867892843 -3.3925047479786987" fill="#ff7d0b" stroke="none" /><path d="M 120.43855184770803 104.8234425847677 l 25.521986625150678 6.023119350768899 a47.22307701258525,47.22307701258525 0 0,0 -0.19296804971244713,0.7873754933352319 l -25.414831048921936 -6.4603506687122305" fill="#edff1a" stroke="none" /><path d="M 120.26092885502905 105.52220625578681 l 12.69303441161992 3.459542972303882 a34.156046524385076,34.156046524385076 0 0,0 -0.15903951113929443,0.5643751187981814 l -12.631776408406045 -3.6769260150050718" fill="#ff5307" stroke="none" /><path d="M 120.05942366710727 106.21446072829308 l 25.073571008335275 7.7678563918500485 a47.24925819969846,47.24925819969846 0 0,0 -0.24667551676370536,0.7727075428994172 l -24.936530775794314 -8.19713296844085" fill="#edff1a" stroke="none" /><path d="M 119.4528033332814 107.91128576633889 l 19.479416147839284 7.922108966337716 a42.028729489325556,42.028729489325556 0 0,0 -0.2775380270065108,0.6659902306444871 l -19.340552276296286 -8.255331706423481" fill="#ffc912" stroke="none" /><path d="M 118.8641267826498 109.22738970284198 l 19.000470464756944 9.294082230029606 a42.151781068757614,42.151781068757614 0 0,0 -0.3235251300448767,0.6472669809825918 l -18.838125421500337 -9.618881067175943" fill="#ffca12" stroke="none" /><path d="M 118.5362547648365 109.86951160357373 l 28.639700981830092 15.249027635251487 a53.446345189393874,53.446345189393874 0 0,0 -0.43814461287704826,0.8061367384375427 l -28.373711019337705 -15.738419207163632" fill="#9dff22" stroke="none" /><line stroke="#e1ed5e" stroke-width="0.3" x1="174.33088141563837" x2="178.70328620479359" y1="141.23008692659167" y2="143.65538615756765" /><path d="M 175.20536237346943 141.71514677278685 a86.0,86.0 0 0,1 -30.301960400862466,31.631185727798858" fill="none" id="id89" stroke="none" /><text fill="#e1ed5e" style="font-size:6.75px; font-family:Arial;" text-anchor="middle"><textPath startOffset="22.145653131862474" xlink:href="#id89">May</textPath></text><path d="M 117.62189284568427 111.42229804090321 l 10.604736812509204 6.8738622790731485 a33.637659019543634,33.637659019543634 0 0,0 -0.3182371799571957,0.4818516513642046 l -10.485175193631282 -7.054893808776414" fill="#ff4b06" stroke="none" /><path d="M 117.423217284605 111.72311816256416 l 10.921785969251726 7.348665023933667 a34.16390088051904,34.16390088051904 0 0,0 -0.33156922047018544,0.48376940173220473 l -10.794027011966222 -7.535069160735916" fill="#ff5307" stroke="none" /><path d="M 116.79662413953412 112.60449989151573 l 20.98052833477579 15.744179599589422 a47.23093136871921,47.23093136871921 0 0,0 -0.49220933036946457,0.6443178135854039 l -20.70716702705202 -16.102018326415703" fill="#edff1a" stroke="none" /><path d="M 116.35404254752997 113.17365903436017 l 24.483068199591234 19.721826676127527 a52.43836948553552,52.43836948553552 0 0,0 -0.5707121971361541,0.6961760840008895 l -24.14090918321645 -20.13920504182691" fill="#a9ff21" stroke="none" /><path d="M 115.89218393027572 113.72728997021213 l 9.942240847238615 8.587870846607052 a34.13771969340583,34.13771969340583 0 0,0 -0.3868761708911283,0.44019406459494875 l -9.7933536123889 -8.757277189013292" fill="#ff5207" stroke="none" /><path d="M 115.6541949942343 113.99807769240083 l 10.292974681494435 9.204041429823857 a34.807958083503856,34.807958083503856 0 0,0 -0.4021186028598814,0.4419987853540036 l -10.133458377792673 -9.379377790735532" fill="#ff5d08" stroke="none" /><path d="M 115.16444852881244 114.52719865689866 l 22.811822420319956 21.85320985436684 a52.590220370792096,52.590220370792096 0 0,0 -0.6301139797942373,0.6465524532807402 l -22.43332163937491 -22.241584999715315" fill="#a7ff21" stroke="none" /><path d="M 114.65682725009322 115.03919595460226 l 18.31686172612995 18.794713758454826 a47.244021962275816,47.244021962275816 0 0,0 -0.5856627997697078,0.5610517139508738 l -17.99152644049493 -19.106377602711277" fill="#edff1a" stroke="none" /><path d="M 114.13192950727249 115.5334660781643 l 17.659127109005855 19.41047411654378 a47.2414038435645,47.2414038435645 0 0,0 -0.6045436854631561,0.5405866913425093 l -17.323318396719323 -19.710756337769677" fill="#edff1a" stroke="none" /><path d="M 113.59037401385872 116.0094264158162 l 17.023068665844768 20.053132084467823 a47.30423869263619,47.30423869263619 0 0,0 -0.6235727320501744,0.5202065512090005 l -16.676321599632697 -20.342400819588693" fill="#ecff1a" stroke="none" /><path d="M 112.7482090630111 116.68781488649013 l 25.467725082452862 33.33806965788891 a62.952734230198296,62.952734230198296 0 0,0 -0.8643920359605984,0.6486558985295359 l -24.8916800575815 -33.77034458368246" fill="#30ff31" stroke="none" /><path d="M 111.8722381534696 117.32195027204791 l 14.940527802898314 21.798676567511514 a47.42729027206825,47.42729027206825 0 0,0 -0.6755085031369761,0.45451226789720295 l -14.564123011664336 -22.051938509465838" fill="#eaff1a" stroke="none" /><path d="M 111.27062007382361 117.71928675628689 l 14.099118045663243 22.166155369044535 a47.27020314938902,47.27020314938902 0 0,0 -0.6884249410705026,0.4296280789164904 l -13.716528975803026 -22.40491924480257" fill="#edff1a" stroke="none" /><line stroke="#e1ed5e" stroke-width="0.3" x1="143.1302829299769" x2="145.66735839644613" y1="173.24464959558577" y2="177.55315839532614" /><path d="M 143.63769802327073 174.10635135553383 a86.0,86.0 0 0,1 -40.68552437913181,11.842963189579606" fill="none" id="id90" stroke="none" /><text fill="#e1ed5e" style="font-size:6.75px; font-family:Arial;" text-anchor="middle"><textPath startOffset="21.407464694133747" xlink:href="#id90">June</textPath></text><path d="M 110.34350942703117 118.27599006163325 l 27.37842146291728 48.37504737529887 a76.58527836004367,76.58527836004367 0 0,0 -1.1497121002231934,0.6377259213124755 l -26.543965174537995 -48.83790621204449" fill="#43ffdc" stroke="none" /><path d="M 109.71004243097381 118.62028667847754 l 6.0843424771152765 11.667528950495297 a34.158664643096394,34.158664643096394 0 0,0 -0.5222579695006182,0.26666864046237565 l -5.883157285901077 -11.77025554263051" fill="#ff5307" stroke="none" /><path d="M 109.06512990194946 118.94263497670748 l 11.339003357790308 23.69415595027397 a47.2675850306777,47.2675850306777 0 0,0 -0.7349238085978341,0.3439814509023049 l -10.930590835320968 -23.885313632746808" fill="#edff1a" stroke="none" /><path d="M 108.4095320186766 119.2426549942271 l 10.52105388928844 24.07423025652605 a47.272821268100344,47.272821268100344 0 0,0 -0.7463814014399682,0.31858583769315635 l -10.10623741267804 -24.25129074387861" fill="#edff1a" stroke="none" /><path d="M 107.74402155503746 119.51999308798841 l 9.728992116983262 24.523415582833845 a47.3827822539758,47.3827822539758 0 0,0 -0.7586383654293347,0.29345761715633134 l -9.306581489060399 -24.686813088128215" fill="#ebff1a" stroke="none" /><path d="M 107.06938296918513 119.77432235084164 l 8.868207823263777 24.805955616758364 a47.343510473306,47.343510473306 0 0,0 -0.7676281927279405,0.2670209327697008 l -8.441073858490816 -24.954534982096657" fill="#ecff1a" stroke="none" /><path d="M 105.69591212413111 120.21278271476187 l 6.834929800519541 24.254754623628767 a46.19939259645897,46.19939259645897 0 0,0 -0.7651908576461132,0.208556170904052 l -6.417557541938733 -24.368511288676963" fill="#fbff18" stroke="none" /><path d="M 104.9986988182912 120.39639698878246 l 3.5447580540529753 14.463822512188127 a35.89185922999051,35.89185922999051 0 0,0 -0.5996809212522957,0.14152306456904962 l -3.2959449790608004 -14.522541720403401" fill="#ff6e0a" stroke="none" /><path d="M 104.29559338865022 120.5559693870025 l 4.562278820239703 21.832155718371183 a43.303753301738595,43.303753301738595 0 0,0 -0.7289537610411879,0.14581116774897812 l -4.186828573667556 -21.90725628278302" fill="#ffdb14" stroke="none" /><path d="M 103.58742460773223 120.69131181640829 l 3.262707331738908 18.818428858736922 a40.099175999082405,40.099175999082405 0 0,0 -0.6792466196146623,0.11176977277393595 l -2.9391832090711736 -18.871664630006528" fill="#ffad10" stroke="none" /><path d="M 103.2317021107853 120.74984581791261 l 3.823959950280263 24.552566004577383 a45.84856468914204,45.84856468914204 0 0,0 -0.7787158080256636,0.11444440722817069 l -3.401919036646914 -24.614591485104437" fill="#fffe18" stroke="none" /><path d="M 102.875027216393 120.80226474461374 l 1.0957398056084304 7.928227391208961 a29.0035889005065,29.0035889005065 0 0,0 -0.4937822036520769,0.06392999212687597 l -0.9594797800655781 -7.945868979536232" fill="#ff0000" stroke="none" /><path d="M 102.51750503828377 120.84855314841334 l 2.2061443814461725 18.270040254223154 a39.40275642187118,39.40275642187118 0 0,0 -0.6722187144726188,0.07532350907071851 l -1.8921897653727546 -18.305219523800844" fill="#ffa20f" stroke="none" /><path d="M 101.80034050326958 120.92268563240118 l 1.3875661375699881 16.1256218131059 a37.18520987338279,37.18520987338279 0 0,0 -0.6364532078230382,0.04926550349690893 l -1.110543934971714 -16.147065083597862" fill="#ff810b" stroke="none" /><path d="M 101.44090949804482 120.95050786540614 l 1.5727615902098606 22.86760834792936 a43.92162931761021,43.92162931761021 0 0,0 -0.7526403034993493,0.04527697168777596 l -1.1799769345780462 -22.891237297441826" fill="#ffe315" stroke="none" /><path d="M 100.72087961077811 120.9876233191556 l 0.9115892760347858 26.53992714060652 a47.55557808892294,47.55557808892294 0 0,0 -0.816114151662709,0.02102020559063737 l -0.455861810301333 -26.5516650635472" fill="#e9ff1a" stroke="none" /><line stroke="#e1ed5e" stroke-width="0.3" x1="101.45913802915013" x2="101.54496967792366" y1="184.9874750549273" y2="189.98673829345242" /><path d="M 101.47630435890484 185.9873277026323 a86.0,86.0 0 0,1 -42.54439059252881,-10.42667462771756" fill="none" id="id91" stroke="none" /><text fill="#e1ed5e" style="font-size:6.75px; font-family:Arial;" text-anchor="middle"><textPath startOffset="22.145653131862474" xlink:href="#id91">July</textPath></text><path d="M 100.0 121.0 l 3.2117213597956675e-15 26.225695131296575 a47.225695131296575,47.225695131296575 0 0,0 -0.8106918555191095,-0.00695881455929608 l 0.4501989306702542 -26.221830714931713" fill="#edff1a" stroke="none" /><path d="M 99.27912038922189 120.98762331915562 l -1.13303815468505 32.98716962058823 a54.00662259361644,54.00662259361644 0 0,0 -0.9262759150082552,-0.039778273310422 l 1.699139830294144 -32.96285877885198" fill="#96ff23" stroke="none" /><path d="M 98.55909050195518 120.95050786540614 l -1.1703645642738179 17.01684390482693 a38.05704340425249,38.05704340425249 0 0,0 -0.651375303174902,-0.050420568051069974 l 1.462308862223956 -16.99424556978081" fill="#ff8e0d" stroke="none" /><path d="M 98.19965949673042 120.92268563240118 l -2.9353914505241585 34.11369816755079 a55.239756506648355,55.239756506648355 0 0,0 -0.9440748918448352,-0.08940487380867065 l 3.520565905754009 -34.05828153823693" fill="#87ff25" stroke="none" /><path d="M 97.48249496171623 120.84855314841334 l -2.2507129548087246 18.639131976530688 a39.774529278878674,39.774529278878674 0 0,0 -0.6771560162406233,-0.08767140343808892 l 2.570346792940142 -18.597748976892202" fill="#ffa80f" stroke="none" /><path d="M 96.76829788921471 120.74984581791261 l -6.619306503335176 42.50069612150478 a64.01307230828306,64.01307230828306 0 0,0 -1.0843280913689164,-0.1784257747995205 l 7.347912097757156 -42.38080434820959" fill="#31ff40" stroke="none" /><path d="M 96.41257539226777 120.69131181640829 l -3.254656785889514 18.771995449626953 a40.05204986227864,40.05204986227864 0 0,0 -0.6764319493443524,-0.12326843430433579 l 3.576423468784924 -18.71335884139125" fill="#ffac0f" stroke="none" /><path d="M 95.70440661134978 120.55596938700252 l -7.422070920260825 35.51729617336615 a57.284507220189596,57.284507220189596 0 0,0 -0.9608455423049149,-0.20941181384868643 l 8.030678879184876 -35.384652901383745" fill="#6eff28" stroke="none" /><path d="M 95.00130118170881 120.39639698878247 l -4.627255371192556 18.880780969232916 a40.43953143155406,40.43953143155406 0 0,0 -0.6728265822205196,-0.1710298861325747 l 4.950687246638455 -18.798565851265078" fill="#ffb210" stroke="none" /><path d="M 94.30408787586889 120.21278271476187 l -9.360125683184222 33.21578396821307 a55.509422733914356,55.509422733914356 0 0,0 -0.9149538522772033,-0.2663297317175784 l 9.928939547843033 -33.05021054219297" fill="#83ff25" stroke="none" /><path d="M 93.95794788825049 120.11202640906438 l -5.714356680823705 19.02123489667521 a40.86104854407665,40.86104854407665 0 0,0 -0.6700421341352234,-0.2075807659276311 l 6.040039447830562 -18.92033754294093" fill="#ffb811" stroke="none" /><path d="M 93.27111125876986 119.89276391827306 l -7.694447369317986 22.747266433690175 a45.013384820230826,45.013384820230826 0 0,0 -0.7298475100954681,-0.25387885016673123 l 8.083800651458477 -22.611829150954854" fill="#fff316" stroke="none" /><path d="M 92.59220618246901 119.65005319985036 l -7.914796403815378 20.994937795500533 a43.43727735601594,43.43727735601594 0 0,0 -0.6954674994692542,-0.2690217691382091 l 8.274036165778162 -20.855976138224282" fill="#ffdd14" stroke="none" /><path d="M 91.92203290615298 119.3841803445677 l -14.535458353481022 34.87980860053812 a58.78730736048752,58.78730736048752 0 0,0 -0.9281813879006097,-0.3961854414177762 l 15.132074816552063 -34.625148509460935" fill="#5dff2a" stroke="none" /><path d="M 91.26138138417905 119.09545874513695 l -9.214685267132925 20.135750294605064 a43.144048060348055,43.144048060348055 0 0,0 -0.670810410522595,-0.31397314332784304 l 9.558984391527009 -19.974600919706695" fill="#ffd914" stroke="none" /><path d="M 90.93487009805054 118.94263497670748 l -16.020170696369746 33.4759952751055 a58.111832732966846,58.111832732966846 0 0,0 -0.8961391155794428,-0.4383465475336586 l 16.59247006121126 -33.19605497747462" fill="#64ff29" stroke="none" /><line stroke="#e1ed5e" stroke-width="0.3" x1="58.13341422392154" x2="55.67067388415222" y1="173.97424548756322" y2="178.32567169271397" /><path d="M 57.64086615596768 174.84453072859336 a86.0,86.0 0 0,1 -31.369924170532247,-30.572349798747897" fill="none" id="id92" stroke="none" /><text fill="#e1ed5e" style="font-size:6.75px; font-family:Arial;" text-anchor="middle"><textPath startOffset="22.145653131862474" xlink:href="#id92">August</textPath></text><path d="M 89.65649057296885 118.27599006163327 l -10.877348454604448 19.219232471887626 a43.08383132998768,43.08383132998768 0 0,0 -0.6405284121263927,-0.3698092511647792 l 11.20566933459124 -19.029676323446676" fill="#ffd814" stroke="none" /><path d="M 89.34428304082925 118.09573695890944 l -17.60890895435766 29.903777079701914 a55.70316351855207,55.70316351855207 0 0,0 -0.819810628557608,-0.49227272737626837 l 18.119652339472697 -29.597090351789728" fill="#81ff25" stroke="none" /><path d="M 88.4268655584334 117.5232005979908 l -10.475087484117596 15.86061755287517 a40.00754184418619,40.00754184418619 0 0,0 -0.569828774748117,-0.38340623030075405 l 10.74581254696272 -15.678461648517294" fill="#ffab0f" stroke="none" /><path d="M 87.83215693770417 117.11559508785305 l -14.547964969665186 20.46353462140059 a46.10775844156276,46.10775844156276 0 0,0 -0.6411590968584264,-0.46414974134587617 l 14.897105076897567 -20.210784108681647" fill="#fcff18" stroke="none" /><path d="M 87.2517909369889 116.68781488649013 l -11.141335049175899 14.58436522103103 a39.353012166356095,39.353012166356095 0 0,0 -0.5333083767235149,-0.4147038194270827 l 11.390053370534643 -14.390960349983155" fill="#ffa20e" stroke="none" /><path d="M 86.68645165197938 116.24036423190432 l -20.5819038355176 25.106576108579656 a53.464672020373115,53.464672020373115 0 0,0 -0.7047806395645625,-0.5879530759168146 l 21.009858809244058 -24.749560848750974" fill="#9cff22" stroke="none" /><path d="M 86.40962598614128 116.0094264158162 l -12.173857705195044 14.34077376598998 a39.81118294083716,39.81118294083716 0 0,0 -0.5172051257702402,-0.446749469215649 l 12.418242310728147 -14.129680164309606" fill="#ffa80f" stroke="none" /><path d="M 85.86807049272751 115.53346607816431 l -27.09917530316462 29.786740734965576 a61.26928389881927,61.26928389881927 0 0,0 -0.7719061167876228,-0.7144647778094338 l 27.60651119126621 -29.317158211023767" fill="#40ff2d" stroke="none" /><path d="M 85.34317274990678 115.03919595460226 l -14.146961640432764 14.516028922382013 a41.269475063042634,41.269475063042634 0 0,0 -0.5031104318159019,-0.49881036849381316 l 14.394063992378628 -14.27103854365954" fill="#ffbe11" stroke="none" /><path d="M 84.83555147118756 114.52719865689866 l -28.886278365661237 27.6724012402512 a61.002235790264585,61.002235790264585 0 0,0 -0.7179212716480691,-0.7624075116968959 l 29.357055471045562 -27.172452268609817" fill="#43ff2d" stroke="none" /><path d="M 84.58840730492382 114.26474011684316 l -14.531540711271525 13.450177139046803 a40.800831813716286,40.800831813716286 0 0,0 -0.4713512193129212,-0.5180975586051983 l 14.760289631426327 -13.198742004883929" fill="#ffb711" stroke="none" /><path d="M 84.1078160697243 113.72728997021213 l -25.109210493633906 21.68873799104249 a54.17941842856359,54.17941842856359 0 0,0 -0.6019215650193732,-0.7090620900825734 l 25.477826622160393 -21.254509118510363" fill="#94ff23" stroke="none" /><path d="M 83.64595745247003 113.17365903436017 l -15.630179948206726 12.590566563890214 a41.07049804098229,41.07049804098229 0 0,0 -0.43756424390655796,-0.5528481280798512 l 15.844010622754844 -12.320398491895682" fill="#ffbb11" stroke="none" /><path d="M 83.20337586046588 112.60449989151573 l -32.00792250694162 24.019341768612062 a61.01794450253251,61.01794450253251 0 0,0 -0.6215054808684581,-0.843191548381742 l 32.415530007393905 -23.46634391096144" fill="#43ff2d" stroke="none" /><path d="M 82.98947788004972 112.3143062007846 l -17.64880868312281 12.776376449265369 a42.78798391560848,42.78798391560848 0 0,0 -0.425607800205405,-0.5986706713139628 l 17.865531581858175 -12.471528551241901" fill="#ffd313" stroke="none" /><path d="M 82.576782715395 111.72311816256416 l -27.593366580629404 18.56604848827156 a54.2579619899032,54.2579619899032 0 0,0 -0.5133205257791382,-0.7772327012798707 l 27.908011545329266 -18.089635908652625" fill="#93ff23" stroke="none" /><line stroke="#e1ed5e" stroke-width="0.3" x1="26.387840678322732" x2="22.057713659400548" y1="142.50000000000003" y2="145.00000000000006" /><path d="M 25.521815274538298 143.00000000000003 a86.0,86.0 0 0,1 -11.493303480769221,-40.785679425670985" fill="none" id="id93" stroke="none" /><text fill="#e1ed5e" style="font-size:6.75px; font-family:Arial;" text-anchor="middle"><textPath startOffset="21.40746469413373" xlink:href="#id93">September</textPath></text><path d="M 81.63589988554817 110.18625677009913 l -18.441881889838225 10.229401009739629 a42.08894621968592,42.08894621968592 0 0,0 -0.3450384676909154,-0.6348319180587414 l 18.614765707144468 -9.9113142582063" fill="#ffc912" stroke="none" /><path d="M 81.29705330413844 109.54985784667822 l -21.071932099777026 10.759478673606758 a44.659938794202574,44.659938794202574 0 0,0 -0.3427758481337183,-0.6857813127050911 l 21.25352786112248 -10.396165504737914" fill="#ffee16" stroke="none" /><path d="M 80.83023694016515 108.57439118712176 l -22.219261270870295 9.93839294886661 a45.340649659145875,45.340649659145875 0 0,0 -0.3116977894342654,-0.7132255411152661 l 22.386592942321528 -9.555505337975495" fill="#fff717" stroke="none" /><path d="M 80.68587082218212 108.24405325689762 l -26.959265847287497 11.507307493167007 a50.312457091943344,50.312457091943344 0 0,0 -0.33223988078664535,-0.7972547662061522 l 27.15283157261063 -11.042820217519575" fill="#c4ff1e" stroke="none" /><path d="M 80.41425534168474 107.57618678355246 l -21.102037478638703 8.162721420133295 a43.625781903231,43.625781903231 0 0,0 -0.2641838501283067,-0.7007790493948601 l 21.239052012581446 -7.799274090544291" fill="#ffdf14" stroke="none" /><path d="M 80.16572619554312 106.89939002012753 l -34.010683824327565 11.830681318040007 a57.00960475550096,57.00960475550096 0 0,0 -0.3135924028408408,-0.9270802172806405 l 34.20876164874077 -11.245099426285204" fill="#71ff27" stroke="none" /><path d="M 79.94057633289273 106.21446072829308 l -23.940683748533164 7.4168850228586285 a46.06325042347031,46.06325042347031 0 0,0 -0.2275166593579383,-0.7573289632194277 l 24.064476727894732 -7.004818456048477" fill="#fdff18" stroke="none" /><path d="M 79.83685265289637 105.86919833188381 l -38.03107368811443 11.070291279803346 a60.609517983566526,60.609517983566526 0 0,0 -0.2822138125269665,-1.0014772607788796 l 38.215505992715975 -10.415806095121471" fill="#48ff2c" stroke="none" /><path d="M 79.64726062577567 105.17358676015961 l -28.134948749046167 7.1517939511462805 a50.02970027112073,50.02970027112073 0 0,0 -0.20443677751968237,-0.8341718165016907 l 28.253573053082143 -6.667766310036491" fill="#c8ff1d" stroke="none" /><path d="M 79.48165901384964 104.47187691870673 l -31.269837470685637 6.815115536448916 a53.00388312718072,53.00388312718072 0 0,0 -0.1861251274760012,-0.8906761130272839 l 31.382220308986003 -6.277322972136224" fill="#a2ff22" stroke="none" /><path d="M 79.34024301695615 103.76489593502545 l -24.304303550335412 4.429053725819826 a45.70456816001941,45.70456816001941 0 0,0 -0.13403448436063867,-0.7730752875140259 l 24.376752852188286 -4.011185405385207" fill="#fffc17" stroke="none" /><path d="M 79.0935383218832 101.97986365728391 l -62.7193850343504 5.9395909718517395 a84.0,84.0 0 0,0 -0.12362550920903681,-1.4367158104973519 l 62.812104166257186 -4.862054113978725" fill="#4dd2ff" stroke="none" /><path d="M 79.03789590574601 101.26102812881392 l -39.22438039210812 2.35964132166026 a60.29529137583385,60.29529137583385 0 0,0 -0.05328498910420466,-1.03371455342233 l 39.25910697066889 -1.6859549748611993" fill="#4bff2c" stroke="none" /><path d="M 79.01933749520258 100.90099992219065 l -26.20792797020176 1.1254811928141217 a47.2320833409522,47.2320833409522 0 0,0 -0.027833895958820878,-0.8103535113966892 l 26.22338655315743 -0.6754214168533127" fill="#edff1a" stroke="none" /><line stroke="#e1ed5e" stroke-width="0.3" x1="15.003131293944662" x2="10.003315487706104" y1="100.72959589197737" y2="100.7725132973878" /><path d="M 14.003168132696942 100.73817937305945 a86.0,86.0 0 0,1 10.791469493833604,-42.45332614584628" fill="none" id="id94" stroke="none" /><text fill="#e1ed5e" style="font-size:6.75px; font-family:Arial;" text-anchor="middle"><textPath startOffset="22.145653131862435" xlink:href="#id94">October</textPath></text><path d="M 79.00077361379809 100.18025310272382 l -55.555558172422295 0.4768776501553825 a76.55760484526502,76.55760484526502 0 0,0 0.0,-1.3142615057583797 l 55.555558172422295 0.4768776501553621" fill="#43ffdc" stroke="none" /><path d="M 79.00696218219943 99.45929381324524 l -33.70820016197384 -0.8682036649547012 a54.71937923158631,54.71937923158631 0 0,0 0.032246164063281936,-0.9388118830514157 l 33.68832931091371 1.4467218125702554" fill="#8dff24" stroke="none" /><path d="M 79.03789590574601 98.7389718711861 l -33.72598205735331 -2.0288713315689373 a54.786952875525486,54.786952875525486 0 0,0 0.06453391399889621,-0.9383089462966598 l 33.68618418218935 2.6075237020199222" fill="#8cff24" stroke="none" /><path d="M 79.06263194458094 98.37931529534042 l -26.21056888773576 -2.0288637991337803 a47.28897506054919,47.28897506054919 0 0,0 0.06959670978373089,-0.8088192634726484 l 26.171878555254285 2.4785041099821092" fill="#ecff1a" stroke="none" /><path d="M 79.13060592940154 97.66154086499901 l -26.84454460100234 -3.007987214904094 a48.01254452879681,48.01254452879681 0 0,0 0.09880961942377973,-0.8182853939929263 l 26.788952895318893 3.4683662858204567" fill="#e3ff1b" stroke="none" /><path d="M 79.2786578344484 96.59031103205396 l -33.12794512505686 -5.451190763666501 a54.573445294617315,54.573445294617315 0 0,0 0.16004359945459873,-0.9230889517226176 l 33.02948670811003 6.0190727483097115" fill="#8fff24" stroke="none" /><path d="M 79.407916724674 95.88100663000787 l -40.163979106788624 -8.033920679195862 a61.959603259433116,61.959603259433116 0 0,0 0.2175734752745058,-1.0411678416731853 l 40.02014792068975 8.722204972154458" fill="#39ff2e" stroke="none" /><path d="M 79.56144815229197 95.17655741523228 l -30.595169459749698 -7.220376686173595 a52.43562046088863,52.43562046088863 0 0,0 0.21426810906673605,-0.8742870041637887 l 30.466713824166664 7.744519514945502" fill="#a9ff21" stroke="none" /><path d="M 79.73907114497095 94.47779374421319 l -25.337923701670586 -6.905963777632228 a47.262191706132384,47.262191706132384 0 0,0 0.22006516061360984,-0.7809336200478414 l 25.215640048982397 7.339905321583083" fill="#edff1a" stroke="none" /><path d="M 79.94057633289273 93.78553927170692 l -52.81955553946199 -16.363633324327566 a76.2962380543139,76.2962380543139 0 0,0 0.3983218925814644,-1.2477376552716495 l 52.53086893110327 17.267940013290605" fill="#42ffd9" stroke="none" /><path d="M 80.05021161711548 93.44210830539832 l -25.029103853340203 -8.227563577765135 a47.3467045781338,47.3467045781338 0 0,0 0.2604397437752811,-0.7699438253618686 l 24.884178687992556 8.656009077601166" fill="#ecff1a" stroke="none" /><path d="M 80.28708602549916 92.7611449362534 l -24.59207948791183 -9.030552223755505 a47.19773362345967,47.19773362345967 0 0,0 0.28581445287637,-0.7581567930542992 l 24.433434351221024 9.45137729700395" fill="#eeff19" stroke="none" /><path d="M 80.5471966667186 92.08871423366112 l -25.758763097747465 -10.475864705065574 a48.80751009430214,48.80751009430214 0 0,0 0.32230191631450705,-0.7734072692619575 l 25.57513533689648 10.916504483768795" fill="#d8ff1c" stroke="none" /><path d="M 80.83023694016515 91.42560881287825 l -50.72841134435457 -22.690173154986695 a76.57171650511904,76.57171650511904 0 0,0 0.5469974775468135,-1.1952882057672722 l 50.33142940195271 23.55765034296864" fill="#43ffdc" stroke="none" /><path d="M 81.1358732173502 90.77261029715801 l -25.335348201997263 -12.392788376085502 a49.20391944838316,49.20391944838316 0 0,0 0.37765200033394075,-0.7555569797136896 l 25.11887628845158 12.825877211962963" fill="#d3ff1c" stroke="none" /><path d="M 81.46374523516351 90.13048839642627 l -23.173060792727483 -12.338349644287526 a47.2531068342041,47.2531068342041 0 0,0 0.3873734326967092,-0.7127234853829317 l 22.957842010415423 12.734327963145077" fill="#edff1a" stroke="none" /><path d="M 81.63589988554816 89.8137432299009 l -29.493205369142082 -16.359383851698983 a54.72652669566821,54.72652669566821 0 0,0 0.4627431042580011,-0.8176227260360232 l 29.20802889986271 16.86326334783411" fill="#8dff24" stroke="none" /><line stroke="#e1ed5e" stroke-width="0.3" x1="26.387840678322718" x2="22.05771365940052" y1="57.49999999999999" y2="54.99999999999999" /><path d="M 25.521815274538284 56.99999999999999 a86.0,86.0 0 0,1 29.574782752854787,-30.34633250058573" fill="none" id="id95" stroke="none" /><text fill="#e1ed5e" style="font-size:6.75px; font-family:Arial;" text-anchor="middle"><textPath startOffset="21.40746469413373" xlink:href="#id95">November</textPath></text><path d="M 81.99639281039701 89.18935116829357 l -28.577225287294617 -17.159802694646306 a54.33341617116346,54.33341617116346 0 0,0 0.487013786856684,-0.7955004203233954 l 28.27844353598254 17.647840231094243" fill="#92ff23" stroke="none" /><path d="M 82.37810715431573 88.57770195909679 l -24.196287752083354 -15.683741389645261 a49.83470278950159,49.83470278950159 0 0,0 0.47147321609156856,-0.7138705407654573 l 23.923490097071056 16.096791808749778" fill="#cbff1d" stroke="none" /><path d="M 84.10781606972428 86.27271002978789 l -13.927597403036764 -12.03032691911098 a39.40398693766551,39.40398693766551 0 0,0 0.44655775843259676,-0.508100755619225 l 13.719028580645574 12.267639952541504" fill="#ffa20f" stroke="none" /><path d="M 85.08716467003674 85.21462403516908 l -24.26327532384128 -24.055898148382628 a55.16712989359633,55.16712989359633 0 0,0 0.6725348093333224,-0.6667866831098127 l 23.846748594377985 24.468864841721114" fill="#87ff25" stroke="none" /><path d="M 85.60350026404147 84.71141617570332 l -21.866166067258984 -23.221110614845056 a52.89591191152587,52.89591191152587 0 0,0 0.666413500523304,-0.6168223871084907 l 21.46432279542173 23.59305074808591" fill="#a3ff21" stroke="none" /><path d="M 86.40962598614128 83.9905735841838 l -8.144268446189175 -9.593927751139134 a33.58461593445228,33.58461593445228 0 0,0 0.44271826990339586,-0.3693313265743154 l 7.97837584212387 9.73232126162533" fill="#ff4a06" stroke="none" /><path d="M 86.96720088162412 83.53348406188908 l -30.507258682959502 -38.5449247524063 a70.15693294457733,70.15693294457733 0 0,0 0.9507602586151758,-0.7393169277211751 l 29.841088479709082 39.06294273174829" fill="#3aff8f" stroke="none" /><path d="M 88.4268655584334 82.4767994020092 l -14.560891028749118 -22.047044875399944 a47.42142568615489,47.42142568615489 0 0,0 0.6831267909008369,-0.4427945325581814 l 14.180278605591257 22.293753249662032" fill="#ebff1a" stroke="none" /><line stroke="#e1ed5e" stroke-width="0.3" x1="56.869717070023135" x2="54.33264160355391" y1="26.7553504044142" y2="22.446841604673864" /><path d="M 56.362301976729285 25.89364864446614 a86.0,86.0 0 0,1 42.16139366436587,-11.88097634709845" fill="none" id="id96" stroke="none" /><text fill="#e1ed5e" style="font-size:6.75px; font-family:Arial;" text-anchor="middle"><textPath startOffset="22.145653131862474" xlink:href="#id96">December</textPath></text></svg>