<?xml version="1.0" encoding="utf-8" ?>
<svg baseProfile="full" height="200mm" version="1.1" viewBox="0,0,200,200" width="200mm" xmlns="http://www.w3.org/2000/svg" xmlns:ev="http://www.w3.org/2001/xml-events" xmlns:xlink="http://www.w3.org/1999/xlink"><defs /><rect fill="#1a1a1a" height="200" width="200" x="0" y="0" /><text alignment-baseline="middle" fill="#e1ed5e" style="dominant-baseline: central; font-size:9.0px; font-family:Arial;" text-anchor="middle" x="100.0" y="100.0">2025</text><line stroke="#e1ed5e" stroke-width="0.3" x1="100.0" x2="100.0" y1="15.0" y2="10.0" /><path d="M 100.0 14.0 a86.0,86.0 0 0,1 42.46469731375804,11.215312516191453" fill="none" id="id97" stroke="none" /><text fill="#e1ed5e" style="font-size:6.75px; font-family:Arial;" text-anchor="middle"><textPath startOffset="22.20632615414155" xlink:href="#id97">January</textPath></text><path d="M 100.0 79.0 l 0.0 -40.88228426140219 a61.88228426140219,61.88228426140219 0 0,0 1.0652017987281193,0.009168528177862734 l -0.7037213194555908 40.87622710983289" fill="#69ff28" stroke="none" /><path d="M 100.36148047927253 79.00311137660856 l 0.28847836225417506 -16.756501083265025 a37.75898410760482,37.75898410760482 0 0,0 0.6497662446946983,0.016781545103314983 l -0.5768712421437412 16.749052746019352" fill="#ff0000" stroke="none" /><path d="M 101.08401301168833 79.027996857942 l 1.9089636914243542 -36.932022127919645 a57.981325028077656,57.981325028077656 0 0,0 0.9962791680331463,0.06009828013615234 l -2.5444049082971123 36.89369057840319" fill="#a1ff22" stroke="none" /><path d="M 102.16513564639614 79.11191278185805 l 3.2487974034219467 -31.34268452404153 a52.510610240712154,52.510610240712154 0 0,0 0.8982647436898574,0.10093051024015477 l -3.7878288506215294 31.282118060330774" fill="#f6ff19" stroke="none" /><path d="M 102.88285421437855 79.19881850522331 l 5.211655759822623 -37.60460615998844 a58.964032454505315,58.964032454505315 0 0,0 1.0041603354639317,0.14798713078400336 l -5.858185075715211 37.50932454504347" fill="#93ff23" stroke="none" /><path d="M 103.95276090670814 79.375362276772 l 11.858282720124386 -61.87391316968404 a84.0,84.0 0 0,0 1.4177343621314986,0.2843841756911667 l -12.921583491723009 61.66062503791566" fill="#4dd2ff" stroke="none" /><path d="M 104.66035177308747 79.52364482259891 l 6.938186966683664 -30.48456158126224 a52.264147728451334,52.264147728451334 0 0,0 0.8754899615219339,0.20720018794605274 l -7.461900615168121 30.36061548117532" fill="#faff18" stroke="none" /><path d="M 105.36241919743992 79.69619591428918 l 7.609193657938399 -28.81079818503789 a50.79868990715855,50.79868990715855 0 0,0 0.8435052569188743,0.230561850311606 l -8.103996804080984 28.67554979389999" fill="#ffec16" stroke="none" /><path d="M 106.40334571778207 80.00007090966166 l 15.699057517968965 -49.03374750993076 a72.4856174268129,72.4856174268129 0 0,0 1.1850265525232972,0.39068462291955985 l -16.54076689273468 48.75624916275197" fill="#3aff91" stroke="none" /><path d="M 107.4271985657038 80.35727306442388 l 20.77631238248413 -54.94715500698244 a79.74389329603477,79.74389329603477 0 0,0 1.2797635490111385,0.49652837469667893 l -21.719059096494934 54.58138392839521" fill="#46fff6" stroke="none" /><path d="M 109.08828744355905 81.06846463323043 l 14.972686737541016 -31.189148700199503 a55.59688345478091,55.59688345478091 0 0,0 0.8591802926547016,0.4215960382266188 l -15.50733829720615 30.926797501838053" fill="#c6ff1e" stroke="none" /><path d="M 109.73455568895987 81.39251694778311 l 17.348323248775458 -33.16110577107004 a58.42490154301141,58.42490154301141 0 0,0 0.8870985363373765,0.4738573159435873 l -17.916566831641145 32.857569728624696" fill="#9bff22" stroke="none" /><line stroke="#e1ed5e" stroke-width="0.3" x1="143.23703022742887" x2="145.7803849466894" y1="26.81831364943548" y2="22.513508569990506" /><path d="M 143.74570117128098 25.957352633546492 a86.0,86.0 0 0,1 28.547481713284135,27.462654790039103" fill="none" id="id98" stroke="none" /><text fill="#e1ed5e" style="font-size:6.75px; font-family:Arial;" text-anchor="middle"><textPath startOffset="19.985693538727396" xlink:href="#id98">February</textPath></text><path d="M 111.90073688211348 82.69761687909136 l 20.996421234265185 -30.526523522190562 a58.050213805018124,58.050213805018124 0 0,0 0.8184219356274823,0.5733568678073805 l -21.518774309476317 30.160581811619245" fill="#a0ff22" stroke="none" /><path d="M 112.48926042617603 83.11751280151076 l 27.951010504037324 -37.783068085459874 a67.99807679200609,67.99807679200609 0 0,0 0.9349860100345044,0.7042120784651797 l -28.59724266783021 37.29633941748885" fill="#32ff4c" stroke="none" /><line stroke="#e1ed5e" stroke-width="0.3" x1="172.23445277983987" x2="176.4835382374775" y1="55.19839476539836" y2="52.563006222186495" /><path d="M 173.08426987136738 54.67131705675599 a86.0,86.0 0 0,1 12.851231095245387,41.99856678651699" fill="none" id="id99" stroke="none" /><text fill="#e1ed5e" style="font-size:6.75px; font-family:Arial;" text-anchor="middle"><textPath startOffset="22.20632615414155" xlink:href="#id99">March</textPath></text><line stroke="#e1ed5e" stroke-width="0.3" x1="184.98032266829074" x2="189.97916517819016" y1="98.17113171792111" y2="98.06355123074" /><path d="M 185.9800911702706 98.14961562048488 a86.0,86.0 0 0,1 -9.607161424134198,41.387399972396054" fill="none" id="id100" stroke="none" /><text fill="#e1ed5e" style="font-size:6.75px; font-family:Arial;" text-anchor="middle"><textPath startOffset="21.466115282336823" xlink:href="#id100">April</textPath></text><line stroke="#e1ed5e" stroke-width="0.3" x1="174.80103733775053" x2="179.2010983576182" y1="140.37084112569926" y2="142.7455964860345" /><path d="M 175.68104954172406 140.8457921977663 a86.0,86.0 0 0,1 -30.038265399797805,32.042727171017184" fill="none" id="id101" stroke="none" /><text fill="#e1ed5e" style="font-size:6.75px; font-family:Arial;" text-anchor="middle"><textPath startOffset="22.206326154141568" xlink:href="#id101">May</textPath></text><line stroke="#e1ed5e" stroke-width="0.3" x1="143.8653032363475" x2="146.44561519142675" y1="172.8068346515853" y2="177.08958963109032" /><path d="M 144.38136562736335 173.6633856474863 a86.0,86.0 0 0,1 -40.68145358897372,12.25698825130547" fill="none" id="id102" stroke="none" /><text fill="#e1ed5e" style="font-size:6.75px; font-family:Arial;" text-anchor="middle"><textPath startOffset="21.466115282336833" xlink:href="#id102">June</textPath></text><line stroke="#e1ed5e" stroke-width="0.3" x1="102.19456741930631" x2="102.32365962044197" y1="184.97166512339345" y2="189.96999836594603" /><path d="M 102.22038585953345 185.97133177190398 a86.0,86.0 0 0,1 -42.740103519485714,-10.115201625700543" fill="none" id="id103" stroke="none" /><text fill="#e1ed5e" style="font-size:6.75px; font-family:Arial;" text-anchor="middle"><textPath startOffset="22.20632615414155" xlink:href="#id103">July</textPath></text><line stroke="#e1ed5e" stroke-width="0.3" x1="58.666819895761336" x2="56.23545636021788" y1="174.27360380694188" y2="178.64263932499728" /><path d="M 58.180547188652646 175.14741091055294 a86.0,86.0 0 0,1 -31.652253787137756,-30.449443065178592" fill="none" id="id104" stroke="none" /><text fill="#e1ed5e" style="font-size:6.75px; font-family:Arial;" text-anchor="middle"><textPath startOffset="22.20632615414155" xlink:href="#id104">August</textPath></text><line stroke="#e1ed5e" stroke-width="0.3" x1="26.63291911575756" x2="22.317208475507996" y1="142.92168965132927" y2="145.44649492493687" /><path d="M 25.769776987707644 143.4266507060508 a86.0,86.0 0 0,1 -11.730757126820373,-40.83630448921669" fill="none" id="id105" stroke="none" /><text fill="#e1ed5e" style="font-size:6.75px; font-family:Arial;" text-anchor="middle"><textPath startOffset="21.46611528233685" xlink:href="#id105">September</textPath></text><line stroke="#e1ed5e" stroke-width="0.3" x1="15.007084014347285" x2="10.007500721073583" y1="101.09737516637583" y2="101.16192664675087" /><path d="M 14.007167355692545 101.11028546245083 a86.0,86.0 0 0,1 10.666146001902534,-42.60595125391555" fill="none" id="id106" stroke="none" /><text fill="#e1ed5e" style="font-size:6.75px; font-family:Arial;" text-anchor="middle"><textPath startOffset="22.20632615414155" xlink:href="#id106">October</textPath></text><line stroke="#e1ed5e" stroke-width="0.3" x1="26.266209847984243" x2="21.928928074336255" y1="57.711370442889674" y2="55.22380399835377" /><path d="M 25.398753493254645 57.213857153982495 a86.0,86.0 0 0,1 29.58750427330803,-30.492523968695096" fill="none" id="id107" stroke="none" /><text fill="#e1ed5e" style="font-size:6.75px; font-family:Arial;" text-anchor="middle"><textPath startOffset="21.46611528233685" xlink:href="#id107">November</textPath></text><line stroke="#e1ed5e" stroke-width="0.3" x1="56.762969772571076" x2="54.21961505331055" y1="26.818313649435495" y2="22.513508569990535" /><path d="M 56.25429882871897 25.957352633546506 a86.0,86.0 0 0,1 42.265352541879196,-11.944610805530505" fill="none" id="id108" stroke="none" /><text fill="#e1ed5e" style="font-size:6.75px; font-family:Arial;" text-anchor="middle"><textPath startOffset="22.20632615414155" xlink:href="#id108">December</textPath></text></svg>