<?xml version="1.0" encoding="utf-8" ?>
<svg baseProfile="full" height="200mm" version="1.1" viewBox="0,0,200,200" width="200mm" xmlns="http://www.w3.org/2000/svg" xmlns:ev="http://www.w3.org/2001/xml-events" xmlns:xlink="http://www.w3.org/1999/xlink"><defs /><rect fill="#1a1a1a" height="200" width="200" x="0" y="0" /><text alignment-baseline="middle" fill="#e1ed5e" style="dominant-baseline: central; font-size:9.0px; font-family:Arial;" text-anchor="middle" x="100.0" y="100.0">2024</text><line stroke="#e1ed5e" stroke-width="0.3" x1="100.0" x2="100.0" y1="15.0" y2="10.0" /><path d="M 100.0 14.0 a86.0,86.0 0 0,1 42.35913384403234,11.155469271406648" fill="none" id="id85" stroke="none" /><text fill="#e1ed5e" style="font-size:6.75px; font-family:Arial;" text-anchor="middle"><textPath startOffset="22.145653131862478" xlink:href="#id85">January</textPath></text><path d="M 100.0 79.0 l 0.0 -40.51600096537767 a61.51600096537767,61.51600096537767 0 0,0 1.05600395776257,0.009064523919815281 l -0.6955110329137153 40.51003083965229" fill="#63ff29" stroke="none" /><path d="M 101.80034050326958 79.07731436759882 l 5.1628655002612085 -60.000323065641766 a81.22203872466599,81.22203872466599 0 0,0 1.3881250076686673,0.13145688145435167 l -6.192090071314889 59.902854428682225" fill="#49f3ff" stroke="none" /><path d="M 102.15924093988457 79.11130261209362 l 1.5428967961977775 -14.92612690007099 a36.00565875797328,36.00565875797328 0 0,0 0.6142635653426036,0.06882951372782674 l -1.7988962631411778 14.897441625836192" fill="#ff0000" stroke="none" /><path d="M 102.87502721639298 79.19773525538626 l 3.6682304906842624 -26.541488503616346 a47.793777765003284,47.793777765003284 0 0,0 0.8117543160448791,0.11929993016348622 l -4.123309912336824 26.47460750015398" fill="#ffd013" stroke="none" /><path d="M 103.58742460773223 79.30868818359171 l 7.632992244528667 -44.02507087768674 a65.68186921325444,65.68186921325444 0 0,0 1.1092894116849397,0.20214948318351575 l -8.387616389764661 43.88755322057185" fill="#30ff32" stroke="none" /><path d="M 104.29559338865022 79.4440306129975 l 12.88678016595065 -61.66790816100754 a84.0,84.0 0 0,0 1.4089503335234634,0.30707416746512495 l -13.943492916093248 61.4376025354087" fill="#4dd2ff" stroke="none" /><path d="M 105.3480935250658 79.69241777938227 l 7.566972472385502 -28.73302699810749 a50.71272308072442,50.71272308072442 0 0,0 0.8399442046059257,0.22893052803131606 l -8.05909807792612 28.59889597593203" fill="#fffe18" stroke="none" /><path d="M 106.04205211174951 79.88797359093562 l 12.720985382450058 -42.34402306190578 a65.2135698419356,65.2135698419356 0 0,0 1.0693763637595566,0.33129553104986903 l -13.446002379081246 42.11941094304926" fill="#33ff2f" stroke="none" /><path d="M 107.06938296918511 80.22567764915836 l 14.79695843070903 -41.38972624573657 a64.95519784390858,64.95519784390858 0 0,0 1.0467401717538702,0.3843774899301437 l -15.505287754117024 41.1296179067977" fill="#36ff2e" stroke="none" /><path d="M 108.73861861582097 80.90454125486305 l 20.605482514304146 -45.02669799127862 a70.51756700046063,70.51756700046063 0 0,0 1.096418166474891,0.5131790633089419 l -21.375389394650544 44.66634269639914" fill="#37ff7b" stroke="none" /><path d="M 109.71004243097381 81.37971332152246 l 13.756492516125704 -26.379888261199117 a50.751295619175536,50.751295619175536 0 0,0 0.7690299942544877,0.4094651561538254 l -14.20731132616675 26.13985263732272" fill="#ffff18" stroke="none" /><path d="M 110.34350942703115 81.72400993836675 l 8.842324623732749 -15.62354035495462 a38.952206493196485,38.952206493196485 0 0,0 0.5791034409825276,0.3343455275399009 l -9.109220532575673 15.469447930138548" fill="#ff3705" stroke="none" /><line stroke="#e1ed5e" stroke-width="0.3" x1="143.13028292997686" x2="145.6673583964461" y1="26.7553504044142" y2="22.446841604673864" /><path d="M 143.63769802327073 25.89364864446614 a86.0,86.0 0 0,1 29.32050498858742,28.57503671076993" fill="none" id="id86" stroke="none" /><text fill="#e1ed5e" style="font-size:6.75px; font-family:Arial;" text-anchor="middle"><textPath startOffset="20.669276256404974" xlink:href="#id86">February</textPath></text><path d="M 111.5731344415666 82.4767994020092 l 14.746087371220542 -22.32745574209523 a47.7574732117009,47.7574732117009 0 0,0 0.680211309939418,0.45767652619348675 l -15.12719496925696 22.071029541844624" fill="#ffcf13" stroke="none" /><path d="M 111.8722381534696 82.67804972795209 l 11.114747601053075 -16.21674891819278 a40.660126136696626,40.660126136696626 0 0,0 0.5723491847381711,0.3995441818249912 l -11.391491876965006 16.02355992056266" fill="#ff5607" stroke="none" /><path d="M 112.7482090630111 83.31218511350987 l 10.886884009527492 -14.251280642143165 a38.93385745951021,38.93385745951021 0 0,0 0.5276280309507728,0.4102867481969351 l -11.12992198511349 14.062292842325439" fill="#ff3605" stroke="none" /><path d="M 115.6541949942343 86.00192230759917 l 22.201005039241352 -19.85227560428019 a50.78250277294906,50.78250277294906 0 0,0 0.5755082764025757,0.6548227739489679 l -22.538524379602517 19.468240552519926" fill="#ffff18" stroke="none" /><path d="M 116.1254893667686 86.54754324733833 l 22.828319013302345 -19.044195638197458 a50.729001605823235,50.729001605823235 0 0,0 0.5521083178028414,0.6734823761627091 l -23.15187415034381 18.649510980336256" fill="#ffff18" stroke="none" /><path d="M 116.57777611688842 87.10902102172516 l 29.288073704794844 -22.774583260178556 a58.10084775328322,58.10084775328322 0 0,0 0.6054883640402143,0.7926037049662443 l -29.67471404618936 22.26845864197143" fill="#92ff23" stroke="none" /><path d="M 117.01052211995028 87.68569379921539 l 24.08725157917151 -17.43731258744676 a50.736434872234256,50.736434872234256 0 0,0 0.5046702475822724,0.7098819048110715 l -24.383036925283744 17.021253455926182" fill="#ffff18" stroke="none" /><path d="M 117.42321728460499 88.27688183743584 l 24.6524630508936 -16.587277345110873 a50.71332536420827,50.71332536420827 0 0,0 0.4797856367109495,0.7264566050424778 l -24.933573126525275 16.16164086172934" fill="#fffe18" stroke="none" /><path d="M 117.81537515405839 88.88188828441811 l 42.2035630025846 -26.338144675636766 a70.74774964827958,70.74774964827958 0 0,0 0.6341425203092981,1.0358241492646696 l -42.6494734873493 25.60978341024754" fill="#38ff7e" stroke="none" /><line stroke="#e1ed5e" stroke-width="0.3" x1="172.87174338648825" x2="177.1583165268699" y1="56.24261187166439" y2="53.66864786411523" /><path d="M 173.72905801456457 55.72781907015455 a86.0,86.0 0 0,1 12.242430191666344,42.057860355516425" fill="none" id="id87" stroke="none" /><text fill="#e1ed5e" style="font-size:6.75px; font-family:Arial;" text-anchor="middle"><textPath startOffset="22.145653131862474" xlink:href="#id87">March</textPath></text><path d="M 119.16976305983485 91.42560881287824 l 27.296481641809518 -12.20936904115177 a50.90261865463758,50.90261865463758 0 0,0 0.3499339738257417,0.8007174137791532 l -27.50204949765223 11.738989557596769" fill="#fdff18" stroke="none" /><path d="M 119.71291397450082 92.76114493625339 l 27.911132756139818 -10.24935455752694 a50.733492909121175,50.733492909121175 0 0,0 0.29319086059655985,0.8201070182544413 l -28.08296378678032 9.768712582891583" fill="#ffff18" stroke="none" /><path d="M 119.94978838288452 93.4421083053983 l 28.390273997899452 -9.332446965603927 a50.884815944583224,50.884815944583224 0 0,0 0.2656557742241113,0.8321629290611492 l -28.546294487900823 8.84371500285139" fill="#fdff18" stroke="none" /><line stroke="#e1ed5e" stroke-width="0.3" x1="184.99686870605535" x2="189.99668451229388" y1="99.2704041080226" y2="99.22748670261217" /><path d="M 185.99683186730306 99.26182062694052 a86.0,86.0 0 0,1 -10.086455211305974,41.156179273409016" fill="none" id="id88" stroke="none" /><text fill="#e1ed5e" style="font-size:6.75px; font-family:Arial;" text-anchor="middle"><textPath startOffset="21.40746469413373" xlink:href="#id88">April</textPath></text><line stroke="#e1ed5e" stroke-width="0.3" x1="174.33088141563837" x2="178.70328620479359" y1="141.23008692659167" y2="143.65538615756765" /><path d="M 175.20536237346943 141.71514677278685 a86.0,86.0 0 0,1 -30.301960400862466,31.631185727798858" fill="none" id="id89" stroke="none" /><text fill="#e1ed5e" style="font-size:6.75px; font-family:Arial;" text-anchor="middle"><textPath startOffset="22.145653131862474" xlink:href="#id89">May</textPath></text><line stroke="#e1ed5e" stroke-width="0.3" x1="143.1302829299769" x2="145.66735839644613" y1="173.24464959558577" y2="177.55315839532614" /><path d="M 143.63769802327073 174.10635135553383 a86.0,86.0 0 0,1 -40.68552437913181,11.842963189579606" fill="none" id="id90" stroke="none" /><text fill="#e1ed5e" style="font-size:6.75px; font-family:Arial;" text-anchor="middle"><textPath startOffset="21.407464694133747" xlink:href="#id90">June</textPath></text><line stroke="#e1ed5e" stroke-width="0.3" x1="101.45913802915013" x2="101.54496967792366" y1="184.9874750549273" y2="189.98673829345242" /><path d="M 101.47630435890484 185.9873277026323 a86.0,86.0 0 0,1 -42.54439059252881,-10.42667462771756" fill="none" id="id91" stroke="none" /><text fill="#e1ed5e" style="font-size:6.75px; font-family:Arial;" text-anchor="middle"><textPath startOffset="22.145653131862474" xlink:href="#id91">July</textPath></text><line stroke="#e1ed5e" stroke-width="0.3" x1="58.13341422392154" x2="55.67067388415222" y1="173.97424548756322" y2="178.32567169271397" /><path d="M 57.64086615596768 174.84453072859336 a86.0,86.0 0 0,1 -31.369924170532247,-30.572349798747897" fill="none" id="id92" stroke="none" /><text fill="#e1ed5e" style="font-size:6.75px; font-family:Arial;" text-anchor="middle"><textPath startOffset="22.145653131862474" xlink:href="#id92">August</textPath></text><line stroke="#e1ed5e" stroke-width="0.3" x1="26.387840678322732" x2="22.057713659400548" y1="142.50000000000003" y2="145.00000000000006" /><path d="M 25.521815274538298 143.00000000000003 a86.0,86.0 0 0,1 -11.493303480769221,-40.785679425670985" fill="none" id="id93" stroke="none" /><text fill="#e1ed5e" style="font-size:6.75px; font-family:Arial;" text-anchor="middle"><textPath startOffset="21.40746469413373" xlink:href="#id93">September</textPath></text><line stroke="#e1ed5e" stroke-width="0.3" x1="15.003131293944662" x2="10.003315487706104" y1="100.72959589197737" y2="100.7725132973878" /><path d="M 14.003168132696942 100.73817937305945 a86.0,86.0 0 0,1 10.791469493833604,-42.45332614584628" fill="none" id="id94" stroke="none" /><text fill="#e1ed5e" style="font-size:6.75px; font-family:Arial;" text-anchor="middle"><textPath startOffset="22.145653131862435" xlink:href="#id94">October</textPath></text><line stroke="#e1ed5e" stroke-width="0.3" x1="26.387840678322718" x2="22.05771365940052" y1="57.49999999999999" y2="54.99999999999999" /><path d="M 25.521815274538284 56.99999999999999 a86.0,86.0 0 0,1 29.574782752854787,-30.34633250058573" fill="none" id="id95" stroke="none" /><text fill="#e1ed5e" style="font-size:6.75px; font-family:Arial;" text-anchor="middle"><textPath startOffset="21.40746469413373" xlink:href="#id95">November</textPath></text><line stroke="#e1ed5e" stroke-width="0.3" x1="56.869717070023135" x2="54.33264160355391" y1="26.7553504044142" y2="22.446841604673864" /><path d="M 56.362301976729285 25.89364864446614 a86.0,86.0 0 0,1 42.16139366436587,-11.88097634709845" fill="none" id="id96" stroke="none" /><text fill="#e1ed5e" style="font-size:6.75px; font-family:Arial;" text-anchor="middle"><textPath startOffset="22.145653131862474" xlink:href="#id96">December</textPath></text></svg>