<?xml version="1.0" encoding="utf-8" ?>
<svg baseProfile="full" height="200mm" version="1.1" viewBox="0,0,200,200" width="200mm" xmlns="http://www.w3.org/2000/svg" xmlns:ev="http://www.w3.org/2001/xml-events" xmlns:xlink="http://www.w3.org/1999/xlink"><defs /><rect fill="#1a1a1a" height="200" width="200" x="0" y="0" /><text alignment-baseline="middle" fill="#e1ed5e" style="dominant-baseline: central; font-size:9.0px; font-family:Arial;" text-anchor="middle" x="100.0" y="100.0">2023</text><line stroke="#e1ed5e" stroke-width="0.3" x1="100.0" x2="100.0" y1="15.0" y2="10.0" /><path d="M 100.0 14.0 a86.0,86.0 0 0,1 42.46469731375804,11.215312516191453" fill="none" id="id73" stroke="none" /><text fill="#e1ed5e" style="font-size:6.75px; font-family:Arial;" text-anchor="middle"><textPath startOffset="22.20632615414155" xlink:href="#id73">January</textPath></text><line stroke="#e1ed5e" stroke-width="0.3" x1="143.23703022742887" x2="145.7803849466894" y1="26.81831364943548" y2="22.513508569990506" /><path d="M 143.74570117128098 25.957352633546492 a86.0,86.0 0 0,1 28.547481713284135,27.462654790039103" fill="none" id="id74" stroke="none" /><text fill="#e1ed5e" style="font-size:6.75px; font-family:Arial;" text-anchor="middle"><textPath startOffset="19.985693538727396" xlink:href="#id74">February</textPath></text><line stroke="#e1ed5e" stroke-width="0.3" x1="172.23445277983987" x2="176.4835382374775" y1="55.19839476539836" y2="52.563006222186495" /><path d="M 173.08426987136738 54.67131705675599 a86.0,86.0 0 0,1 12.851231095245387,41.99856678651699" fill="none" id="id75" stroke="none" /><text fill="#e1ed5e" style="font-size:6.75px; font-family:Arial;" text-anchor="middle"><textPath startOffset="22.20632615414155" xlink:href="#id75">March</textPath></text><line stroke="#e1ed5e" stroke-width="0.3" x1="184.98032266829074" x2="189.97916517819016" y1="98.17113171792111" y2="98.06355123074" /><path d="M 185.9800911702706 98.14961562048488 a86.0,86.0 0 0,1 -9.607161424134198,41.387399972396054" fill="none" id="id76" stroke="none" /><text fill="#e1ed5e" style="font-size:6.75px; font-family:Arial;" text-anchor="middle"><textPath startOffset="21.466115282336823" xlink:href="#id76">April</textPath></text><line stroke="#e1ed5e" stroke-width="0.3" x1="174.80103733775053" x2="179.2010983576182" y1="140.37084112569926" y2="142.7455964860345" /><path d="M 175.68104954172406 140.8457921977663 a86.0,86.0 0 0,1 -30.038265399797805,32.042727171017184" fill="none" id="id77" stroke="none" /><text fill="#e1ed5e" style="font-size:6.75px; font-family:Arial;" text-anchor="middle"><textPath startOffset="22.206326154141568" xlink:href="#id77">May</textPath></text><path d="M 115.32070863581623 114.36230785411682 l 9.849026980167581 9.232912191932243 a34.5,34.5 0 0,0 -0.40988209416312976,0.429759737043024 l -9.688638334625487 -9.401079045557774" fill="red" stroke="none" /><path d="M 115.07121518719521 114.62390073753431 l 11.705223511450303 11.35781186957881 a37.309878844361606,37.309878844361606 0 0,0 -0.4511996909794176,0.4570629048162722 l -11.507983195415349 -11.557615268375747" fill="red" stroke="none" /><line stroke="#e1ed5e" stroke-width="0.3" x1="143.8653032363475" x2="146.44561519142675" y1="172.8068346515853" y2="177.08958963109032" /><path d="M 144.38136562736335 173.6633856474863 a86.0,86.0 0 0,1 -40.68145358897372,12.25698825130547" fill="none" id="id78" stroke="none" /><text fill="#e1ed5e" style="font-size:6.75px; font-family:Arial;" text-anchor="middle"><textPath startOffset="21.466115282336833" xlink:href="#id78">June</textPath></text><path d="M 103.7750983002368 120.6578951692458 l 2.2971757131184054 12.57048460538383 a33.77865796831314,33.77865796831314 0 0,0 -0.5728716084623124,0.0996010722405091 l -2.0804551331840426 -12.608164256145345" fill="red" stroke="none" /><path d="M 103.41894727170886 120.7198165907248 l 2.066799372546143 12.525406368018364 a33.694780987884435,33.694780987884435 0 0,0 -0.5730746358303762,0.08950247224155969 l -1.8508888731072495 -12.55912714760703" fill="red" stroke="none" /><line stroke="#e1ed5e" stroke-width="0.3" x1="102.19456741930631" x2="102.32365962044197" y1="184.97166512339345" y2="189.96999836594603" /><path d="M 102.22038585953345 185.97133177190398 a86.0,86.0 0 0,1 -42.740103519485714,-10.115201625700543" fill="none" id="id79" stroke="none" /><text fill="#e1ed5e" style="font-size:6.75px; font-family:Arial;" text-anchor="middle"><textPath startOffset="22.20632615414155" xlink:href="#id79">July</textPath></text><path d="M 100.54218724476979 120.99299961872073 l 0.32613526452801667 12.627662398799137 a33.63187325256291,33.63187325256291 0 0,0 -0.5788530808522298,0.009965480736118821 l -0.10872249378311896 -12.631405356814415" fill="red" stroke="none" /><path d="M 98.73552117531835 120.96189622390904 l -0.7623741655666147 12.63825682997897 a33.66123019571295,33.66123019571295 0 0,0 -0.5780711012650874,-0.03986716764694245 l 0.9798080276106322 -12.623261317815743" fill="red" stroke="none" /><path d="M 98.01472825383883 120.90594882070398 l -1.2139998841856325 12.784053113233044 a33.84156570363467,33.84156570363467 0 0,0 -0.579443995564625,-0.06006173934382533 l 1.433876476355851 -12.761262005433458" fill="red" stroke="none" /><path d="M 96.93821686468263 120.77559828337769 l -1.8472201141912705 12.534232941169757 a33.66961789375583,33.66961789375583 0 0,0 -0.5726466665549771,-0.08943563224237502 l 2.0627026443547645 -12.500579001580276" fill="red" stroke="none" /><path d="M 96.58105272829116 120.7198165907248 l -2.0954764698857233 12.699197933085022 a33.87092264678471,33.87092264678471 0 0,0 -0.5744363779925243,-0.09987312748066443 l 2.313761819350298 -12.661246227083351" fill="red" stroke="none" /><path d="M 95.86986931433489 120.58985236759428 l -2.535485633284752 12.640102418716172 a33.89189189189189,33.89189189189189 0 0,0 -0.5710114637934993,-0.1196610040784007 l 2.752688558507638 -12.59458543391123" fill="red" stroke="none" /><path d="M 95.51606077576429 120.51570834832081 l -2.6067262178971173 11.926752829575669 a33.20829450139795,33.20829450139795 0 0,0 -0.55739308022717,-0.12686085034363276 l 2.81163944751715 -11.88011524565435" fill="red" stroke="none" /><path d="M 94.46302465271185 120.25689768951611 l -3.3527045505880055 12.265792929292939 a33.71575023299161,33.71575023299161 0 0,0 -0.5585075547632087,-0.15783981375725878 l 3.563343273455828 -12.206264322197159" fill="red" stroke="none" /><path d="M 94.11515582081647 120.15858648285463 l -3.576270970028393 12.250548262680066 a33.7618825722274,33.7618825722274 0 0,0 -0.5564682127741727,-0.16765930773050336 l 3.7866141572428114 -12.187173585843837" fill="red" stroke="none" /><path d="M 93.42475214034765 119.94407469862007 l -3.9761384341021135 12.060442987768916 a33.69897483690587,33.69897483690587 0 0,0 -0.5493418597933187,-0.18636658486445518 l 4.183150026832658 -11.990213416006338" fill="red" stroke="none" /><path d="M 93.08242187328487 119.8279376855182 l -4.190057474036807 12.010012315306215 a33.71994408201304,33.71994408201304 0 0,0 -0.5463922565604022,-0.19591682349721593 l 4.3961692912269354 -11.93610795076904" fill="red" stroke="none" /><path d="M 92.7421414339146 119.70592522655815 l -4.383124278493325 11.900689232814239 a33.68219944082013,33.68219944082013 0 0,0 -0.542331174344411,-0.20506324470315399 l 4.587325673598019 -11.823477738004451" fill="red" stroke="none" /><path d="M 91.7346041902142 119.30500536409082 l -5.080725929141396 11.866756725603427 a33.908667287977636,33.908667287977636 0 0,0 -0.5345932709027945,-0.23434997971573476 l 5.284239874701934 -11.777542192593241" fill="red" stroke="none" /><line stroke="#e1ed5e" stroke-width="0.3" x1="58.666819895761336" x2="56.23545636021788" y1="174.27360380694188" y2="178.64263932499728" /><path d="M 58.180547188652646 175.14741091055294 a86.0,86.0 0 0,1 -31.652253787137756,-30.449443065178592" fill="none" id="id80" stroke="none" /><text fill="#e1ed5e" style="font-size:6.75px; font-family:Arial;" text-anchor="middle"><textPath startOffset="22.20632615414155" xlink:href="#id80">August</textPath></text><path d="M 89.7882731507175 118.34994917583269 l -8.196164999454071 14.72808795187158 a37.85507921714819,37.85507921714819 0 0,0 -0.5666567062002816,-0.32176246661211094 l 8.448470472575561 -14.584822319464836" fill="red" stroke="none" /><path d="M 88.54995079064634 117.60387380957326 l -6.9331412334097315 10.659355356935052 a33.71575023299161,33.71575023299161 0 0,0 -0.4837813617221143,-0.3206239067580603 l 7.115597293871808 -10.538433429085673" fill="red" stroke="none" /><path d="M 87.65650970185807 116.9893568818739 l -7.459339963156203 10.266900663936312 a33.690587138863,33.690587138863 0 0,0 -0.4662376656179337,-0.3449114788557863 l 7.634962599192701 -10.136979236340759" fill="red" stroke="none" /><path d="M 87.07902340077011 116.55440617244103 l -7.800581598882692 9.994135905862581 a33.678005591798694,33.678005591798694 0 0,0 -0.4539193877610256,-0.3606210143590998 l 7.971458479361075 -9.858380977498351" fill="red" stroke="none" /><path d="M 86.79598089348748 116.32954008644616 l -7.958273797787538 9.842075352328822 a33.65703634669152,33.65703634669152 0 0,0 -0.4473659156675591,-0.3681516920779202 l 8.126509841999786 -9.703628541393721" fill="red" stroke="none" /><path d="M 85.97065885151581 115.62618273729859 l -11.394753784626255 12.69172251216749 a38.05638397017707,38.05638397017707 0 0,0 -0.4836793346334587,-0.4418296042613262 l 11.61153266872657 -12.493700141319588" fill="red" stroke="none" /><path d="M 85.44109423537348 115.13401014063109 l -8.766163136802481 9.112443198109986 a33.64445479962721,33.64445479962721 0 0,0 -0.4139069761797204,-0.40509509206247607 l 8.921720065357995 -8.96019800312494" fill="red" stroke="none" /><path d="M 85.18274418774928 114.88116024355367 l -8.921720065357995 8.96019800312494 a33.64445479962721,33.64445479962721 0 0,0 -0.40687260529812813,-0.4121598010496168 l 9.074633295711656 -8.805297708094658" fill="red" stroke="none" /><path d="M 84.9287848128048 114.62390073753433 l -9.128810210909933 8.85786664963552 a33.71994408201304,33.71994408201304 0 0,0 -0.40061453030143557,-0.42004273338526915 l 9.279931292590327 -8.69941679966775" fill="red" stroke="none" /><path d="M 84.67929136418377 114.36230785411682 l -9.292169909527477 8.71088981885624 a33.73671947809879,33.73671947809879 0 0,0 -0.393520505647655,-0.4270887876367436 l 9.44073682317086 -8.549649776418152" fill="red" stroke="none" /><path d="M 84.19399662182784 113.82643327865904 l -9.53284453509785 8.3389352619259 a33.665424044734394,33.665424044734394 0 0,0 -0.3777861592675081,-0.4394506522428457 l 9.674973203936135 -8.173607510521524" fill="red" stroke="none" /><path d="M 83.95833913139862 113.55231037782056 l -12.891421249218208 10.890926033886952 a37.876048462255355,37.876048462255355 0 0,0 -0.4164633856267158,-0.5016569764185698 l 13.07698063473846 -10.667407800354622" fill="red" stroke="none" /><line stroke="#e1ed5e" stroke-width="0.3" x1="26.63291911575756" x2="22.317208475507996" y1="142.92168965132927" y2="145.44649492493687" /><path d="M 25.769776987707644 143.4266507060508 a86.0,86.0 0 0,1 -11.730757126820373,-40.83630448921669" fill="none" id="id81" stroke="none" /><text fill="#e1ed5e" style="font-size:6.75px; font-family:Arial;" text-anchor="middle"><textPath startOffset="21.46611528233685" xlink:href="#id81">September</textPath></text><path d="M 81.18737489456691 109.33194174019688 l -11.35745553729015 5.633829026883604 a33.678005591798694,33.678005591798694 0 0,0 -0.2531411193512718,-0.5215456837864682 l 11.452749913256142 -5.437494387131852" fill="red" stroke="none" /><path d="M 81.02952815118164 109.00673069616217 l -11.46790406464649 5.444689219268315 a33.694780987884435,33.694780987884435 0 0,0 -0.24424766411327767,-0.526087739207724 l 11.559926345599594 -5.246481412781764" fill="red" stroke="none" /><path d="M 79.58551787078972 104.9243191809786 l -12.35713526833372 2.9807505200797784 a33.711556383970176,33.711556383970176 0 0,0 -0.13121731144885249,-0.5652807434455553 l 12.406613145713127 -2.767601119285649" fill="red" stroke="none" /><path d="M 79.4281124754447 104.21870165774334 l -20.586951481602966 4.2217908414895255 a42.01537744641193,42.01537744641193 0 0,0 -0.13919107738093098,-0.7097323048177752 l 20.65657249195956 -3.8667948096037956" fill="red" stroke="none" /><path d="M 79.23777060512086 103.15116336523772 l -21.66475474402414 3.2881431067834717 a42.91286113699907,42.91286113699907 0 0,0 -0.10455606017464121,-0.7312648413405435 l 21.718144855215378 -2.9147327934625276" fill="red" stroke="none" /><path d="M 79.0095281055655 100.63252640178507 l -25.21874828589761 0.759941186221345 a46.230195712954334,46.230195712954334 0 0,0 -0.017122645919771234,-0.7956220737465344 l 25.22809299450239 -0.3257292966846817" fill="red" stroke="none" /><line stroke="#e1ed5e" stroke-width="0.3" x1="15.007084014347285" x2="10.007500721073583" y1="101.09737516637583" y2="101.16192664675087" /><path d="M 14.007167355692545 101.11028546245083 a86.0,86.0 0 0,1 10.666146001902534,-42.60595125391555" fill="none" id="id82" stroke="none" /><text fill="#e1ed5e" style="font-size:6.75px; font-family:Arial;" text-anchor="middle"><textPath startOffset="22.20632615414155" xlink:href="#id82">October</textPath></text><path d="M 79.05617556472873 98.46500227214037 l -37.723143239590904 -2.7647738997935085 a58.82432432432432,58.82432432432432 0 0,0 0.08270564474499949,-1.0092183516052384 l 37.66996311102641 3.4137061686065255" fill="red" stroke="none" /><path d="M 79.12142395522702 97.74499172005258 l -41.76688115573646 -4.511067355924647 a63.00978564771668,63.00978564771668 0 0,0 0.12574847018168267,-1.0773360992200443 l 41.683042332551196 5.229347193469553" fill="red" stroke="none" /><path d="M 79.26566170972629 96.67025291283419 l -20.571467040223634 -3.3035914383650145 a41.835041938490214,41.835041938490214 0 0,0 0.12030191932803926,-0.7100287377752984 l 20.511553259375372 3.657205964456141" fill="red" stroke="none" /><path d="M 79.3925641242962 95.95851677861259 l -41.228589922007856 -8.085656819037228 a63.013979496738116,63.013979496738116 0 0,0 0.2179104551548199,-1.0626087686578665 l 41.08330017093804 8.794141243858496" fill="red" stroke="none" /><path d="M 79.54389044137918 95.25157060432595 l -20.687605938927415 -4.802166114970053 a42.23765144454799,42.23765144454799 0 0,0 0.17049368745305168,-0.7068064046493798 l 20.60187945121355 5.15755775127883" fill="red" stroke="none" /><path d="M 79.62865764111835 94.90015583598534 l -40.75624572319458 -10.203083244927196 a63.013979496738116,63.013979496738116 0 0,0 0.2724714515120507,-1.049943650776156 l 40.57457793981222 10.903123321252217" fill="red" stroke="none" /><path d="M 80.38941819471856 92.48833698450439 l -32.968022427811036 -12.628114618115184 a56.30382106244175,56.30382106244175 0 0,0 0.35446325289342356,-0.902070315458543 l 32.745765625035915 13.19373393846949" fill="red" stroke="none" /><path d="M 81.26839172434947 90.50648371742162 l -19.770313487580815 -10.019950782870469 a43.16449207828518,43.16449207828518 0 0,0 0.34159673361171344,-0.6598561612812954 l 19.59490732080899 10.358779666412099" fill="red" stroke="none" /><path d="M 81.6062741919709 89.86733742301443 l -19.523895487220354 -10.755245958596387 a43.29030754892824,43.29030754892824 0 0,0 0.3651689137330116,-0.649594750888665 l 19.335868932194913 11.089724219419837" fill="red" stroke="none" /><line stroke="#e1ed5e" stroke-width="0.3" x1="26.266209847984243" x2="21.928928074336255" y1="57.711370442889674" y2="55.22380399835377" /><path d="M 25.398753493254645 57.213857153982495 a86.0,86.0 0 0,1 29.58750427330803,-30.492523968695096" fill="none" id="id83" stroke="none" /><text fill="#e1ed5e" style="font-size:6.75px; font-family:Arial;" text-anchor="middle"><textPath startOffset="21.46611528233685" xlink:href="#id83">November</textPath></text><path d="M 82.15384107792192 88.93136811851018 l -18.115835268457506 -11.235891862657319 a42.317334575955265,42.317334575955265 0 0,0 0.38926386859529116,-0.6157219581975091 l 17.919743803616253 11.546061468569043" fill="red" stroke="none" /><path d="M 82.54541684631803 88.32363383020206 l -17.519651497218522 -11.719894095873604 a42.078285181733456,42.078285181733456 0 0,0 0.4079099709340244,-0.5985575488989805 l 17.315317060615758 12.019729668043" fill="red" stroke="none" /><path d="M 83.17141714833178 87.43820079747576 l -20.33948543834963 -15.182534038146054 a46.381174277726004,46.381174277726004 0 0,0 0.4830799397713032,-0.6356765747449941 l 20.07512955835422 15.530395388772074" fill="red" stroke="none" /><path d="M 83.6137871275137 86.86637796730984 l -26.254810120348335 -21.043346339024062 a54.64725069897484,54.64725069897484 0 0,0 0.5946180565997696,-0.7289314289608879 l 25.88869357167217 21.492161937593032" fill="red" stroke="none" /><path d="M 84.07557802195018 86.31012108654704 l -31.865805129821425 -27.394338978724274 a63.02236719478099,63.02236719478099 0 0,0 0.7142779128067939,-0.8165431297602795 l 31.389535353436788 27.9387976646875" fill="red" stroke="none" /><path d="M 84.5562425177563 85.77008943001954 l -15.51058242142263 -14.291483209246122 a42.090866728797764,42.090866728797764 0 0,0 0.4955351286640622,-0.5286023250711482 l 15.26227997078811 14.55635495119532" fill="red" stroke="none" /><path d="M 86.37877921826538 84.01681056812374 l -22.311526997427908 -26.18042598593711 a55.397949673811745,55.397949673811745 0 0,0 0.7311011533340683,-0.6122761905736922 l 21.85756830713473 26.560603333904613" fill="red" stroke="none" /><path d="M 87.51073957382395 83.11751280151077 l -12.745331003413579 -17.228633254749035 a42.43056849953402,42.43056849953402 0 0,0 0.5909056422600198,-0.4293180791402275 l 12.446880044799776 17.445470568705932" fill="red" stroke="none" /><path d="M 88.09926311788651 82.69761687909137 l -11.911827969608467 -17.318508361468655 a42.019571295433366,42.019571295433366 0 0,0 0.5994698239600742,-0.4047647011134812 l 11.611953451241854 17.5209849748808" fill="red" stroke="none" /><path d="M 88.70189139769569 82.29822771554957 l -13.596538897114726 -21.30293165745539 a46.27213420316869,46.27213420316869 0 0,0 0.6750902713672469,-0.42274146599727136 l 13.227829473375236 21.53381746477559" fill="red" stroke="none" /><line stroke="#e1ed5e" stroke-width="0.3" x1="56.762969772571076" x2="54.21961505331055" y1="26.818313649435495" y2="22.513508569990535" /><path d="M 56.25429882871897 25.957352633546506 a86.0,86.0 0 0,1 42.265352541879196,-11.944610805530505" fill="none" id="id84" stroke="none" /><text fill="#e1ed5e" style="font-size:6.75px; font-family:Arial;" text-anchor="middle"><textPath startOffset="22.20632615414155" xlink:href="#id84">December</textPath></text><path d="M 89.63071344664047 81.73862282372117 l -20.764113221382495 -36.56773311407559 a63.05172413793103,63.05172413793103 0 0,0 0.9484057522689074,-0.5277867743205296 l 20.131583380041544 36.9197352859563" fill="red" stroke="none" /><path d="M 90.58718382345135 81.22770947309562 l -19.00108093047936 -37.89448395272591 a63.39142590866729,63.39142590866729 0 0,0 0.9796351967877263,-0.4807027365547873 l 18.345974466681206 38.21594184941553" fill="red" stroke="none" /><path d="M 91.23893434514133 80.91482961587045 l -8.881208080960452 -19.346889535982218 a42.28797763280522,42.28797763280522 0 0,0 0.6641586284369642,-0.29798861682033023 l 8.546867334056714 19.49689848331908" fill="red" stroke="none" /><path d="M 91.90106846888425 80.62456947434976 l -9.753007016235124 -23.332548143323976 a46.288909599254424,46.288909599254424 0 0,0 0.7377926048588433,-0.3009641283909865 l 9.349930541787899 23.496973157898537" fill="red" stroke="none" /><path d="M 92.23578459929587 80.48803036053334 l -7.782305371348836 -19.557430892121527 a42.048928238583414,42.048928238583414 0 0,0 0.6748188909582437,-0.26181924575130494 l 7.444503315390916 19.68849284176338" fill="red" stroke="none" /><path d="M 92.91201910852362 80.23233633223022 l -14.308076990622409 -39.90378332189129 a63.39142590866729,63.39142590866729 0 0,0 1.0303159262246215,-0.35945699587624647 l 13.619079060334503 40.144161170939746" fill="red" stroke="none" /><path d="M 93.94186890950719 79.89281104454417 l -12.121504871983907 -40.23177862029926 a63.01817334575955,63.01817334575955 0 0,0 1.0413296481990342,-0.30399267944840735 l 11.427185006061453 40.43446962866636" fill="red" stroke="none" /><path d="M 94.63758080256005 79.69619591428918 l -11.167482503841791 -42.28359785763396 a64.73345759552656,64.73345759552656 0 0,0 1.079788323828546,-0.2752620862338318 l 10.437985291328246 42.46956294003665" fill="red" stroke="none" /><path d="M 95.33964822691252 79.52364482259891 l -10.969292903263696 -48.19617669834561 a70.4287045666356,70.4287045666356 0 0,0 1.1844004498166432,-0.25886406376848353 l 10.138049729293531 48.37785426020996" fill="red" stroke="none" /><path d="M 96.75951476605007 79.25152402106235 l -9.72145570184976 -62.24542793681294 a84.0,84.0 0 0,0 1.430524078285405,-0.2108220633561242 l 8.648562643135705 62.403544484330034" fill="red" stroke="none" /><path d="M 98.91598698831166 79.02799685794201 l -1.1081871801689391 -21.43969193533382 a42.468313140726934,42.468313140726934 0 0,0 0.7303724106540224,-0.03145137238194368 l 0.7389739371255927 21.455591034239955" fill="red" stroke="none" /><path d="M 99.63851952072746 79.00311137660856 l -0.5188310886430072 -30.136727174074217 a51.14119291705499,51.14119291705499 0 0,0 0.8803115679155356,-0.0075771195893295906 l 7.382463085670852e-15 30.141192917054987" fill="red" stroke="none" /></svg>