<?xml version="1.0" encoding="utf-8" ?>
<svg baseProfile="full" height="200mm" version="1.1" viewBox="0,0,200,200" width="200mm" xmlns="http://www.w3.org/2000/svg" xmlns:ev="http://www.w3.org/2001/xml-events" xmlns:xlink="http://www.w3.org/1999/xlink"><defs /><rect fill="#1a1a1a" height="200" width="200" x="0" y="0" /><text alignment-baseline="middle" fill="#e1ed5e" style="dominant-baseline: central; font-size:9.0px; font-family:Arial;" text-anchor="middle" x="100.0" y="100.0">2025</text><line stroke="#e1ed5e" stroke-width="0.3" x1="100.0" x2="100.0" y1="15.0" y2="10.0" /><path d="M 100.0 14.0 a86.0,86.0 0 0,1 42.46469731375804,11.215312516191453" fill="none" id="id97" stroke="none" /><text fill="#e1ed5e" style="font-size:6.75px; font-family:Arial;" text-anchor="middle"><textPath startOffset="22.20632615414155" xlink:href="#id97">January</textPath></text><path d="M 100.0 79.0 l 0.0 -32.772624099828604 a53.772624099828604,53.772624099828604 0 0,0 0.9256073300641692,0.007966994514525505 l -0.5641268507916408 32.76776848192264" fill="#8cff24" stroke="none" /><path d="M 100.36148047927253 79.00311137660856 l 0.23125402843539647 -13.432578955689218 a34.434569432121464,34.434569432121464 0 0,0 0.5925588676810326,0.015304047333254215 l -0.46243953131129684 13.426608116213604" fill="#ff720a" stroke="none" /><path d="M 101.08401301168833 79.027996857942 l 1.5302899681253235 -29.605960144149478 a50.64548301923098,50.64548301923098 0 0,0 0.8702291584851206,0.052494599332570696 l -2.039681175450056 29.575232275436605" fill="#b1ff20" stroke="none" /><path d="M 102.16513564639614 79.11191278185805 l 2.6043460633966764 -25.12535776176559 a46.25997270534242,46.25997270534242 0 0,0 0.7913391662138234,0.08891617574891321 l -3.036451933120225 25.076805632546073" fill="#e8ff1a" stroke="none" /><path d="M 102.88285421437855 79.19881850522331 l 4.177839820844574 -30.145126290483145 a51.43325458503925,51.43325458503925 0 0,0 0.8759108227200049,0.12908648638974773 l -4.696119623993234 30.068745319932425" fill="#a7ff21" stroke="none" /><path d="M 103.95276090670814 79.375362276772 l 9.506001170855328 -49.60022500039093 a71.50293435385422,71.50293435385422 0 0,0 1.206811512222523,0.24207503625857663 l -10.358379092544975 49.429246008055145" fill="#3cffa5" stroke="none" /><path d="M 104.66035177308747 79.52364482259891 l 5.561885728780824 -24.437457338801792 a46.062400005701235,46.062400005701235 0 0,0 0.7716029163649055,0.1826134808131954 l -5.981712332108253 24.33809794584773" fill="#ebff1a" stroke="none" /><path d="M 105.36241919743992 79.69619591428918 l 6.0997874252797875 -23.095711895573178 a44.887639368445804,44.887639368445804 0 0,0 0.745353075978186,0.20373315154040067 l -6.496438390481685 22.987292203206483" fill="#faff18" stroke="none" /><path d="M 106.40334571778207 80.00007090966166 l 12.584896369005845 -39.30711320027772 a62.272615191650544,62.272615191650544 0 0,0 1.0180599285324488,0.33563835210383974 l -13.259639119780712 39.08466112391464" fill="#30ff32" stroke="none" /><path d="M 107.4271985657038 80.35727306442388 l 16.6549958788534 -44.047500988074376 a68.09109502888032,68.09109502888032 0 0,0 1.0927545399209595,0.42397178452896284 l -17.410733583774025 43.75428649965486" fill="#38ff7c" stroke="none" /><path d="M 109.08828744355905 81.06846463323043 l 12.002612942965992 -25.002278243790048 a48.73403387245627,48.73403387245627 0 0,0 0.7531235364809016,0.36955444857157016 l -12.431207746457327 24.791968635083645" fill="#c9ff1d" stroke="none" /><path d="M 109.73455568895987 81.39251694778311 l 13.90700365368809 -26.58306583900898 a51.00106898136765,51.00106898136765 0 0,0 0.7743782608123989,0.4136460485084964 l -14.3625269610288 26.339741063998733" fill="#adff20" stroke="none" /><line stroke="#e1ed5e" stroke-width="0.3" x1="143.23703022742887" x2="145.7803849466894" y1="26.81831364943548" y2="22.513508569990506" /><path d="M 143.74570117128098 25.957352633546492 a86.0,86.0 0 0,1 28.547481713284135,27.462654790039103" fill="none" id="id98" stroke="none" /><text fill="#e1ed5e" style="font-size:6.75px; font-family:Arial;" text-anchor="middle"><textPath startOffset="19.985693538727396" xlink:href="#id98">February</textPath></text><path d="M 111.90073688211348 82.69761687909136 l 16.83144259142802 -24.471095452263118 a50.70070659668402,50.70070659668402 0 0,0 0.7148047821135195,0.5007664300347993 l -17.25017851312519 24.17774417946438" fill="#b0ff20" stroke="none" /><path d="M 112.48926042617603 83.11751280151076 l 22.406476962052167 -30.288187415987057 a58.675250587048936,58.675250587048936 0 0,0 0.8067954422000514,0.6076616004414492 l -22.924518558010604 29.89800922603976" fill="#54ff2b" stroke="none" /><path d="M 113.06298171725822 83.55741782278167 l 39.188945151774654 -49.32774653165496 a84.0,84.0 0 0,0 1.1243864057420354,0.9091756109434814 l -40.032234956081176 48.64586482344735" fill="#4dd2ff" stroke="none" /><path d="M 113.89432698308785 84.25364557470407 l 16.583587228417976 -18.794076349241596 a46.06457003787757,46.06457003787757 0 0,0 0.5900411048240017,0.5297447297506456 l -16.904639320837965 18.505832610721654" fill="#ebff1a" stroke="none" /><path d="M 114.68862486808459 84.99185889309783 l 21.25249348418099 -21.71479113590435 a51.3842168464337,51.3842168464337 0 0,0 0.6267998472616892,0.6241081695212121 l -21.623129131610003 21.34574711573302" fill="#a8ff21" stroke="none" /><path d="M 114.94478906791727 85.2469230424477 l 4.356768936848954 -4.300880201085602 a27.122009970032888,27.122009970032888 0 0,0 0.3251228166503736,0.3350676416606334 l -4.430156017202436 4.225248363874854" fill="#ff0200" stroke="none" /><path d="M 115.19652480421416 85.50635884689758 l 18.067342290029682 -17.23167494645518 a45.9671680189281,45.9671680189281 0 0,0 0.541170764321585,0.5772832393379208 l -18.36128037632173 16.918122290239204" fill="#ecff1a" stroke="none" /><path d="M 115.68641384162765 86.03803664274999 l 22.439268714056052 -19.972458377818043 a51.04030416083181,51.04030416083181 0 0,0 0.5784765559875895,0.6612987032777282 l -22.779737133621488 19.58324411833737" fill="#acff20" stroke="none" /><path d="M 116.38621287248628 86.86637796730983 l 23.686938350720286 -18.985185767502553 a51.356355628721396,51.356355628721396 0 0,0 0.5469352081870832,0.6945521722575984 l -24.010227639501334 18.574641201291918" fill="#a8ff21" stroke="none" /><path d="M 116.82858285166822 87.43820079747576 l 24.965107306415636 -18.635357939339286 a52.15338100990233,52.15338100990233 0 0,0 0.5308155907446654,0.7240318692331644 l -25.28218550967393 18.20286362643463" fill="#9fff22" stroke="none" /><line stroke="#e1ed5e" stroke-width="0.3" x1="172.23445277983987" x2="176.4835382374775" y1="55.19839476539836" y2="52.563006222186495" /><path d="M 173.08426987136738 54.67131705675599 a86.0,86.0 0 0,1 12.851231095245387,41.99856678651699" fill="none" id="id99" stroke="none" /><text fill="#e1ed5e" style="font-size:6.75px; font-family:Arial;" text-anchor="middle"><textPath startOffset="22.20632615414155" xlink:href="#id99">March</textPath></text><path d="M 118.21658344932153 89.55222093294921 l 22.272567290669812 -12.774012369350578 a46.6757209388507,46.6757209388507 0 0,0 0.39372606197543747,0.700394731119699 l -22.48915099393768 12.388734128296084" fill="#e3ff1b" stroke="none" /><path d="M 118.89224826269711 90.83032412892265 l 22.662045282002737 -10.999411341738105 a46.190382018308085,46.190382018308085 0 0,0 0.34102096453608344,0.7182771225018719 l -22.848024440380577 10.607691803595692" fill="#e9ff1a" stroke="none" /><path d="M 119.196687751892 91.48605970444005 l 34.668968682560404 -15.376065563334755 a58.92572717457535,58.92572717457535 0 0,0 0.4032464011553372,0.9307482909363386 l -34.92850579355842 14.777018127811814" fill="#51ff2b" stroke="none" /><path d="M 119.47837535516314 92.15188598940014 l 25.525506498488383 -10.284589013495088 a48.519524944680214,48.519524944680214 0 0,0 0.3054568644934503,0.7773544023629272 l -25.698756912863534 9.843685606236377" fill="#cbff1d" stroke="none" /><path d="M 119.7369772167798 92.82701384747503 l 23.938946689337836 -8.700102919644033 a46.47086491282457,46.47086491282457 0 0,0 0.26675807606402474,0.7541610030618461 l -24.085157846211672 8.286744290155573" fill="#e6ff1a" stroke="none" /><path d="M 119.97218684219823 93.5106431181261 l 19.67720245124711 -6.393510643172611 a41.68983505617497,41.68983505617497 0 0,0 0.21588290214128697,0.684407795110779 l -19.784340837156602 6.053852681635414" fill="#ffd914" stroke="none" /><path d="M 120.08093135843002 93.85539295169968 l 16.58986892033213 -5.076369401335425 a38.349157820845846,38.349157820845846 0 0,0 0.1877174892721712,0.6328900544630788 l -16.674792306716004 4.790049960125817" fill="#ffab0f" stroke="none" /><path d="M 120.28053869075195 94.5502522615342 l 38.0868903471276 -10.234636648438922 a60.43804005829512,60.43804005829512 0 0,0 0.2613331300887039,1.0070231547247253 l -38.257419809086606 9.577517068165347" fill="#40ff2d" stroke="none" /><path d="M 120.45610955862082 95.25157060432595 l 29.269465835686415 -6.794253402464728 a51.04768725881108,51.04768725881108 0 0,0 0.19132092942061912,0.8576542123283196 l -29.38208115210907 6.289421020586444" fill="#acff20" stroke="none" /><path d="M 120.6074358757038 95.95851677861258 l 42.45980199266487 -8.327119316144763 a64.26864570750533,64.26864570750533 0 0,0 0.20356106878706887,1.0874313691270574 l -42.5968487853618 7.595009869555143" fill="#32ff4c" stroke="none" /><path d="M 120.73433829027371 96.67025291283417 l 34.52496864611523 -5.544397519443396 a55.967324802862024,55.967324802862024 0 0,0 0.14456654907256009,0.9525129315039773 l -34.61529108862709 4.949285475547336" fill="#72ff27" stroke="none" /><line stroke="#e1ed5e" stroke-width="0.3" x1="184.98032266829074" x2="189.97916517819016" y1="98.17113171792111" y2="98.06355123074" /><path d="M 185.9800911702706 98.14961562048488 a86.0,86.0 0 0,1 -9.607161424134198,41.387399972396054" fill="none" id="id100" stroke="none" /><text fill="#e1ed5e" style="font-size:6.75px; font-family:Arial;" text-anchor="middle"><textPath startOffset="21.466115282336823" xlink:href="#id100">April</textPath></text><path d="M 120.99513854157772 99.54816195383933 l 32.6152150591591 -0.7019146369649535 a53.62276716516831,53.62276716516831 0 0,0 0.011917003461344607,0.9229850510797282 l -32.622465069738155 0.14039332782476255" fill="#8dff24" stroke="none" /><path d="M 120.9904718944345 100.63252640178507 l 52.78621641787693 1.5906586427673646 a73.81017741527432,73.81017741527432 0 0,0 -0.049199288461339634,1.269615023063334 l -52.751014996564386 -2.499050912844705" fill="#3fffc0" stroke="none" /><path d="M 120.95626037817324 101.35467743843564 l 29.912421196006672 1.9336313536846108 a50.974853994961535,50.974853994961535 0 0,0 -0.0641395744823723,0.8751335346827886 l -29.874705062859963 -2.4482380248641697" fill="#adff20" stroke="none" /><path d="M 120.89721153311464 102.0752229133903 l 39.7864691101004 3.9510435260387884 a60.98216939078752,60.98216939078752 0 0,0 -0.1127232126296844,1.043676951356844 l -39.71256359596966 -4.635316799280424" fill="#3bff2e" stroke="none" /><path d="M 120.81339534386255 102.79330883721812 l 38.80174425673886 5.2074759231336305 a60.149625322030644,60.149625322030644 0 0,0 -0.14655298383797924,1.0249912276271664 l -38.706357221884275 -5.874612622741206" fill="#44ff2d" stroke="none" /><path d="M 120.70491114924044 103.5080841355445 l 5.917670344962339 1.0026454741538988 a27.002009684971192,27.002009684971192 0 0,0 -0.08158921802395736,0.4575956637810136 l -5.899534684599193 -1.104359888668131" fill="#ff0000" stroke="none" /><path d="M 120.49622156327973 104.57218783832717 l 37.93362569223186 8.462030990356071 a59.86599962229325,59.86599962229325 0 0,0 -0.23301966329180898,1.0038426107699252 l -37.78234546300949 -9.113742258474561" fill="#47ff2c" stroke="none" /><path d="M 120.32669344350535 105.2749913415812 l 33.83269881372526 8.779942187879463 a55.95338172255658,55.95338172255658 0 0,0 -0.24995687497980357,0.9301825180397172 l -33.67655386240368 -9.36101563909473" fill="#72ff27" stroke="none" /><path d="M 120.13307415673323 105.97154293290107 l 50.76846761526113 15.058111922800428 a73.95454691224732,73.95454691224732 0 0,0 -0.3724957673692866,1.217337720223688 l -50.50174507538571 -15.929776615576174" fill="#3fffc2" stroke="none" /><path d="M 119.9155931802556 106.66101706037122 l 28.41214462644445 9.502794035083424 a50.95918985465417,50.95918985465417 0 0,0 -0.2853937130767629,0.8294877200369325 l -28.244360082424457 -9.990454458209657" fill="#adff20" stroke="none" /><path d="M 119.67450827220406 107.3425965602758 l 27.84807451205292 10.393000592110704 a50.72422775004365,50.72422775004365 0 0,0 -0.31233013387059194,0.8153954228096667 l -27.665050098588825 -10.870819581753514" fill="#b0ff20" stroke="none" /><path d="M 119.26925614724726 108.34839909993367 l 22.06517881500178 9.559731706890602 a45.04704943326172,45.04704943326172 0 0,0 -0.3143831762378841,0.7088510676817841 l -21.89735455403262 -9.938131111065074" fill="#f8ff18" stroke="none" /><path d="M 119.12269723197855 108.67885076344098 l 34.10002312737595 15.476321575466443 a58.44767158041769,58.44767158041769 0 0,0 -0.4236771048166087,0.9125627916903026 l -33.82857140571951 -16.061004434435578" fill="#56ff2a" stroke="none" /><path d="M 118.64920377521936 109.65438752849418 l 26.624483251433496 13.783059167212 a50.980590861634624,50.980590861634624 0 0,0 -0.4101449026326718,0.7758395886388314 l -26.38328584057593 -14.239313770936965" fill="#adff20" stroke="none" /><line stroke="#e1ed5e" stroke-width="0.3" x1="174.80103733775053" x2="179.2010983576182" y1="140.37084112569926" y2="142.7455964860345" /><path d="M 175.68104954172406 140.8457921977663 a86.0,86.0 0 0,1 -30.038265399797805,32.042727171017184" fill="none" id="id101" stroke="none" /><text fill="#e1ed5e" style="font-size:6.75px; font-family:Arial;" text-anchor="middle"><textPath startOffset="22.206326154141568" xlink:href="#id101">May</textPath></text><path d="M 118.30583269289576 110.29060199501025 l 19.961770608703905 11.221485517541378 a43.89965115574702,43.89965115574702 0 0,0 -0.37596498237942794,0.6555266369612069 l -19.7656536301721 -11.563432000360901" fill="#fff717" stroke="none" /><path d="M 117.94076556474637 110.91462005526583 l 30.256331018537008 18.4070382137204 a56.41559857611682,56.41559857611682 0 0,0 -0.5118650668118084,0.8252894690860543 l -29.935001312057235 -18.92512401417173" fill="#6dff28" stroke="none" /><path d="M 117.55443506779139 111.5257021239791 l 25.034684468331218 16.43700380191698 a50.948464408265366,50.948464408265366 0 0,0 -0.48764205381684494,0.7289587063134777 l -24.74803930910365 -16.86549942243626" fill="#adff20" stroke="none" /><path d="M 116.498646956653 112.99209946851258 l 26.093468003483125 20.547680829245163 a54.21259188785673,54.21259188785673 0 0,0 -0.5836426650916542,0.7281839638640916 l -25.735907426336617 -20.993792626687505" fill="#86ff25" stroke="none" /><path d="M 116.0416608686014 113.55231037782055 l 19.118759493174572 16.151903771856453 a46.02820329174996,46.02820329174996 0 0,0 -0.5165186131761818,0.6008278384151146 l -18.837898370427613 -16.478608709433093" fill="#ebff1a" stroke="none" /><path d="M 115.56566222782051 114.09645910891815 l 22.445149402579066 20.32660905242553 a51.281277503999775,51.281277503999775 0 0,0 -0.5981682441510915,0.6491934893629941 l -22.09193475043225 -20.709953796589858" fill="#a9ff21" stroke="none" /><path d="M 115.07121518719521 114.62390073753431 l 21.60044074559894 20.95933854219073 a51.09772271335977,51.09772271335977 0 0,0 -0.61794027244621,0.6259702335215194 l -21.236459848097194 -21.32804926969291" fill="#acff21" stroke="none" /><path d="M 114.55890576462653 115.13401014063108 l 11.31313144427344 11.760021581836138 a37.31824287969327,37.31824287969327 0 0,0 -0.46676976799980086,0.4413599499437595 l -11.109025841882831 -11.953016168525819" fill="#ff9c0e" stroke="none" /><path d="M 114.0293411484842 115.62618273729858 l 14.918369490688807 16.616401678223518 a43.330753524966056,43.330753524966056 0 0,0 -0.5592920046315181,0.4935101663209858 l -14.630135133150702 -16.870734986316794" fill="#ffef16" stroke="none" /><path d="M 113.20401910651253 116.32954008644616 l 20.49990686399767 25.35243611840536 a53.60356113326278,53.60356113326278 0 0,0 -0.7224803020208308,0.5739820470201787 l -20.060469069259486 -25.701552079430666" fill="#8dff24" stroke="none" /><path d="M 112.63410532772338 116.77436683061366 l 15.025155863940414 19.948976964425768 a45.97432663082016,45.97432663082016 0 0,0 -0.6362300139905899,0.47066775423879176 l -14.67954087953126 -20.20465466740433" fill="#ecff1a" stroke="none" /><path d="M 112.34349029814194 116.9893568818739 l 12.836761928779163 17.668287036164305 a42.83920382267737,42.83920382267737 0 0,0 -0.6003050943678833,0.42830174574267477 l -12.530729506562396 -17.8866330437512" fill="#ffe915" stroke="none" /><path d="M 111.1453310114006 117.79835938074945 l 14.999717775916388 23.95356112012203 a49.26242423594557,49.26242423594557 0 0,0 -0.7225643488776181,0.4438580389254345 l -14.58517422710646 -24.20820762587584" fill="#c2ff1e" stroke="none" /><line stroke="#e1ed5e" stroke-width="0.3" x1="143.8653032363475" x2="146.44561519142675" y1="172.8068346515853" y2="177.08958963109032" /><path d="M 144.38136562736335 173.6633856474863 a86.0,86.0 0 0,1 -40.68145358897372,12.25698825130547" fill="none" id="id102" stroke="none" /><text fill="#e1ed5e" style="font-size:6.75px; font-family:Arial;" text-anchor="middle"><textPath startOffset="21.466115282336833" xlink:href="#id102">June</textPath></text><path d="M 110.5260780823613 118.17145234162733 l 15.465810697454488 26.69904591382055 a51.854989114206404,51.854989114206404 0 0,0 -0.7762228461589801,0.4407595902209451 l -15.00393908437431 -26.961308669836125" fill="#a2ff22" stroke="none" /><path d="M 106.91757812671514 119.82793768551818 l 9.876477162102914 28.309065707019553 a50.98246157902801,50.98246157902801 0 0,0 -0.8310876041841059,0.2819500384937864 l -9.387719824981582 -28.47487873241146" fill="#adff20" stroke="none" /><path d="M 106.2309692047433 120.05430185196036 l 9.130351877016956 29.385931231520836 a51.77167983295385,51.77167983295385 0 0,0 -0.8533082859739315,0.25709478676934017 l -8.62316861660278 -29.538741387395902" fill="#a3ff21" stroke="none" /><path d="M 105.18746579009965 120.34920634021253 l 9.27092927499531 36.36767169480886 a58.53075637558304,58.53075637558304 0 0,0 -0.9784299889116085,0.24047428619111302 l -8.643546001340491 -36.521867239314005" fill="#55ff2b" stroke="none" /><path d="M 104.48393922423573 120.51570834832081 l 5.342287354590167 24.442973867107952 a46.01997213521902,46.01997213521902 0 0,0 -0.7753456707725042,0.16248122385512936 l -4.920750222388285 -24.531311071689622" fill="#ebff1a" stroke="none" /><path d="M 103.7750983002368 120.6578951692458 l 8.266230546053936 45.23403378780569 a66.9831314740184,66.9831314740184 0 0,0 -1.1360052937378362,0.19750908171359763 l -7.48637628084405 -45.3696214480403" fill="#36ff6f" stroke="none" /><path d="M 103.06178313531738 120.77559828337769 l 5.823000406118824 39.511719770750425 a60.93849437537637,60.93849437537637 0 0,0 -1.0390634539021155,0.1440047267430784 l -5.142008361029879 -39.60609906298611" fill="#3bff2e" stroke="none" /><path d="M 102.34483914955558 120.86867818915974 l 3.345840040681289 29.777419527738772 a50.96480200683436,50.96480200683436 0 0,0 -0.8726324534336668,0.09045192177723563 l -2.832774990642019 -29.830600817971764" fill="#adff20" stroke="none" /><path d="M 101.62511606390274 120.93702456842531 l 2.8913323764722025 37.250199137349306 a58.362242152785946,58.362242152785946 0 0,0 -1.0022665659396315,0.06912217048005866 l -2.2497030497536405 -37.29444965234565" fill="#57ff2a" stroke="none" /><line stroke="#e1ed5e" stroke-width="0.3" x1="102.19456741930631" x2="102.32365962044197" y1="184.97166512339345" y2="189.96999836594603" /><path d="M 102.22038585953345 185.97133177190398 a86.0,86.0 0 0,1 -42.740103519485714,-10.115201625700543" fill="none" id="id103" stroke="none" /><text fill="#e1ed5e" style="font-size:6.75px; font-family:Arial;" text-anchor="middle"><textPath startOffset="22.20632615414155" xlink:href="#id103">July</textPath></text><path d="M 100.54218724476979 120.99299961872073 l 0.8227381343668562 31.855676258861028 a52.866298937076195,52.866298937076195 0 0,0 -0.9099053086687494,0.015664845062033052 l -0.2742731358054388 -31.865118581202218" fill="#96ff23" stroke="none" /><path d="M 99.81925306533755 120.99922214144158 l -0.2577287703790928 29.942990245109655 a50.9440994010141,50.9440994010141 0 0,0 -0.8768214802686326,-0.015095276953121857 l 0.7731099405403934 -29.934117490877373" fill="#adff20" stroke="none" /><path d="M 99.09653310690486 120.98055641714683 l -1.0741658550566664 24.944574611010122 a45.96769181979825,45.96769181979825 0 0,0 -0.7902326292589918,-0.04084600057395174 l 1.5033865527291472 -24.922388803673968" fill="#ecff1a" stroke="none" /><path d="M 97.65516085044442 120.86867818915974 l -3.3434420701925704 29.756077989473557 a50.943326171158176,50.943326171158176 0 0,0 -0.8705791781608159,-0.10541501446379954 l 3.8551486714047756 -29.69411744628441" fill="#adff20" stroke="none" /><path d="M 96.58105272829116 120.7198165907248 l -4.8771195136248755 29.55676522113908 a50.95644613581052,50.95644613581052 0 0,0 -0.8641995572094288,-0.15025217039272235 l 5.385168042306354 -29.468434472225354" fill="#adff20" stroke="none" /><path d="M 95.86986931433489 120.58985236759428 l -4.915849536036937 24.506879784606088 a45.99505417953898,45.99505417953898 0 0,0 -0.7749258524161363,-0.16239324683673909 l 5.33696684988246 -24.41863055704281" fill="#ecff1a" stroke="none" /><path d="M 95.16358092515715 120.4354850818985 l -5.75154520955807 24.30219848796039 a45.973528458065644,45.973528458065644 0 0,0 -0.7685169597127847,-0.18888277077266852 l 6.1690154540140645 -24.19959445887369" fill="#ecff1a" stroke="none" /><path d="M 94.46302465271185 120.25689768951611 l -7.898579779503146 28.896773500037284 a50.956820279289204,50.956820279289204 0 0,0 -0.8441090260790217,-0.2385536423470965 l 8.394819973686783 -28.756531064351666" fill="#adff20" stroke="none" /><path d="M 92.40401165467489 119.57807347666478 l -10.849967082784882 27.964952433989655 a50.9960055729562,50.9960055729562 0 0,0 -0.8156420703813303,-0.3245608127386386 l 11.32973022920807 -27.77404477684495" fill="#adff20" stroke="none" /><path d="M 91.7346041902142 119.30500536409082 l -15.612404490090817 36.46498720251484 a60.66664172376809,60.66664172376809 0 0,0 -0.9564509910802638,-0.4192800069859288 l 16.237776155828826 -36.190842642234465" fill="#3eff2d" stroke="none" /><path d="M 91.07499286063937 119.00905698771935 l -10.619980719517786 22.619121257112656 a45.98816993953129,45.98816993953129 0 0,0 -0.7136648573878724,-0.3426025008881452 l 11.0077582449059 -22.43296447972495" fill="#ecff1a" stroke="none" /><path d="M 90.42595943632237 118.69057910512821 l -11.382278267306196 22.220646647223816 a45.966245131680694,45.966245131680694 0 0,0 -0.7011145948749765,-0.36679001931644367 l 11.763083764707668 -22.021427208962656" fill="#ecff1a" stroke="none" /><path d="M 90.10565033884886 118.52300852407294 l -18.816085113750507 35.22520599005528 a60.93570077073557,60.93570077073557 0 0,0 -0.9209333984490461,-0.5021663171402587 l 19.41964132406819 -34.89609902115525" fill="#3bff2e" stroke="none" /><line stroke="#e1ed5e" stroke-width="0.3" x1="58.666819895761336" x2="56.23545636021788" y1="174.27360380694188" y2="178.64263932499728" /><path d="M 58.180547188652646 175.14741091055294 a86.0,86.0 0 0,1 -31.652253787137756,-30.449443065178592" fill="none" id="id104" stroke="none" /><text fill="#e1ed5e" style="font-size:6.75px; font-family:Arial;" text-anchor="middle"><textPath startOffset="22.20632615414155" xlink:href="#id104">August</textPath></text><path d="M 88.8546689885994 117.79835938074946 l -13.28274297238961 21.211665471657046 a46.02730534740113,46.02730534740113 0 0,0 -0.6678741686712417,-0.42626889381859434 l 13.645898943107776 -20.979882149014646" fill="#ebff1a" stroke="none" /><path d="M 88.24862548938628 117.40417183066458 l -16.767060239909036 24.832567224107716 a50.96315577552817,50.96315577552817 0 0,0 -0.7228107183634406,-0.49715580303038515 l 17.192027842895367 -24.540270631712232" fill="#adff20" stroke="none" /><path d="M 87.65650970185807 116.9893568818739 l -14.6952868664923 20.22632715917749 a46.001115303893584,46.001115303893584 0 0,0 -0.6366007373723842,-0.470942006533904 l 15.041272574283248 -19.97037520390382" fill="#ecff1a" stroke="none" /><path d="M 87.07902340077011 116.55440617244103 l -22.792845633062697 29.20228370802544 a58.0443947961987,58.0443947961987 0 0,0 -0.7823348112771245,-0.6215340891315316 l 23.29213793705718 -28.80561570488878" fill="#5bff2a" stroke="none" /><path d="M 86.51685102203217 116.09983520530335 l -19.231947845110216 22.964308374046496 a50.95375230276403,50.95375230276403 0 0,0 -0.6675779217348422,-0.5689243876961565 l 19.624391243422114 -22.62985959612739" fill="#adff20" stroke="none" /><path d="M 86.24171649860922 115.8653595955263 l -20.85559242875829 24.04961879340095 a52.833000167473756,52.833000167473756 0 0,0 -0.6819423197276806,-0.6017348090857386 l 21.266477101392557 -23.68706084254292" fill="#97ff23" stroke="none" /><path d="M 85.70375840098266 115.38237550388516 l -25.632092453733495 27.579449349871865 a58.65143011890636,58.65143011890636 0 0,0 -0.7336013787603737,-0.6936658927072779 l 26.103029666884687 -27.134148820418655" fill="#54ff2b" stroke="none" /><path d="M 85.18274418774928 114.88116024355367 l -17.66033479950971 17.736500971321966 a46.02940055088173,46.02940055088173 0 0,0 -0.5566475139509722,-0.5638809927659979 l 17.963022938516215 -17.429879484575306" fill="#ebff1a" stroke="none" /><path d="M 84.43433777217949 114.09645910891817 l -22.256846826464187 20.15607987573797 a51.027234081976616,51.027234081976616 0 0,0 -0.583997339929799,-0.656127202324429 l 22.600503016042325 -19.769978503672675" fill="#acff20" stroke="none" /><path d="M 83.50135304334701 112.99209946851258 l -20.808205484118446 16.38572400034912 a47.48534248381384,47.48534248381384 0 0,0 -0.500163525689755,-0.646528779675773 l 21.087175827026268 -16.025117226560095" fill="#d9ff1c" stroke="none" /><path d="M 82.85270091963577 112.12312394758628 l -20.38792583432391 14.414243943918843 a45.96873942153855,45.96873942153855 0 0,0 -0.4512359163455339,-0.6500389922606765 l 20.633022657831578 -14.061163689471153" fill="#ecff1a" stroke="none" /><path d="M 82.6465618267979 111.8261652097733 l -31.84387430330273 21.701228002855366 a59.535381501633765,59.535381501633765 0 0,0 -0.5698298476198016,-0.8518183066625986 l 32.21270725633326 -21.149872781986947" fill="#4aff2c" stroke="none" /><path d="M 82.24976979558568 111.22182372390057 l -32.6897853949598 20.666718405891356 a59.67473747599246,59.67473747599246 0 0,0 -0.5414356003670647,-0.8729665846399828 l 33.04068563499482 -20.100955489886108" fill="#49ff2c" stroke="none" /><path d="M 82.05923443525364 110.91462005526583 l -21.334607957025582 12.97933129099875 a45.97255568502108,45.97255568502108 0 0,0 -0.4054760240901846,-0.679601139312481 l 21.554864856814 -12.610168057800157" fill="#ecff1a" stroke="none" /><line stroke="#e1ed5e" stroke-width="0.3" x1="26.63291911575756" x2="22.317208475507996" y1="142.92168965132927" y2="145.44649492493687" /><path d="M 25.769776987707644 143.4266507060508 a86.0,86.0 0 0,1 -11.730757126820373,-40.83630448921669" fill="none" id="id105" stroke="none" /><text fill="#e1ed5e" style="font-size:6.75px; font-family:Arial;" text-anchor="middle"><textPath startOffset="21.46611528233685" xlink:href="#id105">September</textPath></text><path d="M 81.69416730710424 110.29060199501025 l -29.334431395095514 16.490315589632388 a54.651736560231754,54.651736560231754 0 0,0 -0.45393105335930695,-0.8240167150345215 l 29.613938857906337 -15.982928356200045" fill="#81ff25" stroke="none" /><path d="M 81.35079622478065 109.6543875284942 l -22.16727032096693 11.475632992539676 a45.96153092384933,45.96153092384933 0 0,0 -0.35767116772548074,-0.7057191461948581 l 22.36152015847868 -11.092359634642133" fill="#ecff1a" stroke="none" /><path d="M 81.02952815118164 109.00673069616217 l -33.81534493848287 16.05472482107589 a58.433030098952045,58.433030098952045 0 0,0 -0.4235709712391864,-0.9123341894066032 l 34.08669052656189 -15.470270564390459" fill="#56ff2a" stroke="none" /><path d="M 80.87730276802145 108.67885076344099 l -19.173188495368056 8.701766261945167 a42.055448063540254,42.055448063540254 0 0,0 -0.29350480234916454,-0.6617758462924719 l 19.320134382448497 -8.37044207916" fill="#ffde14" stroke="none" /><path d="M 80.58989483394504 108.01547362559985 l -34.64476558617169 14.306682135174075 a58.48254175263059,58.48254175263059 0 0,0 -0.3762304048744552,-0.9337730104674555 l 34.88589860530353 -13.708209756863814" fill="#56ff2b" stroke="none" /><path d="M 80.32549172779594 107.34259656027581 l -23.38956808360033 8.729070113514014 a45.96534718733186,45.96534718733186 0 0,0 -0.2702669148622491,-0.7436584746797464 l 23.536359259467805 -8.32516384182815" fill="#ecff1a" stroke="none" /><line stroke="#e1ed5e" stroke-width="0.3" x1="15.007084014347285" x2="10.007500721073583" y1="101.09737516637583" y2="101.16192664675087" /><path d="M 14.007167355692545 101.11028546245083 a86.0,86.0 0 0,1 10.666146001902534,-42.60595125391555" fill="none" id="id106" stroke="none" /><text fill="#e1ed5e" style="font-size:6.75px; font-family:Arial;" text-anchor="middle"><textPath startOffset="22.20632615414155" xlink:href="#id106">October</textPath></text><line stroke="#e1ed5e" stroke-width="0.3" x1="26.266209847984243" x2="21.928928074336255" y1="57.711370442889674" y2="55.22380399835377" /><path d="M 25.398753493254645 57.213857153982495 a86.0,86.0 0 0,1 29.58750427330803,-30.492523968695096" fill="none" id="id107" stroke="none" /><text fill="#e1ed5e" style="font-size:6.75px; font-family:Arial;" text-anchor="middle"><textPath startOffset="21.46611528233685" xlink:href="#id107">November</textPath></text><line stroke="#e1ed5e" stroke-width="0.3" x1="56.762969772571076" x2="54.21961505331055" y1="26.818313649435495" y2="22.513508569990535" /><path d="M 56.25429882871897 25.957352633546506 a86.0,86.0 0 0,1 42.265352541879196,-11.944610805530505" fill="none" id="id108" stroke="none" /><text fill="#e1ed5e" style="font-size:6.75px; font-family:Arial;" text-anchor="middle"><textPath startOffset="22.20632615414155" xlink:href="#id108">December</textPath></text></svg>