<?xml version="1.0" encoding="utf-8" ?>
<svg baseProfile="full" height="200mm" version="1.1" viewBox="0,0,200,200" width="200mm" xmlns="http://www.w3.org/2000/svg" xmlns:ev="http://www.w3.org/2001/xml-events" xmlns:xlink="http://www.w3.org/1999/xlink"><defs /><rect fill="#1a1a1a" height="200" width="200" x="0" y="0" /><text alignment-baseline="middle" fill="#e1ed5e" style="dominant-baseline: central; font-size:9.0px; font-family:Arial;" text-anchor="middle" x="100.0" y="100.0">2024</text><line stroke="#e1ed5e" stroke-width="0.3" x1="100.0" x2="100.0" y1="15.0" y2="10.0" /><path d="M 100.0 14.0 a86.0,86.0 0 0,1 42.35913384403234,11.155469271406648" fill="none" id="id85" stroke="none" /><text fill="#e1ed5e" style="font-size:6.75px; font-family:Arial;" text-anchor="middle"><textPath startOffset="22.145653131862478" xlink:href="#id85">January</textPath></text><path d="M 100.0 79.0 l 0.0 -40.51600096537767 a61.51600096537767,61.51600096537767 0 0,0 1.05600395776257,0.009064523919815281 l -0.6955110329137153 40.51003083965229" fill="#43ff2d" stroke="none" /><path d="M 101.80034050326958 79.07731436759882 l 5.1628655002612085 -60.000323065641766 a81.22203872466599,81.22203872466599 0 0,0 1.3881250076686673,0.13145688145435167 l -6.192090071314889 59.902854428682225" fill="#49efff" stroke="none" /><path d="M 102.15924093988457 79.11130261209362 l 1.5428967961977775 -14.92612690007099 a36.00565875797328,36.00565875797328 0 0,0 0.6142635653426036,0.06882951372782674 l -1.7988962631411778 14.897441625836192" fill="#ff6108" stroke="none" /><path d="M 102.87502721639298 79.19773525538626 l 3.6682304906842624 -26.541488503616346 a47.793777765003284,47.793777765003284 0 0,0 0.8117543160448791,0.11929993016348622 l -4.123309912336824 26.47460750015398" fill="#efff19" stroke="none" /><path d="M 103.58742460773223 79.30868818359171 l 7.632992244528667 -44.02507087768674 a65.68186921325444,65.68186921325444 0 0,0 1.1092894116849397,0.20214948318351575 l -8.387616389764661 43.88755322057185" fill="#33ff51" stroke="none" /><path d="M 104.29559338865022 79.4440306129975 l 12.88678016595065 -61.66790816100754 a84.0,84.0 0 0,0 1.4089503335234634,0.30707416746512495 l -13.943492916093248 61.4376025354087" fill="#4dd2ff" stroke="none" /><path d="M 105.3480935250658 79.69241777938227 l 7.566972472385502 -28.73302699810749 a50.71272308072442,50.71272308072442 0 0,0 0.8399442046059257,0.22893052803131606 l -8.05909807792612 28.59889597593203" fill="#c8ff1d" stroke="none" /><path d="M 106.04205211174951 79.88797359093562 l 12.720985382450058 -42.34402306190578 a65.2135698419356,65.2135698419356 0 0,0 1.0693763637595566,0.33129553104986903 l -13.446002379081246 42.11941094304926" fill="#32ff4b" stroke="none" /><path d="M 107.06938296918511 80.22567764915836 l 14.79695843070903 -41.38972624573657 a64.95519784390858,64.95519784390858 0 0,0 1.0467401717538702,0.3843774899301437 l -15.505287754117024 41.1296179067977" fill="#32ff47" stroke="none" /><path d="M 108.73861861582097 80.90454125486305 l 20.605482514304146 -45.02669799127862 a70.51756700046063,70.51756700046063 0 0,0 1.096418166474891,0.5131790633089419 l -21.375389394650544 44.66634269639914" fill="#3aff90" stroke="none" /><path d="M 109.71004243097381 81.37971332152246 l 13.756492516125704 -26.379888261199117 a50.751295619175536,50.751295619175536 0 0,0 0.7690299942544877,0.4094651561538254 l -14.20731132616675 26.13985263732272" fill="#c7ff1e" stroke="none" /><path d="M 110.34350942703115 81.72400993836675 l 8.842324623732749 -15.62354035495462 a38.952206493196485,38.952206493196485 0 0,0 0.5791034409825276,0.3343455275399009 l -9.109220532575673 15.469447930138548" fill="#ff8e0d" stroke="none" /><line stroke="#e1ed5e" stroke-width="0.3" x1="143.13028292997686" x2="145.6673583964461" y1="26.7553504044142" y2="22.446841604673864" /><path d="M 143.63769802327073 25.89364864446614 a86.0,86.0 0 0,1 29.32050498858742,28.57503671076993" fill="none" id="id86" stroke="none" /><text fill="#e1ed5e" style="font-size:6.75px; font-family:Arial;" text-anchor="middle"><textPath startOffset="20.669276256404974" xlink:href="#id86">February</textPath></text><path d="M 111.5731344415666 82.4767994020092 l 14.746087371220542 -22.32745574209523 a47.7574732117009,47.7574732117009 0 0,0 0.680211309939418,0.45767652619348675 l -15.12719496925696 22.071029541844624" fill="#f0ff19" stroke="none" /><path d="M 111.8722381534696 82.67804972795209 l 11.114747601053075 -16.21674891819278 a40.660126136696626,40.660126136696626 0 0,0 0.5723491847381711,0.3995441818249912 l -11.391491876965006 16.02355992056266" fill="#ffa80f" stroke="none" /><path d="M 112.7482090630111 83.31218511350987 l 10.886884009527492 -14.251280642143165 a38.93385745951021,38.93385745951021 0 0,0 0.5276280309507728,0.4102867481969351 l -11.12992198511349 14.062292842325439" fill="#ff8e0d" stroke="none" /><path d="M 115.6541949942343 86.00192230759917 l 22.201005039241352 -19.85227560428019 a50.78250277294906,50.78250277294906 0 0,0 0.5755082764025757,0.6548227739489679 l -22.538524379602517 19.468240552519926" fill="#c7ff1e" stroke="none" /><path d="M 116.1254893667686 86.54754324733833 l 22.828319013302345 -19.044195638197458 a50.729001605823235,50.729001605823235 0 0,0 0.5521083178028414,0.6734823761627091 l -23.15187415034381 18.649510980336256" fill="#c8ff1d" stroke="none" /><path d="M 116.57777611688842 87.10902102172516 l 29.288073704794844 -22.774583260178556 a58.10084775328322,58.10084775328322 0 0,0 0.6054883640402143,0.7926037049662443 l -29.67471404618936 22.26845864197143" fill="#6bff28" stroke="none" /><path d="M 117.01052211995028 87.68569379921539 l 24.08725157917151 -17.43731258744676 a50.736434872234256,50.736434872234256 0 0,0 0.5046702475822724,0.7098819048110715 l -24.383036925283744 17.021253455926182" fill="#c7ff1e" stroke="none" /><path d="M 117.42321728460499 88.27688183743584 l 24.6524630508936 -16.587277345110873 a50.71332536420827,50.71332536420827 0 0,0 0.4797856367109495,0.7264566050424778 l -24.933573126525275 16.16164086172934" fill="#c8ff1d" stroke="none" /><path d="M 117.81537515405839 88.88188828441811 l 42.2035630025846 -26.338144675636766 a70.74774964827958,70.74774964827958 0 0,0 0.6341425203092981,1.0358241492646696 l -42.6494734873493 25.60978341024754" fill="#3aff93" stroke="none" /><line stroke="#e1ed5e" stroke-width="0.3" x1="172.87174338648825" x2="177.1583165268699" y1="56.24261187166439" y2="53.66864786411523" /><path d="M 173.72905801456457 55.72781907015455 a86.0,86.0 0 0,1 12.242430191666344,42.057860355516425" fill="none" id="id87" stroke="none" /><text fill="#e1ed5e" style="font-size:6.75px; font-family:Arial;" text-anchor="middle"><textPath startOffset="22.145653131862474" xlink:href="#id87">March</textPath></text><path d="M 119.16976305983485 91.42560881287824 l 27.296481641809518 -12.20936904115177 a50.90261865463758,50.90261865463758 0 0,0 0.3499339738257417,0.8007174137791532 l -27.50204949765223 11.738989557596769" fill="#c5ff1e" stroke="none" /><path d="M 119.71291397450082 92.76114493625339 l 27.911132756139818 -10.24935455752694 a50.733492909121175,50.733492909121175 0 0,0 0.29319086059655985,0.8201070182544413 l -28.08296378678032 9.768712582891583" fill="#c7ff1e" stroke="none" /><path d="M 119.94978838288452 93.4421083053983 l 28.390273997899452 -9.332446965603927 a50.884815944583224,50.884815944583224 0 0,0 0.2656557742241113,0.8321629290611492 l -28.546294487900823 8.84371500285139" fill="#c5ff1e" stroke="none" /><path d="M 120.16314734710363 94.1308016681162 l 28.5714004869211 -8.316718277690388 a50.75722985586032,50.75722985586032 0 0,0 0.2363389749249079,0.8386836459341398 l -28.70995795392059 7.825026707853236" fill="#c7ff1e" stroke="none" /><path d="M 120.26092885502905 94.47779374421319 l 28.67274293214365 -7.81488358818008 a50.71865731740921,50.71865731740921 0 0,0 0.2217383933903955,0.8419767968040033 l -28.802670806338774 7.321526287003278" fill="#c8ff1d" stroke="none" /><path d="M 120.43855184770803 95.1765574152323 l 29.02807086195191 -6.85054568408156 a50.82547357773536,50.82547357773536 0 0,0 0.19311051179481403,0.8508805462486168 l -29.14139223530439 6.351230803893917" fill="#c6ff1e" stroke="none" /><path d="M 120.592083275326 95.88100663000786 l 29.15302204299734 -5.831420886599907 a50.730525790778785,50.730525790778785 0 0,0 0.16348203689226973,0.8554070979536215 l -29.248830372171767 5.33011122361297" fill="#c7ff1d" stroke="none" /><path d="M 120.7213421655516 96.59031103205396 l 22.028363920196607 -3.624758900292769 a43.32459840816563,43.32459840816563 0 0,0 0.11445638444732953,0.7348920936220412 l -22.0873417967822 3.2460786247392868" fill="#ffd013" stroke="none" /><path d="M 120.77682067341334 96.94652285012252 l 32.44702138222137 -4.768594768639463 a53.79555903847084,53.79555903847084 0 0,0 0.12643361064411116,0.914810623788119 l -32.524099509420694 4.210895836651259" fill="#a0ff22" stroke="none" /><path d="M 120.93736805541906 98.37931529534042 l 30.644708471686336 -2.3720942463902137 a51.73637890885004,51.73637890885004 0 0,0 0.06094062275562717,0.8860632802386158 l -30.68091305560703 1.8456875419972636" fill="#baff1f" stroke="none" /><path d="M 120.98066250479742 99.09900007780936 l 29.845439472241676 -1.281691587960411 a50.87294747121365,50.87294747121365 0 0,0 0.029979459445198673,0.8728192512874702 l -29.863043618683722 0.7691660721088208" fill="#c6ff1e" stroke="none" /><line stroke="#e1ed5e" stroke-width="0.3" x1="184.99686870605535" x2="189.99668451229388" y1="99.2704041080226" y2="99.22748670261217" /><path d="M 185.99683186730306 99.26182062694052 a86.0,86.0 0 0,1 -10.086455211305974,41.156179273409016" fill="none" id="id88" stroke="none" /><text fill="#e1ed5e" style="font-size:6.75px; font-family:Arial;" text-anchor="middle"><textPath startOffset="21.40746469413373" xlink:href="#id88">April</textPath></text><path d="M 120.99922638620191 99.81974689727618 l 29.711628501078987 -0.2550385964606895 a50.71272308072442,50.71272308072442 0 0,0 0.0,0.8705833983690291 l -29.711628501078987 -0.2550385964606859" fill="#c8ff1d" stroke="none" /><path d="M 120.7213421655516 103.40968896794604 l 16.975073632283348 2.793241906419116 a38.20335214919515,38.20335214919515 0 0,0 -0.1120362102150774,0.6461950880563021 l -16.924622604576037 -3.084230027396006" fill="#ff830c" stroke="none" /><path d="M 120.592083275326 104.11899336999214 l 17.704205502159557 3.5413369356247903 a39.05491511346196,39.05491511346196 0 0,0 -0.13714280209651475,0.656277954285027 l -17.640804989238678 -3.844731341195226" fill="#ff900d" stroke="none" /><path d="M 120.43855184770803 104.8234425847677 l 28.924110401244562 6.826011298424288 a50.71865731740921,50.71865731740921 0 0,0 -0.20725206838948831,0.8456591639708868 l -28.802670806338778 -7.321526287003274" fill="#c8ff1d" stroke="none" /><path d="M 120.26092885502905 105.52220625578681 l 14.385037263780136 3.9207058736626244 a35.909769670525286,35.909769670525286 0 0,0 -0.1672053060780231,0.5933526442923975 l -14.315613465627532 -4.16706644185803" fill="#ff5f08" stroke="none" /><path d="M 120.05942366710727 106.21446072829308 l 28.415920227928282 8.8033247238471 a50.74832850083314,50.74832850083314 0 0,0 -0.26494321042943236,0.8299308331232489 l -28.260612301721594 -9.289824590661732" fill="#c7ff1e" stroke="none" /><path d="M 119.4528033332814 107.91128576633889 l 22.076055108369253 8.978139426154044 a44.831894526101316,44.831894526101316 0 0,0 -0.29604881482078366,0.7104093827830499 l -21.918680449011983 -9.355781318378371" fill="#ffe515" stroke="none" /><path d="M 118.8641267826498 109.22738970284198 l 21.53326515956403 10.532999035220458 a44.97134908819379,44.97134908819379 0 0,0 -0.3451659975724075,0.6905632126800988 l -21.349279248779894 -10.901094104064303" fill="#ffe715" stroke="none" /><path d="M 118.5362547648365 109.86951160357373 l 32.45742132944931 17.28174868640498 a57.77149761727759,57.77149761727759 0 0,0 -0.4736015225952715,0.8713734587241023 l -32.1559744572387 -17.83637697860369" fill="#6eff28" stroke="none" /><line stroke="#e1ed5e" stroke-width="0.3" x1="174.33088141563837" x2="178.70328620479359" y1="141.23008692659167" y2="143.65538615756765" /><path d="M 175.20536237346943 141.71514677278685 a86.0,86.0 0 0,1 -30.301960400862466,31.631185727798858" fill="none" id="id89" stroke="none" /><text fill="#e1ed5e" style="font-size:6.75px; font-family:Arial;" text-anchor="middle"><textPath startOffset="22.145653131862474" xlink:href="#id89">May</textPath></text><path d="M 117.62189284568427 111.42229804090321 l 12.018366079656523 7.790159691053767 a35.32228023873145,35.32228023873145 0 0,0 -0.3341749450013952,0.5059834589884274 l -11.882866695734402 -7.9953230283812555" fill="#ff5607" stroke="none" /><path d="M 117.423217284605 111.72311816256416 l 12.37767842265436 8.328254440998752 a35.91867102555247,35.91867102555247 0 0,0 -0.34859970452198935,0.5086173869259687 l -12.232888981317052 -8.539506562994765" fill="#ff5f08" stroke="none" /><path d="M 116.79662413953412 112.60449989151573 l 23.777268076517217 17.842905241035808 a50.72755867243639,50.72755867243639 0 0,0 -0.5286488528145814,0.6920183181904472 l -23.46746724634833 -18.24844447246713" fill="#c8ff1d" stroke="none" /><path d="M 116.35404254752997 113.17365903436017 l 27.746702400836156 22.350779368107077 a56.62915705545625,56.62915705545625 0 0,0 -0.6163225699457067,0.7518133226856617 l -27.35893301165182 -22.823794972491232" fill="#7cff26" stroke="none" /><path d="M 115.89218393027572 113.72728997021213 l 11.267558287092989 9.7326484856829 a35.888999842128534,35.888999842128534 0 0,0 -0.40672308990565054,0.46277621518480216 l -11.098824133228753 -9.924636978678993" fill="#ff5f08" stroke="none" /><path d="M 115.6541949942343 113.99807769240083 l 11.665045531815156 10.430955644789364 a36.64858213778117,36.64858213778117 0 0,0 -0.4233823946433774,0.4653714173921205 l -11.484265436329899 -10.629664637739156" fill="#ff6b09" stroke="none" /><path d="M 115.16444852881244 114.52719865689866 l 25.852676746123983 24.76627951157937 a56.80124991931505,56.80124991931505 0 0,0 -0.6805687709919674,0.6983235138741148 l -25.423721173981207 -25.20642571752122" fill="#7aff26" stroke="none" /><path d="M 114.65682725009322 115.03919595460226 l 20.758530225418365 21.300080737979304 a50.74239426414835,50.74239426414835 0 0,0 -0.6290305409537137,0.6025970289871574 l -20.38982719859934 -21.65328989727204" fill="#c7ff1e" stroke="none" /><path d="M 114.13192950727249 115.5334660781643 l 20.013118476723612 21.99792298825788 a50.73942714580596,50.73942714580596 0 0,0 -0.6493075520488255,0.5806148168711139 l -19.632545897851408 -22.33823333501238" fill="#c7ff1e" stroke="none" /><path d="M 113.59037401385872 116.0094264158162 l 19.292272372466773 22.726248345036982 a50.810637986023394,50.810637986023394 0 0,0 -0.6697946996257065,0.558766560501753 l -18.899303338679168 -23.054077089450605" fill="#c6ff1e" stroke="none" /><path d="M 112.7482090630111 116.68781488649013 l 28.86261570357134 37.78209045838598 a68.5451043185069,68.5451043185069 0 0,0 -0.9411798073829137,0.706278873748957 l -28.20978290727766 -38.271988359398954" fill="#37ff77" stroke="none" /><path d="M 111.8722381534696 117.32195027204791 l 16.932125307127937 24.704476845795043 a50.95009254811587,50.95009254811587 0 0,0 -0.7256838953782222,0.48827251105372194 l -16.505545123652713 -24.991499030905885" fill="#c5ff1e" stroke="none" /><path d="M 111.27062007382361 117.71928675628689 l 15.978554212980884 25.12094119011783 a50.77206544757229,50.77206544757229 0 0,0 -0.7394247080620897,0.4614557054456988 l -15.54496537612908 -25.391532692405075" fill="#c7ff1e" stroke="none" /><line stroke="#e1ed5e" stroke-width="0.3" x1="143.1302829299769" x2="145.66735839644613" y1="173.24464959558577" y2="177.55315839532614" /><path d="M 143.63769802327073 174.10635135553383 a86.0,86.0 0 0,1 -40.68552437913181,11.842963189579606" fill="none" id="id90" stroke="none" /><text fill="#e1ed5e" style="font-size:6.75px; font-family:Arial;" text-anchor="middle"><textPath startOffset="21.407464694133747" xlink:href="#id90">June</textPath></text><path d="M 110.34350942703117 118.27599006163325 l 31.02801112766228 54.82352261597581 a83.99488952734774,83.99488952734774 0 0,0 -1.260946528032532,0.69942578334107 l -30.082320411473653 -55.348081314750026" fill="#4dd2ff" stroke="none" /><path d="M 109.71004243097381 118.62028667847754 l 6.89539557056425 13.222830198542608 a35.912736788867676,35.912736788867676 0 0,0 -0.5490762941271707,0.28036226810482173 l -6.667392054723496 -13.339250418320265" fill="#ff5f08" stroke="none" /><path d="M 109.06512990194946 118.94263497670748 l 12.85051159135122 26.85262682077688 a50.76909832922989,50.76909832922989 0 0,0 -0.7893658852886103,0.3694630917351924 l -12.387656992191102 -27.069266144082604" fill="#c7ff1e" stroke="none" /><path d="M 108.4095320186766 119.2426549942271 l 11.92352808191418 27.283365671798695 a50.77503256591468,50.77503256591468 0 0,0 -0.8016771359969719,0.3421882986879167 l -11.453415870746777 -27.484028620146017" fill="#c7ff1e" stroke="none" /><path d="M 107.74402155503746 119.51999308798841 l 11.025883142151383 27.792428158178282 a50.89965153629519,50.89965153629519 0 0,0 -0.8149464131388706,0.3152387796450146 l -10.547164466518982 -27.977606825961338" fill="#c5ff1e" stroke="none" /><path d="M 107.06938296918513 119.77432235084164 l 10.050354853195046 28.112631254200238 a50.855144761159295,50.855144761159295 0 0,0 -0.8245658691899804,0.2868268122601401 l -9.566283211960043 -28.28101649902897" fill="#c6ff1e" stroke="none" /><path d="M 105.69591212413111 120.21278271476187 l 7.746037447577282 27.487954240897327 a49.558514045533514,49.558514045533514 0 0,0 -0.8208272822417001,0.22372012583177012 l -7.273028764400887 -27.61687486087324" fill="#d7ff1c" stroke="none" /><path d="M 104.9986988182912 120.39639698878246 l 4.017280269244078 16.391874398769136 a37.87696913153191,37.87696913153191 0 0,0 -0.6328481229543658,0.14935043386113012 l -3.7352999925498334 -16.458420976276493" fill="#ff7e0b" stroke="none" /><path d="M 104.29559338865022 120.5559693870025 l 5.1704382662685395 24.742418823816877 a46.27688115884675,46.27688115884675 0 0,0 -0.779001910872309,0.15582219939538627 l -4.744939869865272 -24.827530419875124" fill="#fffa17" stroke="none" /><path d="M 103.58742460773223 120.69131181640829 l 3.697631710893865 21.32695710104659 a42.6451283077576,42.6451283077576 0 0,0 -0.7223729297265545,0.11886619069136188 l -3.3309812781142383 -21.387289290233625" fill="#ffc612" stroke="none" /><path d="M 103.2317021107853 120.74984581791261 l 4.333700248194961 27.82546438020663 a49.160920187652835,49.160920187652835 0 0,0 -0.8349745721980989,0.12271250818457456 l -3.8554005703891763 -27.895757961690084" fill="#ddff1b" stroke="none" /><path d="M 102.875027216393 120.80226474461374 l 1.241803766060448 8.985073447359245 a30.07048077269568,30.07048077269568 0 0,0 -0.5119458944117009,0.06628164554546691 l -1.0873800497579715 -9.005066689105107" fill="#ff0000" stroke="none" /><path d="M 102.51750503828377 120.84855314841334 l 2.5002271409057184 20.70546737249584 a41.85587482868104,41.85587482868104 0 0,0 -0.7140693932479625,0.08001296491965817 l -2.144421846056957 -20.74533609792247" fill="#ffba11" stroke="none" /><path d="M 101.80034050326958 120.92268563240118 l 1.5725310392786043 18.275194343662847 a39.34272559267409,39.34272559267409 0 0,0 -0.6733807337169955,0.05212392754709736 l -1.258581310786373 -18.299496038204996" fill="#ff940d" stroke="none" /><path d="M 101.44090949804482 120.95050786540614 l 1.7824133574789218 25.915899031783365 a46.97712108765152,46.97712108765152 0 0,0 -0.8049991592356415,0.048426750430362916 l -1.3372698461108152 -25.942677760038418" fill="#faff18" stroke="none" /><path d="M 100.72087961077811 120.9876233191556 l 1.0331056609299152 30.077744100822237 a51.09548134689313,51.09548134689313 0 0,0 -0.876863389931759,0.022584890476064774 l -0.5166289569274122 -30.091046708648346" fill="#c3ff1e" stroke="none" /><line stroke="#e1ed5e" stroke-width="0.3" x1="101.45913802915013" x2="101.54496967792366" y1="184.9874750549273" y2="189.98673829345242" /><path d="M 101.47630435890484 185.9873277026323 a86.0,86.0 0 0,1 -42.54439059252881,-10.42667462771756" fill="none" id="id91" stroke="none" /><text fill="#e1ed5e" style="font-size:6.75px; font-family:Arial;" text-anchor="middle"><textPath startOffset="22.145653131862474" xlink:href="#id91">July</textPath></text><path d="M 100.0 121.0 l 3.639849223070296e-15 29.7216244357516 a50.7216244357516,50.7216244357516 0 0,0 -0.8707041307585288,-0.00747394776537121 l 0.5102112059096731 -29.717244886180666" fill="#c8ff1d" stroke="none" /><path d="M 99.27912038922189 120.98762331915562 l -1.2840740478500783 37.384414855473324 a58.40646094254971,58.40646094254971 0 0,0 -1.0017382212371266,-0.04301894943420964 l 1.9256380296880438 -37.35686333761329" fill="#67ff28" stroke="none" /><path d="M 98.55909050195518 120.95050786540614 l -1.326376130665358 19.28521784032765 a40.33077600069099,40.33077600069099 0 0,0 -0.6902919694963402,-0.05343296415054871 l 1.6572370949369344 -19.25960710918205" fill="#ffa30f" stroke="none" /><path d="M 98.19965949673042 120.92268563240118 l -3.3266840717705652 38.66111155393445 a59.803973681816856,59.803973681816856 0 0,0 -1.0220796317007204,-0.09679200377424527 l 3.9898632668563008 -38.598307794655014" fill="#56ff2a" stroke="none" /><path d="M 97.48249496171623 120.84855314841334 l -2.55073678011594 21.12375964264728 a42.277205633300866,42.277205633300866 0 0,0 -0.7197637448756438,-0.09318782694633715 l 2.912978346882378 -21.076860219500546" fill="#ffc011" stroke="none" /><path d="M 96.76829788921471 120.74984581791261 l -7.501671201938122 48.1661104522616 a69.74678724717612,69.74678724717612 0 0,0 -1.181452443504392,-0.19440754998326215 l 8.327401148495577 -48.030236903782665" fill="#39ff87" stroke="none" /><path d="M 96.41257539226777 120.69131181640829 l -3.6885080137319552 21.274334040344897 a42.591720177594524,42.591720177594524 0 0,0 -0.7193239897764465,-0.13108479288010574 l 4.053166737059459 -21.207881073533425" fill="#ffc512" stroke="none" /><path d="M 95.70440661134978 120.55596938700252 l -8.41144546686414 40.25181153648059 a62.12129310722586,62.12129310722586 0 0,0 -1.041974007646835,-0.22709338527093317 l 9.101181891130112 -40.101486693075934" fill="#3cff2e" stroke="none" /><path d="M 95.00130118170881 120.39639698878247 l -5.24407630083284 21.39762085282364 a43.03085369226871,43.03085369226871 0 0,0 -0.7159405956224694,-0.18198929974331246 l 5.610622189680688 -21.304446321245067" fill="#ffcb13" stroke="none" /><path d="M 94.30408787586889 120.21278271476187 l -10.60784619184584 37.64350388044339 a60.109586871083344,60.109586871083344 0 0,0 -0.9907776978715962,-0.2884009481015404 l 11.252483902099044 -37.45585923803933" fill="#53ff2b" stroke="none" /><path d="M 93.95794788825049 120.11202640906438 l -6.476090044861797 21.55679752520798 a43.508559745393995,43.508559745393995 0 0,0 -0.7134561951709806,-0.2210305530122336 l 6.845186872904412 -21.442450384389097" fill="#ffd213" stroke="none" /><path d="M 93.27111125876986 119.89276391827306 l -8.72013015504843 25.779515337814917 a48.214409436429435,48.214409436429435 0 0,0 -0.7817489579696312,-0.27193286792525934 l 9.161384885063082 -25.626024037321066" fill="#e9ff1a" stroke="none" /><path d="M 92.59220618246901 119.65005319985036 l -8.96985208673887 23.793598342610768 a46.4282041943088,46.4282041943088 0 0,0 -0.7433547644162348,-0.28754559195531887 l 9.376979113648634 -23.636112862517408" fill="#fffc17" stroke="none" /><line stroke="#e1ed5e" stroke-width="0.3" x1="58.13341422392154" x2="55.67067388415222" y1="173.97424548756322" y2="178.32567169271397" /><path d="M 57.64086615596768 174.84453072859336 a86.0,86.0 0 0,1 -31.369924170532247,-30.572349798747897" fill="none" id="id92" stroke="none" /><text fill="#e1ed5e" style="font-size:6.75px; font-family:Arial;" text-anchor="middle"><textPath startOffset="22.145653131862474" xlink:href="#id92">August</textPath></text><line stroke="#e1ed5e" stroke-width="0.3" x1="26.387840678322732" x2="22.057713659400548" y1="142.50000000000003" y2="145.00000000000006" /><path d="M 25.521815274538298 143.00000000000003 a86.0,86.0 0 0,1 -11.493303480769221,-40.785679425670985" fill="none" id="id93" stroke="none" /><text fill="#e1ed5e" style="font-size:6.75px; font-family:Arial;" text-anchor="middle"><textPath startOffset="21.40746469413373" xlink:href="#id93">September</textPath></text><line stroke="#e1ed5e" stroke-width="0.3" x1="15.003131293944662" x2="10.003315487706104" y1="100.72959589197737" y2="100.7725132973878" /><path d="M 14.003168132696942 100.73817937305945 a86.0,86.0 0 0,1 10.791469493833604,-42.45332614584628" fill="none" id="id94" stroke="none" /><text fill="#e1ed5e" style="font-size:6.75px; font-family:Arial;" text-anchor="middle"><textPath startOffset="22.145653131862435" xlink:href="#id94">October</textPath></text><line stroke="#e1ed5e" stroke-width="0.3" x1="26.387840678322718" x2="22.05771365940052" y1="57.49999999999999" y2="54.99999999999999" /><path d="M 25.521815274538284 56.99999999999999 a86.0,86.0 0 0,1 29.574782752854787,-30.34633250058573" fill="none" id="id95" stroke="none" /><text fill="#e1ed5e" style="font-size:6.75px; font-family:Arial;" text-anchor="middle"><textPath startOffset="21.40746469413373" xlink:href="#id95">November</textPath></text><line stroke="#e1ed5e" stroke-width="0.3" x1="56.869717070023135" x2="54.33264160355391" y1="26.7553504044142" y2="22.446841604673864" /><path d="M 56.362301976729285 25.89364864446614 a86.0,86.0 0 0,1 42.16139366436587,-11.88097634709845" fill="none" id="id96" stroke="none" /><text fill="#e1ed5e" style="font-size:6.75px; font-family:Arial;" text-anchor="middle"><textPath startOffset="22.145653131862474" xlink:href="#id96">December</textPath></text></svg>