<?xml version="1.0" encoding="utf-8" ?>
<svg baseProfile="full" height="200mm" version="1.1" viewBox="0,0,200,200" width="200mm" xmlns="http://www.w3.org/2000/svg" xmlns:ev="http://www.w3.org/2001/xml-events" xmlns:xlink="http://www.w3.org/1999/xlink"><defs /><rect fill="#1a1a1a" height="200" width="200" x="0" y="0" /><text alignment-baseline="middle" fill="#e1ed5e" style="dominant-baseline: central; font-size:9.0px; font-family:Arial;" text-anchor="middle" x="100.0" y="100.0">2023</text><line stroke="#e1ed5e" stroke-width="0.3" x1="100.0" x2="100.0" y1="15.0" y2="10.0" /><path d="M 100.0 14.0 a86.0,86.0 0 0,1 42.46469731375804,11.215312516191453" fill="none" id="id73" stroke="none" /><text fill="#e1ed5e" style="font-size:6.75px; font-family:Arial;" text-anchor="middle"><textPath startOffset="22.20632615414155" xlink:href="#id73">January</textPath></text><line stroke="#e1ed5e" stroke-width="0.3" x1="143.23703022742887" x2="145.7803849466894" y1="26.81831364943548" y2="22.513508569990506" /><path d="M 143.74570117128098 25.957352633546492 a86.0,86.0 0 0,1 28.547481713284135,27.462654790039103" fill="none" id="id74" stroke="none" /><text fill="#e1ed5e" style="font-size:6.75px; font-family:Arial;" text-anchor="middle"><textPath startOffset="19.985693538727396" xlink:href="#id74">February</textPath></text><line stroke="#e1ed5e" stroke-width="0.3" x1="172.23445277983987" x2="176.4835382374775" y1="55.19839476539836" y2="52.563006222186495" /><path d="M 173.08426987136738 54.67131705675599 a86.0,86.0 0 0,1 12.851231095245387,41.99856678651699" fill="none" id="id75" stroke="none" /><text fill="#e1ed5e" style="font-size:6.75px; font-family:Arial;" text-anchor="middle"><textPath startOffset="22.20632615414155" xlink:href="#id75">March</textPath></text><line stroke="#e1ed5e" stroke-width="0.3" x1="184.98032266829074" x2="189.97916517819016" y1="98.17113171792111" y2="98.06355123074" /><path d="M 185.9800911702706 98.14961562048488 a86.0,86.0 0 0,1 -9.607161424134198,41.387399972396054" fill="none" id="id76" stroke="none" /><text fill="#e1ed5e" style="font-size:6.75px; font-family:Arial;" text-anchor="middle"><textPath startOffset="21.466115282336823" xlink:href="#id76">April</textPath></text><line stroke="#e1ed5e" stroke-width="0.3" x1="174.80103733775053" x2="179.2010983576182" y1="140.37084112569926" y2="142.7455964860345" /><path d="M 175.68104954172406 140.8457921977663 a86.0,86.0 0 0,1 -30.038265399797805,32.042727171017184" fill="none" id="id77" stroke="none" /><text fill="#e1ed5e" style="font-size:6.75px; font-family:Arial;" text-anchor="middle"><textPath startOffset="22.206326154141568" xlink:href="#id77">May</textPath></text><path d="M 115.32070863581623 114.36230785411682 l 12.553205777708925 11.767928639674713 a38.20660105209571,38.20660105209571 0 0,0 -0.45391888840835437,0.4759321397523587 l -12.348780337921607 -11.982267896009578" fill="#ff1f03" stroke="none" /><path d="M 115.07121518719521 114.62390073753431 l 14.919045273121192 14.4762472344148 a41.787968776514504,41.787968776514504 0 0,0 -0.5053545919372581,0.511921533571311 l -14.667650056128398 -14.730909261966774" fill="#ff6108" stroke="none" /><line stroke="#e1ed5e" stroke-width="0.3" x1="143.8653032363475" x2="146.44561519142675" y1="172.8068346515853" y2="177.08958963109032" /><path d="M 144.38136562736335 173.6633856474863 a86.0,86.0 0 0,1 -40.68145358897372,12.25698825130547" fill="none" id="id78" stroke="none" /><text fill="#e1ed5e" style="font-size:6.75px; font-family:Arial;" text-anchor="middle"><textPath startOffset="21.466115282336833" xlink:href="#id78">June</textPath></text><path d="M 103.7750983002368 120.6578951692458 l 2.9278952623845824 16.0218750841741 a37.28720515866282,37.28720515866282 0 0,0 -0.6323750699138309,0.1099465117334892 l -2.6516712209987015 -16.069900174428593" fill="#ff0e01" stroke="none" /><path d="M 103.41894727170886 120.7198165907248 l 2.6342660931943125 15.964420028879342 a37.18029865942644,37.18029865942644 0 0,0 -0.6323556791176882,0.09876095202680672 l -2.3590745504681068 -16.007399288253254" fill="#ff0c01" stroke="none" /><line stroke="#e1ed5e" stroke-width="0.3" x1="102.19456741930631" x2="102.32365962044197" y1="184.97166512339345" y2="189.96999836594603" /><path d="M 102.22038585953345 185.97133177190398 a86.0,86.0 0 0,1 -42.740103519485714,-10.115201625700543" fill="none" id="id79" stroke="none" /><text fill="#e1ed5e" style="font-size:6.75px; font-family:Arial;" text-anchor="middle"><textPath startOffset="22.20632615414155" xlink:href="#id79">July</textPath></text><path d="M 100.54218724476979 120.99299961872073 l 0.41567995450024314 16.094751786421227 a37.100118784999154,37.100118784999154 0 0,0 -0.638546592317569,0.010993158670739654 l -0.13857367229000617 -16.099522422371127" fill="#ff0a01" stroke="none" /><path d="M 98.73552117531835 120.96189622390904 l -0.9716939347651187 16.108255056842363 a37.137536059731886,37.137536059731886 0 0,0 -0.6377704036216495,-0.04398438106627086 l 1.2488270991656982 -16.089142331259808" fill="#ff0b01" stroke="none" /><path d="M 98.01472825383883 120.90594882070398 l -1.5473193840350044 16.294081610978 a37.3673850330901,37.3673850330901 0 0,0 -0.6398139813327249,-0.06631933520666772 l 1.8275659619733227 -16.26503290731557" fill="#ff0f01" stroke="none" /><path d="M 96.93821686468263 120.77559828337769 l -2.3543984859478417 15.975670052795865 a37.148226709655525,37.148226709655525 0 0,0 -0.6318102052966253,-0.09867576023419242 l 2.629044554852984 -15.932775985214567" fill="#ff0b01" stroke="none" /><path d="M 96.58105272829116 120.7198165907248 l -2.670816861583518 16.185928334532772 a37.40480230782284,37.40480230782284 0 0,0 -0.6343694673245592,-0.11029326328767328 l 2.9490353003801273 -16.13755649272409" fill="#ff1001" stroke="none" /><path d="M 95.86986931433489 120.58985236759428 l -3.2316362789074797 16.1106073760355 a37.431528932631934,37.431528932631934 0 0,0 -0.6306473594341967,-0.1321582858388616 l 3.508475099771063 -16.052593109470095" fill="#ff1101" stroke="none" /><path d="M 95.51606077576429 120.51570834832081 l -3.3224368950662213 15.201398354478675 a36.56024096385542,36.56024096385542 0 0,0 -0.613654679671462,-0.13966580720511163 l 3.583611724130546 -15.141955813695878" fill="#ff0000" stroke="none" /><path d="M 94.46302465271185 120.25689768951611 l -4.273233307223233 15.633526334960003 a37.207025284235534,37.207025284235534 0 0,0 -0.6163411630442434,-0.17418416914177812 l 4.541705638372091 -15.557653372479702" fill="#ff0c01" stroke="none" /><path d="M 94.11515582081647 120.15858648285463 l -4.558182802627398 15.61409604632445 a37.265823858815544,37.265823858815544 0 0,0 -0.6142206778875156,-0.1850596517184583 l 4.826278454955159 -15.533321025500266" fill="#ff0d01" stroke="none" /><path d="M 93.42475214034765 119.94407469862007 l -5.067839093592564 15.371794889043331 a37.18564398438826,37.18564398438826 0 0,0 -0.6061795921941369,-0.205649029648411 l 5.331688418723926 -15.282282872496797" fill="#ff0c01" stroke="none" /><path d="M 93.08242187328487 119.8279376855182 l -5.340492395637274 15.30751781779484 a37.21237060919735,37.21237060919735 0 0,0 -0.6029829438527201,-0.21620823056002725 l 5.603194900119721 -15.213322046194856" fill="#ff0c01" stroke="none" /><path d="M 92.7421414339146 119.70592522655815 l -5.5865682090214435 15.168178657333744 a37.16426268454098,37.16426268454098 0 0,0 -0.5983973303395569,-0.2262626675102532 l 5.846835760121284 -15.069767739716857" fill="#ff0c01" stroke="none" /><path d="M 91.7346041902142 119.30500536409082 l -6.475705490205501 15.124929537757902 a37.45291023247921,37.45291023247921 0 0,0 -0.5904706786606343,-0.2588449931911263 l 6.735096843523879 -15.011219991272323" fill="#ff1101" stroke="none" /><line stroke="#e1ed5e" stroke-width="0.3" x1="58.666819895761336" x2="56.23545636021788" y1="174.27360380694188" y2="178.64263932499728" /><path d="M 58.180547188652646 175.14741091055294 a86.0,86.0 0 0,1 -31.652253787137756,-30.449443065178592" fill="none" id="id80" stroke="none" /><text fill="#e1ed5e" style="font-size:6.75px; font-family:Arial;" text-anchor="middle"><textPath startOffset="22.20632615414155" xlink:href="#id80">August</textPath></text><path d="M 89.7882731507175 118.34994917583269 l -10.44652898538936 18.771876566520852 a42.48286102155099,42.48286102155099 0 0,0 -0.6359304641352159,-0.3610979143015919 l 10.768108216445784 -18.589275486424626" fill="#ff6d0a" stroke="none" /><path d="M 88.54995079064634 117.60387380957326 l -8.836725573416002 13.586020377725978 a37.207025284235534,37.207025284235534 0 0,0 -0.5338770525124824,-0.35382459897938984 l 9.069277324668446 -13.43189775765527" fill="#ff0c01" stroke="none" /><path d="M 87.65650970185807 116.9893568818739 l -9.507399026517263 13.085812130803602 a37.17495333446462,37.17495333446462 0 0,0 -0.5144571506182822,-0.38058310109396803 l 9.73124114755411 -12.920219080969867" fill="#ff0c01" stroke="none" /><path d="M 87.07902340077011 116.55440617244103 l -9.942333003429138 12.738156251303899 a37.15891735957916,37.15891735957916 0 0,0 -0.5008358636839892,-0.39789430030739864 l 10.160126359830485 -12.565128036991368" fill="#ff0b01" stroke="none" /><path d="M 86.79598089348748 116.32954008644616 l -10.143321651990869 12.544345489791578 a37.13219073477006,37.13219073477006 0 0,0 -0.49355731555478405,-0.406164069490612 l 10.357749096090341 -12.367886301443784" fill="#ff0b01" stroke="none" /><path d="M 85.97065885151581 115.62618273729859 l -14.523332033994194 16.176400439316136 a42.739436619718305,42.739436619718305 0 0,0 -0.5431988042540775,-0.4961992285667573 l 14.799630387715126 -15.924008444162803" fill="#ff720a" stroke="none" /><path d="M 85.44109423537348 115.13401014063109 l -11.173027544633198 11.614383312574937 a37.11615475988461,37.11615475988461 0 0,0 -0.45661715951636095,-0.4468959957593714 l 11.371294656525352 -11.420337213892996" fill="#ff0b01" stroke="none" /><path d="M 85.18274418774928 114.88116024355367 l -11.371294656525352 11.420337213892996 a37.11615475988461,37.11615475988461 0 0,0 -0.44885692681725664,-0.45468969708881507 l 11.566192208398142 -11.222907022823517" fill="#ff0b01" stroke="none" /><path d="M 84.9287848128048 114.62390073753433 l -11.635244102179623 11.289909452810521 a37.21237060919735,37.21237060919735 0 0,0 -0.4421067940310939,-0.46354720602193145 l 11.827857447589674 -11.08795513020609" fill="#ff0c01" stroke="none" /><path d="M 84.67929136418377 114.36230785411682 l -11.843456336409444 11.102578216431223 a37.23375190904463,37.23375190904463 0 0,0 -0.4343114892341126,-0.4713593440027415 l 12.032814233639286 -10.897067617627137" fill="#ff0d01" stroke="none" /><path d="M 84.19399662182784 113.82643327865904 l -12.150211319042922 10.628498685274977 a37.14288138469371,37.14288138469371 0 0,0 -0.4168094387822456,-0.4848435424129255 l 12.331363267395947 -10.41777804370052" fill="#ff0b01" stroke="none" /><path d="M 83.95833913139862 113.55231037782056 l -16.430929068874594 13.881171803924135 a42.50958764636009,42.50958764636009 0 0,0 -0.46741113478194546,-0.563026822312904 l 16.667436203550075 -13.59628372449747" fill="#ff6e0a" stroke="none" /><line stroke="#e1ed5e" stroke-width="0.3" x1="26.63291911575756" x2="22.317208475507996" y1="142.92168965132927" y2="145.44649492493687" /><path d="M 25.769776987707644 143.4266507060508 a86.0,86.0 0 0,1 -11.730757126820373,-40.83630448921669" fill="none" id="id81" stroke="none" /><text fill="#e1ed5e" style="font-size:6.75px; font-family:Arial;" text-anchor="middle"><textPath startOffset="21.46611528233685" xlink:href="#id81">September</textPath></text><path d="M 81.18737489456691 109.33194174019688 l -14.475793066449404 7.180670256392799 a37.15891735957916,37.15891735957916 0 0,0 -0.2793054329967789,-0.5754519195099259 l 14.597251756060903 -6.930429380917588" fill="#ff0b01" stroke="none" /><path d="M 81.02952815118164 109.00673069616217 l -14.616566677339184 6.939599648044175 a37.18029865942644,37.18029865942644 0 0,0 -0.2695135814019461,-0.5805082772859932 l 14.733854875580956 -6.686971303479354" fill="#ff0c01" stroke="none" /><path d="M 79.58551787078972 104.9243191809786 l -15.749947904370371 3.7991544470251526 a37.20167995927372,37.20167995927372 0 0,0 -0.14480210791922102,-0.6238036910927472 l 15.813010578220148 -3.527482098583831" fill="#ff0c01" stroke="none" /><path d="M 79.4281124754447 104.21870165774334 l -26.23936748316984 5.380938572955681 a47.78542338367555,47.78542338367555 0 0,0 -0.15830643369468875,-0.8072010948383268 l 26.328103849840193 -4.928473751049399" fill="#ffc812" stroke="none" /><path d="M 79.23777060512086 103.15116336523772 l -27.613095686808975 4.19094567708309 a48.929322925504835,48.929322925504835 0 0,0 -0.1192150114570825,-0.8337895124678618 l 27.681144749282655 -3.715010692634828" fill="#ffdb14" stroke="none" /><path d="M 79.0095281055655 100.63252640178507 l -32.1428845028639 0.9685929492123744 a53.15747497030375,53.15747497030375 0 0,0 -0.019688357530586086,-0.9148406105309093 l 32.15479492307949 -0.4151625228913362" fill="#e0ff1b" stroke="none" /><line stroke="#e1ed5e" stroke-width="0.3" x1="15.007084014347285" x2="10.007500721073583" y1="101.09737516637583" y2="101.16192664675087" /><path d="M 14.007167355692545 101.11028546245083 a86.0,86.0 0 0,1 10.666146001902534,-42.60595125391555" fill="none" id="id82" stroke="none" /><text fill="#e1ed5e" style="font-size:6.75px; font-family:Arial;" text-anchor="middle"><textPath startOffset="22.20632615414155" xlink:href="#id82">October</textPath></text><path d="M 79.05617556472873 98.46500227214037 l -48.08052415960755 -3.523878629110647 a69.20948583064653,69.20948583064653 0 0,0 0.09730694255890675,-1.1873911686660668 l 48.012742733229146 4.350983714984492" fill="#35ff65" stroke="none" /><path d="M 79.12142395522702 97.74499172005258 l -53.2345230545964 -5.749639726853898 a74.544120142542,74.544120142542 0 0,0 0.14876751242057107,-1.274549195630643 l 53.12766518917224 6.6651326608094035" fill="#3effb3" stroke="none" /><path d="M 79.26566170972629 96.67025291283419 l -26.21963158647883 -4.210635549560432 a47.55557441031733,47.55557441031733 0 0,0 0.1367520291893134,-0.8071182173638684 l 26.143267695769293 4.661339555240128" fill="#ffc512" stroke="none" /><path d="M 79.3925641242962 95.95851677861259 l -52.54843694284761 -10.30567934291339 a74.54946546750381,74.54946546750381 0 0,0 0.25780165101956787,-1.257132406764232 l 52.36325599591304 11.208687405841024" fill="#3effb3" stroke="none" /><path d="M 79.54389044137918 95.25157060432595 l -26.367657934377032 -6.120663446383857 a48.06872560665196,48.06872560665196 0 0,0 0.19403101260510258,-0.8043838130233152 l 26.258394121511113 6.5736324910665695" fill="#ffcd13" stroke="none" /><path d="M 79.62865764111835 94.90015583598534 l -51.94640448445859 -13.004472807169211 a74.54946546750381,74.54946546750381 0 0,0 0.32235071055034276,-1.2421487828810058 l 51.71485744203794 13.896718015599081" fill="#3effb3" stroke="none" /><path d="M 80.38941819471856 92.48833698450439 l -42.019822917917644 -16.095328168447846 a65.99694552859324,65.99694552859324 0 0,0 0.41548675652317674,-1.0573684760445379 l 41.736542611512775 16.816245649388147" fill="#30ff34" stroke="none" /><path d="M 81.26839172434947 90.50648371742162 l -25.198510878197784 -12.771058939443424 a49.25004242321398,49.25004242321398 0 0,0 0.3897567841524935,-0.752886049889875 l 24.974944660885175 13.202917711593635" fill="#ffe115" stroke="none" /><path d="M 81.6062741919709 89.86733742301443 l -24.884435602326842 -13.708238994572792 a49.41040217206856,49.41040217206856 0 0,0 0.41679405644999196,-0.7414301192939495 l 24.644783904584422 14.134552623801527" fill="#ffe315" stroke="none" /><line stroke="#e1ed5e" stroke-width="0.3" x1="26.266209847984243" x2="21.928928074336255" y1="57.711370442889674" y2="55.22380399835377" /><path d="M 25.398753493254645 57.213857153982495 a86.0,86.0 0 0,1 29.58750427330803,-30.492523968695096" fill="none" id="id83" stroke="none" /><text fill="#e1ed5e" style="font-size:6.75px; font-family:Arial;" text-anchor="middle"><textPath startOffset="21.46611528233685" xlink:href="#id83">November</textPath></text><path d="M 82.15384107792192 88.93136811851018 l -23.089774088135812 -14.320852499646891 a48.170286780926524,48.170286780926524 0 0,0 0.4431033374758526,-0.7008830683901395 l 22.839843154413998 14.716183215751247" fill="#ffcf13" stroke="none" /><path d="M 82.54541684631803 88.32363383020206 l -22.329900287732624 -14.937743857815486 a47.86560325810284,47.86560325810284 0 0,0 0.46401265520744606,-0.6808813153625956 l 22.069463166856437 15.319903196448497" fill="#ffca12" stroke="none" /><path d="M 83.17141714833178 87.43820079747576 l -25.923956410562372 -19.35109675216613 a53.349906668929236,53.349906668929236 0 0,0 0.5556622940615759,-0.7311864449830563 l 25.58701817627669 19.794467973030212" fill="#ddff1b" stroke="none" /><path d="M 83.6137871275137 86.86637796730984 l -33.463410625137676 -26.82107150049376 a63.8855421686747,63.8855421686747 0 0,0 0.6951401295266372,-0.852159604505533 l 32.996772003534645 27.393115274607375" fill="#47ff2c" stroke="none" /><path d="M 84.07557802195018 86.31012108654704 l -40.61497748686385 -34.91581199205804 a74.56015611742745,74.56015611742745 0 0,0 0.8450439908978075,-0.9660313622205703 l 40.0079416323882 35.60975891048155" fill="#3effb3" stroke="none" /><path d="M 84.5562425177563 85.77008943001954 l -19.76921509711613 -18.215396298090553 a47.88163923298829,47.88163923298829 0 0,0 0.563709804572199,-0.6013263159881349 l 19.452737970573477 18.552992030956737" fill="#ffca12" stroke="none" /><path d="M 86.37877921826538 84.01681056812374 l -28.437447696874425 -33.36860335658809 a64.84235533684031,64.84235533684031 0 0,0 0.855741431782119,-0.7166588393114186 l 27.858848728133196 33.85316335329332" fill="#3bff2e" stroke="none" /><path d="M 87.51073957382395 83.11751280151077 l -16.244727840936598 -21.958979191654503 a48.31461055489564,48.31461055489564 0 0,0 0.6728492450153449,-0.4888535914399486 l 15.864333279567472 22.23535201791112" fill="#ffd113" stroke="none" /><path d="M 88.09926311788651 82.69761687909137 l -15.182375679573934 -22.07353068097591 a47.790768708637366,47.790768708637366 0 0,0 0.6818042836100285,-0.46035729580223955 l 14.800166701557366 22.331599889076816" fill="#ffc912" stroke="none" /><path d="M 88.70189139769569 82.29822771554957 l -17.329645962366993 -27.151929353325535 a53.21092821992194,53.21092821992194 0 0,0 0.7763242519561647,-0.4861341753548287 l 16.859702558038585 27.446207870003295" fill="#dfff1b" stroke="none" /><line stroke="#e1ed5e" stroke-width="0.3" x1="56.762969772571076" x2="54.21961505331055" y1="26.818313649435495" y2="22.513508569990535" /><path d="M 56.25429882871897 25.957352633546506 a86.0,86.0 0 0,1 42.265352541879196,-11.944610805530505" fill="none" id="id84" stroke="none" /><text fill="#e1ed5e" style="font-size:6.75px; font-family:Arial;" text-anchor="middle"><textPath startOffset="22.20632615414155" xlink:href="#id84">December</textPath></text><path d="M 89.63071344664047 81.73862282372117 l -26.465171288953666 -46.60788111654875 a74.5975733921602,74.5975733921602 0 0,0 1.1220750689649304,-0.6244335610340873 l 25.65897213091669 47.05653007514302" fill="#3effb3" stroke="none" /><path d="M 90.58718382345135 81.22770947309562 l -24.218075491062354 -48.29890869997019 a75.03054471406753,75.03054471406753 0 0,0 1.159503219598758,-0.5689631941899137 l 23.38310100445317 48.70862705429493" fill="#3effb9" stroke="none" /><path d="M 91.23893434514133 80.91482961587045 l -11.319659578498886 -24.65883035886007 a48.132869506193785,48.132869506193785 0 0,0 0.755956240602287,-0.3391755295627429 l 10.893521219429823 24.85002621893934" fill="#ffce13" stroke="none" /><path d="M 91.90106846888425 80.62456947434976 l -12.430822280492452 -29.738803513406822 a53.23230951976922,53.23230951976922 0 0,0 0.8484625073967033,-0.3461091603919442 l 11.917075903507367 29.94837355998234" fill="#deff1b" stroke="none" /><path d="M 92.23578459929587 80.48803036053334 l -9.919038799287478 -24.927178589975355 a47.828185983370105,47.828185983370105 0 0,0 0.7675668506629636,-0.2978040131907286 l 9.488488783624838 25.094225307056636" fill="#ffc912" stroke="none" /><path d="M 92.91201910852362 80.23233633223022 l -18.236546118541472 -50.859887414003985 a75.03054471406753,75.03054471406753 0 0,0 1.2194892931355044,-0.425455869075025 l 17.358374821342682 51.166264136251215" fill="#3effb9" stroke="none" /><path d="M 93.94186890950719 79.89281104454417 l -15.449622109871228 -51.27793809894244 a74.55481079246564,74.55481079246564 0 0,0 1.2319642219411915,-0.3596441390679523 l 14.564667670206616 51.53628056692909" fill="#3effb3" stroke="none" /><path d="M 94.63758080256005 79.69619591428918 l -14.233660459249228 -53.893111065448615 a76.74104870184965,76.74104870184965 0 0,0 1.2800812968214046,-0.3263212247587869 l 13.303870273742822 54.130135286376266" fill="#41ffd1" stroke="none" /><path d="M 95.33964822691252 79.52364482259891 l -13.98105531926245 -61.42906553220327 a84.0,84.0 0 0,0 1.4126291033859162,-0.30874600761652715 l 12.921583491723013 61.66062503791566" fill="#4dd2ff" stroke="none" /></svg>