<?xml version="1.0" encoding="utf-8" ?>
<svg baseProfile="full" height="200mm" version="1.1" viewBox="0,0,200,200" width="200mm" xmlns="http://www.w3.org/2000/svg" xmlns:ev="http://www.w3.org/2001/xml-events" xmlns:xlink="http://www.w3.org/1999/xlink"><defs /><rect fill="#1a1a1a" height="200" width="200" x="0" y="0" /><text alignment-baseline="middle" fill="#e1ed5e" style="dominant-baseline: central; font-size:9.0px; font-family:Arial;" text-anchor="middle" x="100.0" y="100.0">2023</text><line stroke="#e1ed5e" stroke-width="0.3" x1="100.0" x2="100.0" y1="15.0" y2="10.0" /><path d="M 100.0 14.0 a86.0,86.0 0 0,1 42.46469731375804,11.215312516191453" fill="none" id="id73" stroke="none" /><text fill="#e1ed5e" style="font-size:6.75px; font-family:Arial;" text-anchor="middle"><textPath startOffset="22.20632615414155" xlink:href="#id73">January</textPath></text><line stroke="#e1ed5e" stroke-width="0.3" x1="143.23703022742887" x2="145.7803849466894" y1="26.81831364943548" y2="22.513508569990506" /><path d="M 143.74570117128098 25.957352633546492 a86.0,86.0 0 0,1 28.547481713284135,27.462654790039103" fill="none" id="id74" stroke="none" /><text fill="#e1ed5e" style="font-size:6.75px; font-family:Arial;" text-anchor="middle"><textPath startOffset="19.985693538727396" xlink:href="#id74">February</textPath></text><line stroke="#e1ed5e" stroke-width="0.3" x1="172.23445277983987" x2="176.4835382374775" y1="55.19839476539836" y2="52.563006222186495" /><path d="M 173.08426987136738 54.67131705675599 a86.0,86.0 0 0,1 12.851231095245387,41.99856678651699" fill="none" id="id75" stroke="none" /><text fill="#e1ed5e" style="font-size:6.75px; font-family:Arial;" text-anchor="middle"><textPath startOffset="22.20632615414155" xlink:href="#id75">March</textPath></text><line stroke="#e1ed5e" stroke-width="0.3" x1="184.98032266829074" x2="189.97916517819016" y1="98.17113171792111" y2="98.06355123074" /><path d="M 185.9800911702706 98.14961562048488 a86.0,86.0 0 0,1 -9.607161424134198,41.387399972396054" fill="none" id="id76" stroke="none" /><text fill="#e1ed5e" style="font-size:6.75px; font-family:Arial;" text-anchor="middle"><textPath startOffset="21.466115282336823" xlink:href="#id76">April</textPath></text><line stroke="#e1ed5e" stroke-width="0.3" x1="174.80103733775053" x2="179.2010983576182" y1="140.37084112569926" y2="142.7455964860345" /><path d="M 175.68104954172406 140.8457921977663 a86.0,86.0 0 0,1 -30.038265399797805,32.042727171017184" fill="none" id="id77" stroke="none" /><text fill="#e1ed5e" style="font-size:6.75px; font-family:Arial;" text-anchor="middle"><textPath startOffset="22.206326154141568" xlink:href="#id77">May</textPath></text><path d="M 115.32070863581623 114.36230785411682 l 14.637127354182567 13.721488617649994 a41.063019390581715,41.063019390581715 0 0,0 -0.48785496754993735,0.5115139830576519 l -14.398765835253664 -13.971409717290154" fill="#ff2603" stroke="none" /><path d="M 115.07121518719521 114.62390073753431 l 17.395713057875582 16.879407390662134 a45.238919667590025,45.238919667590025 0 0,0 -0.547087988664,0.5541972441206002 l -17.102584444156047 -17.176345128763398" fill="#ff770a" stroke="none" /><line stroke="#e1ed5e" stroke-width="0.3" x1="143.8653032363475" x2="146.44561519142675" y1="172.8068346515853" y2="177.08958963109032" /><path d="M 144.38136562736335 173.6633856474863 a86.0,86.0 0 0,1 -40.68145358897372,12.25698825130547" fill="none" id="id78" stroke="none" /><text fill="#e1ed5e" style="font-size:6.75px; font-family:Arial;" text-anchor="middle"><textPath startOffset="21.466115282336833" xlink:href="#id78">June</textPath></text><path d="M 103.7750983002368 120.6578951692458 l 3.4139467315457743 18.681620473098132 a39.9909972299169,39.9909972299169 0 0,0 -0.6782302283473003,0.11791901880185518 l -3.091867531726424 -18.737618070420993" fill="#ff1101" stroke="none" /><path d="M 103.41894727170886 120.7198165907248 l 3.0715730287285474 18.614627469368013 a39.86634349030471,39.86634349030471 0 0,0 -0.6780394354190903,0.10589581522718514 l -2.75069772970094 -18.664741591942303" fill="#ff0f01" stroke="none" /><line stroke="#e1ed5e" stroke-width="0.3" x1="102.19456741930631" x2="102.32365962044197" y1="184.97166512339345" y2="189.96999836594603" /><path d="M 102.22038585953345 185.97133177190398 a86.0,86.0 0 0,1 -42.740103519485714,-10.115201625700543" fill="none" id="id79" stroke="none" /><text fill="#e1ed5e" style="font-size:6.75px; font-family:Arial;" text-anchor="middle"><textPath startOffset="22.20632615414155" xlink:href="#id79">July</textPath></text><path d="M 100.54218724476979 120.99299961872073 l 0.48468578786504396 18.766595227024194 a39.772853185595565,39.772853185595565 0 0,0 -0.6845482090121453,0.011785118220000739 l -0.16157788896023073 -18.772157822523354" fill="#ff0d01" stroke="none" /><path d="M 98.73552117531835 120.96189622390904 l -1.1330020493808557 18.782340136519995 a39.816481994459835,39.816481994459835 0 0,0 -0.6837764829513064,-0.04715722965427334 l 1.4561412931110922 -18.76005456234944" fill="#ff0e01" stroke="none" /><path d="M 98.01472825383883 120.90594882070398 l -1.8041854234503922 18.999015222297857 a40.084487534626035,40.084487534626035 0 0,0 -0.6863369094867117,-0.0711416269306047 l 2.130954929542697 -18.96514422691149" fill="#ff1302" stroke="none" /><path d="M 96.93821686468263 120.77559828337769 l -2.7452454051623727 18.627745077389402 a39.828947368421055,39.828947368421055 0 0,0 -0.6774034090582824,-0.10579648099016971 l 3.065484677829172 -18.577730289052127" fill="#ff0e01" stroke="none" /><path d="M 96.58105272829116 120.7198165907248 l -3.114191485024074 18.872907731579268 a40.128116343490305,40.128116343490305 0 0,0 -0.6805557099344436,-0.1183233335839697 l 3.4385961664305675 -18.81650581947429" fill="#ff1402" stroke="none" /><path d="M 95.86986931433489 120.58985236759428 l -3.76811092038025 18.78508295745493 a40.159279778393355,40.159279778393355 0 0,0 -0.6766045756400826,-0.14178906732844865 l 4.090906957449719 -18.71743790939994" fill="#ff1402" stroke="none" /><path d="M 95.51606077576429 120.51570834832081 l -3.8739850856005624 17.724938761959404 a39.143351800554015,39.143351800554015 0 0,0 -0.6570115616629476,-0.14953369238848477 l 4.178516796656373 -17.655628335993235" fill="#ff0000" stroke="none" /><path d="M 94.46302465271185 120.25689768951611 l -4.982620474765832 18.228803065278846 a39.89750692520776,39.89750692520776 0 0,0 -0.6609094823623857,-0.18677962136199402 l 5.295661125232831 -18.140334650578332" fill="#ff0f01" stroke="none" /><path d="M 94.11515582081647 120.15858648285463 l -5.3148736161225285 18.20614721032647 a39.96606648199446,39.96606648199446 0 0,0 -0.658726465838246,-0.19846888054146786 l 5.62747505640102 -18.11196296067928" fill="#ff1101" stroke="none" /><path d="M 93.42475214034765 119.94407469862007 l -5.909136481705773 17.92362233500838 a39.87257617728532,39.87257617728532 0 0,0 -0.6499804595833758,-0.2205086619955701 l 6.216786674226375 -17.819250686114685" fill="#ff0f01" stroke="none" /><path d="M 93.08242187328487 119.8279376855182 l -6.2270521740186915 17.84867481208251 a39.90373961218837,39.90373961218837 0 0,0 -0.6465934308453543,-0.23184539960877826 l 6.533365165493772 -17.738841871433777" fill="#ff0f01" stroke="none" /><path d="M 92.7421414339146 119.70592522655815 l -6.513978325240083 17.686204358462163 a39.847645429362885,39.847645429362885 0 0,0 -0.6416035977263329,-0.2425995808225935 l 6.817452143726698 -17.571456527532938" fill="#ff0e01" stroke="none" /><path d="M 91.7346041902142 119.30500536409082 l -7.55071872848853 17.63577557697019 a40.184210526315795,40.184210526315795 0 0,0 -0.6335314909744687,-0.27772158786888657 l 7.853170894120741 -17.503189435806853" fill="#ff1502" stroke="none" /><line stroke="#e1ed5e" stroke-width="0.3" x1="58.666819895761336" x2="56.23545636021788" y1="174.27360380694188" y2="178.64263932499728" /><path d="M 58.180547188652646 175.14741091055294 a86.0,86.0 0 0,1 -31.652253787137756,-30.449443065178592" fill="none" id="id80" stroke="none" /><text fill="#e1ed5e" style="font-size:6.75px; font-family:Arial;" text-anchor="middle"><textPath startOffset="22.20632615414155" xlink:href="#id80">August</textPath></text><path d="M 89.7882731507175 118.34994917583269 l -12.18072720832994 21.888141789969804 a46.04916897506925,46.04916897506925 0 0,0 -0.6893149071222241,-0.39141099427799336 l 12.55569088237337 -21.67522762989718" fill="#ff860c" stroke="none" /><path d="M 88.54995079064634 117.60387380957326 l -10.303684963225269 15.841396534614008 a39.89750692520776,39.89750692520776 0 0,0 -0.5724822997029851,-0.37941005173746745 l 10.574841961668215 -15.661688461785221" fill="#ff0f01" stroke="none" /><path d="M 87.65650970185807 116.9893568818739 l -11.085694986795856 15.258150155683746 a39.860110803324105,39.860110803324105 0 0,0 -0.5516165371536829,-0.4080727268973918 l 11.346696494368102 -15.065067480046586" fill="#ff0e01" stroke="none" /><path d="M 87.07902340077011 116.55440617244103 l -11.592831101940623 14.85278092380963 a39.841412742382275,39.841412742382275 0 0,0 -0.536991112204118,-0.4266182163755055 l 11.8467797068621 -14.651028793428994" fill="#ff0e01" stroke="none" /><path d="M 86.79598089348748 116.32954008644616 l -11.827185297819984 14.626796195358486 a39.810249307479225,39.810249307479225 0 0,0 -0.5291537986571699,-0.4354575516876438 l 12.077209225021843 -14.42104352481366" fill="#ff0d01" stroke="none" /><path d="M 85.97065885151581 115.62618273729859 l -16.93430860236007 18.8617981378888 a46.3483379501385,46.3483379501385 0 0,0 -0.5890662990644974,-0.5380980975682703 l 17.25647445089142 -18.567507273733955" fill="#ff8b0c" stroke="none" /><path d="M 85.44109423537348 115.13401014063109 l -13.02782970330895 13.542453672537416 a39.791551246537395,39.791551246537395 0 0,0 -0.489530912361141,-0.4791090303446798 l 13.259010568045884 -13.316194539270167" fill="#ff0d01" stroke="none" /><path d="M 85.18274418774928 114.88116024355367 l -13.259010568045884 13.316194539270167 a39.791551246537395,39.791551246537395 0 0,0 -0.4812113086972073,-0.48746451511558464 l 13.486262501798626 -13.085989530173919" fill="#ff0d01" stroke="none" /><path d="M 84.9287848128048 114.62390073753433 l -13.566777501809366 13.164114840801824 a39.90373961218837,39.90373961218837 0 0,0 -0.47408198136766555,-0.49707306210921254 l 13.791366034555988 -12.928634662110111" fill="#ff0f01" stroke="none" /><path d="M 84.67929136418377 114.36230785411682 l -13.809554450031825 12.94568528480989 a39.9286703601108,39.9286703601108 0 0,0 -0.4657462489839814,-0.5054755672707724 l 14.030347107011536 -12.706058462737774" fill="#ff1001" stroke="none" /><path d="M 84.19399662182784 113.82643327865904 l -14.16723294481993 12.392905174579626 a39.822714681440445,39.822714681440445 0 0,0 -0.44688195256700763,-0.5198246698923414 l 14.378457406957716 -12.147203405525755" fill="#ff0e01" stroke="none" /><path d="M 83.95833913139862 113.55231037782056 l -19.15858033297942 16.185545199945572 a46.0803324099723,46.0803324099723 0 0,0 -0.5066730037951487,-0.6103202727757002 l 19.434349336668106 -15.853363670056112" fill="#ff860c" stroke="none" /><line stroke="#e1ed5e" stroke-width="0.3" x1="26.63291911575756" x2="22.317208475507996" y1="142.92168965132927" y2="145.44649492493687" /><path d="M 25.769776987707644 143.4266507060508 a86.0,86.0 0 0,1 -11.730757126820373,-40.83630448921669" fill="none" id="id81" stroke="none" /><text fill="#e1ed5e" style="font-size:6.75px; font-family:Arial;" text-anchor="middle"><textPath startOffset="21.46611528233685" xlink:href="#id81">September</textPath></text><path d="M 81.18737489456691 109.33194174019688 l -16.878877827579412 8.372712667376883 a39.841412742382275,39.841412742382275 0 0,0 -0.2994684406311372,-0.6169936873222926 l 17.02049952482527 -8.080930024089305" fill="#ff0e01" stroke="none" /><path d="M 81.02952815118164 109.00673069616217 l -17.04302086061729 8.091622620879365 a39.86634349030471,39.86634349030471 0 0,0 -0.28898425776222453,-0.6224463819733465 l 17.17977973521934 -7.797056171627191" fill="#ff0f01" stroke="none" /><path d="M 79.58551787078972 104.9243191809786 l -18.364551444490417 4.429841146877566 a39.89127423822715,39.89127423822715 0 0,0 -0.15527096097817672,-0.6689032360753884 l 18.43808297139915 -4.113069253453603" fill="#ff0f01" stroke="none" /><path d="M 79.4281124754447 104.21870165774334 l -30.59528939024928 6.274212704872937 a52.2319944598338,52.2319944598338 0 0,0 -0.17303730263739314,-0.8823134782137464 l 30.69875662586234 -5.746635499591236" fill="#fff316" stroke="none" /><path d="M 79.23777060512086 103.15116336523772 l -32.19706626085582 4.886672511881808 a53.56578947368421,53.56578947368421 0 0,0 -0.13051164054600592,-0.9127981100048805 l 32.27641195241842 -4.331728929896527" fill="#f4ff19" stroke="none" /><path d="M 79.0095281055655 100.63252640178507 l -37.478832286382456 1.129386278137816 a58.49584487534626,58.49584487534626 0 0,0 -0.021665572125141478,-1.0067140034243305 l 37.49271992119261 -0.48408245892335655" fill="#a6ff21" stroke="none" /><line stroke="#e1ed5e" stroke-width="0.3" x1="15.007084014347285" x2="10.007500721073583" y1="101.09737516637583" y2="101.16192664675087" /><path d="M 14.007167355692545 101.11028546245083 a86.0,86.0 0 0,1 10.666146001902534,-42.60595125391555" fill="none" id="id82" stroke="none" /><text fill="#e1ed5e" style="font-size:6.75px; font-family:Arial;" text-anchor="middle"><textPath startOffset="22.20632615414155" xlink:href="#id82">October</textPath></text><path d="M 79.05617556472873 98.46500227214037 l -56.062233651081776 -4.108867582380103 a77.21260387811634,77.21260387811634 0 0,0 0.10855914214962317,-1.3246965044492398 l 55.98320002511266 5.073278004037122" fill="#41ffd2" stroke="none" /><path d="M 79.12142395522702 97.74499172005258 l -62.07183307493799 -6.704120876602696 a83.43282548476455,83.43282548476455 0 0,0 0.16650667923712634,-1.4265275437882745 l 61.94723604269728 7.7715921587158325" fill="#4cd9ff" stroke="none" /><path d="M 79.26566170972629 96.67025291283419 l -30.572277194127366 -4.909631043442743 a51.963988919667585,51.963988919667585 0 0,0 0.14942897899249916,-0.8819382927032559 l 30.483236353614643 5.435155124461827" fill="#ffef16" stroke="none" /><path d="M 79.3925641242962 95.95851677861259 l -61.27185178159894 -12.016495521920978 a83.43905817174516,83.43905817174516 0 0,0 0.2885430072677076,-1.4070381774006164 l 61.05592947841624 13.069409355484996" fill="#4cd9ff" stroke="none" /><path d="M 79.54389044137918 95.25157060432595 l -30.744876970178836 -7.136737176402863 a52.56232686980609,52.56232686980609 0 0,0 0.21216958383472362,-0.8795799009712367 l 30.617474586083297 7.664902309033497" fill="#fff917" stroke="none" /><path d="M 79.62865764111835 94.90015583598534 l -60.5698776467975 -15.163307924940282 a83.43905817174516,83.43905817174516 0 0,0 0.36078916891815555,-1.3902678430061863 l 60.299892146009036 16.203672193495333" fill="#4cd9ff" stroke="none" /><path d="M 80.38941819471856 92.48833698450439 l -48.9954128324671 -18.767267292572846 a73.46675900277009,73.46675900277009 0 0,0 0.46251330521207357,-1.1770459130269109 l 48.66510597737334 19.607862210495522" fill="#3bff9b" stroke="none" /><path d="M 81.26839172434947 90.50648371742162 l -29.381643174756533 -14.891145692548495 a53.939750692520775,53.939750692520775 0 0,0 0.42687036870438855,-0.8245776822274347 l 29.12096337289203 15.394696097036265" fill="#eeff19" stroke="none" /><path d="M 81.6062741919709 89.86733742301443 l -29.015429165910582 -15.983904312429257 a54.12673130193906,54.12673130193906 0 0,0 0.4565779453312529,-0.8122012184080983 l 28.735993579286898 16.48098904077214" fill="#ebff1a" stroke="none" /><line stroke="#e1ed5e" stroke-width="0.3" x1="26.266209847984243" x2="21.928928074336255" y1="57.711370442889674" y2="55.22380399835377" /><path d="M 25.398753493254645 57.213857153982495 a86.0,86.0 0 0,1 29.58750427330803,-30.492523968695096" fill="none" id="id83" stroke="none" /><text fill="#e1ed5e" style="font-size:6.75px; font-family:Arial;" text-anchor="middle"><textPath startOffset="21.46611528233685" xlink:href="#id83">November</textPath></text><path d="M 82.15384107792192 88.93136811851018 l -26.92284105686275 -16.698216023035048 a52.680747922437675,52.680747922437675 0 0,0 0.48459365274941874,-0.7665107832321565 l 26.63141980786737 17.15917445398142" fill="#fffb17" stroke="none" /><path d="M 82.54541684631803 88.32363383020206 l -26.03682279295772 -17.417515740820466 a52.325484764542935,52.325484764542935 0 0,0 0.507247072384953,-0.7443224877237147 l 25.73315125490403 17.8631162518146" fill="#fff517" stroke="none" /><path d="M 83.17141714833178 87.43820079747576 l -30.227517832893568 -22.56351665225861 a58.7202216066482,58.7202216066482 0 0,0 0.6115964409879093,-0.8047892258111066 l 29.83464545168155 23.080490653950744" fill="#a2ff22" stroke="none" /><path d="M 83.6137871275137 86.86637796730984 l -39.0185751511548 -31.273560417967893 a71.00484764542936,71.00484764542936 0 0,0 0.7726054646126961,-0.947122945716717 l 38.47447119446571 31.940567533292693" fill="#37ff75" stroke="none" /><path d="M 84.07557802195018 86.31012108654704 l -47.35735305304486 -40.71208549054176 a83.45152354570638,83.45152354570638 0 0,0 0.9458162667001565,-1.0812314937119294 l 46.649544922766864 41.52123254045663" fill="#4cd9ff" stroke="none" /><path d="M 84.5562425177563 85.77008943001954 l -23.0510456207569 -21.239281833131702 a52.344182825484765,52.344182825484765 0 0,0 0.6162472618672697,-0.6573696123622405 l 22.682031036919174 21.632920862371993" fill="#fff517" stroke="none" /><path d="M 86.37877921826538 84.01681056812374 l -33.158266576509895 -38.90802920070709 a72.12049861495845,72.12049861495845 0 0,0 0.9517929819946026,-0.7970992503196673 l 32.48361605755618 39.47302960842057" fill="#39ff86" stroke="none" /><path d="M 87.51073957382395 83.11751280151077 l -18.941468374879182 -25.6043261528334 a52.84903047091413,52.84903047091413 0 0,0 0.7359974517800258,-0.5347334492217652 l 18.497925606745376 25.926578836871833" fill="#fffe18" stroke="none" /><path d="M 88.09926311788651 82.69761687909137 l -17.70275818752062 -25.737894005340536 a52.23822714681441,52.23822714681441 0 0,0 0.7452536964624031,-0.5031986225922395 l 17.257099796651676 26.038804540231443" fill="#fff316" stroke="none" /><path d="M 88.70189139769569 82.29822771554957 l -20.20649063241565 -31.65934303109367 a58.55817174515236,58.55817174515236 0 0,0 0.8543382045148378,-0.5349865052900563 l 19.65853327552857 32.002473877706656" fill="#a5ff21" stroke="none" /><line stroke="#e1ed5e" stroke-width="0.3" x1="56.762969772571076" x2="54.21961505331055" y1="26.818313649435495" y2="22.513508569990535" /><path d="M 56.25429882871897 25.957352633546506 a86.0,86.0 0 0,1 42.265352541879196,-11.944610805530505" fill="none" id="id84" stroke="none" /><text fill="#e1ed5e" style="font-size:6.75px; font-family:Arial;" text-anchor="middle"><textPath startOffset="22.20632615414155" xlink:href="#id84">December</textPath></text><path d="M 89.63071344664047 81.73862282372117 l -30.85857823620972 -54.34512137313449 a83.49515235457064,83.49515235457064 0 0,0 1.255909871812778,-0.6989124839190485 l 29.918544275324898 54.86824925461372" fill="#4cd8ff" stroke="none" /><path d="M 90.58718382345135 81.22770947309562 l -28.23844852964592 -56.31687158071317 a84.0,84.0 0 0,0 1.298114931958296,-0.6369793594606814 l 27.264862330677197 56.79460610030868" fill="#4dd2ff" stroke="none" /><path d="M 91.23893434514133 80.91482961587045 l -13.198803699266707 -28.752371845026197 a52.637119113573405,52.637119113573405 0 0,0 0.8266982436214685,-0.3709154042375567 l 12.701923337178464 28.97530757978028" fill="#fffa17" stroke="none" /><path d="M 91.90106846888425 80.62456947434976 l -14.494427324681839 -34.675656728236326 a58.58310249307479,58.58310249307479 0 0,0 0.9337480654280617,-0.38089928090576736 l 13.895395389665397 34.920016895325666" fill="#a4ff21" stroke="none" /><path d="M 92.23578459929587 80.48803036053334 l -11.565669893985177 -29.06526779397007 a52.281855955678665,52.281855955678665 0 0,0 0.8390412201012212,-0.32553495811181954 l 11.06364550888428 29.26004545597244" fill="#fff417" stroke="none" /><path d="M 92.91201910852362 80.23233633223022 l -21.26394267442915 -59.30299100330936 a84.0,84.0 0 0,0 1.3652719837468588,-0.4763165873111608 l 20.239988686619004 59.66022844379273" fill="#4dd2ff" stroke="none" /></svg>