<?xml version="1.0" encoding="utf-8" ?>
<svg baseProfile="full" height="200mm" version="1.1" viewBox="0,0,200,200" width="200mm" xmlns="http://www.w3.org/2000/svg" xmlns:ev="http://www.w3.org/2001/xml-events" xmlns:xlink="http://www.w3.org/1999/xlink"><defs /><rect fill="#1a1a1a" height="200" width="200" x="0" y="0" /><text alignment-baseline="middle" fill="#e1ed5e" style="dominant-baseline: central; font-size:9.0px; font-family:Arial;" text-anchor="middle" x="100.0" y="100.0">2023</text><line stroke="#e1ed5e" stroke-width="0.3" x1="100.0" x2="100.0" y1="15.0" y2="10.0" /><path d="M 100.0 14.0 a86.0,86.0 0 0,1 42.46469731375804,11.215312516191453" fill="none" id="id73" stroke="none" /><text fill="#e1ed5e" style="font-size:6.75px; font-family:Arial;" text-anchor="middle"><textPath startOffset="22.20632615414155" xlink:href="#id73">January</textPath></text><line stroke="#e1ed5e" stroke-width="0.3" x1="143.23703022742887" x2="145.7803849466894" y1="26.81831364943548" y2="22.513508569990506" /><path d="M 143.74570117128098 25.957352633546492 a86.0,86.0 0 0,1 28.547481713284135,27.462654790039103" fill="none" id="id74" stroke="none" /><text fill="#e1ed5e" style="font-size:6.75px; font-family:Arial;" text-anchor="middle"><textPath startOffset="19.985693538727396" xlink:href="#id74">February</textPath></text><line stroke="#e1ed5e" stroke-width="0.3" x1="172.23445277983987" x2="176.4835382374775" y1="55.19839476539836" y2="52.563006222186495" /><path d="M 173.08426987136738 54.67131705675599 a86.0,86.0 0 0,1 12.851231095245387,41.99856678651699" fill="none" id="id75" stroke="none" /><text fill="#e1ed5e" style="font-size:6.75px; font-family:Arial;" text-anchor="middle"><textPath startOffset="22.20632615414155" xlink:href="#id75">March</textPath></text><line stroke="#e1ed5e" stroke-width="0.3" x1="184.98032266829074" x2="189.97916517819016" y1="98.17113171792111" y2="98.06355123074" /><path d="M 185.9800911702706 98.14961562048488 a86.0,86.0 0 0,1 -9.607161424134198,41.387399972396054" fill="none" id="id76" stroke="none" /><text fill="#e1ed5e" style="font-size:6.75px; font-family:Arial;" text-anchor="middle"><textPath startOffset="21.466115282336823" xlink:href="#id76">April</textPath></text><line stroke="#e1ed5e" stroke-width="0.3" x1="174.80103733775053" x2="179.2010983576182" y1="140.37084112569926" y2="142.7455964860345" /><path d="M 175.68104954172406 140.8457921977663 a86.0,86.0 0 0,1 -30.038265399797805,32.042727171017184" fill="none" id="id77" stroke="none" /><text fill="#e1ed5e" style="font-size:6.75px; font-family:Arial;" text-anchor="middle"><textPath startOffset="22.206326154141568" xlink:href="#id77">May</textPath></text><path d="M 115.32070863581623 114.36230785411682 l 14.187963492143973 13.300422607135225 a40.447353279631756,40.447353279631756 0 0,0 -0.48054045987279415,0.5038447510011838 l -13.956916480892216 -13.542674474718915" fill="#ff2503" stroke="none" /><path d="M 115.07121518719521 114.62390073753431 l 16.861897544016728 16.36143554898474 a44.49510932105869,44.49510932105869 0 0,0 -0.5380928643457942,0.5450852306767563 l -16.5777640546154 -16.649261273642164" fill="#ff720a" stroke="none" /><line stroke="#e1ed5e" stroke-width="0.3" x1="143.8653032363475" x2="146.44561519142675" y1="172.8068346515853" y2="177.08958963109032" /><path d="M 144.38136562736335 173.6633856474863 a86.0,86.0 0 0,1 -40.68145358897372,12.25698825130547" fill="none" id="id78" stroke="none" /><text fill="#e1ed5e" style="font-size:6.75px; font-family:Arial;" text-anchor="middle"><textPath startOffset="21.466115282336833" xlink:href="#id78">June</textPath></text><path d="M 103.7750983002368 120.6578951692458 l 3.3091842695113804 18.108344816079388 a39.40822784810126,39.40822784810126 0 0,0 -0.6683467085983366,0.11620064220583333 l -2.9969885894409938 -18.16262403680623" fill="#ff1001" stroke="none" /><path d="M 103.41894727170886 120.7198165907248 l 2.9773168560019325 18.04340760072611 a39.287399309551205,39.287399309551205 0 0,0 -0.6681928593077713,0.10435798254366259 l -2.6662881330856445 -18.091983890616877" fill="#ff0e01" stroke="none" /><line stroke="#e1ed5e" stroke-width="0.3" x1="102.19456741930631" x2="102.32365962044197" y1="184.97166512339345" y2="189.96999836594603" /><path d="M 102.22038585953345 185.97133177190398 a86.0,86.0 0 0,1 -42.740103519485714,-10.115201625700543" fill="none" id="id79" stroke="none" /><text fill="#e1ed5e" style="font-size:6.75px; font-family:Arial;" text-anchor="middle"><textPath startOffset="22.20632615414155" xlink:href="#id79">July</textPath></text><path d="M 100.54218724476979 120.99299961872073 l 0.4698124226831479 18.190711982619927 a39.19677790563867,39.19677790563867 0 0,0 -0.6746331219724887,0.011614421004836631 l -0.15661961081799125 -18.196103880903923" fill="#ff0c01" stroke="none" /><path d="M 98.73552117531835 120.96189622390904 l -1.0982340540028468 18.205973734171852 a39.23906789413118,39.23906789413118 0 0,0 -0.6738604340451234,-0.04647336086499651 l 1.4114572488269002 -18.18437202879057" fill="#ff0d01" stroke="none" /><path d="M 98.01472825383883 120.90594882070398 l -1.7488210836437064 18.415999795453278 a39.49884925201381,39.49884925201381 0 0,0 -0.6763094601244624,-0.07010224080444083 l 2.065563140373762 -18.38316818619308" fill="#ff1202" stroke="none" /><path d="M 96.93821686468263 120.77559828337769 l -2.6610031219199515 18.05612267378711 a39.25115074798619,39.25115074798619 0 0,0 -0.667576350441733,-0.10426169653793262 l 2.971415335970202 -18.007642669902076" fill="#ff0d01" stroke="none" /><path d="M 96.58105272829116 120.7198165907248 l -3.0186274962239485 18.29376211649436 a39.541139240506325,39.541139240506325 0 0,0 -0.6706008290320578,-0.11659254993671304 l 3.333077296728056 -18.23909098803664" fill="#ff1302" stroke="none" /><path d="M 95.86986931433489 120.58985236759428 l -3.652480358956997 18.208632387222327 a39.57134637514385,39.57134637514385 0 0,0 -0.6666990585838656,-0.13971326991978 l 3.9653708789702495 -18.143063136576007" fill="#ff1402" stroke="none" /><path d="M 95.51606077576429 120.51570834832081 l -3.7551056046461913 17.181020426341163 a38.58659378596087,38.58659378596087 0 0,0 -0.6476665149101801,-0.14740679017241506 l 4.050292268949234 -17.11383690259106" fill="#ff0000" stroke="none" /><path d="M 94.46302465271185 120.25689768951611 l -4.829720728704741 17.66942284079772 a39.317606444188726,39.317606444188726 0 0,0 -0.6513033250791637,-0.1840648253604439 l 5.133155221888519 -17.583669222098752" fill="#ff0f01" stroke="none" /><path d="M 94.11515582081647 120.15858648285463 l -5.151778146506186 17.647462217297655 a39.38406214039125,39.38406214039125 0 0,0 -0.6491337864280889,-0.1955786849251366 l 5.454786907374521 -17.55616816326679" fill="#ff1001" stroke="none" /><path d="M 93.42475214034765 119.94407469862007 l -5.727805097533753 17.373607073481466 a39.293440736478715,39.293440736478715 0 0,0 -0.6405397171968595,-0.2173058496014407 l 6.026014547667838 -17.272438236981902" fill="#ff0e01" stroke="none" /><path d="M 93.08242187328487 119.8279376855182 l -6.035965034041131 17.30095943618431 a39.32364787111622,39.32364787111622 0 0,0 -0.6371937226297782,-0.22847499866827234 l 6.3328783173006356 -17.19449689647608" fill="#ff0f01" stroke="none" /><path d="M 92.7421414339146 119.70592522655815 l -6.314086393510429 17.14347465049248 a39.2692750287687,39.2692750287687 0 0,0 -0.632291014113395,-0.2390783585462843 l 6.608247628384107 -17.03224804183956" fill="#ff0e01" stroke="none" /><path d="M 91.7346041902142 119.30500536409082 l -7.319012745259115 17.094593357500447 a39.59551208285386,39.59551208285386 0 0,0 -0.6242502584272586,-0.27365296827047186 l 7.612183678344117 -16.966075835935523" fill="#ff1402" stroke="none" /><line stroke="#e1ed5e" stroke-width="0.3" x1="58.666819895761336" x2="56.23545636021788" y1="174.27360380694188" y2="178.64263932499728" /><path d="M 58.180547188652646 175.14741091055294 a86.0,86.0 0 0,1 -31.652253787137756,-30.449443065178592" fill="none" id="id80" stroke="none" /><text fill="#e1ed5e" style="font-size:6.75px; font-family:Arial;" text-anchor="middle"><textPath startOffset="22.20632615414155" xlink:href="#id80">August</textPath></text><path d="M 89.7882731507175 118.34994917583269 l -11.806941946854531 21.216468854335908 a45.280494821634065,45.280494821634065 0 0,0 -0.6778085419808837,-0.38487737985305664 l 12.170399255756621 -21.010088308688218" fill="#ff800b" stroke="none" /><path d="M 88.54995079064634 117.60387380957326 l -9.987499770644517 15.355277730329728 a39.317606444188726,39.317606444188726 0 0,0 -0.5641614098389899,-0.3738954196598676 l 10.250335879223469 -15.181084289578543" fill="#ff0f01" stroke="none" /><path d="M 87.65650970185807 116.9893568818739 l -10.745512555286968 14.789929207292989 a39.28135788262371,39.28135788262371 0 0,0 -0.5436072849075072,-0.40214767355984954 l 10.998504810613039 -14.602771584993372" fill="#ff0e01" stroke="none" /><path d="M 87.07902340077011 116.55440617244103 l -11.237086380745664 14.396999384145348 a39.26323360184119,39.26323360184119 0 0,0 -0.529198289651867,-0.4204271268356317 l 11.48324216311489 -14.201438343304586" fill="#ff0d01" stroke="none" /><path d="M 86.79598089348748 116.32954008644616 l -11.464249040119334 14.177949361592212 a39.233026467203686,39.233026467203686 0 0,0 -0.5214814111711137,-0.42914369912010025 l 11.706600579835136 -13.97851054361493" fill="#ff0d01" stroke="none" /><path d="M 85.97065885151581 115.62618273729859 l -16.41465202844799 18.28299343860568 a45.5704833141542,45.5704833141542 0 0,0 -0.5791801203600447,-0.5290673077207876 l 16.72693169827489 -17.997733364298316" fill="#ff850c" stroke="none" /><path d="M 85.44109423537348 115.13401014063109 l -12.628049735428352 13.126881638090543 a39.21490218642117,39.21490218642117 0 0,0 -0.4824367546400229,-0.47216590389229 l 12.852136442444168 -12.907565631275684" fill="#ff0c01" stroke="none" /><path d="M 85.18274418774928 114.88116024355367 l -12.852136442444168 12.907565631275684 a39.21490218642117,39.21490218642117 0 0,0 -0.47423771656056773,-0.4804003030988221 l 13.07241478406027 -12.684424834196196" fill="#ff0c01" stroke="none" /><path d="M 84.9287848128048 114.62390073753433 l -13.150459051427793 12.760152743654086 a39.32364787111622,39.32364787111622 0 0,0 -0.46719011998687154,-0.4898469730047487 l 13.368155722793622 -12.531898654066836" fill="#ff0f01" stroke="none" /><path d="M 84.67929136418377 114.36230785411682 l -13.385785997403307 12.548426050907016 a39.34781357882623,39.34781357882623 0 0,0 -0.4589708701737103,-0.49812223172578984 l 13.599803275572746 -12.316152564379882" fill="#ff0f01" stroke="none" /><path d="M 84.19399662182784 113.82643327865904 l -13.732488550655914 12.012608889974192 a39.24510932105869,39.24510932105869 0 0,0 -0.44040018924862523,-0.5122849148005464 l 13.937231249475317 -11.774446876012115" fill="#ff0d01" stroke="none" /><path d="M 83.95833913139862 113.55231037782056 l -18.570668393340615 15.688865638765805 a45.31070195627157,45.31070195627157 0 0,0 -0.4982105871111844,-0.6001267467338295 l 18.837974980345336 -15.366877634918215" fill="#ff810b" stroke="none" /><line stroke="#e1ed5e" stroke-width="0.3" x1="26.63291911575756" x2="22.317208475507996" y1="142.92168965132927" y2="145.44649492493687" /><path d="M 25.769776987707644 143.4266507060508 a86.0,86.0 0 0,1 -11.730757126820373,-40.83630448921669" fill="none" id="id81" stroke="none" /><text fill="#e1ed5e" style="font-size:6.75px; font-family:Arial;" text-anchor="middle"><textPath startOffset="21.46611528233685" xlink:href="#id81">September</textPath></text><path d="M 81.18737489456691 109.33194174019688 l -16.360922236399368 8.115782474285146 a39.26323360184119,39.26323360184119 0 0,0 -0.29512255042029384,-0.6080398662777946 l 16.498198043434382 -7.832953652042066" fill="#ff0d01" stroke="none" /><path d="M 81.02952815118164 109.00673069616217 l -16.520028275711503 7.8433181292528396 a39.287399309551205,39.287399309551205 0 0,0 -0.2847875911077695,-0.613407135352643 l 16.6525904836591 -7.55779092662137" fill="#ff0e01" stroke="none" /><path d="M 79.58551787078972 104.9243191809786 l -17.80100556203578 4.293904326106485 a39.311565017261216,39.311565017261216 0 0,0 -0.15301452747119607,-0.6591825795836672 l 17.87228065543753 -3.9868530891742435" fill="#ff0e01" stroke="none" /><path d="M 79.4281124754447 104.21870165774334 l -29.656423586175652 6.081678367937826 a51.27359033371692,51.27359033371692 0 0,0 -0.169862243623567,-0.8661239207060608 l 29.756715762774885 -5.57029072016381" fill="#ffea16" stroke="none" /><path d="M 79.23777060512086 103.15116336523772 l -31.20904734989745 4.736717083822526 a52.56645569620253,52.56645569620253 0 0,0 -0.12807679001857653,-0.8957687710870352 l 31.285958190932625 -4.198802840755091" fill="#ffff18" stroke="none" /><path d="M 79.0095281055655 100.63252640178507 l -36.328733865626575 1.094729238532513 a57.34522439585731,57.34522439585731 0 0,0 -0.021239407650721874,-0.9869118148791994 l 36.3421953359623 -0.4692276078631845" fill="#b2ff20" stroke="none" /><line stroke="#e1ed5e" stroke-width="0.3" x1="15.007084014347285" x2="10.007500721073583" y1="101.09737516637583" y2="101.16192664675087" /><path d="M 14.007167355692545 101.11028546245083 a86.0,86.0 0 0,1 10.666146001902534,-42.60595125391555" fill="none" id="id82" stroke="none" /><text fill="#e1ed5e" style="font-size:6.75px; font-family:Arial;" text-anchor="middle"><textPath startOffset="22.20632615414155" xlink:href="#id82">October</textPath></text><path d="M 79.05617556472873 98.46500227214037 l -54.34187358507237 -3.9827803531547845 a75.48762945914845,75.48762945914845 0 0,0 0.10613386785828079,-1.2951020151003478 l 54.265265233394594 4.917596285462911" fill="#3fffba" stroke="none" /><path d="M 79.12142395522702 97.74499172005258 l -60.16705875733346 -6.498394113991183 a81.51697353279633,81.51697353279633 0 0,0 0.16268321833215618,-1.3937704657027161 l 60.04628518599771 7.533108318018761" fill="#49f1ff" stroke="none" /><path d="M 79.26566170972629 96.67025291283419 l -29.634117556409617 -4.758971095811206 a51.013808975834294,51.013808975834294 0 0,0 0.14669661718159863,-0.8658117386251867 l 29.547809077707797 5.26836862275222" fill="#ffe515" stroke="none" /><path d="M 79.3925641242962 95.95851677861259 l -59.391626180322405 -11.647749974643004 a81.52301495972382,81.52301495972382 0 0,0 0.28191708311940833,-1.374727818104444 l 59.182329801288006 12.66835344891085" fill="#49f1ff" stroke="none" /><path d="M 79.54389044137918 95.25157060432595 l -29.80142082993553 -6.9177348848369915 a51.59378596087457,51.59378596087457 0 0,0 0.20826003618315359,-0.863372301964543 l 29.67792799349156 7.429692418460932" fill="#ffef16" stroke="none" /><path d="M 79.62865764111835 94.90015583598534 l -58.71119325410712 -14.697997363377096 a81.52301495972382,81.52301495972382 0 0,0 0.3525042283492729,-1.3583425873543244 l 58.44949269388754 15.706436376280283" fill="#49f1ff" stroke="none" /><path d="M 80.38941819471856 92.48833698450439 l -47.49190956181218 -18.191363424753195 a71.85673187571922,71.85673187571922 0 0,0 0.4523773065900938,-1.1512509021201929 l 47.171738705340395 19.00616333176915" fill="#38ff84" stroke="none" /><path d="M 81.26839172434947 90.50648371742162 l -28.480020062374287 -14.434186868074432 a52.928941311852704,52.928941311852704 0 0,0 0.4188709885167552,-0.8091254258565019 l 28.227339640697416 14.922285016191271" fill="#f9ff18" stroke="none" /><path d="M 81.6062741919709 89.86733742301443 l -28.12504392108018 -15.493412427122642 a53.11018411967779,53.11018411967779 0 0,0 0.44800301363585787,-0.7969473717385813 l 27.854183266151892 15.975243308796008" fill="#f6ff19" stroke="none" /><line stroke="#e1ed5e" stroke-width="0.3" x1="26.266209847984243" x2="21.928928074336255" y1="57.711370442889674" y2="55.22380399835377" /><path d="M 25.398753493254645 57.213857153982495 a86.0,86.0 0 0,1 29.58750427330803,-30.492523968695096" fill="none" id="id83" stroke="none" /><text fill="#e1ed5e" style="font-size:6.75px; font-family:Arial;" text-anchor="middle"><textPath startOffset="21.46611528233685" xlink:href="#id83">November</textPath></text><path d="M 82.15384107792192 88.93136811851018 l -26.096670253430062 -16.18580433072864 a51.708573072497124,51.708573072497124 0 0,0 0.4756509216716932,-0.7523655302687081 l 25.814191735512406 16.632617508711565" fill="#fff116" stroke="none" /><path d="M 82.54541684631803 88.32363383020206 l -25.237840889069492 -16.883031176468478 a51.36421173762946,51.36421173762946 0 0,0 0.49792842142818455,-0.7306485173057897 l 24.943488001972568 17.314957717044685" fill="#ffeb16" stroke="none" /><path d="M 83.17141714833178 87.43820079747576 l -29.299937692260084 -21.871118749619296 a57.56271576524741,57.56271576524741 0 0,0 0.5995405182809813,-0.7889250447081642 l 28.919121233754993 22.372228570208485" fill="#afff20" stroke="none" /><path d="M 83.6137871275137 86.86637796730984 l -37.821227237041875 -30.31388077338123 a69.47036823935558,69.47036823935558 0 0,0 0.7559087570810018,-0.9266547565237809 l 37.29381998788448 30.960419699513093" fill="#34ff5f" stroke="none" /><path d="M 84.07557802195018 86.31012108654704 l -45.90411628885476 -39.46276948009168 a81.53509781357883,81.53509781357883 0 0,0 0.9240960325527686,-1.056401511359344 l 45.21802839272414 40.24708654765397" fill="#49f1ff" stroke="none" /><path d="M 84.5562425177563 85.77008943001954 l -22.343687105352007 -20.58752021186184 a51.38233601841197,51.38233601841197 0 0,0 0.6049234541545663,-0.6452901638239884 l 21.985996329226985 20.96907979256388" fill="#ffec16" stroke="none" /><path d="M 86.37877921826538 84.01681056812374 l -32.140751683483124 -37.714073567390415 a70.5517836593786,70.5517836593786 0 0,0 0.9310902426327702,-0.7797613014830436 l 31.486803903891246 38.26173602626727" fill="#36ff70" stroke="none" /><path d="M 87.51073957382395 83.11751280151077 l -18.360218865868696 -24.818616105949367 a51.8716915995397,51.8716915995397 0 0,0 0.7223866265208373,-0.5248446058297151 l 17.93028692299408 25.13097994659575" fill="#fff417" stroke="none" /><path d="M 88.09926311788651 82.69761687909137 l -17.159520498605524 -24.948085213462036 a51.27963176064442,51.27963176064442 0 0,0 0.7315779499071613,-0.4939646974709228 l 16.72753785429182 25.239761823231625" fill="#ffea16" stroke="none" /><path d="M 88.70189139769569 82.29822771554957 l -19.586421874995914 -30.687825024769353 a57.40563866513234,57.40563866513234 0 0,0 0.8375232491826681,-0.5244569818036585 l 19.055279473441 31.020426347895942" fill="#b1ff20" stroke="none" /><line stroke="#e1ed5e" stroke-width="0.3" x1="56.762969772571076" x2="54.21961505331055" y1="26.818313649435495" y2="22.513508569990535" /><path d="M 56.25429882871897 25.957352633546506 a86.0,86.0 0 0,1 42.265352541879196,-11.944610805530505" fill="none" id="id84" stroke="none" /><text fill="#e1ed5e" style="font-size:6.75px; font-family:Arial;" text-anchor="middle"><textPath startOffset="22.20632615414155" xlink:href="#id84">December</textPath></text><path d="M 89.63071344664047 81.73862282372117 l -29.91163298922208 -52.67745366701605 a81.57738780207134,81.57738780207134 0 0,0 1.2270634134810612,-0.6828594610888457 l 29.000445486668973 53.18452852566509" fill="#49f1ff" stroke="none" /><path d="M 90.58718382345135 81.22770947309562 l -27.371906188881947 -54.588697539110925 a82.06674338319908,82.06674338319908 0 0,0 1.268238869082386,-0.6223193051577889 l 26.428196052789136 55.051772004403546" fill="#4aeaff" stroke="none" /><path d="M 91.23893434514133 80.91482961587045 l -12.79377711854506 -27.870058938389416 a51.666283084004604,51.666283084004604 0 0,0 0.8114506682601109,-0.36407426162906925 l 12.312144331818175 28.086153530535015" fill="#fff016" stroke="none" /><path d="M 91.90106846888425 80.62456947434976 l -14.049642443218646 -33.611578270906485 a57.42980437284235,57.42980437284235 0 0,0 0.9153658042844808,-0.37340069503421097 l 13.468992769345784 33.84843985212427" fill="#b1ff20" stroke="none" /><path d="M 92.23578459929587 80.48803036053334 l -11.210758658266418 -28.173353170449705 a51.32192174913694,51.32192174913694 0 0,0 0.8236357920965908,-0.31955789138370694 l 10.72413970117015 28.362153765723964" fill="#ffeb16" stroke="none" /><path d="M 92.91201910852362 80.23233633223022 l -20.611424295466996 -57.483183070718354 a82.06674338319908,82.06674338319908 0 0,0 1.3338503040288643,-0.4653541802384068 l 19.618891987374848 57.829458104128975" fill="#4aeaff" stroke="none" /><path d="M 93.94186890950719 79.89281104454417 l -17.461569446388786 -57.95567495532561 a81.52905638665132,81.52905638665132 0 0,0 1.3472085764736563,-0.39328712636425756 l 16.461370652191707 58.24766041060857" fill="#49f1ff" stroke="none" /><path d="M 94.63758080256005 79.69619591428918 l -16.08725759231985 -60.91141225713247 a84.0,84.0 0 0,0 1.4011644452600023,-0.35718801532454725 l 15.036384258374849 61.17930326862588" fill="#4dd2ff" stroke="none" /></svg>