<?xml version="1.0" encoding="utf-8" ?>
<svg baseProfile="full" height="200mm" version="1.1" viewBox="0,0,200,200" width="200mm" xmlns="http://www.w3.org/2000/svg" xmlns:ev="http://www.w3.org/2001/xml-events" xmlns:xlink="http://www.w3.org/1999/xlink"><defs /><rect fill="#1a1a1a" height="200" width="200" x="0" y="0" /><text alignment-baseline="middle" fill="#e1ed5e" style="dominant-baseline: central; font-size:9.0px; font-family:Arial;" text-anchor="middle" x="100.0" y="100.0">2023</text><line stroke="#e1ed5e" stroke-width="0.3" x1="100.0" x2="100.0" y1="15.0" y2="10.0" /><path d="M 100.0 14.0 a86.0,86.0 0 0,1 42.46469731375804,11.215312516191453" fill="none" id="id73" stroke="none" /><text fill="#e1ed5e" style="font-size:6.75px; font-family:Arial;" text-anchor="middle"><textPath startOffset="22.20632615414155" xlink:href="#id73">January</textPath></text><line stroke="#e1ed5e" stroke-width="0.3" x1="143.23703022742887" x2="145.7803849466894" y1="26.81831364943548" y2="22.513508569990506" /><path d="M 143.74570117128098 25.957352633546492 a86.0,86.0 0 0,1 28.547481713284135,27.462654790039103" fill="none" id="id74" stroke="none" /><text fill="#e1ed5e" style="font-size:6.75px; font-family:Arial;" text-anchor="middle"><textPath startOffset="19.985693538727396" xlink:href="#id74">February</textPath></text><line stroke="#e1ed5e" stroke-width="0.3" x1="172.23445277983987" x2="176.4835382374775" y1="55.19839476539836" y2="52.563006222186495" /><path d="M 173.08426987136738 54.67131705675599 a86.0,86.0 0 0,1 12.851231095245387,41.99856678651699" fill="none" id="id75" stroke="none" /><text fill="#e1ed5e" style="font-size:6.75px; font-family:Arial;" text-anchor="middle"><textPath startOffset="22.20632615414155" xlink:href="#id75">March</textPath></text><line stroke="#e1ed5e" stroke-width="0.3" x1="184.98032266829074" x2="189.97916517819016" y1="98.17113171792111" y2="98.06355123074" /><path d="M 185.9800911702706 98.14961562048488 a86.0,86.0 0 0,1 -9.607161424134198,41.387399972396054" fill="none" id="id76" stroke="none" /><text fill="#e1ed5e" style="font-size:6.75px; font-family:Arial;" text-anchor="middle"><textPath startOffset="21.466115282336823" xlink:href="#id76">April</textPath></text><line stroke="#e1ed5e" stroke-width="0.3" x1="174.80103733775053" x2="179.2010983576182" y1="140.37084112569926" y2="142.7455964860345" /><path d="M 175.68104954172406 140.8457921977663 a86.0,86.0 0 0,1 -30.038265399797805,32.042727171017184" fill="none" id="id77" stroke="none" /><text fill="#e1ed5e" style="font-size:6.75px; font-family:Arial;" text-anchor="middle"><textPath startOffset="22.206326154141568" xlink:href="#id77">May</textPath></text><path d="M 115.32070863581623 114.36230785411682 l 9.836042837597219 9.220740284140632 a34.48220271656755,34.48220271656755 0 0,0 -0.4096706510383846,0.42953803977206717 l -9.67586563517987 -9.388685440495207" fill="red" stroke="none" /><path d="M 115.07121518719521 114.62390073753431 l 11.49758693548462 11.156337957973895 a37.02056122523664,37.02056122523664 0 0,0 -0.44770088518354156,0.45351863301728274 l -11.303845425245543 -11.35259708497184" fill="red" stroke="none" /><line stroke="#e1ed5e" stroke-width="0.3" x1="143.8653032363475" x2="146.44561519142675" y1="172.8068346515853" y2="177.08958963109032" /><path d="M 144.38136562736335 173.6633856474863 a86.0,86.0 0 0,1 -40.68145358897372,12.25698825130547" fill="none" id="id78" stroke="none" /><text fill="#e1ed5e" style="font-size:6.75px; font-family:Arial;" text-anchor="middle"><textPath startOffset="21.466115282336833" xlink:href="#id78">June</textPath></text><path d="M 103.7750983002368 120.6578951692458 l 2.3000146452815646 12.58601966125654 a33.794450292296496,33.794450292296496 0 0,0 -0.5731394395303847,0.0996476381047713 l -2.08302623427913 -12.623745877882318" fill="red" stroke="none" /><path d="M 103.41894727170886 120.7198165907248 l 2.033363750638101 12.322776757651434 a33.48941132164857,33.48941132164857 0 0,0 -0.5695817463312266,0.08895695473669318 l -1.8209461406983571 -12.355952019735232" fill="red" stroke="none" /><line stroke="#e1ed5e" stroke-width="0.3" x1="102.19456741930631" x2="102.32365962044197" y1="184.97166512339345" y2="189.96999836594603" /><path d="M 102.22038585953345 185.97133177190398 a86.0,86.0 0 0,1 -42.740103519485714,-10.115201625700543" fill="none" id="id79" stroke="none" /><text fill="#e1ed5e" style="font-size:6.75px; font-family:Arial;" text-anchor="middle"><textPath startOffset="22.20632615414155" xlink:href="#id79">July</textPath></text><path d="M 100.54218724476979 120.99299961872073 l 0.3154916727305689 12.215552153305424 a33.21962558369474,33.21962558369474 0 0,0 -0.5717577034580995,0.009843327379635695 l -0.10517427937980146 -12.219172957964219" fill="red" stroke="none" /><path d="M 98.73552117531835 120.96189622390904 l -0.7568391970408386 12.546500895774903 a33.56930747089345,33.56930747089345 0 0,0 -0.5764924937555358,-0.03975829763061698 l 0.9726944515753043 -12.531614253628002" fill="red" stroke="none" /><path d="M 98.01472825383883 120.90594882070398 l -1.2095655603982427 12.737357366752565 a33.79465988345401,33.79465988345401 0 0,0 -0.5786408620424134,-0.05997849127043325 l 1.4286390190462495 -12.714649507026373" fill="red" stroke="none" /><path d="M 96.93821686468263 120.77559828337769 l -1.8496525348652983 12.550738027436928 a33.68630125501854,33.68630125501854 0 0,0 -0.5729304140939059,-0.08947994777239283 l 2.0654188125677213 -12.51703977231743" fill="red" stroke="none" /><path d="M 96.58105272829116 120.7198165907248 l -2.055959941834389 12.459716259793042 a33.628202586155275,33.628202586155275 0 0,0 -0.5703199494574034,-0.09915743361515766 l 2.2701288627638423 -12.422480247656878" fill="red" stroke="none" /><path d="M 95.86986931433489 120.58985236759428 l -2.4699067804558914 12.313173563203458 a33.55845064893415,33.55845064893415 0 0,0 -0.56539363718064,-0.11848373389057096 l 2.681491879065918 -12.268833848586345" fill="red" stroke="none" /><path d="M 95.51606077576429 120.51570834832081 l -2.5794212989178917 11.801822555939367 a33.08041513687301,33.08041513687301 0 0,0 -0.5552466564508135,-0.12637233128028988 l 2.782188104761568 -11.75567349108139" fill="red" stroke="none" /><path d="M 94.46302465271185 120.25689768951611 l -3.299227181447971 12.070147197204802 a33.5129274495218,33.5129274495218 0 0,0 -0.5551477583457127,-0.1568903017295751 l 3.5065061078982978 -12.011568102136707" fill="red" stroke="none" /><path d="M 94.11515582081647 120.15858648285463 l -3.5271921774710027 12.082428418871476 a33.586745455198724,33.586745455198724 0 0,0 -0.5535815775785531,-0.16678958822549275 l 3.7346487294898014 -12.019923461540259" fill="red" stroke="none" /><path d="M 93.42475214034765 119.94407469862007 l -3.861015523944419 11.711251600810467 a33.331295752418946,33.331295752418946 0 0,0 -0.5433481607844709,-0.1843331967381531 l 4.062033417666116 -11.64305541717419" fill="red" stroke="none" /><path d="M 93.08242187328487 119.8279376855182 l -4.044883607163046 11.593898708316779 a33.279233308892124,33.279233308892124 0 0,0 -0.5392510539169356,-0.19335624230108903 l 4.243854221709707 -11.522554924975733" fill="red" stroke="none" /><path d="M 92.7421414339146 119.70592522655815 l -4.328678282051527 11.752862056933322 a33.524664554342664,33.524664554342664 0 0,0 -0.5397946392783548,-0.20410414418384937 l 4.530343142090165 -11.67660966264284" fill="red" stroke="none" /><path d="M 91.7346041902142 119.30500536409082 l -5.051378913696582 11.798212604593344 a33.834104939298406,33.834104939298406 0 0,0 -0.5334177446124777,-0.2338346635355931 l 5.253717332966803 -11.7095133877633" fill="red" stroke="none" /><line stroke="#e1ed5e" stroke-width="0.3" x1="58.666819895761336" x2="56.23545636021788" y1="174.27360380694188" y2="178.64263932499728" /><path d="M 58.180547188652646 175.14741091055294 a86.0,86.0 0 0,1 -31.652253787137756,-30.449443065178592" fill="none" id="id80" stroke="none" /><text fill="#e1ed5e" style="font-size:6.75px; font-family:Arial;" text-anchor="middle"><textPath startOffset="22.20632615414155" xlink:href="#id80">August</textPath></text><path d="M 89.7882731507175 118.34994917583269 l -8.196119447561019 14.728006097457069 a37.854985541536976,37.854985541536976 0 0,0 -0.5666553039600962,-0.3217616703835374 l 8.448423518442322 -14.584741261278898" fill="red" stroke="none" /><path d="M 88.54995079064634 117.60387380957326 l -6.960487082592614 10.70139822237862 a33.765903976642896,33.765903976642896 0 0,0 -0.48450100895616394,-0.3211008497036241 l 7.14366279028874 -10.579999351583677" fill="red" stroke="none" /><path d="M 87.65650970185807 116.9893568818739 l -7.3112786935612455 10.063111809343804 a33.43869026152984,33.43869026152984 0 0,0 -0.46275171235804574,-0.34233265397149354 l 7.483415376337856 -9.935769206632543" fill="red" stroke="none" /><path d="M 87.07902340077011 116.55440617244103 l -7.740665062466155 9.917370603126539 a33.58062539339927,33.58062539339927 0 0,0 -0.4526068765460421,-0.3595782760701721 l 7.9102294317295545 -9.782658413051237" fill="red" stroke="none" /><path d="M 86.79598089348748 116.32954008644616 l -7.780871115136264 9.622679712680872 a33.374890713182154,33.374890713182154 0 0,0 -0.4436156645050283,-0.36506549068695665 l 7.945356908185982 -9.487319103136736" fill="red" stroke="none" /><path d="M 85.97065885151581 115.62618273729859 l -11.271352386318558 12.554275373375615 a37.8716689976752,37.8716689976752 0 0,0 -0.48133169132960313,-0.4396850877653396 l 11.485783627115016 -12.3583975190237" fill="red" stroke="none" /><path d="M 85.44109423537348 115.13401014063109 l -8.667538046673068 9.00992222996376 a33.50219638225701,33.50219638225701 0 0,0 -0.412156858612933,-0.40338223367245446 l 8.821344857661796 -8.859389893368736" fill="red" stroke="none" /><path d="M 85.18274418774928 114.88116024355367 l -8.729242649171129 8.766890462927531 a33.37166300935642,33.37166300935642 0 0,0 -0.4035736513673113,-0.408817978134798 l 8.878856925593972 -8.615331990812068" fill="red" stroke="none" /><path d="M 84.9287848128048 114.62390073753433 l -9.04858942623503 8.780026822017 a33.6081656714968,33.6081656714968 0 0,0 -0.39928653120043195,-0.4186503316371373 l 9.198382508814419 -8.622969373797362" fill="red" stroke="none" /><path d="M 84.67929136418377 114.36230785411682 l -9.01739963865296 8.453308050723578 a33.36009357746156,33.36009357746156 0 0,0 -0.389127369114182,-0.4223209055846617 l 9.16157341576287 -8.296835890337572" fill="red" stroke="none" /><path d="M 84.19399662182784 113.82643327865904 l -9.32619046029049 8.158162886473114 a33.39086155938483,33.39086155938483 0 0,0 -0.3747050780168658,-0.4358666586740151 l 9.465238047878135 -7.9964191286375685" fill="red" stroke="none" /><path d="M 83.95833913139862 113.55231037782056 l -12.717020393505678 10.743588763380263 a37.64774180498574,37.64774180498574 0 0,0 -0.4139530560831687,-0.49863312276878263 l 12.900069449482382 -10.52309438349772" fill="red" stroke="none" /><line stroke="#e1ed5e" stroke-width="0.3" x1="26.63291911575756" x2="22.317208475507996" y1="142.92168965132927" y2="145.44649492493687" /><path d="M 25.769776987707644 143.4266507060508 a86.0,86.0 0 0,1 -11.730757126820373,-40.83630448921669" fill="none" id="id81" stroke="none" /><text fill="#e1ed5e" style="font-size:6.75px; font-family:Arial;" text-anchor="middle"><textPath startOffset="21.46611528233685" xlink:href="#id81">September</textPath></text><path d="M 81.18737489456691 109.33194174019688 l -11.19590312384158 5.553691475540233 a33.49766921325468,33.49766921325468 0 0,0 -0.25178561887188766,-0.5187529513129568 l 11.289841999328187 -5.360149568261991" fill="red" stroke="none" /><path d="M 81.02952815118164 109.00673069616217 l -11.41643163991714 5.4202513311909755 a33.63780186116948,33.63780186116948 0 0,0 -0.24383463223726262,-0.5251981052918282 l 11.50804088899423 -5.222933158620321" fill="red" stroke="none" /><path d="M 79.58551787078972 104.9243191809786 l -12.122113256371929 2.9240592264123455 a33.46979358930513,33.46979358930513 0 0,0 -0.13027628506718733,-0.5612268264222903 l 12.17065010736967 -2.7149637426414808" fill="red" stroke="none" /><path d="M 79.4281124754447 104.21870165774334 l -20.413614438956646 4.186244406176407 a41.83843316304329,41.83843316304329 0 0,0 -0.13860488568314386,-0.7067433259797359 l 20.482649257615456 -3.834237353128716" fill="red" stroke="none" /><path d="M 79.23777060512086 103.15116336523772 l -21.717159382730195 3.2960967602432376 a42.96586591755017,42.96586591755017 0 0,0 -0.10468520493166758,-0.7321680794703956 l 21.77067863867846 -2.9217832087924416" fill="red" stroke="none" /><path d="M 79.0095281055655 100.63252640178507 l -25.05149718990255 0.7549012455055568 a46.062868697460814,46.062868697460814 0 0,0 -0.01706067167988488,-0.7927423743421153 l 25.06077992426744 -0.3235690553733126" fill="red" stroke="none" /><line stroke="#e1ed5e" stroke-width="0.3" x1="15.007084014347285" x2="10.007500721073583" y1="101.09737516637583" y2="101.16192664675087" /><path d="M 14.007167355692545 101.11028546245083 a86.0,86.0 0 0,1 10.666146001902534,-42.60595125391555" fill="none" id="id82" stroke="none" /><text fill="#e1ed5e" style="font-size:6.75px; font-family:Arial;" text-anchor="middle"><textPath startOffset="22.20632615414155" xlink:href="#id82">October</textPath></text><path d="M 79.05617556472873 98.46500227214037 l -37.579251650284974 -2.7542279145879243 a58.680046788730785,58.680046788730785 0 0,0 0.08250279385396853,-1.0067430569321951 l 37.5262743726115 3.400684888727898" fill="red" stroke="none" /><path d="M 79.12142395522702 97.74499172005258 l -41.5789600195929 -4.490770774535566 a62.82077161483666,62.82077161483666 0 0,0 0.1253712553533317,-1.074104352931947 l 41.49549841123598 5.2058188657923745" fill="red" stroke="none" /><path d="M 79.26566170972629 96.67025291283419 l -20.334972237103536 -3.2656125132218667 a41.59551701148293,41.59551701148293 0 0,0 0.1196131353060643,-0.7059634954877742 l 20.275747240277248 3.6151617970254692" fill="red" stroke="none" /><path d="M 79.3925641242962 95.95851677861259 l -40.04629170824997 -7.853787195742057 a61.809158933972796,61.809158933972796 0 0,0 0.21374403050890992,-1.0422918024088137 l 39.90516838182606 8.541954654314273" fill="red" stroke="none" /><path d="M 79.54389044137918 95.25157060432595 l -20.443519516701457 -4.745506898364801 a41.98707521195322,41.98707521195322 0 0,0 0.16948222814075387,-0.702613252805144 l 20.35880448829989 5.0967053828293425" fill="red" stroke="none" /><path d="M 79.62865764111835 94.90015583598534 l -39.966678632707655 -10.005419828958821 a62.20004644273903,62.20004644273903 0 0,0 0.26895201784942596,-1.0363818372067173 l 39.78853028298792 10.691898091714403" fill="red" stroke="none" /><path d="M 80.38941819471856 92.48833698450439 l -32.38097426316437 -12.403250917972269 a55.675180281663906,55.675180281663906 0 0,0 0.35050561641598355,-0.8919985623035044 l 32.1626750968667 12.958798485171537" fill="red" stroke="none" /><path d="M 81.26839172434947 90.50648371742162 l -19.32464305246056 -9.794076983343182 a42.66485109712654,42.66485109712654 0 0,0 0.3376426565700376,-0.6522181429942224 l 19.15319096273041 10.12526784859774" fill="red" stroke="none" /><path d="M 81.6062741919709 89.86733742301443 l -18.893893338780813 -10.408192878674575 a42.571038095022644,42.571038095022644 0 0,0 0.3591016238467667,-0.6388017191874338 l 18.711934073641615 10.731878107796792" fill="red" stroke="none" /><line stroke="#e1ed5e" stroke-width="0.3" x1="26.266209847984243" x2="21.928928074336255" y1="57.711370442889674" y2="55.22380399835377" /><path d="M 25.398753493254645 57.213857153982495 a86.0,86.0 0 0,1 29.58750427330803,-30.492523968695096" fill="none" id="id83" stroke="none" /><text fill="#e1ed5e" style="font-size:6.75px; font-family:Arial;" text-anchor="middle"><textPath startOffset="21.46611528233685" xlink:href="#id83">November</textPath></text><path d="M 82.15384107792192 88.93136811851018 l -17.56030946326828 -10.891340933510277 a41.663634137675444,41.663634137675444 0 0,0 0.38325068359540637,-0.6062105435971925 l 17.37023118342691 11.191999124821685" fill="red" stroke="none" /><path d="M 82.54541684631803 88.32363383020206 l -17.163961067938725 -11.481952481410733 a41.65034605828896,41.65034605828896 0 0,0 0.40376149780466897,-0.5924701764763488 l 16.963775104465316 11.775700681157497" fill="red" stroke="none" /><path d="M 83.17141714833178 87.43820079747576 l -19.891524537526056 -14.848150867778871 a45.822174212170125,45.822174212170125 0 0,0 0.47725771292590463,-0.628015206690209 l 19.632990884376042 15.188350850350107" fill="red" stroke="none" /><path d="M 83.6137871275137 86.86637796730984 l -25.521000539739248 -20.455194717250073 a53.70682588497371,53.70682588497371 0 0,0 0.5843852714527203,-0.7163872443087408 l 25.165116776210137 20.891466131166897" fill="red" stroke="none" /><path d="M 84.07557802195018 86.31012108654704 l -30.763556527199146 -26.446759850061316 a61.56879979453413,61.56879979453413 0 0,0 0.6978035857545675,-0.7977101260641984 l 30.303761077866735 26.972385532328456" fill="red" stroke="none" /><path d="M 84.5562425177563 85.77008943001954 l -15.113308509297603 -13.925434192494526 a41.55066450377464,41.55066450377464 0 0,0 0.4891753361512058,-0.5218181418421424 l 14.871365851175941 14.18352175121472" fill="red" stroke="none" /><path d="M 86.37877921826538 84.01681056812374 l -22.02341732035717 -25.84235705514397 a54.95376751749587,54.95376751749587 0 0,0 0.7252391658654876,-0.6073669446504905 l 21.575320617532572 26.217625157188273" fill="red" stroke="none" /><path d="M 87.51073957382395 83.11751280151077 l -12.846397733891637 -17.365251254956068 a42.600506611769305,42.600506611769305 0 0,0 0.593272270681601,-0.43103753533649247 l 12.545580146856254 17.583808025109228" fill="red" stroke="none" /><path d="M 88.09926311788651 82.69761687909137 l -13.709183667622803 -19.931668974937264 a45.19117907335425,45.19117907335425 0 0,0 0.6447173859338268,-0.4353160569389238 l 13.364061587282437 20.164696944174853" fill="red" stroke="none" /><path d="M 88.70189139769569 82.29822771554957 l -13.55977355438011 -21.24532805777719 a46.20379779177418,46.20379779177418 0 0,0 0.6740932729078711,-0.4221171456534751 l 13.192061129099995 21.475589544753596" fill="red" stroke="none" /><line stroke="#e1ed5e" stroke-width="0.3" x1="56.762969772571076" x2="54.21961505331055" y1="26.818313649435495" y2="22.513508569990535" /><path d="M 56.25429882871897 25.957352633546506 a86.0,86.0 0 0,1 42.265352541879196,-11.944610805530505" fill="none" id="id84" stroke="none" /><text fill="#e1ed5e" style="font-size:6.75px; font-family:Arial;" text-anchor="middle"><textPath startOffset="22.20632615414155" xlink:href="#id84">December</textPath></text><path d="M 89.63071344664047 81.73862282372117 l -21.50017019498497 -37.86400494039812 a64.54239530089971,64.54239530089971 0 0,0 0.9708279956735153,-0.5402647284991461 l 20.845218110239408 38.22848506645745" fill="red" stroke="none" /><path d="M 90.58718382345135 81.22770947309562 l -18.790879000660986 -37.475271293957796 a62.92246524446313,62.92246524446313 0 0,0 0.972387996303149,-0.4771465667512514 l 18.14301973734741 37.79317302084388" fill="red" stroke="none" /><path d="M 91.23893434514133 80.91482961587045 l -8.790667040020265 -19.149654261054035 a42.07095359319088,42.07095359319088 0 0,0 0.6607501327708982,-0.2964593241702303 l 8.459734788782592 19.298133915740795" fill="red" stroke="none" /><path d="M 91.90106846888425 80.62456947434976 l -9.648646505493291 -23.082881898124693 a46.01830961737304,46.01830961737304 0 0,0 0.7334795487243295,-0.2992047244993282 l 9.249883087180581 23.245547508807597" fill="red" stroke="none" /><path d="M 92.23578459929587 80.48803036053334 l -7.836261361701697 -19.693025745084636 a42.19486388551399,42.19486388551399 0 0,0 0.6771609276173992,-0.26272791958933467 l 7.496117269084621 19.82499636856452" fill="red" stroke="none" /><path d="M 92.91201910852362 80.23233633223022 l -14.348010593673953 -40.015154112283014 a63.50973966782131,63.50973966782131 0 0,0 1.032238907899202,-0.3601278864237726 l 13.657089681711467 40.256202851878996" fill="red" stroke="none" /><path d="M 93.94186890950719 79.89281104454417 l -12.007734468057345 -39.854169919675414 a62.62379784500368,62.62379784500368 0 0,0 1.0348128788346287,-0.3020902557693552 l 11.319931371499296 40.05495850436346" fill="red" stroke="none" /><path d="M 94.63758080256005 79.69619591428918 l -11.313902209225876 -42.83798887089627 a65.3068580888214,65.3068580888214 0 0,0 1.0893529474487755,-0.2777003217598568 l 10.574840373092101 43.026392188824985" fill="red" stroke="none" /><path d="M 95.33964822691252 79.52364482259891 l -10.88878292545773 -47.84243711362163 a70.06591874782923,70.06591874782923 0 0,0 1.1782994759363865,-0.25753062718305064 l 10.063640725367824 48.02278123890055" fill="red" stroke="none" /><path d="M 96.75951476605007 79.25152402106235 l -9.72145570184976 -62.24542793681294 a84.0,84.0 0 0,0 1.430524078285405,-0.2108220633561242 l 8.648562643135705 62.403544484330034" fill="red" stroke="none" /><path d="M 98.91598698831166 79.02799685794201 l -1.115313895875742 -21.577569896745775 a42.60637516417974,42.60637516417974 0 0,0 0.7327468090096824,-0.03155361896981804 l 0.7437262544767356 21.593571242239786" fill="red" stroke="none" /><path d="M 99.63851952072746 79.00311137660856 l -0.5184209999705692 -30.112906838884264 a51.11736905210236,51.11736905210236 0 0,0 0.8799014792430975,-0.007573589826656302 l 7.376627921679342e-15 30.11736905210236" fill="red" stroke="none" /></svg>