<?xml version="1.0" encoding="utf-8" ?>
<svg baseProfile="full" height="200mm" version="1.1" viewBox="0,0,200,200" width="200mm" xmlns="http://www.w3.org/2000/svg" xmlns:ev="http://www.w3.org/2001/xml-events" xmlns:xlink="http://www.w3.org/1999/xlink"><defs /><rect fill="#1a1a1a" height="200" width="200" x="0" y="0" /><text alignment-baseline="middle" fill="#e1ed5e" style="dominant-baseline: central; font-size:9.0px; font-family:Arial;" text-anchor="middle" x="100.0" y="100.0">2024</text><line stroke="#e1ed5e" stroke-width="0.3" x1="100.0" x2="100.0" y1="15.0" y2="10.0" /><path d="M 100.0 14.0 a86.0,86.0 0 0,1 42.35913384403234,11.155469271406648" fill="none" id="id85" stroke="none" /><text fill="#e1ed5e" style="font-size:6.75px; font-family:Arial;" text-anchor="middle"><textPath startOffset="22.145653131862478" xlink:href="#id85">January</textPath></text><path d="M 100.0 79.0 l 0.0 -39.65967851142263 a60.65967851142263,60.65967851142263 0 0,0 1.0413040441416175,0.008938342840988016 l -0.6808111192927627 39.65383456677608" fill="#46ff2d" stroke="none" /><path d="M 101.80034050326958 79.07731436759882 l 4.396852209103522 -51.098087487412705 a72.28690723976229,72.28690723976229 0 0,0 1.2354191699951311,0.116995479859007 l -5.273370942483666 51.01508025204851" fill="#3dffaa" stroke="none" /><path d="M 102.15924093988457 79.11130261209362 l 1.1980449794847083 -11.589998397721386 a32.651754143992775,32.651754143992775 0 0,0 0.5570452980738106,0.06241808753447394 l -1.3968261791593155 11.56772454967994" fill="#ff4006" stroke="none" /><path d="M 102.87502721639298 79.19773525538626 l 2.9272703511177975 -21.180270042594064 a42.38159841512652,42.38159841512652 0 0,0 0.7198310542329944,0.1057903762285104 l -3.290426510958474 21.12689859306667" fill="#ffd113" stroke="none" /><path d="M 103.58742460773223 79.30868818359171 l 6.258202439706505 -36.09564861964614 a57.6341500112847,57.6341500112847 0 0,0 0.9733729128719444,0.177380969482996 l -6.876910086129503 35.98289947623178" fill="#68ff28" stroke="none" /><path d="M 104.29559338865022 79.4440306129975 l 10.642688523125052 -50.92911727976768 a73.02923991273165,73.02923991273165 0 0,0 1.2249353801429559,0.26696896484301125 l -11.515386319887142 50.73891685679095" fill="#3effb3" stroke="none" /><path d="M 105.3480935250658 79.69241777938227 l 6.400230054274658 -24.30271599568784 a46.13135391328335,46.13135391328335 0 0,0 0.7640639471954329,0.20824902644956952 l -6.816475402404784 24.18926647509413" fill="#f9ff18" stroke="none" /><path d="M 106.04205211174951 79.88797359093562 l 6.937663173659481 -23.093224352451205 a45.112821927426836,45.112821927426836 0 0,0 0.7397629908715977,0.22918046556614405 l -7.33306679740271 22.970727299078415" fill="#fff717" stroke="none" /><path d="M 107.06938296918511 80.22567764915836 l 8.062064922556589 -22.551030448761168 a44.94881761416356,44.94881761416356 0 0,0 0.7243413095691958,0.26598816204637676 l -8.44799538377991 22.40931143770607" fill="#fff517" stroke="none" /><path d="M 108.73861861582097 80.90454125486305 l 10.07721549190739 -22.020534497659217 a45.21681671138752,45.21681671138752 0 0,0 0.7030381418605507,0.32905734886755783 l -10.453742347639446 21.844300917221126" fill="#fff917" stroke="none" /><path d="M 109.71004243097381 81.37971332152246 l 11.553336089034143 -22.1550453151873 a45.98650851367957,45.98650851367957 0 0,0 0.6968295872371161,0.3710225061211732 l -11.931954492057818 21.953452341343553" fill="#fbff18" stroke="none" /><path d="M 110.34350942703115 81.72400993836675 l 6.806604964343664 -12.026618775704408 a34.819168944504355,34.819168944504355 0 0,0 0.5176574670150285,0.29886967792914654 l -7.012054899219089 11.90800220049909" fill="#ff6209" stroke="none" /><line stroke="#e1ed5e" stroke-width="0.3" x1="143.13028292997686" x2="145.6673583964461" y1="26.7553504044142" y2="22.446841604673864" /><path d="M 143.63769802327073 25.89364864446614 a86.0,86.0 0 0,1 29.32050498858742,28.57503671076993" fill="none" id="id86" stroke="none" /><text fill="#e1ed5e" style="font-size:6.75px; font-family:Arial;" text-anchor="middle"><textPath startOffset="20.669276256404974" xlink:href="#id86">February</textPath></text><path d="M 111.5731344415666 82.4767994020092 l 12.422182272637723 -18.808767229595073 a43.540637460190084,43.540637460190084 0 0,0 0.6201507753793153,0.417265118124956 l -12.74322933611404 18.592752437412997" fill="#ffe215" stroke="none" /><path d="M 111.8722381534696 82.67804972795209 l 17.609684872987334 -25.69305650149684 a52.14858188930963,52.14858188930963 0 0,0 0.7340655616574783,0.5124347724414249 l -18.048145525818573 25.38697691325029" fill="#aaff21" stroke="none" /><path d="M 112.7482090630111 83.31218511350987 l 8.986132748445309 -11.763136226451408 a35.80276851317802,35.80276851317802 0 0,0 0.48519580349416763,0.3772911914776456 l -9.186738496574703 11.607143983352971" fill="#ff710a" stroke="none" /><path d="M 115.6541949942343 86.00192230759917 l 17.840784044457283 -15.953339104287396 a44.93329488176141,44.93329488176141 0 0,0 0.5092203353212059,0.5793992653078782 l -18.11201544373708 15.64472756116822" fill="#fff517" stroke="none" /><path d="M 116.1254893667686 86.54754324733833 l 18.346752578435975 -15.305513525798338 a44.89272011435163,44.89272011435163 0 0,0 0.48858923691262424,0.5959994255347288 l -18.60678863458723 14.988311818565114" fill="#fff417" stroke="none" /><path d="M 116.57777611688842 87.10902102172516 l 24.63776920860574 -19.158478356826627 a52.21004589111518,52.21004589111518 0 0,0 0.544098347881498,0.7122422031684914 l -24.963019533841546 18.732715240417253" fill="#aaff21" stroke="none" /><path d="M 117.01052211995028 87.68569379921539 l 19.2373846131213 -13.92638291510187 a44.74912857035385,44.74912857035385 0 0,0 0.44511511010897553,0.6261101456606827 l -19.473614821760236 13.594095542731683" fill="#fff216" stroke="none" /><path d="M 117.42321728460499 88.27688183743584 l 19.899785589071108 -13.389463843540707 a44.98497880984026,44.98497880984026 0 0,0 0.4255912335802066,0.6443993713567149 l -20.12670126157204 13.045884593844933" fill="#fff617" stroke="none" /><path d="M 117.81537515405839 88.88188828441811 l 18.98592408216302 -11.848620820143594 a43.37979286305389,43.37979286305389 0 0,0 0.3888317481959831,0.63512743883781 l -19.186523794814406 11.52095626518123" fill="#ffe014" stroke="none" /><line stroke="#e1ed5e" stroke-width="0.3" x1="172.87174338648825" x2="177.1583165268699" y1="56.24261187166439" y2="53.66864786411523" /><path d="M 173.72905801456457 55.72781907015455 a86.0,86.0 0 0,1 12.242430191666344,42.057860355516425" fill="none" id="id87" stroke="none" /><text fill="#e1ed5e" style="font-size:6.75px; font-family:Arial;" text-anchor="middle"><textPath startOffset="22.145653131862474" xlink:href="#id87">March</textPath></text><path d="M 119.16976305983485 91.42560881287824 l 22.831424800356004 -10.212205909199813 a46.01125962334178,46.01125962334178 0 0,0 0.3163079493014842,0.7237744890943217 l -23.00336663167446 9.818769350329642" fill="#faff18" stroke="none" /><path d="M 119.71291397450082 92.76114493625339 l 23.460833930193363 -8.615143185577612 a45.992627329036786,45.992627329036786 0 0,0 0.26579321104210446,0.7434709163051291 l -23.60526731127941 8.211137312891566" fill="#fbff18" stroke="none" /><path d="M 119.94978838288452 93.4421083053983 l 23.512947416975397 -7.729172842438653 a45.75073350552951,45.75073350552951 0 0,0 0.23885212720369958,0.7482008865300874 l -23.642164259956353 7.324402922217178" fill="#feff18" stroke="none" /><path d="M 120.16314734710363 94.1308016681162 l 23.97771875508747 -6.979564474588518 a45.97289164179854,45.97289164179854 0 0,0 0.21406184135366213,0.75962995785569 l -24.093999088515712 6.566926592829814" fill="#fbff18" stroke="none" /><path d="M 120.26092885502905 94.47779374421319 l 24.505766162964562 -6.679155540017695 a46.39967901296487,46.39967901296487 0 0,0 0.20285612479400783,0.7702777473697074 l -24.6168117685633 6.257497288275189" fill="#f5ff19" stroke="none" /><path d="M 120.43855184770803 95.1765574152323 l 25.549989800796876 -6.029728023972703 a47.251849437018834,47.251849437018834 0 0,0 0.17953258839936184,0.7910537104732558 l -25.649733250753904 5.590239979560421" fill="#eaff1a" stroke="none" /><path d="M 120.592083275326 95.88100663000786 l 24.34872202764991 -4.870426331261217 a45.831055495649125,45.831055495649125 0 0,0 0.14769321209584788,0.7727932948964366 l -24.428741532027914 4.451730471331466" fill="#fdff18" stroke="none" /><path d="M 120.7213421655516 96.59031103205396 l 18.62398602960701 -3.064569813913973 a39.87443889961632,39.87443889961632 0 0,0 0.10534163676069658,0.6763688749950472 l -18.673849158505973 2.7444127569874848" fill="#ffae10" stroke="none" /><path d="M 120.77682067341334 96.94652285012252 l 26.79088601292128 -3.9373376490710195 a48.07866690071971,48.07866690071971 0 0,0 0.11299742134599632,0.8175930512571696 l -26.85452795082249 3.4768562896137643" fill="#dfff1b" stroke="none" /><path d="M 120.93736805541906 98.37931529534042 l 25.100429400965744 -1.9429319818449609 a46.175514707726265,46.175514707726265 0 0,0 0.05439044404920853,0.7908251194139052 l -25.130083806180018 1.5117634382767215" fill="#f8ff18" stroke="none" /><path d="M 120.98066250479742 99.09900007780936 l 24.68166743528149 -1.0599369983497402 a45.704416079444286,45.704416079444286 0 0,0 0.026933640695686198,0.7841435616751753 l -24.696225762974024 0.6360871721104449" fill="#feff18" stroke="none" /><line stroke="#e1ed5e" stroke-width="0.3" x1="184.99686870605535" x2="189.99668451229388" y1="99.2704041080226" y2="99.22748670261217" /><path d="M 185.99683186730306 99.26182062694052 a86.0,86.0 0 0,1 -10.086455211305974,41.156179273409016" fill="none" id="id88" stroke="none" /><text fill="#e1ed5e" style="font-size:6.75px; font-family:Arial;" text-anchor="middle"><textPath startOffset="21.40746469413373" xlink:href="#id88">April</textPath></text><path d="M 120.99922638620191 99.81974689727618 l 24.572783829918556 -0.21092779545512846 a45.57368909396394,45.57368909396394 0 0,0 0.0,0.7823617963579077 l -24.572783829918556 -0.2109277954551255" fill="#fffe18" stroke="none" /><path d="M 120.7213421655516 103.40968896794604 l 14.282811930124263 2.350231267854571 a35.47488527221205,35.47488527221205 0 0,0 -0.1040346325681537,0.6000441145253592 l -14.240362480063874 -2.595068415300518" fill="#ff6c09" stroke="none" /><path d="M 120.592083275326 104.11899336999214 l 20.030226385917352 4.006606256390488 a41.427013065175416,41.427013065175416 0 0,0 -0.1454725131969046,0.6961386372897534 l -19.958496161896086 -4.3498613449656505" fill="#ffc412" stroke="none" /><path d="M 120.43855184770803 104.8234425847677 l 24.245844339896955 5.721953246204311 a45.91187902801114,45.91187902801114 0 0,0 -0.18761009055610658,0.7655131915693165 l -24.144046722824555 -6.137322262381727" fill="#fcff18" stroke="none" /><path d="M 120.26092885502905 105.52220625578681 l 11.461225254377052 3.123807908885326 a32.87930385936755,32.87930385936755 0 0,0 -0.15309466242414524,0.5432789479421797 l -11.405912099878327 -3.320094780730514" fill="#ff4406" stroke="none" /><path d="M 120.05942366710727 106.21446072829308 l 23.942690197843355 7.417506625983832 a46.06535095418411,46.06535095418411 0 0,0 -0.24049465927059427,0.7533460948352856 l -23.811830822795507 -7.827421754510501" fill="#faff18" stroke="none" /><path d="M 119.4528033332814 107.91128576633889 l 17.322562513146107 7.0449353699218795 a39.700328510168774,39.700328510168774 0 0,0 -0.262162358465321,0.6290942234612265 l -17.1990743101443 -7.341262102824383" fill="#ffab0f" stroke="none" /><path d="M 118.8641267826498 109.22738970284198 l 18.40007958546778 9.000400964998642 a41.48341149033277,41.48341149033277 0 0,0 -0.3183952316326313,0.637003747775388 l -18.242864440623414 -9.314936568937776" fill="#ffc512" stroke="none" /><path d="M 118.5362547648365 109.86951160357373 l 27.326940505694875 14.550056623237358 a51.95909923013266,51.95909923013266 0 0,0 -0.4259524077269237,0.7837044541979991 l -27.073142748352613 -15.017015910909961" fill="#adff20" stroke="none" /><line stroke="#e1ed5e" stroke-width="0.3" x1="174.33088141563837" x2="178.70328620479359" y1="141.23008692659167" y2="143.65538615756765" /><path d="M 175.20536237346943 141.71514677278685 a86.0,86.0 0 0,1 -30.301960400862466,31.631185727798858" fill="none" id="id89" stroke="none" /><text fill="#e1ed5e" style="font-size:6.75px; font-family:Arial;" text-anchor="middle"><textPath startOffset="22.145653131862474" xlink:href="#id89">May</textPath></text><path d="M 117.62189284568427 111.42229804090321 l 10.457688769349847 6.778547514081309 a33.46242194748853,33.46242194748853 0 0,0 -0.3165793074042225,0.479341421014913 l -10.339785023024897 -6.957068813435283" fill="#ff4d07" stroke="none" /><path d="M 117.423217284605 111.72311816256416 l 10.515719742953701 7.075445544720463 a33.67447400757329,33.67447400757329 0 0,0 -0.326819210004246,0.4768389945066165 l -10.392710796134134 -7.254919274297123" fill="#ff5007" stroke="none" /><path d="M 116.79662413953412 112.60449989151573 l 19.927484214995076 14.953955660345793 a45.91436166211099,45.91436166211099 0 0,0 -0.47848891718058684,0.6263573522899825 l -19.667843320460186 -15.293833925876653" fill="#fcff18" stroke="none" /><path d="M 116.35404254752997 113.17365903436017 l 23.335323235515787 18.797284577671416 a50.964566040574766,50.964566040574766 0 0,0 -0.554672079747447,0.6766097488732724 l -23.009204336529713 -19.19509660824318" fill="#b9ff1f" stroke="none" /><path d="M 115.89218393027572 113.72728997021213 l 9.608617119415646 8.299694616526786 a33.696867868696245,33.696867868696245 0 0,0 -0.38188008247614974,0.4345094330980038 l -9.46472597298091 -8.463416327436082" fill="#ff5107" stroke="none" /><path d="M 115.6541949942343 113.99807769240083 l 9.890207103963164 8.843884178407265 a34.26764801765429,34.26764801765429 0 0,0 -0.3958766759916252,0.43513781430114457 l -9.736932727129657 -9.012359568266081" fill="#ff5908" stroke="none" /><path d="M 115.16444852881244 114.52719865689866 l 21.697578281351873 20.785789174457552 a51.04719512500941,51.04719512500941 0 0,0 -0.6116260979848829,0.6275822578508501 l -21.337565382216184 -21.15519412437614" fill="#b8ff1f" stroke="none" /><path d="M 114.65682725009322 115.03919595460226 l 17.59348893356052 18.05246954761374 a46.20758833412744,46.20758833412744 0 0,0 -0.5728146002467811,0.5487434294459413 l -17.281001847448426 -18.35182510736526" fill="#f8ff18" stroke="none" /><path d="M 114.13192950727249 115.5334660781643 l 16.86340018211862 18.535830833054153 a46.05895629059358,46.05895629059358 0 0,0 -0.5894120182521845,0.5270558612159681 l -16.54272313704306 -18.82258222415351" fill="#faff18" stroke="none" /><path d="M 113.59037401385872 116.0094264158162 l 16.538876768861172 19.482755247304354 a46.55605988414374,46.55605988414374 0 0,0 -0.6137101083917514,0.5119787997767783 l -16.201992326307526 -19.763796230993" fill="#f3ff19" stroke="none" /><path d="M 112.7482090630111 116.68781488649013 l 24.842305483193773 32.519375326219915 a61.9224866464378,61.9224866464378 0 0,0 -0.8502459020815868,0.6380403759422504 l -24.28040659220142 -32.94103472942618" fill="#38ff2e" stroke="none" /><path d="M 111.8722381534696 117.32195027204791 l 14.345112494636648 20.929947838555677 a46.3741003586027,46.3741003586027 0 0,0 -0.6605078834961979,0.4444191815465033 l -13.983708323043448 -21.1731166941593" fill="#f5ff19" stroke="none" /><path d="M 111.27062007382361 117.71928675628689 l 13.824923571305465 21.73507611286244 a46.759309877874465,46.759309877874465 0 0,0 -0.6809844892234013,0.4249846866704599 l -13.44977495329235 -21.96919659637445" fill="#f0ff19" stroke="none" /><line stroke="#e1ed5e" stroke-width="0.3" x1="143.1302829299769" x2="145.66735839644613" y1="173.24464959558577" y2="177.55315839532614" /><path d="M 143.63769802327073 174.10635135553383 a86.0,86.0 0 0,1 -40.68552437913181,11.842963189579606" fill="none" id="id90" stroke="none" /><text fill="#e1ed5e" style="font-size:6.75px; font-family:Arial;" text-anchor="middle"><textPath startOffset="21.407464694133747" xlink:href="#id90">June</textPath></text><path d="M 110.34350942703117 118.27599006163325 l 26.12141358169474 46.1540348933475 a74.0332271735587,74.0332271735587 0 0,0 -1.111400244572597,0.6164749808055225 l -25.325269148966047 -46.595642789586165" fill="#3fffbf" stroke="none" /><path d="M 109.71004243097381 118.62028667847754 l 5.809210056540383 11.139926256473476 a33.56363317200391,33.56363317200391 0 0,0 -0.5131604262819746,0.26202337007237436 l -5.617122408544826 -11.238007578218687" fill="#ff4f07" stroke="none" /><path d="M 109.06512990194946 118.94263497670748 l 10.90780152453372 22.79310996229424 a46.2686761792512,46.2686761792512 0 0,0 -0.7193926174642912,0.3367120692359931 l -10.514920193197922 -22.976998263100768" fill="#f7ff19" stroke="none" /><path d="M 108.4095320186766 119.2426549942271 l 9.989214571891901 22.857277817995787 a45.94473004488803,45.94473004488803 0 0,0 -0.7254124268403873,0.30963542932889954 l -9.595367069881084 -23.02538789698409" fill="#fbff18" stroke="none" /><path d="M 107.74402155503746 119.51999308798841 l 9.33819969552531 23.538363396255757 a46.323043358326856,46.323043358326856 0 0,0 -0.7416710506087799,0.28689429528430416 l -8.932756382423001 -23.6951975796781" fill="#f6ff19" stroke="none" /><path d="M 107.06938296918513 119.77432235084164 l 8.489705790929232 23.74721806774499 a46.21914888281465,46.21914888281465 0 0,0 -0.7493977816947699,0.26067944947744043 l -8.080802237189442 -23.88945594979102" fill="#f7ff18" stroke="none" /><path d="M 105.69591212413111 120.21278271476187 l 6.572591381513344 23.32380812277921 a45.232188981116934,45.232188981116934 0 0,0 -0.7491712668604387,0.2041899601994604 l -6.17123871371821 -23.433198577122813" fill="#fff917" stroke="none" /><path d="M 104.9986988182912 120.39639698878246 l 3.410775645437265 13.91712856342698 a35.32898663389924,35.32898663389924 0 0,0 -0.590276450037563,0.13930363496942022 l -3.1713670416598227 -13.973628342042625" fill="#ff6a09" stroke="none" /><path d="M 104.29559338865022 120.5559693870025 l 4.4045660820018995 21.07744317324937 a42.53273816987236,42.53273816987236 0 0,0 -0.7159748772876867,0.14321502750343884 l -4.042094719183254 -21.14994759741567" fill="#ffd413" stroke="none" /><path d="M 103.58742460773223 120.69131181640829 l 3.0886224916706895 17.81435376246944 a39.08012137322267,39.08012137322267 0 0,0 -0.6619846836129412,0.10892932777378987 l -2.7823603050046763 -17.8647490887389" fill="#ffa20f" stroke="none" /><path d="M 103.2317021107853 120.74984581791261 l 3.705993200072512 23.79513484460694 a45.082002156631646,45.082002156631646 0 0,0 -0.765696112295747,0.11253096031371901 l -3.2969719821690795 -23.855246878219546" fill="#fff717" stroke="none" /><path d="M 102.875027216393 120.80226474461374 l 1.047183543485891 7.576898466765188 a28.648920430323244,28.648920430323244 0 0,0 -0.4877440206060491,0.06314822844293164 l -0.9169617009890666 -7.593758291408514" fill="#ff0000" stroke="none" /><path d="M 102.51750503828377 120.84855314841334 l 2.1196517175707736 17.55375692118823 a38.681269904957745,38.681269904957745 0 0,0 -0.6599100136874201,0.07394429347424401 l -1.818005802282554 -17.587556975169445" fill="#ff9c0e" stroke="none" /><path d="M 101.80034050326958 120.92268563240118 l 1.33648597602098 15.53199290779535 a36.589387366150916,36.589387366150916 0 0,0 -0.6262552515035196,0.048476117181394815 l -1.0696617297422246 -15.552646791971798" fill="#ff7d0b" stroke="none" /><path d="M 101.44090949804482 120.95050786540614 l 1.495155008746606 21.739225685757035 a42.79058103668781,42.79058103668781 0 0,0 -0.7332586791231211,0.04411102129412108 l -1.1217519774910196 -21.761688684875846" fill="#ffd714" stroke="none" /><path d="M 100.72087961077811 120.9876233191556 l 0.8736222392874606 25.434558291378977 a46.44955738897109,46.44955738897109 0 0,0 -0.7971334309662896,0.02053132955474908 l -0.4368754942504272 -25.44580733828377" fill="#f4ff19" stroke="none" /><line stroke="#e1ed5e" stroke-width="0.3" x1="101.45913802915013" x2="101.54496967792366" y1="184.9874750549273" y2="189.98673829345242" /><path d="M 101.47630435890484 185.9873277026323 a86.0,86.0 0 0,1 -42.54439059252881,-10.42667462771756" fill="none" id="id91" stroke="none" /><text fill="#e1ed5e" style="font-size:6.75px; font-family:Arial;" text-anchor="middle"><textPath startOffset="22.145653131862474" xlink:href="#id91">July</textPath></text><path d="M 100.0 121.0 l 3.0662174465107653e-15 25.037565513955414 a46.037565513955414,46.037565513955414 0 0,0 -0.790296030716497,-0.00678374093345536 l 0.4298031058676418 -25.033876171216395" fill="#faff18" stroke="none" /><path d="M 99.27912038922189 120.98762331915562 l -1.087183868821482 31.652172119084934 a52.67083782631592,52.67083782631592 0 0,0 -0.9033656644099957,-0.038794408572991455 l 1.6303752938323166 -31.628845142086114" fill="#a4ff21" stroke="none" /><path d="M 98.55909050195518 120.95050786540614 l -1.1252493548368172 16.360878661040385 a37.399528550292146,37.399528550292146 0 0,0 -0.6401214353220839,-0.04954944750482721 l 1.4059397849341373 -16.3391514465405" fill="#ff890c" stroke="none" /><path d="M 98.19965949673042 120.92268563240118 l -2.8456712794113 33.071013779974976 a54.19321914888282,54.19321914888282 0 0,0 -0.9261890482907426,-0.08771106582825665 l 3.4129598910870578 -33.01729095864153" fill="#91ff24" stroke="none" /><path d="M 97.48249496171623 120.84855314841334 l -2.2059047277836092 18.268055578107216 a39.400757328786014,39.400757328786014 0 0,0 -0.6707925990161827,-0.08684753167833396 l 2.519175148690586 -18.227496450228482" fill="#ffa70f" stroke="none" /><path d="M 96.76829788921471 120.74984581791261 l -6.321550275223368 40.58888754112113 a62.07821551270156,62.07821551270156 0 0,0 -1.051553229913726,-0.1730326838193665 l 7.017381008190157 -40.4743888588061" fill="#36ff2f" stroke="none" /><path d="M 96.41257539226777 120.69131181640829 l -3.139035622504895 18.105123304352976 a39.37522882864809,39.37522882864809 0 0,0 -0.6650012392381224,-0.12118537814599278 l 3.4493715952940747 -18.048569752275615" fill="#ffa60f" stroke="none" /><path d="M 95.70440661134978 120.55596938700252 l -7.187647828100318 34.39549681526349 a56.13847581312536,56.13847581312536 0 0,0 -0.9416229073857303,-0.20522233003662527 l 7.777033152105186 -34.267043027093145" fill="#7aff26" stroke="none" /><path d="M 95.00130118170881 120.39639698878247 l -4.503077206976016 18.374091683326988 a39.91784738069564,39.91784738069564 0 0,0 -0.6641468847929638,-0.16882354098818272 l 4.817829384994359 -18.294082910503544" fill="#ffae10" stroke="none" /><path d="M 94.30408787586889 120.21278271476187 l -8.944182557781764 31.73974855329849 a53.9759008952529,53.9759008952529 0 0,0 -0.8896770317892598,-0.2589720176618669 l 9.48771960195263 -31.581532841334106" fill="#94ff23" stroke="none" /><path d="M 93.95794788825049 120.11202640906438 l -5.512001591712816 18.347660617451 a40.157735035233344,40.157735035233344 0 0,0 -0.6585091534305514,-0.20400781902453194 l 5.826151378015002 -18.25033621061982" fill="#ffb210" stroke="none" /><path d="M 93.27111125876986 119.89276391827306 l -8.406649331569364 24.852764985091017 a47.2360759334955,47.2360759334955 0 0,0 -0.7658862479332512,-0.26641499394629947 l 8.832041351547637 -24.704791558576126" fill="#eaff1a" stroke="none" /><path d="M 92.59220618246901 119.65005319985036 l -7.618116399715989 20.207958836922028 a42.596233417759606,42.596233417759606 0 0,0 -0.6820016756357561,-0.263812899200569 l 7.963890337845273 -20.074206049583417" fill="#ffd513" stroke="none" /><path d="M 91.92203290615298 119.3841803445677 l -13.989975560966592 33.57084847454155 a57.36923539885147,57.36923539885147 0 0,0 -0.9057917248833347,-0.38662862564736106 l 14.564202361020357 -33.32574519923478" fill="#6bff28" stroke="none" /><path d="M 91.26138138417905 119.09545874513695 l -8.961911146473348 19.58339322249822 a42.5366000451388,42.5366000451388 0 0,0 -0.6613657137272528,-0.3095525483369248 l 9.29676557407209 -19.42666444259077" fill="#ffd413" stroke="none" /><path d="M 90.93487009805054 118.94263497670748 l -15.43134374755658 32.24557341943881 a56.74777440629937,56.74777440629937 0 0,0 -0.8751040532699192,-0.428057244477656 l 15.982608050088569 -31.975922424863935" fill="#72ff27" stroke="none" /><line stroke="#e1ed5e" stroke-width="0.3" x1="58.13341422392154" x2="55.67067388415222" y1="173.97424548756322" y2="178.32567169271397" /><path d="M 57.64086615596768 174.84453072859336 a86.0,86.0 0 0,1 -31.369924170532247,-30.572349798747897" fill="none" id="id92" stroke="none" /><text fill="#e1ed5e" style="font-size:6.75px; font-family:Arial;" text-anchor="middle"><textPath startOffset="22.145653131862474" xlink:href="#id92">August</textPath></text><path d="M 89.65649057296885 118.27599006163327 l -10.467112720057562 18.49438523697215 a42.25094666098252,42.25094666098252 0 0,0 -0.6281458946470113,-0.36266020136481303 l 10.783051082564974 -18.311978138331163" fill="#ffd013" stroke="none" /><path d="M 89.34428304082925 118.09573695890944 l -16.823653633374732 28.570241871462215 a54.155603480703164,54.155603480703164 0 0,0 -0.7970344326071392,-0.47859627612127503 l 17.3116208225393 -28.27723159480502" fill="#91ff23" stroke="none" /><path d="M 88.4268655584334 117.5232005979908 l -10.087964098997778 15.274463407005802 a39.3050881460491,39.3050881460491 0 0,0 -0.5598237029122699,-0.3766743714574269 l 10.348684090007053 -15.099039361491254" fill="#ffa50f" stroke="none" /><path d="M 87.83215693770417 117.11559508785305 l -14.159033684854116 19.916454062114617 a45.4365172906688,45.4365172906688 0 0,0 -0.631825041492737,-0.45739260508294105 l 14.498839736720807 -19.67046068565861" fill="#fffc17" stroke="none" /><path d="M 87.2517909369889 116.68781488649013 l -10.73633467623675 14.054206732167055 a38.68585901647566,38.68585901647566 0 0,0 -0.5242671790158362,-0.4076733294043962 l 10.976011799887813 -13.867832351141866" fill="#ff9c0e" stroke="none" /><path d="M 86.68645165197938 116.24036423190432 l -19.847817788074405 24.21111049142065 a52.30676831256113,52.30676831256113 0 0,0 -0.689516950760207,-0.575219563844317 l 20.260509072996502 -23.866828743664463" fill="#a8ff21" stroke="none" /><path d="M 86.40962598614128 116.0094264158162 l -11.894451809690146 14.01163432364134 a39.37944178348421,39.37944178348421 0 0,0 -0.5115961806675348,-0.4419045960258064 l 12.133227470120543 -13.805385595150812" fill="#ffa60f" stroke="none" /><path d="M 85.86807049272751 115.53346607816431 l -26.227005657533155 28.828073512782712 a59.97324272136821,59.97324272136821 0 0,0 -0.7555778353254922,-0.6993515642551738 l 26.718013264172612 -28.37360420239516" fill="#4dff2c" stroke="none" /><path d="M 85.34317274990678 115.03919595460226 l -13.61937107801971 13.974674527154471 a40.51355417910074,40.51355417910074 0 0,0 -0.49389510543344345,-0.4896738051114286 l 13.857258103583115 -13.738820711814384" fill="#ffb711" stroke="none" /><path d="M 84.83555147118756 114.52719865689866 l -27.691325308344503 26.5276632422735 a59.347443388419386,59.347443388419386 0 0,0 -0.6984464007674207,-0.7417258737024558 l 28.142627542848178 -26.048395908626556" fill="#54ff2b" stroke="none" /><path d="M 84.58840730492382 114.26474011684316 l -14.423165399634186 13.349866568544739 a40.653158462271485,40.653158462271485 0 0,0 -0.4696452243326881,-0.5162223712755891 l 14.650208324808753 -13.100306621711475" fill="#ffb911" stroke="none" /><path d="M 84.1078160697243 113.72728997021213 l -24.098373704338385 20.815601247842395 a52.843694360157485,52.843694360157485 0 0,0 -0.5870819608853951,-0.691581073726401 l 24.452150228730893 -20.39885339166644" fill="#a2ff22" stroke="none" /><path d="M 83.64595745247003 113.17365903436017 l -15.314603517044226 12.336360529429156 a40.665270707425336,40.665270707425336 0 0,0 -0.4332469602047342,-0.5473933811571281 l 15.524116907890521 -12.071647204357348" fill="#ffb911" stroke="none" /><path d="M 83.20337586046588 112.60449989151573 l -32.728281817444845 24.559912824775623 a61.91857461694712,61.91857461694712 0 0,0 -0.6306789552768043,-0.8556371282334357 l 33.14506279230548 -23.99446938727331" fill="#38ff2e" stroke="none" /><path d="M 82.98947788004972 112.3143062007846 l -17.50218001248325 12.670228599402966 a42.606966421746876,42.606966421746876 0 0,0 -0.4238072372830415,-0.5961379540729861 l 17.71710234829625 -12.367913418620477" fill="#ffd513" stroke="none" /><path d="M 82.576782715395 111.72311816256416 l -27.33229929944089 18.390390770425352 a53.9433006494972,53.9433006494972 0 0,0 -0.5103435963336564,-0.7727252506749693 l 27.643967334695272 -17.91848564141132" fill="#94ff23" stroke="none" /><line stroke="#e1ed5e" stroke-width="0.3" x1="26.387840678322732" x2="22.057713659400548" y1="142.50000000000003" y2="145.00000000000006" /><path d="M 25.521815274538298 143.00000000000003 a86.0,86.0 0 0,1 -11.493303480769221,-40.785679425670985" fill="none" id="id93" stroke="none" /><text fill="#e1ed5e" style="font-size:6.75px; font-family:Arial;" text-anchor="middle"><textPath startOffset="21.40746469413373" xlink:href="#id93">September</textPath></text><path d="M 81.63589988554817 110.18625677009913 l -17.847310530174017 9.899602299215262 a41.40903277578554,41.40903277578554 0 0,0 -0.33946464572774837,-0.6245767134391655 l 18.014620525517095 -9.59177075230151" fill="#ffc412" stroke="none" /><path d="M 81.29705330413844 109.54985784667822 l -20.974122648163515 10.709536470692965 a44.55011660857136,44.55011660857136 0 0,0 -0.341932936256989,-0.6840949243073512 l 21.154875497632244 -10.347909690221861" fill="#fff016" stroke="none" /><path d="M 80.83023694016515 108.57439118712176 l -21.782168265546467 9.742886807183842 a44.861825112220075,44.861825112220075 0 0,0 -0.30840607319451957,-0.7056934501737431 l 21.946208220757956 -9.36753128723425" fill="#fff417" stroke="none" /><path d="M 80.68587082218212 108.24405325689762 l -25.75872239392575 10.994866881653389 a49.00712189984202,49.00712189984202 0 0,0 -0.32362005910276653,-0.7765703321007454 l 25.943668297565 -10.551064040111362" fill="#d2ff1c" stroke="none" /><path d="M 80.41425534168474 107.57618678355246 l -20.21680727391856 7.820295360036834 a42.67663063921559,42.67663063921559 0 0,0 -0.25843609216633034,-0.6855324385259925 l 20.348074049899324 -7.472094641316697" fill="#ffd614" stroke="none" /><path d="M 80.16572619554312 106.89939002012753 l -33.43144173179801 11.62919084998273 a56.39631867994082,56.39631867994082 0 0,0 -0.31021890367541854,-0.9171070664295881 l 33.626146057045794 -11.053582109078981" fill="#77ff27" stroke="none" /><path d="M 79.94057633289273 106.21446072829308 l -22.80327386694335 7.064512534076567 a44.872507961983096,44.872507961983096 0 0,0 -0.22163531697539593,-0.7377518872308869 l 22.921185503922374 -6.672023043254955" fill="#fff417" stroke="none" /><path d="M 79.83685265289637 105.86919833188381 l -36.59833108258719 10.653240788348832 a59.11731073049628,59.11731073049628 0 0,0 -0.2752657041773253,-0.9768208754117436 l 36.77581527883909 -10.023411989034093" fill="#57ff2a" stroke="none" /><path d="M 79.64726062577567 105.17358676015961 l -26.744619037192866 6.798377575235218 a48.59515510193846,48.59515510193846 0 0,0 -0.19857478374389034,-0.8102528814861782 l 26.85738134745305 -6.33826886914094" fill="#d8ff1c" stroke="none" /><path d="M 79.48165901384964 104.47187691870673 l -30.142580460217577 6.569435117648729 a51.850164255084394,51.850164255084394 0 0,0 -0.18207380030011966,-0.8712890458937436 l 30.250911971342063 -6.051029620469577" fill="#aeff20" stroke="none" /><path d="M 79.34024301695615 103.76489593502545 l -23.358768435763313 4.256745730512911 a44.74346114301477,44.74346114301477 0 0,0 -0.13121591526293747,-0.7568185299640756 l 23.42839916851848 -3.8551341676282425" fill="#fff216" stroke="none" /><path d="M 79.17382384314188 102.69636545807758 l -41.58900959357621 5.384529932867598 a62.936128595430944,62.936128595430944 0 0,0 -0.12952229413277128,-1.0726303987746093 l 41.675313973968635 -4.669805857169589" fill="#30ff33" stroke="none" /><path d="M 79.0935383218832 101.97986365728391 l -29.996144045261513 2.8406660279596423 a51.130350828798555,51.130350828798555 0 0,0 -0.07525018639579666,-0.8745212313334675 l 30.040487854355053 -2.3253237492505128" fill="#b7ff1f" stroke="none" /><path d="M 79.03789590574601 101.26102812881392 l -37.57026679761413 2.2601339553419053 a58.63818742633598,58.63818742633598 0 0,0 -0.05182055027525626,-1.0053048313687085 l 37.603528937345956 -1.6148573305964662" fill="#5cff2a" stroke="none" /><path d="M 79.01933749520258 100.90099992219065 l -25.102725300187064 1.078019034769282 a46.12586202572912,46.12586202572912 0 0,0 -0.02718199905279021,-0.7913742442595217 l 25.117531986236703 -0.6469385259456404" fill="#f9ff18" stroke="none" /><line stroke="#e1ed5e" stroke-width="0.3" x1="15.003131293944662" x2="10.003315487706104" y1="100.72959589197737" y2="100.7725132973878" /><path d="M 14.003168132696942 100.73817937305945 a86.0,86.0 0 0,1 10.791469493833604,-42.45332614584628" fill="none" id="id94" stroke="none" /><text fill="#e1ed5e" style="font-size:6.75px; font-family:Arial;" text-anchor="middle"><textPath startOffset="22.145653131862435" xlink:href="#id94">October</textPath></text><path d="M 79.00077361379809 100.18025310272382 l -53.21274987044097 0.45676745858200424 a74.21471023396947,74.21471023396947 0 0,0 0.0,-1.274041122611624 l 53.21274987044097 0.4567674585819847" fill="#3fffc1" stroke="none" /><path d="M 79.00696218219943 99.45929381324524 l -32.286706907613514 -0.8315910411060907 a53.29741454974045,53.29741454974045 0 0,0 0.031408199395793056,-0.9144154560571247 l 32.26767402122087 1.3857127617273541" fill="#9cff22" stroke="none" /><path d="M 79.03789590574601 98.7389718711861 l -32.30373893073015 -1.943312716812527 a53.36213857612157,53.36213857612157 0 0,0 0.06285561581591395,-0.9139068590519186 l 32.26561935374917 2.4975630000187707" fill="#9bff22" stroke="none" /><path d="M 79.06263194458094 98.37931529534042 l -25.10525484878288 -1.943305502024283 a46.18035459036537,46.18035459036537 0 0,0 0.06796511728199248,-0.78985768540891 l 25.068196108803146 2.3739842348088738" fill="#f8ff18" stroke="none" /><path d="M 79.13060592940154 97.66154086499901 l -25.71249545915148 -2.8811387473311556 a46.873410738019416,46.873410738019416 0 0,0 0.09646528676146952,-0.7988709565381927 l 25.65924808613034 3.3221033807927847" fill="#efff19" stroke="none" /><path d="M 79.2786578344484 96.59031103205396 l -31.73092154326352 -5.221311064912228 a53.15763472678486,53.15763472678486 0 0,0 0.15589155411096137,-0.89914105754363 l 31.636615171660324 5.7652451553764505" fill="#9eff22" stroke="none" /><path d="M 79.407916724674 95.88100663000787 l -38.47024212011393 -7.695125845990088 a60.232314366677535,60.232314366677535 0 0,0 0.21150803541643715,-1.0121425162383813 l 38.33247637387313 8.354384813513878" fill="#4aff2c" stroke="none" /><path d="M 79.56144815229197 95.17655741523228 l -29.304954414328584 -6.9158894485276425 a51.10996313664519,51.10996313664519 0 0,0 0.20885106459125438,-0.8521836141328636 l 29.181915823221033 7.417928887268624" fill="#b7ff1f" stroke="none" /><path d="M 79.73907114497095 94.47779374421319 l -24.269409587943063 -6.614735504464582 a46.15470070466685,46.15470070466685 0 0,0 0.2149083920356512,-0.7626340675784482 l 24.152282703832828 7.030377495946043" fill="#f8ff18" stroke="none" /><path d="M 79.94057633289273 93.78553927170692 l -50.59212596633525 -15.673569948781399 a73.9643654236778,73.9643654236778 0 0,0 0.3861478202657013,-1.2096025471360325 l 50.315613430292295 16.539741529608822" fill="#3fffbe" stroke="none" /><path d="M 80.05021161711548 93.44210830539832 l -23.973612841679977 -7.880602717517027 a46.23564962258946,46.23564962258946 0 0,0 0.25432817021339355,-0.7518760440816029 l 23.834799249894218 8.290980436072791" fill="#f7ff18" stroke="none" /><path d="M 80.28708602549916 92.7611449362534 l -23.555018032990397 -8.64972889271043 a46.09296085462798,46.09296085462798 0 0,0 0.279124300611953,-0.7404103693350292 l 23.403063048564007 9.052807542239602" fill="#f9ff18" stroke="none" /><path d="M 80.5471966667186 92.08871423366112 l -24.67250195629916 -10.034091755448374 a47.634852170424054,47.634852170424054 0 0,0 0.3145582331125356,-0.7548252485661133 l 24.496617878650145 10.45614951345575" fill="#e5ff1a" stroke="none" /><path d="M 80.83023694016515 91.42560881287825 l -48.5891664667309 -21.733316131321963 a74.22822679740202,74.22822679740202 0 0,0 0.5302565317082487,-1.1587062178503122 l 48.20892547016761 22.564211331386947" fill="#3fffc1" stroke="none" /><path d="M 81.1358732173502 90.77261029715801 l -24.266942698500927 -11.870177705842911 a48.01454472502947,48.01454472502947 0 0,0 0.36852326123232615,-0.7372933864105661 l 24.059599524056853 12.285002948417247" fill="#e0ff1b" stroke="none" /><path d="M 81.46374523516351 90.13048839642627 l -22.195840133022735 -11.818034685167301 a46.145998946761296,46.145998946761296 0 0,0 0.37829753882524236,-0.6960248628986635 l 21.989697244582143 12.197314381540584" fill="#f8ff18" stroke="none" /><path d="M 81.63589988554816 89.8137432299009 l -42.02515092628059 -23.3106428014069 a69.05725104696944,69.05725104696944 0 0,0 0.5839173185373765,-1.031725951978721 l 41.618800242721846 24.028625523484727" fill="#38ff83" stroke="none" /><line stroke="#e1ed5e" stroke-width="0.3" x1="26.387840678322718" x2="22.05771365940052" y1="57.49999999999999" y2="54.99999999999999" /><path d="M 25.521815274538284 56.99999999999999 a86.0,86.0 0 0,1 29.574782752854787,-30.34633250058573" fill="none" id="id95" stroke="none" /><text fill="#e1ed5e" style="font-size:6.75px; font-family:Arial;" text-anchor="middle"><textPath startOffset="21.40746469413373" xlink:href="#id95">November</textPath></text><path d="M 81.99639281039701 89.18935116829357 l -27.37210805234801 -16.43616442089145 a52.92772776287083,52.92772776287083 0 0,0 0.4744139968359993,-0.7749196102355882 l 27.08592609105662 16.90362114725158" fill="#a1ff22" stroke="none" /><path d="M 82.37810715431573 88.57770195909679 l -23.175917051337702 -15.022349429190998 a48.618727587331044,48.618727587331044 0 0,0 0.45996918963682026,-0.6964519784676655 l 22.914623422780156 15.417981285997724" fill="#d8ff1c" stroke="none" /><path d="M 84.10781606972428 86.27271002978789 l -13.340262995897538 -11.523001446938265 a38.62788073325476,38.62788073325476 0 0,0 0.43776229701150876,-0.49809313508261055 l 13.140489634927437 11.750306859832175" fill="#ff9b0e" stroke="none" /><path d="M 85.08716467003674 85.21462403516908 l -23.240079720522303 -23.041447754081226 a53.72628332121273,53.72628332121273 0 0,0 0.6549696491245972,-0.64937165157341 l 22.84111815126773 23.43699941588331" fill="#97ff23" stroke="none" /><path d="M 85.60350026404147 84.71141617570332 l -20.94405787358582 -22.241863667836768 a51.550843844822836,51.550843844822836 0 0,0 0.6494675497611173,-0.6011374680713659 l 20.559160552510747 22.5981188820405" fill="#b2ff20" stroke="none" /><path d="M 86.40962598614128 83.9905735841838 l -7.800820187239487 -9.189346565684765 a33.053915791057506,33.053915791057506 0 0,0 0.43572248797217544,-0.3634951964736849 l 7.641923365105403 9.321903946070332" fill="#ff4706" stroke="none" /><path d="M 86.96720088162412 83.53348406188908 l -29.22075088312232 -36.91946417420605 a68.08395817137699,68.08395817137699 0 0,0 0.9226674964497079,-0.7174718259437542 l 28.58267344203737 37.41563705177061" fill="#37ff76" stroke="none" /><path d="M 88.4268655584334 82.4767994020092 l -13.946850282717465 -21.117308923365492 a46.30721970057928,46.30721970057928 0 0,0 0.667076156650273,-0.43239070535522744 l 13.582288493810166 21.353613470424627" fill="#f6ff19" stroke="none" /><line stroke="#e1ed5e" stroke-width="0.3" x1="56.869717070023135" x2="54.33264160355391" y1="26.7553504044142" y2="22.446841604673864" /><path d="M 56.362301976729285 25.89364864446614 a86.0,86.0 0 0,1 42.16139366436587,-11.88097634709845" fill="none" id="id96" stroke="none" /><text fill="#e1ed5e" style="font-size:6.75px; font-family:Arial;" text-anchor="middle"><textPath startOffset="22.145653131862474" xlink:href="#id96">December</textPath></text><path d="M 89.34428304082924 81.90426304109057 l -19.814892138935274 -33.650018801103656 a60.05065576648193,60.05065576648193 0 0,0 0.892774620962761,-0.5154436677385134 l 19.234325050112112 33.98520936611835" fill="#4cff2c" stroke="none" /><path d="M 89.97174638481275 81.54914285379989 l -12.010464040707024 -22.097901068143326 a46.15091406073677,46.15091406073677 0 0,0 0.6993208102761743,-0.37234894207077357 l 11.629354414644288 22.300820477936675" fill="#f8ff18" stroke="none" /><path d="M 90.61103034731259 81.2157712731953 l -13.325585820813952 -26.660098097685136 a50.8049000677082,50.8049000677082 0 0,0 0.7834593416282346,-0.3832292236386403 l 12.865966229923664 26.88492107142099" fill="#bbff1f" stroke="none" /><path d="M 91.26138138417902 80.90454125486306 l -26.215855847462933 -57.286376235410835 a84.0,84.0 0 0,0 1.3163463885775248,-0.5887849963606175 l 25.22859605602979 57.7279649826813" fill="#4dd2ff" stroke="none" /><path d="M 92.25597844496254 80.48000691201159 l -9.25118987985242 -23.31904182174165 a46.08709281039196,46.08709281039196 0 0,0 0.7378932830423246,-0.2854329736339088 l 8.849524334316566 23.474414683513597" fill="#f9ff18" stroke="none" /><path d="M 92.93061703081487 80.22567764915836 l -8.473649314397964 -23.702305245207 a46.17145221556286,46.17145221556286 0 0,0 0.7486244274142405,-0.2604104367140908 l 8.06551911493872 23.84427411448968" fill="#f8ff18" stroke="none" /><path d="M 93.95794788825049 79.88797359093562 l -8.334377751816712 -27.74243292633913 a49.967299445795824,49.967299445795824 0 0,0 0.8236038291186399,-0.23973907132562366 l 7.856913910316448 27.881415691967277" fill="#c6ff1e" stroke="none" /><path d="M 94.6519064749342 79.69241777938228 l -3.9448573768690203 -14.979266004588474 a36.49000677082027,36.49000677082027 0 0,0 0.6071150102807008,-0.1543262615085755 l 3.6871370733629414 15.044777497932312" fill="#ff7b0b" stroke="none" /><path d="M 95.00130118170881 79.60360301121753 l -7.587577081312615 -30.9599037587834 a52.876119066128346,52.876119066128346 0 0,0 0.8834538102535594,-0.2084926936998294 l 7.054991117319149 31.085592596129462" fill="#a1ff22" stroke="none" /><path d="M 96.05791012581881 79.37332000966035 l -7.497345906428381 -39.22928185925812 a60.939288311558045,60.939288311558045 0 0,0 1.0291928060108961,-0.18755321347139273 l 6.822818366866447 39.35220324666088" fill="#42ff2d" stroke="none" /><path d="M 96.41257539226777 79.30868818359171 l -2.5786993280525783 -14.873252461527715 a36.0951425633824,36.0951425633824 0 0,0 0.611421630490557,-0.1006091966240043 l 2.3230001945089485 14.915327656647388" fill="#ff750a" stroke="none" /><path d="M 97.12497278360702 79.19773525538626 l -3.4153558798874872 -24.711813789237315 a45.94671113674549,45.94671113674549 0 0,0 0.7822365829792266,-0.10127618658864274 l 2.990641475017467 24.766801572026353" fill="#fbff18" stroke="none" /><path d="M 97.84075906011542 79.11130261209362 l -2.08527541780713 -20.173148057919658 a41.280637961732324,41.280637961732324 0 0,0 0.7055066184862301,-0.06681221028311207 l 1.7386692359358844 20.20597202370795" fill="#ffc212" stroke="none" /><path d="M 98.5590905019552 79.04949213459386 l -1.5116268819289957 -21.978723106749843 a43.030644231010356,43.030644231010356 0 0,0 0.7373723979955634,-0.04435849240621963 l 1.1341101318009486 22.00143357698076" fill="#ffdb14" stroke="none" /><path d="M 99.27912038922189 79.0123766808444 l -0.8742291294337095 -25.45222723581169 a46.46723675301553,46.46723675301553 0 0,0 0.7974368313194948,-0.020539144071612506 l 0.43717898404347066 25.463484097233348" fill="#f4ff19" stroke="none" /></svg>