<?xml version="1.0" encoding="utf-8" ?>
<svg baseProfile="full" height="200mm" version="1.1" viewBox="0,0,200,200" width="200mm" xmlns="http://www.w3.org/2000/svg" xmlns:ev="http://www.w3.org/2001/xml-events" xmlns:xlink="http://www.w3.org/1999/xlink"><defs /><rect fill="#1a1a1a" height="200" width="200" x="0" y="0" /><text alignment-baseline="middle" fill="#e1ed5e" style="dominant-baseline: central; font-size:9.0px; font-family:Arial;" text-anchor="middle" x="100.0" y="100.0">2024</text><line stroke="#e1ed5e" stroke-width="0.3" x1="100.0" x2="100.0" y1="15.0" y2="10.0" /><path d="M 100.0 14.0 a86.0,86.0 0 0,1 42.35913384403234,11.155469271406648" fill="none" id="id85" stroke="none" /><text fill="#e1ed5e" style="font-size:6.75px; font-family:Arial;" text-anchor="middle"><textPath startOffset="22.145653131862478" xlink:href="#id85">January</textPath></text><path d="M 100.0 79.0 l 0.0 -34.242796599543595 a55.242796599543595,55.242796599543595 0 0,0 0.9483160629999924,0.008140152859674416 l -0.5878231381511376 34.237750844878356" fill="#84ff25" stroke="none" /><path d="M 101.80034050326958 79.07731436759882 l 4.3634840246132995 -50.710298603618234 a71.89768538255134,71.89768538255134 0 0,0 1.228767175019269,0.11636552901873977 l -5.233350763017582 50.62792131909431" fill="#3cffa6" stroke="none" /><path d="M 102.15924093988457 79.11130261209362 l 1.304006533196367 -12.615080309309054 a33.68229806655465,33.68229806655465 0 0,0 0.574626578515592,0.06438810667901726 l -1.5203690133127556 12.590836442123067" fill="#ff5007" stroke="none" /><path d="M 102.87502721639298 79.19773525538626 l 3.100269730679046 -22.432007373554725 a43.64523409484164,43.64523409484164 0 0,0 0.7412932981669352,0.10894458699383915 l -3.484888134453663 22.375481713262005" fill="#ffe315" stroke="none" /><path d="M 103.58742460773223 79.30868818359171 l 6.451154328379492 -37.20854383854288 a58.763648218271186,58.763648218271186 0 0,0 0.9924488072783476,0.18085723289531905 l -7.088937869208894 37.092318431716194" fill="#5bff2a" stroke="none" /><path d="M 104.29559338865022 79.4440306129975 l 10.89148317445923 -52.11968975107934 a74.24553000476466,74.24553000476466 0 0,0 1.2453364793195176,0.27141528945500076 l -11.784582070397882 51.92504300349062" fill="#3fffc2" stroke="none" /><path d="M 105.3480935250658 79.69241777938227 l 6.395357218686623 -24.2842130452649 a46.112220076735966,46.112220076735966 0 0,0 0.7637470374705446,0.20816265129481626 l -6.811285657091861 24.17084989982594" fill="#f9ff18" stroke="none" /><path d="M 106.04205211174951 79.88797359093562 l 10.751358771861511 -35.78777666159417 a58.367856157684884,58.367856157684884 0 0,0 0.9571199051000043,0.2965181932053644 l -11.364119309833146 35.59794188058216" fill="#60ff29" stroke="none" /><path d="M 107.06938296918511 80.22567764915836 l 12.505901628914296 -34.98123261619996 a58.149484665345945,58.149484665345945 0 0,0 0.9370674493559613,0.34410414714013743 l -13.104558229924383 34.761397620051106" fill="#62ff29" stroke="none" /><path d="M 108.73861861582097 80.90454125486305 l 17.41507471154209 -38.05508116530704 a62.85061564310254,62.85061564310254 0 0,0 0.977211207028434,0.4573841871757573 l -18.06577463244203 37.750520746560746" fill="#30ff32" stroke="none" /><path d="M 109.71004243097381 81.37971332152246 l 11.626536773838415 -22.29541728017157 a46.14482032249167,46.14482032249167 0 0,0 0.6992284723874528,0.372299777345984 l -12.007554062012428 22.092547035103014" fill="#f9ff18" stroke="none" /><path d="M 110.34350942703115 81.72400993836675 l 7.473237654253586 -13.204494863264616 a36.172605762720366,36.172605762720366 0 0,0 0.5377790464875092,0.31048687725410373 l -7.698809168601493 13.07426108873434" fill="#ff760a" stroke="none" /><line stroke="#e1ed5e" stroke-width="0.3" x1="143.13028292997686" x2="145.6673583964461" y1="26.7553504044142" y2="22.446841604673864" /><path d="M 143.63769802327073 25.89364864446614 a86.0,86.0 0 0,1 29.32050498858742,28.57503671076993" fill="none" id="id86" stroke="none" /><text fill="#e1ed5e" style="font-size:6.75px; font-family:Arial;" text-anchor="middle"><textPath startOffset="20.669276256404974" xlink:href="#id86">February</textPath></text><path d="M 111.5731344415666 82.4767994020092 l 12.462909923496612 -18.870434083936793 a43.614539709607044,43.614539709607044 0 0,0 0.6212033676230578,0.4179733491622453 l -12.78500957921667 18.65371106071743" fill="#ffe315" stroke="none" /><path d="M 111.8722381534696 82.67804972795209 l 9.393820522498297 -13.705864880052527 a37.61609449055847,37.61609449055847 0 0,0 0.5295001039181303,0.36963219558528343 l -9.627715717590188 13.542587868662116" fill="#ff8c0c" stroke="none" /><path d="M 112.7482090630111 83.31218511350987 l 9.201237283056317 -12.04471496720554 a36.157108107430346,36.157108107430346 0 0,0 0.48999778086303436,0.3810252381241768 l -9.406645008554577 11.884988677460573" fill="#ff760a" stroke="none" /><path d="M 115.6541949942343 86.00192230759917 l 18.763566459544855 -16.778496830017446 a46.171201444441664,46.171201444441664 0 0,0 0.5232492908341083,0.5953616414217178 l -19.048826814337552 16.453922910784428" fill="#f8ff18" stroke="none" /><path d="M 116.1254893667686 86.54754324733833 l 19.29375442049114 -16.09553614372841 a46.125987411289714,46.125987411289714 0 0,0 0.5020114827909185,0.6123723830795955 l -19.567212722520686 15.761961478950319" fill="#f9ff18" stroke="none" /><path d="M 116.57777611688842 87.10902102172516 l 24.753320336889836 -19.24833161308509 a52.35642099455827,52.35642099455827 0 0,0 0.5456237717840257,0.7142390320236651 l -25.080096086028167 18.82057166782054" fill="#a8ff21" stroke="none" /><path d="M 117.01052211995028 87.68569379921539 l 20.357752777997167 -14.737443066142836 a46.13225668931966,46.13225668931966 0 0,0 0.45887294729233813,0.6454622666002352 l -20.607740823819466 14.385803572833096" fill="#f9ff18" stroke="none" /><path d="M 117.42321728460499 88.27688183743584 l 20.835447875012253 -14.019019186802995 a46.11272161897836,46.11272161897836 0 0,0 0.4362605162163319,0.6605540251208661 l -21.07303283014931 13.65928528334307" fill="#f9ff18" stroke="none" /><path d="M 117.81537515405839 88.88188828441811 l 35.66906513890294 -22.260134719326988 a63.04516387892771,63.04516387892771 0 0,0 0.5651009299130145,0.9230499000292938 l -36.04593403327135 21.64454770317314" fill="#30ff34" stroke="none" /><line stroke="#e1ed5e" stroke-width="0.3" x1="172.87174338648825" x2="177.1583165268699" y1="56.24261187166439" y2="53.66864786411523" /><path d="M 173.72905801456457 55.72781907015455 a86.0,86.0 0 0,1 12.242430191666344,42.057860355516425" fill="none" id="id87" stroke="none" /><text fill="#e1ed5e" style="font-size:6.75px; font-family:Arial;" text-anchor="middle"><textPath startOffset="22.145653131862474" xlink:href="#id87">March</textPath></text><path d="M 119.16976305983485 91.42560881287824 l 23.070091975325987 -10.318958700839977 a46.27271359430248,46.27271359430248 0 0,0 0.31810533476904823,0.7278872587903238 l -23.243831192112005 9.921409372273802" fill="#f7ff19" stroke="none" /><path d="M 119.71291397450082 92.76114493625339 l 23.589574959485272 -8.662418674782668 a46.1297740552198,46.1297740552198 0 0,0 0.26658578739299016,0.7456878934187449 l -23.734800916922207 8.256195824983006" fill="#f9ff18" stroke="none" /><path d="M 119.94978838288452 93.4421083053983 l 23.99452943902654 -7.887478418521263 a46.25766732703062,46.25766732703062 0 0,0 0.24149869070857552,0.756491209014499 l -24.126392845512374 7.4744181758153765" fill="#f7ff18" stroke="none" /><path d="M 120.16314734710363 94.1308016681162 l 24.147611613342267 -7.029017809581443 a46.14983574491562,46.14983574491562 0 0,0 0.2148857395070573,0.7625536817458669 l -24.264715844923906 6.6134562039325635" fill="#f9ff18" stroke="none" /><path d="M 120.26092885502905 94.47779374421319 l 24.233262927785205 -6.6048835715014995 a46.11723549915992,46.11723549915992 0 0,0 0.20162130166801887,0.7655889228303809 l -24.343073710257954 6.18791414429832" fill="#f9ff18" stroke="none" /><path d="M 120.43855184770803 95.1765574152323 l 24.53357445253215 -5.789856769337735 a46.20751310279108,46.20751310279108 0 0,0 0.1755646504778353,0.7735702438573294 l -24.629349964567652 5.367852191541379" fill="#f8ff18" stroke="none" /><path d="M 120.592083275326 95.88100663000786 l 24.639179097005016 -4.928525879856894 a46.12726634400782,46.12726634400782 0 0,0 0.1486477685898803,0.7777879378303947 l -24.720153157877053 4.504835376993185" fill="#f9ff18" stroke="none" /><path d="M 120.7213421655516 96.59031103205396 l 18.61765147514444 -3.0635274653877382 a39.86801915891366,39.86801915891366 0 0,0 0.1053246768733136,0.6762599803518461 l -18.66749764415602 2.743479303104451" fill="#ffad10" stroke="none" /><path d="M 120.77682067341334 96.94652285012252 l 27.423159417976667 -4.030260066083664 a48.717732025979885,48.717732025979885 0 0,0 0.11449939126075438,0.8284605573548831 l -27.488303325792632 3.5589112005286956" fill="#d6ff1c" stroke="none" /><path d="M 120.93736805541906 98.37931529534042 l 25.899903594754598 -2.0048163406723964 a46.977380444867975,46.977380444867975 0 0,0 0.05533496700227235,0.8045582758571599 l -25.930502522921934 1.5599146406609024" fill="#edff19" stroke="none" /><path d="M 120.98066250479742 99.09900007780936 l 25.224387622689825 -1.083243738378297 a46.24763648218271,46.24763648218271 0 0,0 0.02725376081538078,0.7934635096783949 l -25.239266070502055 0.6500739641357821" fill="#f7ff18" stroke="none" /><line stroke="#e1ed5e" stroke-width="0.3" x1="184.99686870605535" x2="189.99668451229388" y1="99.2704041080226" y2="99.22748670261217" /><path d="M 185.99683186730306 99.26182062694052 a86.0,86.0 0 0,1 -10.086455211305974,41.156179273409016" fill="none" id="id88" stroke="none" /><text fill="#e1ed5e" style="font-size:6.75px; font-family:Arial;" text-anchor="middle"><textPath startOffset="21.40746469413373" xlink:href="#id88">April</textPath></text><path d="M 120.99922638620191 99.81974689727618 l 25.111294973881105 -0.21555026595786989 a46.112220076735966,46.112220076735966 0 0,0 0.0,0.7916067373633905 l -25.111294973881105 -0.21555026595786683" fill="#f9ff18" stroke="none" /><path d="M 120.7213421655516 103.40968896794604 l 14.346776083584196 2.360756544965188 a35.53970960704166,35.53970960704166 0 0,0 -0.10422473821060256,0.6011405933523957 l -14.30413652788136 -2.6066901712381716" fill="#ff6d0a" stroke="none" /><path d="M 120.592083275326 104.11899336999214 l 14.963014451624307 2.9930219539849485 a36.259422724879,36.259422724879 0 0,0 -0.12732632551998274,0.6093025602617992 l -14.909430415279958 -3.2494409655321568" fill="#ff780b" stroke="none" /><path d="M 120.43855184770803 104.8234425847677 l 24.44571047717489 5.769121110394626 a46.11723549915992,46.11723549915992 0 0,0 -0.18844924040063807,0.7689372092955917 l -24.343073710257958 -6.187914144298317" fill="#f9ff18" stroke="none" /><path d="M 120.26092885502905 105.52220625578681 l 12.157762201689364 3.3136521512375197 a33.601248840183565,33.601248840183565 0 0,0 -0.15645622760811564,0.5552079568812821 l -12.099087482006668 -3.52186803202181" fill="#ff4f07" stroke="none" /><path d="M 120.05942366710727 106.21446072829308 l 24.016204792405393 7.440281635298347 a46.142312611279685,46.142312611279685 0 0,0 -0.2408964551348765,0.7546047146574306 l -23.88494362149326 -7.851455383647161" fill="#f9ff18" stroke="none" /><path d="M 119.4528033332814 107.91128576633889 l 18.657958504892566 7.588029294274409 a41.14193645459789,41.14193645459789 0 0,0 -0.27168206152261626,0.6519380452725215 l -18.524950598833463 -7.907199848988208" fill="#ffc011" stroke="none" /><path d="M 118.8641267826498 109.22738970284198 l 18.199210223464277 8.902145694350637 a41.2597988815608,41.2597988815608 0 0,0 -0.3166789506950685,0.6335700362092413 l -18.043711359557474 -9.213247586723623" fill="#ffc112" stroke="none" /><path d="M 118.5362547648365 109.86951160357373 l 27.43194911264265 14.60596779180374 a52.07806505002884,52.07806505002884 0 0,0 -0.42692767054273095,0.7854988279329441 l -27.17717609248458 -15.07472145321129" fill="#abff21" stroke="none" /><line stroke="#e1ed5e" stroke-width="0.3" x1="174.33088141563837" x2="178.70328620479359" y1="141.23008692659167" y2="143.65538615756765" /><path d="M 175.20536237346943 141.71514677278685 a86.0,86.0 0 0,1 -30.301960400862466,31.631185727798858" fill="none" id="id89" stroke="none" /><text fill="#e1ed5e" style="font-size:6.75px; font-family:Arial;" text-anchor="middle"><textPath startOffset="22.145653131862474" xlink:href="#id89">May</textPath></text><path d="M 117.62189284568427 111.42229804090321 l 10.15752925557016 6.58398774367368 a33.10472202021215,33.10472202021215 0 0,0 -0.3131952010351916,0.4742174526510374 l -10.043009615614242 -6.7573850746637785" fill="#ff4706" stroke="none" /><path d="M 117.423217284605 111.72311816256416 l 10.461208275804518 7.038767796853009 a33.60877197381949,33.60877197381949 0 0,0 -0.3261815552999065,0.47590863723644344 l -10.338836983689292 -7.2173111691594976" fill="#ff4f07" stroke="none" /><path d="M 116.79662413953412 112.60449989151573 l 20.095767969123177 15.08023892673496 a46.124758632795846,46.124758632795846 0 0,0 -0.4806815343713023,0.6292275585765864 l -19.833934457397568 -15.422987398552424" fill="#f9ff18" stroke="none" /><path d="M 116.35404254752997 113.17365903436017 l 23.450603810376425 18.890146448495425 a51.11259623341776,51.11259623341776 0 0,0 -0.5562831641009225,0.6785750098258609 l -23.122873827036877 -19.28992374001978" fill="#b8ff1f" stroke="none" /><path d="M 115.89218393027572 113.72728997021213 l 9.522971107837977 8.225715631581926 a33.583694861699726,33.583694861699726 0 0,0 -0.38059751468930647,0.4330501063942975 l -9.380362529190084 -8.387978015787517" fill="#ff4f07" stroke="none" /><path d="M 115.6541949942343 113.99807769240083 l 9.858914304294245 8.81590196398234 a34.2256689319658,34.2256689319658 0 0,0 -0.39539171300569265,0.43460475502659385 l -9.706124890446672 -8.983844294566605" fill="#ff5908" stroke="none" /><path d="M 115.16444852881244 114.52719865689866 l 21.849835380539314 20.931648031284197 a51.25804348371241,51.25804348371241 0 0,0 -0.614152394651805,0.6301744607857014 l -21.487296184736703 -21.303645184137636" fill="#b6ff1f" stroke="none" /><path d="M 114.65682725009322 115.03919595460226 l 17.544429639586298 18.00213039010828 a46.13729718885573,46.13729718885573 0 0,0 -0.5719432326699113,0.5479086790184322 l -17.232813921051076 -18.30065119943229" fill="#f9ff18" stroke="none" /><path d="M 114.13192950727249 115.5334660781643 l 16.914432051342665 18.591923796799062 a46.13478947764376,46.13478947764376 0 0,0 -0.5903824482277954,0.5279236256841275 l -16.592784576291493 -18.879542952366574" fill="#f9ff18" stroke="none" /><path d="M 113.59037401385872 116.0094264158162 l 16.30519654093942 19.207480526393105 a46.1949745467312,46.1949745467312 0 0,0 -0.6089502184415798,0.5080079302889927 l -15.973071988335944 -19.484550640593966" fill="#f8ff18" stroke="none" /><path d="M 112.7482090630111 116.68781488649013 l 24.39373717343808 31.93218500951352 a61.18356446071671,61.18356446071671 0 0,0 -0.8400999019063392,0.6304266282602252 l -23.841984282620977 -32.346230665037766" fill="#40ff2d" stroke="none" /><path d="M 111.8722381534696 117.32195027204791 l 14.310477566268911 20.879414442989773 a46.31283697369411,46.31283697369411 0 0,0 -0.6596353070281075,0.4438320731569214 l -13.9499459711438 -21.121996190203813" fill="#f6ff19" stroke="none" /><path d="M 111.27062007382361 117.71928675628689 l 13.50455051912561 21.231396462286142 a46.1623743009755,46.1623743009755 0 0,0 -0.6722909505463865,0.4195592755646622 l -13.13809543978951 -21.460091534692353" fill="#f8ff18" stroke="none" /><line stroke="#e1ed5e" stroke-width="0.3" x1="143.1302829299769" x2="145.66735839644613" y1="173.24464959558577" y2="177.55315839532614" /><path d="M 143.63769802327073 174.10635135553383 a86.0,86.0 0 0,1 -40.68552437913181,11.842963189579606" fill="none" id="id90" stroke="none" /><text fill="#e1ed5e" style="font-size:6.75px; font-family:Arial;" text-anchor="middle"><textPath startOffset="21.407464694133747" xlink:href="#id90">June</textPath></text><path d="M 110.34350942703117 118.27599006163325 l 26.223858441528964 46.3350451445977 a74.24121674148006,74.24121674148006 0 0,0 -1.1145226217197453,0.6182069107751762 l -25.424591631653126 -46.778384970806016" fill="#3fffc2" stroke="none" /><path d="M 109.71004243097381 118.62028667847754 l 5.827762423986421 11.175502867272593 a33.60375655139554,33.60375655139554 0 0,0 -0.5137738798484274,0.2623366038344349 l -5.635061322424411 -11.273897422779864" fill="#ff4f07" stroke="none" /><path d="M 109.06512990194946 118.94263497670748 l 10.860831378663073 22.694960422502312 a46.159866589763524,46.159866589763524 0 0,0 -0.7177008289401609,0.33592022678328975 l -10.469641835851405 -22.878056880856136" fill="#f8ff18" stroke="none" /><path d="M 108.4095320186766 119.2426549942271 l 10.077375287033774 23.059006787188334 a46.164882012187476,46.164882012187476 0 0,0 -0.7288883635303265,0.31111910000986265 l -9.680051848333017 -23.228600536857602" fill="#f8ff18" stroke="none" /><path d="M 107.74402155503746 119.51999308798841 l 9.318715193280354 23.48924972237955 a46.270205883090505,46.270205883090505 0 0,0 -0.7408250780014336,0.28656705490622114 l -8.914117852785392 -23.645756665423814" fill="#f7ff18" stroke="none" /><path d="M 107.06938296918513 119.77432235084164 l 8.49423064446276 23.75987488839714 a46.23259021491086,46.23259021491086 0 0,0 -0.7496157195992834,0.26075525959371854 l -8.085109152818456 -23.902188580559447" fill="#f7ff18" stroke="none" /><path d="M 105.69591212413111 120.21278271476187 l 6.54669706905424 23.231918342902407 a45.13672041527698,45.13672041527698 0 0,0 -0.7475900410116184,0.20375899006296538 l -6.146925627107926 -23.340877827109516" fill="#fff817" stroke="none" /><path d="M 104.9986988182912 120.39639698878246 l 3.3952736663383187 13.85387519863994 a35.263861373724204,35.263861373724204 0 0,0 -0.589188337667337,0.13904684341282325 l -3.1569531749311026 -13.91011818569899" fill="#ff6909" stroke="none" /><path d="M 104.29559338865022 120.5559693870025 l 4.369885024773942 20.911481759729554 a42.36319181483061,42.36319181483061 0 0,0 -0.7131208186032736,0.14264413583398097 l -4.0102677206397095 -20.983415292226397" fill="#ffd113" stroke="none" /><path d="M 103.58742460773223 120.69131181640829 l 3.1251171773927005 18.024845411628668 a39.29375329137096,39.29375329137096 0 0,0 -0.6656034302487162,0.10952479115561202 l -2.8152362440909124 -18.075836201279948" fill="#ffa50f" stroke="none" /><path d="M 103.2317021107853 120.74984581791261 l 3.6627014657528245 23.517170854879787 a44.80068711287208,44.80068711287208 0 0,0 -0.7609181116517513,0.11182875875854023 l -3.258458248493388 -23.57658068693721" fill="#fff316" stroke="none" /><path d="M 102.875027216393 120.80226474461374 l 1.0495318581439563 7.593889701819309 a28.666073175013167,28.666073175013167 0 0,0 -0.48803604377948206,0.06318603668924015 l -0.9190179924736988 -7.610787334708944" fill="#ff0000" stroke="none" /><path d="M 102.51750503828377 120.84855314841334 l 2.1131100651284354 17.499582654782188 a38.62670210898513,38.62670210898513 0 0,0 -0.6589790764385743,0.07383998001376156 l -1.8123950870890617 -17.533278395302922" fill="#ff9b0e" stroke="none" /><path d="M 101.80034050326958 120.92268563240118 l 1.3290517139265796 15.445595513287182 a36.502670712440754,36.502670712440754 0 0,0 -0.6247710298838638,0.04836122904115989 l -1.06371168926748 -15.466134509323396" fill="#ff7b0b" stroke="none" /><path d="M 101.44090949804482 120.95050786540614 l 1.5064373729435117 21.90326878504147 a42.95501166085714,42.95501166085714 0 0,0 -0.736076359541679,0.04428052595118381 l -1.1302166612693676 -21.925901288817343" fill="#ffd914" stroke="none" /><path d="M 100.72087961077811 120.9876233191556 l 0.8731470572155066 25.420723883823154 a46.43571482308097,46.43571482308097 0 0,0 -0.7968958749450565,0.020525210954311333 l -0.4366378681997062 -25.43196681212751" fill="#f5ff19" stroke="none" /><line stroke="#e1ed5e" stroke-width="0.3" x1="101.45913802915013" x2="101.54496967792366" y1="184.9874750549273" y2="189.98673829345242" /><path d="M 101.47630435890484 185.9873277026323 a86.0,86.0 0 0,1 -42.54439059252881,-10.42667462771756" fill="none" id="id91" stroke="none" /><text fill="#e1ed5e" style="font-size:6.75px; font-family:Arial;" text-anchor="middle"><textPath startOffset="22.145653131862474" xlink:href="#id91">July</textPath></text><path d="M 100.0 121.0 l 3.07628131179854e-15 25.119743210371894 a46.119743210371894,46.119743210371894 0 0,0 -0.7917067201516645,-0.00679585000561793 l 0.4312137953028093 -25.116041758560712" fill="#f9ff18" stroke="none" /><path d="M 99.27912038922189 120.98762331915562 l -1.08525731542106 31.596082618885788 a52.61471524939188,52.61471524939188 0 0,0 -0.9024030974358653,-0.03875307180545152 l 1.627486173457764 -31.572796978654505" fill="#a5ff21" stroke="none" /><path d="M 98.55909050195518 120.95050786540614 l -1.1210096498831537 16.299234281501448 a37.337738546029044,37.337738546029044 0 0,0 -0.6390638523056492,-0.049467583890732705 l 1.400642496964039 -16.277588930615664" fill="#ff880c" stroke="none" /><path d="M 98.19965949673042 120.92268563240118 l -2.81160438607762 32.67510484030569 a53.795847230232965,53.795847230232965 0 0,0 -0.9193977647144584,-0.08706792421271163 l 3.372101714177094 -32.622025160587796" fill="#96ff23" stroke="none" /><path d="M 97.48249496171623 120.84855314841334 l -2.1557991573532553 17.85310957710102 a38.982797101085836,38.982797101085836 0 0,0 -0.6636768823033071,-0.08592625968824064 l 2.4619538615473564 -17.81347172121238" fill="#ffa00e" stroke="none" /><path d="M 96.76829788921471 120.74984581791261 l -6.340166724354957 40.70841849908546 a62.19918750156732,62.19918750156732 0 0,0 -1.053602394577534,-0.1733698730849975 l 7.038046621985554 -40.593582627504794" fill="#35ff2f" stroke="none" /><path d="M 96.41257539226777 120.69131181640829 l -3.1174061274690406 17.980370124800796 a39.24861448955538,39.24861448955538 0 0,0 -0.6628628721757142,-0.1207956964344673 l 3.425603733195812 -17.924206254434964" fill="#ffa40f" stroke="none" /><path d="M 95.70440661134978 120.55596938700252 l -7.109078126346049 34.019512349817106 a55.75436968678687,55.75436968678687 0 0,0 -0.9351802114950992,-0.20381817445372474 l 7.692020754460285 -33.89246271722966" fill="#7eff26" stroke="none" /><path d="M 95.00130118170881 120.39639698878247 l -4.432121479001749 18.084568099490436 a39.61975574892796,39.61975574892796 0 0,0 -0.6591872829704191,-0.1675628295992639 l 4.741914055197547 -18.00582003805591" fill="#ffaa0f" stroke="none" /><path d="M 94.30408787586889 120.21278271476187 l -8.965404058930284 31.815056174316524 a54.05414148506658,54.05414148506658 0 0,0 -0.890966660207801,-0.25934740969925824 l 9.510230731519691 -31.656465070314752" fill="#93ff23" stroke="none" /><path d="M 93.95794788825049 120.11202640906438 l -5.473379131272922 18.219099007921077 a40.023497254056224,40.023497254056224 0 0,0 -0.656307913555748,-0.2033258692844729 l 5.7853276777003035 -18.122456550829956" fill="#ffb010" stroke="none" /><path d="M 93.27111125876986 119.89276391827306 l -7.36996831143418 21.788001755206846 a44.00072723625148,44.00072723625148 0 0,0 -0.71342826903643,-0.2481673858087399 l 7.742902352515632 -21.658275936829515" fill="#ffe815" stroke="none" /><path d="M 92.59220618246901 119.65005319985036 l -7.581025106516893 20.1095697750007 a42.49108508664142,42.49108508664142 0 0,0 -0.6803181620417347,-0.26316167997641043 l 7.925115531052156 -19.97646820688625" fill="#ffd313" stroke="none" /><path d="M 91.92203290615298 119.3841803445677 l -13.922490117288524 33.40890797692734 a57.19379592246157,57.19379592246157 0 0,0 -0.903021745035651,-0.3854462859635681 l 14.493946937494606 -33.164987041304364" fill="#6dff28" stroke="none" /><path d="M 91.26138138417905 119.09545874513695 l -8.826096944845117 19.286614681379575 a42.21022143090002,42.21022143090002 0 0,0 -0.6562911279605889,-0.30717738596726957 l 9.155876786677197 -19.13226106384178" fill="#ffcf13" stroke="none" /><path d="M 90.93487009805054 118.94263497670748 l -15.344591327872932 32.06429422794481 a56.54680642977155,56.54680642977155 0 0,0 -0.8720049380592014,-0.4265413119294502 l 15.892756515194202 -31.79615916591814" fill="#75ff27" stroke="none" /><line stroke="#e1ed5e" stroke-width="0.3" x1="58.13341422392154" x2="55.67067388415222" y1="173.97424548756322" y2="178.32567169271397" /><path d="M 57.64086615596768 174.84453072859336 a86.0,86.0 0 0,1 -31.369924170532247,-30.572349798747897" fill="none" id="id92" stroke="none" /><text fill="#e1ed5e" style="font-size:6.75px; font-family:Arial;" text-anchor="middle"><textPath startOffset="22.145653131862474" xlink:href="#id92">August</textPath></text><path d="M 89.65649057296885 118.27599006163327 l -10.418644715477203 18.408746916993156 a42.15254407302455,42.15254407302455 0 0,0 -0.6266829408783204,-0.3618155646126474 l 10.733120124215924 -18.227184455104336" fill="#ffce13" stroke="none" /><path d="M 89.34428304082925 118.09573695890944 l -16.86633162376788 28.642718429449676 a54.23971211475287,54.23971211475287 0 0,0 -0.7982723004012089,-0.4793395801647833 l 17.35553668072652 -28.348964848748974" fill="#91ff24" stroke="none" /><path d="M 88.4268655584334 117.5232005979908 l -10.033347310333262 15.191766627786771 a39.20598339895177,39.20598339895177 0 0,0 -0.5584121506396976,-0.37572461609286384 l 10.292655749069965 -15.017292337636786" fill="#ffa40f" stroke="none" /><path d="M 87.83215693770417 117.11559508785305 l -13.934469322621467 19.600576163668848 a45.048950522857794,45.048950522857794 0 0,0 -0.6264356673999368,-0.45349111385643237 l 14.268886000395359 -19.35848427843935" fill="#fff617" stroke="none" /><path d="M 87.2517909369889 116.68781488649013 l -10.671498850836306 13.969334555459918 a38.57905559595757,38.57905559595757 0 0,0 -0.5228197889511509,-0.4065478301356364 l 10.909728584422686 -13.784085673703489" fill="#ff9a0e" stroke="none" /><path d="M 86.68645165197938 116.24036423190432 l -19.7139536832254 24.047818049503856 a52.09561902851268,52.09561902851268 0 0,0 -0.686733544038876,-0.5728975469620922 l 20.12386156142617 -23.705858318629893" fill="#abff21" stroke="none" /><path d="M 86.40962598614128 116.0094264158162 l -11.66047946119734 13.736015485431917 a39.017905058053515,39.017905058053515 0 0,0 -0.5068992931667331,-0.4378475364697476 l 11.894558234126936 -13.533823816497447" fill="#ffa10e" stroke="none" /><path d="M 85.86807049272751 115.53346607816431 l -25.956388245206174 28.530617571442328 a59.571106151415606,59.571106151415606 0 0,0 -0.7505114846457124,-0.6946622257021933 l 26.442329501165855 -28.080837599607754" fill="#52ff2b" stroke="none" /><path d="M 85.34317274990678 115.03919595460226 l -13.55037652331176 13.90388003593559 a40.41470020312461,40.41470020312461 0 0,0 -0.49268999035834027,-0.4884789901032802 l 13.787058433800063 -13.66922103560365" fill="#ffb510" stroke="none" /><path d="M 84.83555147118756 114.52719865689866 l -27.668128193209025 26.50544093071369 a59.31531960779397,59.31531960779397 0 0,0 -0.6980683433874251,-0.7413243898660743 l 28.119052370332703 -26.02657508090312" fill="#55ff2b" stroke="none" /><path d="M 84.58840730492382 114.26474011684316 l -13.918737684195714 12.882975805803415 a39.96581989618076,39.96581989618076 0 0,0 -0.4617047521215617,-0.507494401349567 l 14.137840137159156 -12.642143828896174" fill="#ffaf10" stroke="none" /><path d="M 84.1078160697243 113.72728997021213 l -24.050341341098175 20.774112036476243 a52.78022418938235,52.78022418938235 0 0,0 -0.5863768210807774,-0.6907504208096102 l 24.403412725686064 -20.35819483321708" fill="#a3ff22" stroke="none" /><path d="M 83.64595745247003 113.17365903436017 l -14.971046703060095 12.059615479194369 a40.22411415101437,40.22411415101437 0 0,0 -0.428546887299415,-0.5414549925805254 l 15.175860021001071 -11.800840542699163" fill="#ffb210" stroke="none" /><path d="M 83.20337586046588 112.60449989151573 l -30.658130892109778 23.00643297685835 a59.33036587506583,59.33036587506583 0 0,0 -0.6043164494299528,-0.8198713259863366 l 31.048549361123563 -22.476755341603134" fill="#55ff2b" stroke="none" /><path d="M 82.98947788004972 112.3143062007846 l -16.90454875912792 12.237589659981763 a41.86917270607117,41.86917270607117 0 0,0 -0.41646847692093986,-0.585815068565551 l 17.11213233457882 -11.945597364706709" fill="#ffca12" stroke="none" /><path d="M 82.576782715395 111.72311816256416 l -26.429739205955613 17.78310805955128 a52.85545552574166,52.85545552574166 0 0,0 -0.5000517753655858,-0.7571421219856169 l 26.731115420241924 -17.326786059226603" fill="#a2ff22" stroke="none" /><line stroke="#e1ed5e" stroke-width="0.3" x1="26.387840678322732" x2="22.057713659400548" y1="142.50000000000003" y2="145.00000000000006" /><path d="M 25.521815274538298 143.00000000000003 a86.0,86.0 0 0,1 -11.493303480769221,-40.785679425670985" fill="none" id="id93" stroke="none" /><text fill="#e1ed5e" style="font-size:6.75px; font-family:Arial;" text-anchor="middle"><textPath startOffset="21.40746469413373" xlink:href="#id93">September</textPath></text><path d="M 81.63589988554817 110.18625677009913 l -17.664177634548796 9.7980215690807 a41.19961381247336,41.19961381247336 0 0,0 -0.3377478624699899,-0.6214180256102181 l 17.829770846634116 -9.493348709995894" fill="#ffc011" stroke="none" /><path d="M 81.29705330413844 109.54985784667822 l -20.183317187315378 10.305745567671911 a43.6621862226346,43.6621862226346 0 0,0 -0.33511785546331174,-0.6704601974783594 l 20.357254955990427 -9.957753514029799" fill="#ffe315" stroke="none" /><path d="M 80.83023694016515 108.57439118712176 l -21.282262859159125 9.519285477446848 a44.31419113774858,44.31419113774858 0 0,0 -0.30464132124356397,-0.6970789609524412 l 21.442538062419658 -9.152544446718558" fill="#ffec16" stroke="none" /><path d="M 80.68587082218212 108.24405325689762 l -25.822378847676717 11.022038036512958 a49.076334729292576,49.076334729292576 0 0,0 -0.324077108182352,-0.7776670835088755 l 26.007781800395556 -10.5771384435628" fill="#d2ff1c" stroke="none" /><path d="M 80.41425534168474 107.57618678355246 l -20.212153005869304 7.818494989170317 a42.67164029390376,42.67164029390376 0 0,0 -0.2584058722234334,-0.6854522765371132 l 20.343389561907173 -7.470374432439058" fill="#ffd513" stroke="none" /><path d="M 80.16572619554312 106.89939002012753 l -32.576434668331316 11.331775010160296 a55.491060009529306,55.491060009529306 0 0,0 -0.30523935254777357,-0.9023859083289557 l 32.76615944245145 -10.770887427357179" fill="#81ff25" stroke="none" /><path d="M 79.94057633289273 106.21446072829308 l -22.93109200854746 7.104110921076321 a45.00631943225419,45.00631943225419 0 0,0 -0.22229624164788367,-0.7399518905114986 l 23.049664570198974 -6.709421426974099" fill="#fff617" stroke="none" /><path d="M 79.83685265289637 105.86919833188381 l -36.42728249060276 10.603451036111055 a58.939162925997444,58.939162925997444 0 0,0 -0.27443620127458723,-0.973877262243402 l 36.60393718395192 -9.976565849964656" fill="#59ff2a" stroke="none" /><path d="M 79.64726062577567 105.17358676015961 l -26.744619037192866 6.798377575235218 a48.59515510193846,48.59515510193846 0 0,0 -0.19857478374389034,-0.8102528814861782 l 26.85738134745305 -6.33826886914094" fill="#d8ff1c" stroke="none" /><path d="M 79.48165901384964 104.47187691870673 l -30.142580460217577 6.569435117648729 a51.850164255084394,51.850164255084394 0 0,0 -0.18207380030011966,-0.8712890458937436 l 30.250911971342063 -6.051029620469577" fill="#aeff20" stroke="none" /><path d="M 79.34024301695615 103.76489593502545 l -23.358768435763313 4.256745730512911 a44.74346114301477,44.74346114301477 0 0,0 -0.13121591526293747,-0.7568185299640756 l 23.42839916851848 -3.8551341676282425" fill="#fff216" stroke="none" /><path d="M 79.17382384314188 102.69636545807758 l -41.58900959357621 5.384529932867598 a62.936128595430944,62.936128595430944 0 0,0 -0.12952229413277128,-1.0726303987746093 l 41.675313973968635 -4.669805857169589" fill="#30ff33" stroke="none" /><path d="M 79.0935383218832 101.97986365728391 l -29.996144045261513 2.8406660279596423 a51.130350828798555,51.130350828798555 0 0,0 -0.07525018639579666,-0.8745212313334675 l 30.040487854355053 -2.3253237492505128" fill="#b7ff1f" stroke="none" /><path d="M 79.03789590574601 101.26102812881392 l -37.57026679761413 2.2601339553419053 a58.63818742633598,58.63818742633598 0 0,0 -0.05182055027525626,-1.0053048313687085 l 37.603528937345956 -1.6148573305964662" fill="#5cff2a" stroke="none" /><path d="M 79.01933749520258 100.90099992219065 l -25.102725300187064 1.078019034769282 a46.12586202572912,46.12586202572912 0 0,0 -0.02718199905279021,-0.7913742442595217 l 25.117531986236703 -0.6469385259456404" fill="#f9ff18" stroke="none" /><line stroke="#e1ed5e" stroke-width="0.3" x1="15.003131293944662" x2="10.003315487706104" y1="100.72959589197737" y2="100.7725132973878" /><path d="M 14.003168132696942 100.73817937305945 a86.0,86.0 0 0,1 10.791469493833604,-42.45332614584628" fill="none" id="id94" stroke="none" /><text fill="#e1ed5e" style="font-size:6.75px; font-family:Arial;" text-anchor="middle"><textPath startOffset="22.145653131862435" xlink:href="#id94">October</textPath></text><path d="M 79.00077361379809 100.18025310272382 l -53.21274987044097 0.45676745858200424 a74.21471023396947,74.21471023396947 0 0,0 0.0,-1.274041122611624 l 53.21274987044097 0.4567674585819847" fill="#3fffc1" stroke="none" /><path d="M 79.00696218219943 99.45929381324524 l -32.286706907613514 -0.8315910411060907 a53.29741454974045,53.29741454974045 0 0,0 0.031408199395793056,-0.9144154560571247 l 32.26767402122087 1.3857127617273541" fill="#9cff22" stroke="none" /><path d="M 79.03789590574601 98.7389718711861 l -32.30373893073015 -1.943312716812527 a53.36213857612157,53.36213857612157 0 0,0 0.06285561581591395,-0.9139068590519186 l 32.26561935374917 2.4975630000187707" fill="#9bff22" stroke="none" /><path d="M 79.06263194458094 98.37931529534042 l -25.10525484878288 -1.943305502024283 a46.18035459036537,46.18035459036537 0 0,0 0.06796511728199248,-0.78985768540891 l 25.068196108803146 2.3739842348088738" fill="#f8ff18" stroke="none" /><path d="M 79.13060592940154 97.66154086499901 l -25.71249545915148 -2.8811387473311556 a46.873410738019416,46.873410738019416 0 0,0 0.09646528676146952,-0.7988709565381927 l 25.65924808613034 3.3221033807927847" fill="#efff19" stroke="none" /><path d="M 79.2786578344484 96.59031103205396 l -31.73092154326352 -5.221311064912228 a53.15763472678486,53.15763472678486 0 0,0 0.15589155411096137,-0.89914105754363 l 31.636615171660324 5.7652451553764505" fill="#9eff22" stroke="none" /><path d="M 79.407916724674 95.88100663000787 l -38.47024212011393 -7.695125845990088 a60.232314366677535,60.232314366677535 0 0,0 0.21150803541643715,-1.0121425162383813 l 38.33247637387313 8.354384813513878" fill="#4aff2c" stroke="none" /><path d="M 79.56144815229197 95.17655741523228 l -29.304954414328584 -6.9158894485276425 a51.10996313664519,51.10996313664519 0 0,0 0.20885106459125438,-0.8521836141328636 l 29.181915823221033 7.417928887268624" fill="#b8ff1f" stroke="none" /><path d="M 79.73907114497095 94.47779374421319 l -24.269409587943063 -6.614735504464582 a46.15470070466685,46.15470070466685 0 0,0 0.2149083920356512,-0.7626340675784482 l 24.152282703832828 7.030377495946043" fill="#f9ff18" stroke="none" /><path d="M 79.94057633289273 93.78553927170692 l -50.59212596633525 -15.673569948781399 a73.9643654236778,73.9643654236778 0 0,0 0.3861478202657013,-1.2096025471360325 l 50.315613430292295 16.539741529608822" fill="#3fffbe" stroke="none" /><path d="M 80.05021161711548 93.44210830539832 l -23.973612841679977 -7.880602717517027 a46.23564962258946,46.23564962258946 0 0,0 0.25432817021339355,-0.7518760440816029 l 23.834799249894218 8.290980436072791" fill="#f7ff18" stroke="none" /><path d="M 80.28708602549916 92.7611449362534 l -23.555018032990397 -8.64972889271043 a46.09296085462798,46.09296085462798 0 0,0 0.279124300611953,-0.7404103693350292 l 23.403063048564007 9.052807542239602" fill="#f9ff18" stroke="none" /><path d="M 80.5471966667186 92.08871423366112 l -24.67250195629916 -10.034091755448374 a47.634852170424054,47.634852170424054 0 0,0 0.3145582331125356,-0.7548252485661133 l 24.496617878650145 10.45614951345575" fill="#e5ff1a" stroke="none" /><path d="M 80.83023694016515 91.42560881287825 l -48.5891664667309 -21.733316131321963 a74.22822679740202,74.22822679740202 0 0,0 0.5302565317082487,-1.1587062178503122 l 48.20892547016761 22.564211331386947" fill="#3fffc1" stroke="none" /><path d="M 81.1358732173502 90.77261029715801 l -24.266942698500927 -11.870177705842911 a48.01454472502947,48.01454472502947 0 0,0 0.36852326123232615,-0.7372933864105661 l 24.059599524056853 12.285002948417247" fill="#e0ff1b" stroke="none" /><path d="M 81.46374523516351 90.13048839642627 l -22.195840133022735 -11.818034685167301 a46.145998946761296,46.145998946761296 0 0,0 0.37829753882524236,-0.6960248628986635 l 21.989697244582143 12.197314381540584" fill="#f9ff18" stroke="none" /><path d="M 81.63589988554816 89.8137432299009 l -42.02515092628059 -23.3106428014069 a69.05725104696944,69.05725104696944 0 0,0 0.5839173185373765,-1.031725951978721 l 41.618800242721846 24.028625523484727" fill="#38ff83" stroke="none" /><line stroke="#e1ed5e" stroke-width="0.3" x1="26.387840678322718" x2="22.05771365940052" y1="57.49999999999999" y2="54.99999999999999" /><path d="M 25.521815274538284 56.99999999999999 a86.0,86.0 0 0,1 29.574782752854787,-30.34633250058573" fill="none" id="id95" stroke="none" /><text fill="#e1ed5e" style="font-size:6.75px; font-family:Arial;" text-anchor="middle"><textPath startOffset="21.40746469413373" xlink:href="#id95">November</textPath></text><path d="M 81.99639281039701 89.18935116829357 l -27.37210805234801 -16.43616442089145 a52.92772776287083,52.92772776287083 0 0,0 0.4744139968359993,-0.7749196102355882 l 27.08592609105662 16.90362114725158" fill="#a1ff22" stroke="none" /><path d="M 82.37810715431573 88.57770195909679 l -23.175917051337702 -15.022349429190998 a48.618727587331044,48.618727587331044 0 0,0 0.45996918963682026,-0.6964519784676655 l 22.914623422780156 15.417981285997724" fill="#d8ff1c" stroke="none" /><path d="M 84.10781606972428 86.27271002978789 l -13.340262995897538 -11.523001446938265 a38.62788073325476,38.62788073325476 0 0,0 0.43776229701150876,-0.49809313508261055 l 13.140489634927437 11.750306859832175" fill="#ff9b0e" stroke="none" /><path d="M 85.08716467003674 85.21462403516908 l -23.240079720522303 -23.041447754081226 a53.72628332121273,53.72628332121273 0 0,0 0.6549696491245972,-0.64937165157341 l 22.84111815126773 23.43699941588331" fill="#97ff23" stroke="none" /><path d="M 85.60350026404147 84.71141617570332 l -20.94405787358582 -22.241863667836768 a51.550843844822836,51.550843844822836 0 0,0 0.6494675497611173,-0.6011374680713659 l 20.559160552510747 22.5981188820405" fill="#b2ff20" stroke="none" /><path d="M 86.40962598614128 83.9905735841838 l -7.800820187239487 -9.189346565684765 a33.053915791057506,33.053915791057506 0 0,0 0.43572248797217544,-0.3634951964736849 l 7.641923365105403 9.321903946070332" fill="#ff4606" stroke="none" /><path d="M 86.96720088162412 83.53348406188908 l -29.22075088312232 -36.91946417420605 a68.08395817137699,68.08395817137699 0 0,0 0.9226674964497079,-0.7174718259437542 l 28.58267344203737 37.41563705177061" fill="#37ff76" stroke="none" /><path d="M 88.4268655584334 82.4767994020092 l -13.946850282717465 -21.117308923365492 a46.30721970057928,46.30721970057928 0 0,0 0.667076156650273,-0.43239070535522744 l 13.582288493810166 21.353613470424627" fill="#f6ff19" stroke="none" /><line stroke="#e1ed5e" stroke-width="0.3" x1="56.869717070023135" x2="54.33264160355391" y1="26.7553504044142" y2="22.446841604673864" /><path d="M 56.362301976729285 25.89364864446614 a86.0,86.0 0 0,1 42.16139366436587,-11.88097634709845" fill="none" id="id96" stroke="none" /><text fill="#e1ed5e" style="font-size:6.75px; font-family:Arial;" text-anchor="middle"><textPath startOffset="22.145653131862474" xlink:href="#id96">December</textPath></text><path d="M 89.34428304082924 81.90426304109057 l -19.814892138935274 -33.650018801103656 a60.05065576648193,60.05065576648193 0 0,0 0.892774620962761,-0.5154436677385134 l 19.234325050112112 33.98520936611835" fill="#4cff2c" stroke="none" /><path d="M 89.97174638481275 81.54914285379989 l -12.010464040707024 -22.097901068143326 a46.15091406073677,46.15091406073677 0 0,0 0.6993208102761743,-0.37234894207077357 l 11.629354414644288 22.300820477936675" fill="#f9ff18" stroke="none" /><path d="M 90.61103034731259 81.2157712731953 l -13.325585820813952 -26.660098097685136 a50.8049000677082,50.8049000677082 0 0,0 0.7834593416282346,-0.3832292236386403 l 12.865966229923664 26.88492107142099" fill="#bbff1f" stroke="none" /><path d="M 91.26138138417902 80.90454125486306 l -26.215855847462933 -57.286376235410835 a84.0,84.0 0 0,0 1.3163463885775248,-0.5887849963606175 l 25.22859605602979 57.7279649826813" fill="#4dd2ff" stroke="none" /><path d="M 92.25597844496254 80.48000691201159 l -9.25118987985242 -23.31904182174165 a46.08709281039196,46.08709281039196 0 0,0 0.7378932830423246,-0.2854329736339088 l 8.849524334316566 23.474414683513597" fill="#f9ff18" stroke="none" /><path d="M 92.93061703081487 80.22567764915836 l -8.473649314397964 -23.702305245207 a46.17145221556286,46.17145221556286 0 0,0 0.7486244274142405,-0.2604104367140908 l 8.06551911493872 23.84427411448968" fill="#f8ff18" stroke="none" /><path d="M 93.95794788825049 79.88797359093562 l -8.334377751816712 -27.74243292633913 a49.967299445795824,49.967299445795824 0 0,0 0.8236038291186399,-0.23973907132562366 l 7.856913910316448 27.881415691967277" fill="#c6ff1e" stroke="none" /><path d="M 94.6519064749342 79.69241777938228 l -3.9448573768690203 -14.979266004588474 a36.49000677082027,36.49000677082027 0 0,0 0.6071150102807008,-0.1543262615085755 l 3.6871370733629414 15.044777497932312" fill="#ff7b0b" stroke="none" /><path d="M 95.00130118170881 79.60360301121753 l -7.587577081312615 -30.9599037587834 a52.876119066128346,52.876119066128346 0 0,0 0.8834538102535594,-0.2084926936998294 l 7.054991117319149 31.085592596129462" fill="#a1ff22" stroke="none" /><path d="M 96.05791012581881 79.37332000966035 l -7.497345906428381 -39.22928185925812 a60.939288311558045,60.939288311558045 0 0,0 1.0291928060108961,-0.18755321347139273 l 6.822818366866447 39.35220324666088" fill="#43ff2d" stroke="none" /><path d="M 96.41257539226777 79.30868818359171 l -2.5786993280525783 -14.873252461527715 a36.0951425633824,36.0951425633824 0 0,0 0.611421630490557,-0.1006091966240043 l 2.3230001945089485 14.915327656647388" fill="#ff750a" stroke="none" /><path d="M 97.12497278360702 79.19773525538626 l -3.4153558798874872 -24.711813789237315 a45.94671113674549,45.94671113674549 0 0,0 0.7822365829792266,-0.10127618658864274 l 2.990641475017467 24.766801572026353" fill="#fbff18" stroke="none" /><path d="M 97.84075906011542 79.11130261209362 l -2.08527541780713 -20.173148057919658 a41.280637961732324,41.280637961732324 0 0,0 0.7055066184862301,-0.06681221028311207 l 1.7386692359358844 20.20597202370795" fill="#ffc212" stroke="none" /><path d="M 98.5590905019552 79.04949213459386 l -1.5116268819289957 -21.978723106749843 a43.030644231010356,43.030644231010356 0 0,0 0.7373723979955634,-0.04435849240621963 l 1.1341101318009486 22.00143357698076" fill="#ffda14" stroke="none" /><path d="M 99.27912038922189 79.0123766808444 l -0.8742291294337095 -25.45222723581169 a46.46723675301553,46.46723675301553 0 0,0 0.7974368313194948,-0.020539144071612506 l 0.43717898404347066 25.463484097233348" fill="#f4ff19" stroke="none" /></svg>