<?xml version="1.0" encoding="utf-8" ?>
<svg baseProfile="full" height="200mm" version="1.1" viewBox="0,0,200,200" width="200mm" xmlns="http://www.w3.org/2000/svg" xmlns:ev="http://www.w3.org/2001/xml-events" xmlns:xlink="http://www.w3.org/1999/xlink"><defs /><rect fill="#1a1a1a" height="200" width="200" x="0" y="0" /><text alignment-baseline="middle" fill="#e1ed5e" style="dominant-baseline: central; font-size:9.0px; font-family:Arial;" text-anchor="middle" x="100.0" y="100.0">2025</text><line stroke="#e1ed5e" stroke-width="0.3" x1="100.0" x2="100.0" y1="15.0" y2="10.0" /><path d="M 100.0 14.0 a86.0,86.0 0 0,1 42.46469731375804,11.215312516191453" fill="none" id="id97" stroke="none" /><text fill="#e1ed5e" style="font-size:6.75px; font-family:Arial;" text-anchor="middle"><textPath startOffset="22.20632615414155" xlink:href="#id97">January</textPath></text><path d="M 100.0 79.0 l 0.0 -32.772624099828604 a53.772624099828604,53.772624099828604 0 0,0 0.9256073300641692,0.007966994514525505 l -0.5641268507916408 32.76776848192264" fill="#c2ff1e" stroke="none" /><path d="M 100.36148047927253 79.00311137660856 l 0.23125402843539647 -13.432578955689218 a34.434569432121464,34.434569432121464 0 0,0 0.5925588676810326,0.015304047333254215 l -0.46243953131129684 13.426608116213604" fill="#ff0000" stroke="none" /><path d="M 101.08401301168833 79.027996857942 l 1.5302899681253235 -29.605960144149478 a50.64548301923098,50.64548301923098 0 0,0 0.8702291584851206,0.052494599332570696 l -2.039681175450056 29.575232275436605" fill="#f0ff19" stroke="none" /><path d="M 102.16513564639614 79.11191278185805 l 2.6043460633966764 -25.12535776176559 a46.25997270534242,46.25997270534242 0 0,0 0.7913391662138234,0.08891617574891321 l -3.036451933120225 25.076805632546073" fill="#ffca12" stroke="none" /><path d="M 102.88285421437855 79.19881850522331 l 4.177839820844574 -30.145126290483145 a51.43325458503925,51.43325458503925 0 0,0 0.8759108227200049,0.12908648638974773 l -4.696119623993234 30.068745319932425" fill="#e5ff1a" stroke="none" /><path d="M 103.95276090670814 79.375362276772 l 9.506001170855328 -49.60022500039093 a71.50293435385422,71.50293435385422 0 0,0 1.206811512222523,0.24207503625857663 l -10.358379092544975 49.429246008055145" fill="#3aff8f" stroke="none" /><path d="M 104.66035177308747 79.52364482259891 l 5.561885728780824 -24.437457338801792 a46.062400005701235,46.062400005701235 0 0,0 0.7716029163649055,0.1826134808131954 l -5.981712332108253 24.33809794584773" fill="#ffc712" stroke="none" /><path d="M 105.36241919743992 79.69619591428918 l 6.0997874252797875 -23.095711895573178 a44.887639368445804,44.887639368445804 0 0,0 0.745353075978186,0.20373315154040067 l -6.496438390481685 22.987292203206483" fill="#ffb410" stroke="none" /><path d="M 106.40334571778207 80.00007090966166 l 12.584896369005845 -39.30711320027772 a62.272615191650544,62.272615191650544 0 0,0 1.0180599285324488,0.33563835210383974 l -13.259639119780712 39.08466112391464" fill="#50ff2b" stroke="none" /><path d="M 107.4271985657038 80.35727306442388 l 16.6549958788534 -44.047500988074376 a68.09109502888032,68.09109502888032 0 0,0 1.0927545399209595,0.42397178452896284 l -17.410733583774025 43.75428649965486" fill="#34ff5f" stroke="none" /><path d="M 109.08828744355905 81.06846463323043 l 12.002612942965992 -25.002278243790048 a48.73403387245627,48.73403387245627 0 0,0 0.7531235364809016,0.36955444857157016 l -12.431207746457327 24.791968635083645" fill="#fff116" stroke="none" /><path d="M 109.73455568895987 81.39251694778311 l 13.90700365368809 -26.58306583900898 a51.00106898136765,51.00106898136765 0 0,0 0.7743782608123989,0.4136460485084964 l -14.3625269610288 26.339741063998733" fill="#ebff1a" stroke="none" /><line stroke="#e1ed5e" stroke-width="0.3" x1="143.23703022742887" x2="145.7803849466894" y1="26.81831364943548" y2="22.513508569990506" /><path d="M 143.74570117128098 25.957352633546492 a86.0,86.0 0 0,1 28.547481713284135,27.462654790039103" fill="none" id="id98" stroke="none" /><text fill="#e1ed5e" style="font-size:6.75px; font-family:Arial;" text-anchor="middle"><textPath startOffset="19.985693538727396" xlink:href="#id98">February</textPath></text><path d="M 111.90073688211348 82.69761687909136 l 16.83144259142802 -24.471095452263118 a50.70070659668402,50.70070659668402 0 0,0 0.7148047821135195,0.5007664300347993 l -17.25017851312519 24.17774417946438" fill="#efff19" stroke="none" /><path d="M 112.48926042617603 83.11751280151076 l 22.406476962052167 -30.288187415987057 a58.675250587048936,58.675250587048936 0 0,0 0.8067954422000514,0.6076616004414492 l -22.924518558010604 29.89800922603976" fill="#7fff26" stroke="none" /><path d="M 113.06298171725822 83.55741782278167 l 39.188945151774654 -49.32774653165496 a84.0,84.0 0 0,0 1.1243864057420354,0.9091756109434814 l -40.032234956081176 48.64586482344735" fill="#4dd2ff" stroke="none" /><path d="M 113.89432698308785 84.25364557470407 l 16.583587228417976 -18.794076349241596 a46.06457003787757,46.06457003787757 0 0,0 0.5900411048240017,0.5297447297506456 l -16.904639320837965 18.505832610721654" fill="#ffc712" stroke="none" /><path d="M 114.68862486808459 84.99185889309783 l 21.25249348418099 -21.71479113590435 a51.3842168464337,51.3842168464337 0 0,0 0.6267998472616892,0.6241081695212121 l -21.623129131610003 21.34574711573302" fill="#e5ff1a" stroke="none" /><path d="M 115.19652480421416 85.50635884689758 l 18.067342290029682 -17.23167494645518 a45.9671680189281,45.9671680189281 0 0,0 0.541170764321585,0.5772832393379208 l -18.36128037632173 16.918122290239204" fill="#ffc512" stroke="none" /><path d="M 115.68641384162765 86.03803664274999 l 22.439268714056052 -19.972458377818043 a51.04030416083181,51.04030416083181 0 0,0 0.5784765559875895,0.6612987032777282 l -22.779737133621488 19.58324411833737" fill="#eaff1a" stroke="none" /><path d="M 116.38621287248628 86.86637796730983 l 23.686938350720286 -18.985185767502553 a51.356355628721396,51.356355628721396 0 0,0 0.5469352081870832,0.6945521722575984 l -24.010227639501334 18.574641201291918" fill="#e6ff1a" stroke="none" /><path d="M 116.82858285166822 87.43820079747576 l 24.965107306415636 -18.635357939339286 a52.15338100990233,52.15338100990233 0 0,0 0.5308155907446654,0.7240318692331644 l -25.28218550967393 18.20286362643463" fill="#daff1c" stroke="none" /><line stroke="#e1ed5e" stroke-width="0.3" x1="172.23445277983987" x2="176.4835382374775" y1="55.19839476539836" y2="52.563006222186495" /><path d="M 173.08426987136738 54.67131705675599 a86.0,86.0 0 0,1 12.851231095245387,41.99856678651699" fill="none" id="id99" stroke="none" /><text fill="#e1ed5e" style="font-size:6.75px; font-family:Arial;" text-anchor="middle"><textPath startOffset="22.20632615414155" xlink:href="#id99">March</textPath></text><path d="M 118.21658344932153 89.55222093294921 l 22.272567290669812 -12.774012369350578 a46.6757209388507,46.6757209388507 0 0,0 0.39372606197543747,0.700394731119699 l -22.48915099393768 12.388734128296084" fill="#ffd113" stroke="none" /><path d="M 118.89224826269711 90.83032412892265 l 22.662045282002737 -10.999411341738105 a46.190382018308085,46.190382018308085 0 0,0 0.34102096453608344,0.7182771225018719 l -22.848024440380577 10.607691803595692" fill="#ffc912" stroke="none" /><line stroke="#e1ed5e" stroke-width="0.3" x1="184.98032266829074" x2="189.97916517819016" y1="98.17113171792111" y2="98.06355123074" /><path d="M 185.9800911702706 98.14961562048488 a86.0,86.0 0 0,1 -9.607161424134198,41.387399972396054" fill="none" id="id100" stroke="none" /><text fill="#e1ed5e" style="font-size:6.75px; font-family:Arial;" text-anchor="middle"><textPath startOffset="21.466115282336823" xlink:href="#id100">April</textPath></text><line stroke="#e1ed5e" stroke-width="0.3" x1="174.80103733775053" x2="179.2010983576182" y1="140.37084112569926" y2="142.7455964860345" /><path d="M 175.68104954172406 140.8457921977663 a86.0,86.0 0 0,1 -30.038265399797805,32.042727171017184" fill="none" id="id101" stroke="none" /><text fill="#e1ed5e" style="font-size:6.75px; font-family:Arial;" text-anchor="middle"><textPath startOffset="22.206326154141568" xlink:href="#id101">May</textPath></text><line stroke="#e1ed5e" stroke-width="0.3" x1="143.8653032363475" x2="146.44561519142675" y1="172.8068346515853" y2="177.08958963109032" /><path d="M 144.38136562736335 173.6633856474863 a86.0,86.0 0 0,1 -40.68145358897372,12.25698825130547" fill="none" id="id102" stroke="none" /><text fill="#e1ed5e" style="font-size:6.75px; font-family:Arial;" text-anchor="middle"><textPath startOffset="21.466115282336833" xlink:href="#id102">June</textPath></text><line stroke="#e1ed5e" stroke-width="0.3" x1="102.19456741930631" x2="102.32365962044197" y1="184.97166512339345" y2="189.96999836594603" /><path d="M 102.22038585953345 185.97133177190398 a86.0,86.0 0 0,1 -42.740103519485714,-10.115201625700543" fill="none" id="id103" stroke="none" /><text fill="#e1ed5e" style="font-size:6.75px; font-family:Arial;" text-anchor="middle"><textPath startOffset="22.20632615414155" xlink:href="#id103">July</textPath></text><line stroke="#e1ed5e" stroke-width="0.3" x1="58.666819895761336" x2="56.23545636021788" y1="174.27360380694188" y2="178.64263932499728" /><path d="M 58.180547188652646 175.14741091055294 a86.0,86.0 0 0,1 -31.652253787137756,-30.449443065178592" fill="none" id="id104" stroke="none" /><text fill="#e1ed5e" style="font-size:6.75px; font-family:Arial;" text-anchor="middle"><textPath startOffset="22.20632615414155" xlink:href="#id104">August</textPath></text><line stroke="#e1ed5e" stroke-width="0.3" x1="26.63291911575756" x2="22.317208475507996" y1="142.92168965132927" y2="145.44649492493687" /><path d="M 25.769776987707644 143.4266507060508 a86.0,86.0 0 0,1 -11.730757126820373,-40.83630448921669" fill="none" id="id105" stroke="none" /><text fill="#e1ed5e" style="font-size:6.75px; font-family:Arial;" text-anchor="middle"><textPath startOffset="21.46611528233685" xlink:href="#id105">September</textPath></text><line stroke="#e1ed5e" stroke-width="0.3" x1="15.007084014347285" x2="10.007500721073583" y1="101.09737516637583" y2="101.16192664675087" /><path d="M 14.007167355692545 101.11028546245083 a86.0,86.0 0 0,1 10.666146001902534,-42.60595125391555" fill="none" id="id106" stroke="none" /><text fill="#e1ed5e" style="font-size:6.75px; font-family:Arial;" text-anchor="middle"><textPath startOffset="22.20632615414155" xlink:href="#id106">October</textPath></text><line stroke="#e1ed5e" stroke-width="0.3" x1="26.266209847984243" x2="21.928928074336255" y1="57.711370442889674" y2="55.22380399835377" /><path d="M 25.398753493254645 57.213857153982495 a86.0,86.0 0 0,1 29.58750427330803,-30.492523968695096" fill="none" id="id107" stroke="none" /><text fill="#e1ed5e" style="font-size:6.75px; font-family:Arial;" text-anchor="middle"><textPath startOffset="21.46611528233685" xlink:href="#id107">November</textPath></text><line stroke="#e1ed5e" stroke-width="0.3" x1="56.762969772571076" x2="54.21961505331055" y1="26.818313649435495" y2="22.513508569990535" /><path d="M 56.25429882871897 25.957352633546506 a86.0,86.0 0 0,1 42.265352541879196,-11.944610805530505" fill="none" id="id108" stroke="none" /><text fill="#e1ed5e" style="font-size:6.75px; font-family:Arial;" text-anchor="middle"><textPath startOffset="22.20632615414155" xlink:href="#id108">December</textPath></text></svg>